<?xml version="1.0" standalone="no"?>
<!DOCTYPE svg PUBLIC "-//W3C//DTD SVG 1.1//EN" "http://www.w3.org/Graphics/SVG/1.1/DTD/svg11.dtd" >
<svg xmlns="http://www.w3.org/2000/svg" xmlns:xlink="http://www.w3.org/1999/xlink" version="1.1">
<metadata>
Created by FontForge 20200427 at Mon Dec 15 22:50:24 2014
 By www
Copyright (c) 2013 by Tom Chalky. All rights reserved.
</metadata>
<defs>
<font id="Swindale-Regular" horiz-adv-x="237" >
  <font-face 
    font-family="Swindale Regular"
    font-weight="400"
    font-stretch="normal"
    units-per-em="1000"
    panose-1="0 0 0 0 0 0 0 0 0 0"
    ascent="750"
    descent="-250"
    x-height="546"
    cap-height="698"
    bbox="50 -212 1169 780"
    underline-thickness="50"
    underline-position="-100"
    unicode-range="U+0020-201E"
  />
<missing-glyph horiz-adv-x="500" 
 />
    <glyph glyph-name=".notdef" horiz-adv-x="500" 
 />
    <glyph glyph-name=".null" horiz-adv-x="0" 
 />
    <glyph glyph-name="nonmarkingreturn" horiz-adv-x="200" 
 />
    <glyph glyph-name="space" unicode=" " horiz-adv-x="200" 
 />
    <glyph glyph-name="space" unicode="&#xa0;" horiz-adv-x="200" 
 />
    <glyph glyph-name="E" unicode="E" horiz-adv-x="730" 
d="M52 70q0 3 4 5t6 2l114 6q1 79 3 154q0 31 0.5 65t1 66t1 61t0.5 52v136h-122l-1 1q-1 0 -1.5 0.5t-1.5 0.5q-3 2 -3.5 5t-2.5 6v20v19q0 8 0.5 13t3.5 12q0 2 1 3q0 1 1 1h591q1 0 3 -1q4 -2 5 -3q5 -4 6.5 -11t1.5 -12v-85q0 -8 -0.5 -29t-0.5 -45t-0.5 -45t-0.5 -29
q-3 -14 -13.5 -17.5t-23.5 -3.5q-2 0 -8.5 1t-9.5 1q-5 0 -15 4l-6 6v182h-315v-204h25h41q6 0 19.5 0.5t29 0.5t29.5 0.5t19 0.5v62l2 4l8 8h62q3 0 6.5 -3.5t3.5 -6.5v-223q0 -2 -3 -4t-5 -2h-64q-5 0 -7.5 6.5t-2.5 9.5v60h-165q0 -8 -0.5 -27.5t-0.5 -41.5t-0.5 -42
t-0.5 -27v-101h332l4 8v182l2 16q0 4 7 5t9 1q4 0 10.5 -0.5t12.5 -0.5t10.5 -0.5t5.5 -0.5q10 0 14.5 -5t6.5 -13v-93v-83.5t-2 -81.5q-2 -6 -6.5 -8.5t-10.5 -4.5h-37.5t-57.5 -0.5t-67 -0.5t-67 -0.5t-58 -0.5h-38h-173h-29h-35.5t-31 0.5t-15.5 1.5v68z" />
    <glyph glyph-name="F" unicode="F" horiz-adv-x="713" 
d="M52 70q0 3 4 5t6 2l113 6q1 79 3 154q1 31 1.5 65t1 66t1 61t0.5 52v140h-126q-2 0 -4 3.5t-2 5.5v18v19q0 2 1 12t3 15q0 2 1 3q0 1 1 1h591q1 0 3 -1q4 -2 5 -3q5 -4 6.5 -11t1.5 -12v-85q0 -8 -0.5 -29t-0.5 -45t-0.5 -45t-0.5 -29q-3 -14 -13.5 -17.5t-23.5 -3.5
q-2 0 -8.5 1t-9.5 1q-7 0 -15 4l-6 6v186l-4 2h-119q-22 0 -54.5 -0.5t-63.5 -1t-53 -1t-23 -1.5v-192h165v50l2 4l8 8h62q3 0 6.5 -3.5t3.5 -6.5v-223q0 -2 -3 -4t-5 -2h-64l-4 2l-6 6v87h-159v-11q0 -13 -0.5 -36t-0.5 -50.5t-0.5 -56t-0.5 -51.5t0.5 -37t1.5 -14h107
q2 0 4.5 -1t4.5 -1t2 -4v-75q-39 -1 -74 -1q-31 -1 -63 -1h-53h-90h-16h-19t-16.5 0.5t-8.5 1.5v68z" />
    <glyph glyph-name="G" unicode="G" horiz-adv-x="775" 
d="M550 58q-34 -26 -64 -38t-72 -18h-39q-34 0 -62 3t-53.5 10.5t-50.5 20.5t-52 34q-1 1 -2.5 2t-3.5 3l-4 4l-29 28l-2 4q-1 2 -4 5q-22 31 -33 64.5t-19 69.5q-5 20 -7.5 41t-2.5 41q0 39 7.5 76.5t16.5 74.5q4 14 9 27.5t10 26.5l23 45q3 6 8 13.5t10 13.5q3 2 8.5 7.5
t11.5 12t11.5 12l7.5 7.5l4 2q2 1 5 4q35 25 74 36.5t84 11.5q47 0 84 -8.5t79 -30.5l2 -2q2 -2 4 -2q2 -2 10.5 -8.5t10.5 -8.5q1 -1 2 -1q1 -1 4 -1v56l4 4h74v-254q0 -2 -1 -11t-1 -12q0 -2 -2 -2h-74q-1 5 -1 10q-1 4 -1 8.5v6.5q0 3 -0.5 11.5t-0.5 18.5t-0.5 18.5
t-0.5 11.5q-5 14 -11.5 22.5t-15.5 20.5q-37 45 -91 66q-3 2 -7.5 3t-6.5 1q-5 1 -12.5 2t-16 2t-15 2t-8.5 1h-20h-21q-26 -8 -45 -19q-22 -11 -37.5 -30.5t-26.5 -39.5q-12 -23 -22.5 -46.5t-18.5 -48.5q-9 -29 -10.5 -60t-1.5 -62q0 -35 6.5 -71t26.5 -67q15 -23 34 -41
t42 -34q28 -18 53.5 -22t59.5 -4h35q20 3 44.5 11t39.5 22q3 2 7.5 7t10 10t9.5 9.5t6 6.5l9 12q2 3 6 11t6 10t4 8t4 8q0 3 1 4q0 1 1 2v73q-5 0 -16 0.5t-23 0.5t-23.5 0.5t-15.5 0.5q-3 0 -12 1t-11 1t-3 1q-1 0 -1 1v72h280v-74l-8 -2h-82q0 -51 1 -103.5t1 -104.5
q0 -17 0.5 -34.5t0.5 -34.5h-84z" />
    <glyph glyph-name="H" unicode="H" horiz-adv-x="882" 
d="M52 70q0 3 4 5t6 2l110 4q1 12 1.5 38t1 59t1 69.5t1 69.5t1 59t0.5 39v23v20q0 3 -0.5 10.5t-0.5 16.5t-0.5 17t-0.5 10v105l-2 4h-118q-2 0 -4 3.5t-2 5.5v18v19q0 2 1 12t3 15l2 4h37t57 0.5t67 0.5t66.5 0.5t56.5 0.5h37h7q26 0 26 -23v-10q0 -5 -0.5 -13t-1.5 -15.5
t-2 -13t-2 -6.5h-136v-221l4 -6h348q1 0 3 3q1 1 1 3t1 4.5t1 4.5v157q0 5 -1 21.5t-1 21.5l-2 6l-2 4h-117q-3 0 -5.5 4.5t-2.5 6.5v53q0 2 2 5t4 3q2 2 6 3.5t6 1.5h305q6 0 9 -7t3 -12q0 -3 1 -8.5t1 -7.5v-23v-15l-4 -4h-113v-70q0 -3 0.5 -11t0.5 -17.5t0.5 -18
t0.5 -11.5v-412l107 -5q2 0 6 -4q0 -3 1 -11t1 -11v-11v-8q0 -2 -1 -9.5t-1 -9.5q0 -1 -0.5 -2t-0.5 -2q-1 -1 -1 -2h-107h-80.5t-58 0.5t-38.5 0.5q-36 0 -41 1q-3 7 -3 16q0 4 0.5 7.5t0.5 7.5v19q0 5 3 12.5t9 7.5l105 5v233h-346l-4 -4q-1 -32 -2 -62q-1 -26 -1.5 -53
t-0.5 -44v-70h126l2 -11v-49q0 -3 -1.5 -9t-4.5 -8q-10 0 -36.5 -0.5t-55.5 -0.5t-55.5 -0.5t-36.5 -0.5h-90h-16h-19t-16.5 0.5t-8.5 1.5v68z" />
    <glyph glyph-name="I" unicode="I" horiz-adv-x="454" 
d="M73 2q-9 1 -11 9t-2 16v33q0 5 4 8.5t7 5.5q1 0 2 1q2 2 4 2h22q4 0 14 0.5t20.5 0.5t20 0.5t13.5 0.5q2 6 3 13.5t1 12.5q0 15 0.5 52.5t1.5 80t2 80t1 52.5l4 121l-6 130h-107q-2 0 -3 1q-2 0 -2.5 0.5t-1.5 0.5q-2 0 -4 2q-1 1 -2 3q-1 1 -1 2q-1 1 -1 4
q-2 11 -2 16.5v18.5v16q2 7 8.5 10t13.5 3h320v-9v-12q0 -2 -0.5 -8t-0.5 -12.5t-0.5 -13t-0.5 -7.5q0 -3 -0.5 -7t-3.5 -6q-1 0 -2 -0.5t-3 -0.5q-2 -1 -4 -1h-88q-2 0 -8 -2t-9 -4l-4 -4q0 -103 -1 -203.5t-1 -203.5v-115q0 -7 6 -10q3 0 12.5 -1t12.5 -1h95
q5 -2 8.5 -5.5t3.5 -9.5v-47q0 -5 -3.5 -9t-8.5 -6h-43q-16 0 -55 0.5t-83 0.5t-83.5 0.5t-54.5 0.5z" />
    <glyph glyph-name="J" unicode="J" horiz-adv-x="505" 
d="M52 77q13 0 25 1q11 0 22 0.5t19 0.5h11q15 1 32.5 2.5t33.5 6t29 13.5t19 25q6 14 8.5 29t4.5 30v11q0 15 0.5 54t0.5 82.5t0.5 82t0.5 54.5v140q0 2 -2 5t-4 3h-200q0 19 0.5 39t3.5 40q4 4 6 4h387q2 0 6 -4v-19v-21q0 -3 -1 -14t-1 -14q0 -5 -4 -9q-5 0 -18 -0.5
t-27 -0.5t-27 -0.5t-18 -0.5q-2 0 -8.5 -1t-8.5 -1v-307q0 -9 -0.5 -32t-1.5 -48.5t-2 -48.5t-2 -32q-2 -22 -9.5 -44t-19.5 -41.5t-29 -34.5t-39 -23q-6 -2 -13 -4t-14 -2h-146q-3 0 -9.5 2.5t-6.5 7.5v66z" />
    <glyph glyph-name="K" unicode="K" horiz-adv-x="864" 
d="M60 0q-7 3 -10 10v19v17q0 2 1 7.5t1 8.5q0 2 1 4t1 4l2 4q3 3 5 4t3 1l113 6v530h-88q-8 0 -18.5 5.5t-10.5 15.5v32q0 10 3 19t14 9h315q3 0 7.5 -6t4.5 -9v-47q0 -6 -3.5 -9.5t-8.5 -5.5q-6 0 -19.5 -0.5t-29 -0.5t-29.5 -0.5t-19 -0.5q-2 0 -9.5 -1t-9.5 -1l-4 -2
q-3 -37 -3.5 -73t-0.5 -73v-31q0 -2 2 -4.5t4 -4.5l27 -26q3 -5 12 -7l2 2q2 2 5 2q8 7 22.5 18t16.5 13l84 77q6 5 21 20t31.5 32t31 32t19.5 21q-2 5 -6.5 5.5t-7.5 0.5h-60q-2 0 -4 2t-2 4v62q0 1 1 2q2 2 3 2q3 3 5 4t3 1h108t82 -0.5t59 -0.5h40l42 -1q3 -9 4 -18.5
t1 -18.5v-32q-2 -4 -6 -4h-5q-7 0 -24 -0.5t-36.5 -0.5t-36.5 -0.5t-24 -0.5q-5 -3 -11.5 -9t-11.5 -9q-3 -3 -16.5 -16t-28.5 -28t-28.5 -27.5t-16.5 -15.5l-48 -41q-9 -8 -18 -18.5t-17 -18.5q-2 -3 -10.5 -11t-18 -17.5t-18 -17.5t-10.5 -10l-7 -7l-11 -11t-11.5 -12
t-7.5 -9t-6.5 -8t-4.5 -7q8 -9 15 -16q6 -7 12.5 -13t11.5 -10q2 -1 7 -5t10 -9.5t9.5 -9.5t6.5 -5q3 -2 13.5 -13t22.5 -23t22.5 -23t13.5 -13t9.5 -8t14 -12.5t14.5 -12.5t10 -8q2 -3 9 -8.5t15.5 -11.5t16 -11.5t10.5 -8.5q6 -5 19 -12l14 -8h111q5 0 14 -5.5t9 -11.5
v-10v-10q0 -4 -1 -13t-1 -12q0 -2 -1 -5.5t-1 -5.5t-1.5 -6t-4.5 -4h-334l-4 4v62q0 3 5.5 9t8.5 6l51 3l-160 143q-2 1 -7 5t-10.5 9.5t-11 9.5t-6.5 5q-3 2 -10 8.5t-14.5 13t-14 13l-8.5 8.5v-214q0 -1 1 -1q1 -1 3 -1q1 0 2 -0.5t2 -0.5q1 -1 2 -1l109 -4l2 -3
q0 -3 1 -4l2 -2v-60q0 -2 -1.5 -5t-3.5 -3t-5 -1t-5 -1h-163q-8 0 -29.5 0.5t-46 0.5t-46 0.5t-30.5 0.5z" />
    <glyph glyph-name="L" unicode="L" horiz-adv-x="679" 
d="M168 250v46t-0.5 55.5t-1 59.5t-0.5 59q-1 67 -2 139l-3 2h-18q-5 0 -16 0.5t-23 0.5t-23.5 0.5t-15.5 0.5q-10 2 -12.5 13t-2.5 22v33q2 7 8.5 10t13.5 3h320v-9v-12q0 -2 -0.5 -8t-0.5 -12.5t-0.5 -13t-0.5 -7.5q0 -3 -0.5 -7t-3.5 -6h-64t-64 -2q-4 0 -8 -4
q1 -117 2 -214t3 -169q2 -84 3 -151l15 -2h88q2 0 13 0.5t23 0.5t23 0.5t13 0.5h56q3 0 10.5 0.5t16 0.5t16 0.5t10.5 0.5l2 6q0 1 2 9q1 3 2 7v137q0 2 1 9.5t1 12.5q0 3 3 9t8 6h57l5 -2l4 -4q1 -2 2 -3v-258q0 -1 -1 -3q-2 -4 -3 -5l-3 -3q-1 -1 -2 -1h-547q-5 0 -8.5 5
t-3.5 10v45l2 4l8 8q1 1 2 1.5t3 2.5q2 1 3 3h89v173z" />
    <glyph glyph-name="M" unicode="M" horiz-adv-x="1000" 
d="M73 0q-8 1 -10 8.5t-2 15.5v34q0 5 3.5 8.5t6.5 5.5q1 0 2 1q1 0 2 0.5t2 0.5h23h17.5t21.5 1q12 1 25 2l4 2v173q0 27 -0.5 64t-1 77t-1 79t-1 70t-1.5 50.5t-1 20.5h-19q-5 0 -16 0.5t-23 0.5t-23.5 0.5t-15.5 0.5q-10 2 -12.5 13t-2.5 22v33q2 8 11.5 11.5t15.5 3.5
h192q2 0 6 -2t6 -4t5 -4.5t3 -4.5l118 -188q2 -3 7.5 -10.5t11.5 -16t11.5 -16t8.5 -10.5l55 -87q1 -1 2 -2.5t4 -1.5q2 0 4.5 4t4.5 6q7 13 19 33t23.5 39t19.5 33t8 15l2 4q0 1 8.5 15t20 32.5t23.5 38.5t20 32q0 2 4 6t4 6q2 3 7 11.5t10.5 18.5t10.5 18.5t7 11.5
q8 9 18.5 16t24.5 7h185q5 0 11 -5t8 -10v-34q0 -11 -2.5 -21.5t-11.5 -12.5q-5 0 -16 -0.5t-23.5 -0.5t-23.5 -0.5t-16 -0.5h-9.5t-10.5 -2q-1 -72 -2 -139q0 -29 -0.5 -59t-1 -59.5t-0.5 -55.5v-46v-173l4 -2q13 -1 25 -2q11 -1 21 -1h18h22q6 0 11.5 -5t5.5 -11v-33
q0 -8 -2 -16t-11 -9q-15 0 -54.5 -0.5t-83.5 -0.5t-83 -0.5t-55 -0.5h-43q-5 2 -8.5 6t-3.5 9v47q0 5 3.5 9.5t8.5 4.5h124l4 3q1 90 2 174q0 36 0.5 74t1.5 74t1.5 69t0.5 58v11q0 7 -2 8q-3 -3 -4 -5t-2 -3q-20 -33 -40.5 -64.5t-37.5 -65.5l-140 -207l-4 -4q-2 -1 -3 -2
h-6q-4 0 -8 2q-2 3 -7 9t-5 8l-97 144q-2 2 -6 10.5t-6 10.5q-1 1 -5 6.5t-8.5 12t-8.5 11.5t-5 7q-5 7 -16.5 25.5t-25 38.5t-25 38.5t-16.5 25.5q-2 3 -4.5 6t-5.5 6v-90q0 -4 0.5 -20t1.5 -34t1.5 -34t0.5 -20v-120q0 -8 0.5 -30.5t0.5 -47.5t0.5 -47.5t0.5 -30.5
q2 -3 5.5 -3.5t5.5 -0.5t8.5 -0.5t14 -1t14 -1t8.5 -0.5h76q5 -2 8.5 -5t3.5 -9v-47q0 -5 -3.5 -9t-8.5 -6h-43h-31.5t-49 0.5t-57.5 0.5t-57.5 0.5t-49 0.5h-31.5z" />
    <glyph glyph-name="N" unicode="N" horiz-adv-x="886" 
d="M180 87q0 8 0.5 28.5t1.5 43.5t1.5 43.5t0.5 28.5v15v14q0 6 -0.5 26t-0.5 43.5t-0.5 43.5t-0.5 26v42.5v64.5t-0.5 65t-1.5 44l-116 4q-1 0 -3 1q-4 2 -5 3l-2 5q-3 11 -3.5 21.5t-0.5 21.5v16q3 13 19 13h168q7 0 14.5 -9t10.5 -14l43 -60q4 -6 13.5 -22t20 -33.5
t19.5 -33.5t13 -22l247 -349v458h-119l-4 4l-2 4v52q0 6 3 11.5t9 7.5h31.5t49 0.5t57.5 0.5t57.5 0.5t49 0.5h31.5h43q5 -2 8.5 -6t3.5 -9v-49q0 -13 -7.5 -16t-18.5 -3h-52h-25.5t-25.5 -2q-2 0 -2 -2v-4q0 -94 1 -186t1 -185v-17q0 -23 -0.5 -58.5t-0.5 -69.5
q-1 -40 -1 -82l-2 -7q-20 -2 -39 -2h-40q-2 0 -5 1t-5 3q-3 4 -8.5 9.5l-7.5 7.5l-110 136l-26 39q-1 1 -5 6.5t-8.5 11t-8.5 10.5t-5 7q-2 2 -7 10t-7 11q-2 2 -9.5 14.5t-9.5 14.5l-39 54l-21 24q-3 5 -10 15.5l-15 22.5t-15 23t-9 16l-25 43v-54q0 -2 0.5 -12t0.5 -21
t0.5 -21t0.5 -12v-272l4 -4h118q1 -1 3 -2t5 -4l1 -1q0 -1 0.5 -1.5t0.5 -1.5q0 -4 1 -5q0 -1 1 -2v-56q0 -5 -4.5 -6.5t-7.5 -1.5h-108.5h-81.5t-59 0.5t-39 0.5q-37 0 -42 1l-2 4v58q0 3 5 11t8 8h92q3 0 6.5 1t8.5 3z" />
    <glyph glyph-name="O" unicode="O" horiz-adv-x="723" 
d="M50 330q0 39 6.5 75.5t15.5 73.5q7 26 18 51t24 50q3 6 7 13t9 12l47 47q3 2 7 5q3 2 6.5 4t5.5 4q35 22 73.5 29.5t80.5 7.5q25 0 49.5 -2t49.5 -8q23 -5 48 -16.5t45 -25.5q5 -3 16 -11.5t15 -10.5q34 -26 54.5 -64.5t29.5 -80.5q6 -28 11 -56t5 -57q0 -39 -6.5 -75
t-15.5 -74q-5 -24 -15.5 -46.5t-21.5 -45.5l-4 -9q-3 -6 -7.5 -13t-9.5 -12l-47 -47q-3 -2 -7 -5q-3 -2 -6.5 -4t-5.5 -4q-37 -23 -70.5 -29t-75.5 -6h-26q-25 0 -50 2t-47 11q-33 11 -57 25.5t-50 34.5q-35 26 -55 64t-30 80q-6 28 -11 56t-5 57zM140 318q0 -35 5.5 -72
t25.5 -68q22 -33 44 -51.5t57 -32.5q22 -8 44 -13.5t45 -5.5q28 0 51.5 3.5t44 12t39 22.5t37.5 36l2 2q3 3 3 4q27 46 37 97q1 4 2 11l2 14t1.5 12t0.5 6v126q0 16 -6 31q-1 3 -3.5 11t-6 17t-6 17t-3.5 11q-12 23 -29.5 44.5t-42.5 33.5q-20 11 -40.5 19.5t-43.5 11.5h-33
q-31 0 -54.5 -2.5t-42.5 -11t-35.5 -24t-34.5 -40.5q-32 -47 -46 -106t-14 -115z" />
    <glyph glyph-name="P" unicode="P" horiz-adv-x="715" 
d="M73 -2q-9 1 -11 9t-2 16v14v21q0 2 1 6.5t1 6.5t2.5 5t4.5 3h52.5t27.5 1q11 0 12 1v7t0.5 24t0.5 51v87v146.5t-1 214.5h-18q-5 0 -16 0.5t-23.5 0.5t-23.5 0.5t-15 0.5q-10 2 -12.5 13t-2.5 22v33q2 8 11.5 11.5t15.5 3.5h416q23 0 45 -8t42 -21t36.5 -30.5t28.5 -35.5
q9 -17 14.5 -46.5t5.5 -63.5q0 -32 -5.5 -64t-18 -58.5t-32.5 -44.5t-50 -22q-8 0 -20 -1.5t-42.5 -3t-86.5 -3t-152 -2.5v-211l4 -6h126q2 0 6 -2.5t6 -4.5l1 -1q0 -1 0.5 -1.5t0.5 -1.5q0 -3 1 -4q0 -1 1 -2v-47q0 -5 -3.5 -9t-8.5 -6h-43q-16 0 -55 0.5t-83 0.5
t-83.5 0.5t-54.5 0.5zM260 386q0 -2 2 -5t4 -3l23 -2h220q2 0 5 1q6 2 8 3q2 0 4 2t4 2q26 16 34.5 45t8.5 58q0 16 -2.5 33.5t-8.5 33.5t-16.5 29t-26.5 20q-15 6 -28.5 7t-30.5 3h-124q-3 0 -15.5 -1t-17.5 -1q-4 0 -10 -0.5t-12 -0.5h-15l-4 -2q-1 -31 -1 -59
q-1 -24 -1 -49v-42v-35v-37z" />
    <glyph glyph-name="Q" unicode="Q" horiz-adv-x="722" 
d="M322 0q-25 0 -49 8t-46 17q-19 8 -34 18t-32 21q-11 8 -19.5 16t-17.5 19q-17 17 -27 40t-18 45q-13 38 -21 75t-8 78q0 31 4 61.5t11 61.5q6 29 14.5 53.5t19.5 50.5q7 15 17 28t21 25l8 9q22 25 50.5 41.5t60.5 24.5q20 5 44 6.5t44 3.5h7q23 0 45 -1.5t45 -6.5
q14 -4 27 -9l26 -10l5 -2q17 -8 31.5 -17t29.5 -20q11 -8 19.5 -16.5l18.5 -18.5q23 -25 35.5 -59t21.5 -65q8 -28 12.5 -55.5t4.5 -55.5q0 -60 -12.5 -116t-35.5 -109q-11 -25 -28.5 -46.5t-37.5 -38.5q-5 -4 -9 -7t-7.5 -5t-5.5 -4t-7.5 -4.5t-11 -5.5t-10 -6.5t-4.5 -6.5
q2 -5 5 -21.5t5 -21.5q3 -10 7.5 -22.5t4.5 -25.5v-4q0 -2 -2 -4t-4 -2l-45 -15q-2 0 -8 -3t-8 -3h-5q-8 0 -10 2l-2 4q-2 5 -5 14l-5 15l-17 58q0 3 -2 5t-4 7h-86zM141 326q0 -25 2.5 -46t7.5 -44q9 -46 37 -79q11 -13 20.5 -23t19.5 -17.5t22 -13.5t28 -12q22 -8 44 -12
t45 -4h12l4 2l-12.5 50l-6.5 26q-3 10 -3 12q0 11 11 15t18 6q3 0 16.5 3t18.5 3h4q11 0 16 -8.5t8 -18.5q1 -2 4 -11t6.5 -18.5t6.5 -18.5t4 -11q0 -2 1 -3q2 -2 3 -2q2 0 4 2.5t4 2.5q2 2 6.5 5t6.5 3l22 20q3 4 9 9.5t8 7.5t4 6t4 6q3 7 10 20.5t9 16.5q12 32 14 65t2 65
v40q0 2 -0.5 9.5t-1 16.5t-1 17t-1.5 12q-2 8 -3.5 19t-4.5 19q-1 3 -3.5 10t-6 15.5t-7 15.5t-4.5 10q-6 14 -18.5 28.5t-24.5 27.5q-11 9 -25 17t-27 14q-17 8 -36.5 13t-39.5 5q-5 0 -14.5 -0.5t-19 -1.5t-17 -1.5t-8.5 -0.5q-20 -2 -43.5 -9t-37.5 -20
q-38 -35 -57.5 -73.5t-30.5 -89.5q0 -2 -1 -7t-1 -7q-1 -6 -2 -16.5t-2 -20t-1.5 -17t-0.5 -8.5v-21z" />
    <glyph glyph-name="R" unicode="R" horiz-adv-x="802" 
d="M73 0q-9 1 -11 8.5t-2 16.5v33q0 5 4 9t7 6q1 0 2 1q1 0 2 0.5t2 0.5h22h17.5t21.5 1q12 0 25 1l4 2v173q0 27 -0.5 64t-1 77t-1 79t-1 70t-1.5 50.5t-1 20.5h-18q-5 0 -16 0.5t-23.5 0.5t-23.5 0.5t-16 0.5q-9 2 -11.5 12.5t-2.5 21.5v34q4 8 10 11q2 1 4.5 2t5.5 2
q4 1 7 2q108 1 169.5 1.5t94.5 0.5h47.5h30.5q28 0 56.5 -1t56.5 -9q40 -14 72 -42q23 -20 41 -47l2 -4q9 -23 15 -46.5t6 -48.5q0 -17 -1.5 -38t-5.5 -42t-11.5 -40t-18.5 -31q-4 -3 -10.5 -9.5l-8.5 -8.5l-18 -15q-3 -2 -3 -8l52 -202q3 -12 12 -29h89q3 0 4.5 -4.5
t2.5 -10t1 -11v-7.5v-11q0 -8 -1 -21.5t-3 -15.5h-286v73q0 1 1 2q2 2 3 2q2 0 5 1t5 1h80q0 6 -1 13t-3 14q-2 8 -8.5 29t-14 44.5t-14 44.5t-8.5 30q-2 3 -4 11t-4 10q-1 1 -3 5q-1 2 -1 3h-237v-206h123q9 0 9 -6v-62q0 -8 -6 -11h-35q-16 0 -55 0.5t-83 0.5t-83.5 0.5
t-54.5 0.5zM260 611q-2 0 -3.5 -1l-4.5 -3v-231h251q1 0 2 1q1 0 2 0.5t2 0.5q2 0 6 2t6 4q37 20 47.5 53.5t10.5 72.5q0 16 -4.5 38t-15.5 34q-4 5 -12.5 13t-10.5 10q-8 6 -19 9t-20 3h-27h-29q-10 0 -36 -0.5t-54.5 -1.5t-54.5 -2t-36 -2z" />
    <glyph glyph-name="S" unicode="S" horiz-adv-x="594" 
d="M132 27q0 -3 -1 -10.5t-1 -9.5q0 -9 -8 -9h-4q-4 0 -13 0.5t-19 0.5t-19 0.5t-13 0.5q-4 4 -4 9v280q0 3 4 4.5t6 1.5h60q3 0 10 -3.5t7 -8.5v-107q0 -1 1 -3q0 -2 0.5 -3.5t0.5 -2.5t2 -7q1 -3 2 -5q10 -24 27.5 -40t39.5 -25t46.5 -13t48.5 -4q29 0 56 4t48 16t34 33.5
t13 55.5q0 28 -5 48.5t-22 42.5q-6 8 -21 14.5t-24 9.5q-35 13 -68.5 19t-67.5 14q-2 1 -11.5 4t-21.5 6l-24 6t-19 5q-24 6 -44 24q-31 29 -41 61.5t-10 73.5q0 28 6.5 56.5t20.5 53t34.5 44t49.5 28.5q2 0 8 2t8 2q29 5 56.5 6.5t55.5 1.5q13 0 28 -0.5t30 -2.5t28.5 -6.5
t24.5 -13.5q2 8 4.5 14.5t11.5 6.5q23 0 36 -0.5t19 -0.5q7 -1 9 -1q0 -3 1 -4q0 -1 1 -2v-275q0 -5 -4.5 -7.5t-7.5 -2.5t-10 -0.5t-14.5 -0.5t-15 -0.5t-10.5 -0.5h-4q-6 0 -10 2l-6 6v89q0 19 -10 39q-11 23 -26.5 42.5t-41.5 25.5q-5 2 -13 3t-10 1h-76q-5 0 -12.5 -2
t-12.5 -4q-3 -2 -11 -5t-10 -5q-12 -7 -19.5 -19t-12 -26t-6 -29t-1.5 -27q0 -20 9 -34.5t23.5 -24.5t32 -15.5t34.5 -8.5q6 -2 29 -6t49.5 -9.5t49.5 -10t29 -5.5q2 0 14 -3t19 -5q6 -2 10.5 -4.5t9.5 -5.5q23 -15 37 -36.5t21.5 -46.5t9.5 -51t2 -50q-8 -63 -28.5 -99.5
t-50.5 -56t-67.5 -25t-77.5 -5.5q-24 0 -48.5 1t-48.5 1q-25 2 -48.5 8t-42.5 21z" />
    <glyph glyph-name="T" unicode="T" horiz-adv-x="687" 
d="M182 0q-9 1 -11 9t-2 17v36q2 7 5.5 12t11.5 5h99l2 8q0 1 0.5 13t0.5 28.5t0.5 33.5t0.5 28v155q0 4 0.5 23.5t0.5 41.5t0.5 41t0.5 24v136l-2 4h-148l-2 -6q-1 -3 -1 -8q0 -3 -0.5 -14t-0.5 -24t-0.5 -25t-0.5 -18v-51q-2 -2 -3.5 -5.5t-4.5 -3.5h-72l-2 3l-2 6
q0 7 -0.5 27t-0.5 42.5t-0.5 42.5t-0.5 28v80q4 9 12 9h496q16 2 29 2h27q16 0 18.5 -4.5t4.5 -18.5v-66q0 -9 -1 -29.5t-2 -43.5t-2 -43.5t-2 -27.5q-2 -7 -8.5 -8t-9.5 -1h-27h-27q-5 2 -8.5 4t-5.5 7q0 7 -0.5 24.5t-0.5 38t-0.5 38.5t-0.5 25q0 3 -1 11t-1 11h-103
q-8 0 -25 -1t-35 -1v-538h115q7 0 14 -4.5t7 -12.5v-47q0 -5 -3.5 -9t-8.5 -6h-44q-15 0 -54.5 0.5t-83 0.5t-83 0.5t-54.5 0.5z" />
    <glyph glyph-name="U" unicode="U" horiz-adv-x="876" 
d="M66 617q-6 0 -9 6t-5 11q0 3 -1 8.5t-1 7.5v19v16q9 12 22 12q2 0 2.5 -0.5t2.5 -0.5h315v-9v-12q0 -2 -0.5 -7.5t-0.5 -12t-0.5 -12.5t-0.5 -7q0 -3 -0.5 -7t-4.5 -6q-2 0 -5 -1t-5 -1l-113 -4v-390q0 -2 1 -18.5t3 -24.5q2 -17 14.5 -36t24.5 -28q2 -2 9 -6t10 -6
q26 -16 47.5 -23.5t53.5 -7.5q21 0 43 1.5t42.5 7t38.5 16.5t32 30q22 30 25.5 56.5t3.5 61.5v41v37.5t-0.5 57.5t-0.5 67.5t-0.5 67t-0.5 57v37.5h-39q-4 0 -14 0.5t-20.5 0.5t-20 0.5t-13.5 0.5q-11 0 -14 12.5t-3 20.5v19v16q2 5 7 8.5t10 3.5q1 0 2 -0.5t2 -0.5h321v-9
v-12q0 -2 -0.5 -7.5t-0.5 -12t-0.5 -12.5t-0.5 -7q0 -3 -0.5 -7t-3.5 -6q-23 0 -48.5 -2.5t-48.5 -5.5q-2 0 -6 -1t-6 -1q1 -26 1 -51v-51q0 -71 -1.5 -142t-3.5 -140q-1 -19 -5 -40.5t-11 -43t-17 -40.5t-23 -34q-25 -29 -65 -50.5t-77 -24.5h-39q-31 0 -61.5 1t-60.5 7
q-74 16 -127 75q-11 11 -18 26t-13 27q0 2 -2 6.5t-2 6.5q-2 3 -4 12t-2 13q-1 1 -1.5 5.5t-1 18.5t-2 41.5t-3 77t-4 123.5t-5.5 181h-97z" />
    <glyph glyph-name="V" unicode="V" horiz-adv-x="958" 
d="M50 648v19q0 5 1 12.5t3 12.5q0 2 1 3q0 1 1 1h294l25 -2q3 0 6.5 -8t3.5 -11q4 -9 4.5 -19.5t0.5 -19.5v-13l-5 -6h-103l-10 -4q13 -25 23.5 -50.5t21.5 -50.5l4 -8t6.5 -13.5t6.5 -14t4 -7.5q1 -4 5.5 -14t9 -20.5t8.5 -20t6 -13.5l109 -211q2 -2 6 -9.5t6 -10.5
l2.5 -2.5t3.5 -2.5l5 2l12 21q1 3 4.5 9t6.5 13t6 12t4 7l146 335l18 49l-123 4q-2 0 -3 3q-1 1 -1 3v13v10q0 2 1 9t1 10q0 2 1 5t1 5q0 3 3.5 11t6.5 8l25 2h294l1 -1q0 -1 0.5 -1.5t0.5 -1.5q3 -11 3.5 -21.5t0.5 -20.5v-18q-2 -8 -11 -11.5t-16 -3.5q-29 -2 -45 -3
t-24 -2q-9 -1 -11 -1q-5 -8 -8 -15.5t-6 -15.5l-17 -33q-29 -67 -57.5 -132t-53.5 -134l-103 -227l-27 -52q-2 -3 -5 -3.5t-5 -0.5h-57l-5 2q-1 1 -2 1.5t-2 2.5q-1 1 -2 3l-288 610h-99q-2 0 -4 1t-3.5 1.5t-2.5 1.5q-4 4 -4 7v20z" />
    <glyph glyph-name="W" unicode="W" horiz-adv-x="1219" 
d="M397 4q-2 4 -6 13.5t-9 20t-9.5 20t-5.5 13.5q-6 15 -19.5 46t-28 65t-26.5 63t-15 38l-47 130q-2 4 -8.5 20t-14 34.5t-14.5 34.5t-9 20q-2 2 -5 14.5t-5 14.5l-16 35q0 2 -4.5 10.5t-4.5 10.5q0 1 -1 3l-3 3l-72 4q-6 0 -13.5 3t-10.5 10v20v19q0 2 1 8.5t1 9.5
q0 1 4 9h271q16 -2 21 -3q3 -1 4 -1q8 -13 9 -28.5t1 -29.5v-11q0 -2 -1.5 -3.5l-2.5 -2.5q-42 -2 -65 -2.5t-33.5 -1t-12.5 -1t-2 -1.5q0 -2 3 -8t3 -8q2 -4 4.5 -13t4.5 -12l144 -357q0 -2 6.5 -14.5t9.5 -18.5q0 -2 3 -5t3 -5l2.5 -2.5t3.5 -2.5l3 2q2 2 4 5.5t2 5.5
l105 216q2 5 5 13t3 14v4l-39 97q-2 2 -5 14.5t-5 14.5q-1 1 -3.5 6.5t-5.5 11t-5 10.5t-3 7q0 2 -4 10.5t-4 10.5q0 1 -1 3l-3 3l-72 4q-7 0 -14.5 3t-10.5 10v20v19q0 2 1 8.5t1 9.5q0 1 4 9h272l22 -2l3 -2q8 -13 9 -28.5t1 -29.5v-11q0 -2 -1.5 -3.5l-2.5 -2.5
q-42 -2 -65 -2.5t-33.5 -1t-12.5 -1t-2 -1.5q0 -2 3 -8t3 -8q2 -4 4 -13t4 -12l144 -357q0 -2 6.5 -14.5t9.5 -18.5q0 -2 3.5 -5t3.5 -5q0 -1 2 -3l2 -2q2 0 4 2q0 2 3 5.5t3 5.5l21.5 43t32 65t31.5 65t20 43q7 15 16 36.5t19 45t19.5 47.5t17.5 43t12.5 32t4.5 15l-9 4
h-54.5t-28.5 1q-11 0 -13 1q0 1 -0.5 1.5t-0.5 1.5l-1 1v11v10q0 2 1 10t1 11q0 5 2 11t4 11l2 4q1 1 2 3l22 2q102 0 157.5 -0.5t81.5 -0.5q30 -1 35 -1q3 -6 3.5 -13t0.5 -14v-39q-2 -4 -5.5 -7.5t-6.5 -3.5h-93l-263 -608q-2 -4 -4.5 -7.5t-5.5 -3.5h-54q-7 0 -10 6
q-2 4 -6 13.5t-9.5 20t-10 20t-5.5 13.5q-6 13 -14.5 32.5t-18 42.5l-19 46t-17.5 42t-13.5 32.5t-6.5 16.5l-8 23q-4 -4 -4 -6l-123 -291q-2 -4 -5 -7.5t-6 -3.5h-53q-7 0 -11 6z" />
    <glyph glyph-name="X" unicode="X" horiz-adv-x="765" 
d="M50 17v26t2 28q0 2 2 4t5 2h78l4 4q1 1 9.5 12t18.5 24.5t20 27.5t16 22q1 2 11.5 17.5t24 36t27 41.5t21.5 33q0 2 3 5.5t3 5.5t3.5 6t3.5 6q1 1 3.5 5.5t5.5 10t6 9.5t5 6q0 1 1 2q0 1 0.5 2t0.5 2q0 2 -1 5t-3 3q-4 6 -13 21.5t-19.5 32.5t-20 32.5t-13.5 21.5
q0 2 -2 4l-2 2l-51 70q0 2 -4.5 6.5t-4.5 6.5q-1 1 -6 7.5t-11 14t-12.5 14.5t-9.5 11q-1 1 -2 2.5t-3 3.5t-3 4h-80l-8 4q-2 13 -2.5 22.5t-0.5 23.5v20q0 2 2.5 5.5t4.5 3.5h255q10 -1 15 -3q2 -1 3 -1q3 -8 4 -17t1 -18v-19v-17l-3 -2q-8 0 -15 -1t-14 -3h-36l6 -12
l103 -161q0 -1 3 -1q1 0 3 -1q0 2 3 4t3 4q4 8 17 27.5t27 41t27 40.5t18 27q5 6 7.5 13.5t6.5 15.5l-4 2q-3 0 -10 0.5t-14.5 0.5t-15 0.5t-10.5 0.5h-5.5t-6.5 1q-4 0 -8 1l-2 4v15v23v7.5t1 9.5q0 5 1 11l6 7h284q1 0 3 -4q1 -2 1 -3q2 -14 2 -23.5v-23.5v-21
q-3 0 -12 -1t-12 -1q-4 0 -14 -0.5t-21.5 -0.5t-21 -0.5t-13.5 -0.5l-7 -6q-13 -17 -24 -32q-10 -14 -19.5 -27.5t-15.5 -22.5q0 -2 -4 -6.5t-4 -6.5q-2 -3 -8.5 -11t-8.5 -12l-86 -138l6 -12q0 -1 11.5 -20.5t28 -46t34 -54.5t29.5 -46q2 -3 6 -10t6 -9q2 -3 6.5 -9
t9.5 -13t9 -12.5t6 -6.5l23 -27l6 -6l84 -4q0 -1 1 -2q0 -1 0.5 -2t0.5 -2q0 -4 1 -6q0 -3 1 -5v-22v-23l-2 -6l-5 -5q-2 -2 -3 -4h-255l-27 2q-2 0 -4 3.5t-2 5.5v64h86l8 2q-14 31 -34.5 60t-38.5 57q-11 17 -22.5 35.5t-27.5 32.5l-4 -4q-25 -45 -55 -89t-58 -86v-4h72
q0 -2 6 -6v-21v-23q0 -2 -1 -9.5t-1 -10.5q0 -2 -2 -5.5t-4 -3.5h-287l-2 5v10v0z" />
    <glyph glyph-name="Y" unicode="Y" horiz-adv-x="762" 
d="M231 42v7.5t1 9.5q0 5 1 12l4 4q6 0 10 1q4 0 8 0.5t7 0.5q4 0 14.5 0.5t22.5 0.5t22.5 0.5t14.5 0.5q2 9 2 17v18v25q0 12 -0.5 40t-1.5 60t-1.5 60t-0.5 40q-8 17 -19 32.5t-20 31.5q-2 2 -8.5 13t-14 23t-14 23t-7.5 13l-4 6l-51 70q0 2 -4 6.5t-4 6.5l-40 47
q-1 1 -2 2.5t-3 3.5t-3 4h-80q-1 0 -2 1q-1 0 -2 0.5t-2 0.5l-2 3q-2 12 -2 21.5v23.5v21q0 2 2 5t4 3h269l5 -4q2 -17 2 -35v-38q0 -1 -2 -3q-1 -1 -2 -1h-54q-1 0 -3.5 -1t-2.5 -3q0 -1 2 -5q1 -2 2 -3l103 -161q0 -1 3 -1q1 0 3 -1q0 2 3 4t3 4q5 8 17.5 27.5t27 41
t27 40.5t17.5 27q5 6 7.5 13.5t6.5 15.5l-74 4q-1 2 -1 4q-1 2 -1 5v16v19v7.5t1 9.5q0 5 1 12l6 6h284l3 -3q1 -2 1 -3q2 -14 2 -26v-26v-16l-4 -5h-92l-4 -6q-23 -29 -43 -58.5t-42 -58.5l-86 -137l-15 -28q-1 -50 -1 -97q-1 -40 -1 -82.5v-70.5l2 -4h97l2 -4l2 -4
q2 -14 2 -26v-26v-10t-2 -9h-294l-2 7v14v21z" />
    <glyph glyph-name="Z" unicode="Z" horiz-adv-x="604" 
d="M64 87q7 10 25.5 36t39 55t38.5 55t25 36q1 2 7.5 10t14 17.5t13.5 17.5t8 10q7 9 21 29.5t29 42t27 40t16 24.5l74 126q2 3 4 7.5t4 9.5l6 10v4q-15 0 -54.5 0.5t-83 0.5t-83 0.5t-54.5 0.5q-2 0 -4 -2v-22q0 -6 -0.5 -22.5t-1 -35.5t-1 -35.5t-0.5 -22.5
q0 -5 -5.5 -6.5t-8.5 -1.5h-60q-1 0 -3 1q-2 0 -3 0.5t-2 0.5q-2 2 -2 6v4q0 12 0.5 40.5t1.5 60.5t1.5 60.5t0.5 40.5q0 2 1 4.5t1 4.5q1 1 3 1t3 -1h490v-11v-23.5t-2 -23.5q-1 -1 -1 -2q-1 -1 -1 -4l-20 -40q-2 -1 -3 -2q-2 -2 -2 -4q-20 -28 -39.5 -57t-36.5 -60
l-259 -386q51 -2 103 -2h105h29h10t12 1q7 0 15 1l2 8l6 147l6 6l4 2h66q3 0 5.5 -3.5t2.5 -6.5v-153q0 -5 -0.5 -16t-0.5 -23.5t-0.5 -23.5t-0.5 -16q-2 -2 -5 -3t-5 -1h-467q-2 0 -7.5 1t-7.5 1q-1 0 -3 2q-1 1 -1 2v60q0 7 2.5 12.5t5.5 10.5z" />
    <glyph glyph-name="bracketleft" unicode="[" horiz-adv-x="319" 
d="M55 698h166q5 0 11.5 -0.5t13.5 -0.5q8 -1 17 -1l4 -5v-63q0 -3 -4 -7.5t-7 -4.5h-113q0 -5 -0.5 -15.5t-0.5 -22.5t-0.5 -22t-0.5 -14v-312q0 -8 0.5 -28.5t0.5 -44t0.5 -44t0.5 -28.5q4 0 16.5 -0.5t27 -0.5t27 -0.5t17.5 -0.5q3 0 15.5 -1t16.5 -1q2 -2 4 -4.5t2 -4.5
v-63l-2 -4l-4 -4q-2 -1 -3 -2h-197l-8 8q-2 1 -4 5q-1 2 -1 4v678z" />
    <glyph glyph-name="one" unicode="1" horiz-adv-x="492" 
d="M50 14v29t2 29q2 5 6 6.5t9 1.5h148v182v41t-0.5 62.5t-0.5 73t-0.5 73.5t-0.5 63v42h-148l-13 2v74q0 1 3 3q2 1 4 1q12 0 41.5 0.5t63.5 0.5t63.5 0.5t41.5 0.5q9 -1 16 -1q6 -1 12 -1h8v-606l2 -7h119q2 0 5 -2t5 -2l6 -6v-74h-390l-2 4v10v0z" />
    <glyph glyph-name="two" unicode="2" horiz-adv-x="604" 
d="M50 48q0 9 1 31.5t1.5 47t1.5 47t1 31.5q0 14 3 29.5t15 25.5q4 2 14.5 7t22 10.5t21.5 10t14 6.5l150 59q1 1 6.5 2.5t11.5 3.5t11 3.5t7 2.5q1 1 8.5 4.5t17 8t19.5 9t16 6.5q19 8 38 23.5t27 35.5q2 7 2 12v11q0 37 -11.5 68t-40.5 55q-14 13 -32.5 16t-35.5 5h-86
q-17 0 -33.5 -5.5t-32.5 -15.5t-29.5 -24.5t-16.5 -34.5q-3 -23 -4.5 -42.5t-1.5 -42.5l-2 -4h-17h-28h-6.5t-8.5 1q-5 0 -10 1l-6 6q-1 4 -1 8q-1 3 -1 6v5v30v30q0 14 1.5 27.5t6.5 27.5l6.5 13t8.5 12l15.5 15.5t13.5 14.5q13 11 26 18t29 15q37 18 79 22t83 4h41
q36 -5 68.5 -18t59.5 -39l17 -17l5.5 -5.5t3.5 -5.5q19 -32 27 -63t8 -68q0 -22 -1.5 -45.5t-12.5 -43.5q-16 -29 -40.5 -47t-54.5 -31q-5 -2 -22.5 -8.5t-38 -14.5t-38 -15t-22.5 -8q-22 -11 -42 -19q-7 -3 -25.5 -10.5t-38.5 -15.5t-38.5 -15t-25.5 -10q-3 0 -7 -4
q0 -3 -0.5 -11.5t-1.5 -18.5t-1.5 -18.5t-0.5 -11.5v-33v-12t2 -12h312v62q0 19 -1 38.5t-1 39.5q0 2 2.5 5t4.5 3h78q2 0 4 -3t2 -5q0 -7 0.5 -25t0.5 -37.5t0.5 -37.5t0.5 -25v-59v-38l-4 -4q-64 0 -127 -1t-128 -1h-68q-19 0 -47.5 0.5t-56 1t-47 1t-20.5 1.5v19v27z" />
    <glyph glyph-name="three" unicode="3" horiz-adv-x="600" 
d="M53 19q0 4 -0.5 13.5t-1 21t-1 21t-0.5 13.5v11v11q0 5 0.5 19t1 29.5t1 29t0.5 19.5q2 3 6.5 4.5t7.5 1.5t11.5 1t11.5 1h15h13q2 0 5 -1t5 -1l5 -2v-127h234q2 0 6 1t6 1q4 0 10.5 3.5t8.5 3.5q4 2 12 5t10 5q16 11 24 28.5t13 35.5q0 4 1 6l2 4v66q0 2 -1.5 10
t-3.5 13q-6 26 -23.5 40.5t-41.5 22.5q-1 0 -3 1q-4 2 -5 2q-5 0 -7 1q-2 0 -4 1h-156q-2 0 -5.5 0.5t-5.5 3.5v33q0 7 1 14t6 12l25 28q5 4 24 23.5t41.5 41.5t41.5 41.5t24 24.5q1 1 5.5 6t10.5 11.5t12.5 13.5t9.5 11q3 3 7 8.5t8 10.5q-11 0 -22.5 -0.5t-22.5 -0.5
q-45 0 -89.5 1.5t-89.5 1.5h-51l-8 -2q-1 -7 -1 -14q-1 -6 -1 -12v-10v-89l-2 -4q-13 0 -26 -2t-27 -2q-3 0 -12.5 1t-12.5 1v74v62t2 63q2 3 3.5 8.5t6.5 5.5h481q0 -3 1 -6q0 -2 0.5 -4t0.5 -4v-17v-19q0 -14 -8.5 -26.5t-18.5 -22.5l-179 -182q1 -1 4 -1q2 -1 4 -1h4
q40 -3 76 -13q23 -6 40 -19q44 -27 60 -71t16 -93q0 -27 -3 -57t-14 -55q-37 -85 -124 -104q-7 -2 -15 -3t-15 -1h-316q-2 0 -4 3t-2 5t-1 5.5t-1 5.5z" />
    <glyph glyph-name="four" unicode="4" horiz-adv-x="677" 
d="M267 65q0 3 4.5 11t7.5 8h95l9 2v115h-329l-4 4v27v43v8t1 10q0 6 1 13l6 9q4 4 15 16t23 25t23 24.5t15 16.5q43 46 81.5 92.5t78.5 97.5q2 2 4.5 6.5t4.5 6.5q4 5 11.5 14.5t16 19.5t15.5 18.5t9 10.5l4.5 4.5l8 8t8.5 9t7 6.5q1 1 3 2t5 4l4 2h79v-408l4 -6h133
q3 0 6.5 -2t5.5 -4q0 -3 0.5 -9t1.5 -13.5t1.5 -13.5t0.5 -9v-10q0 -17 -6.5 -20t-20.5 -3q-9 0 -22.5 -0.5l-27 -1t-23.5 -1t-11 -0.5h-38q0 -2 -0.5 -7.5t-0.5 -13t-0.5 -14t-0.5 -9.5v-47q0 -7 0.5 -13t3.5 -14h133l2 -4q2 -2 3 -5.5t1 -5.5v-63h-352v63zM136 281
q0 -4 4 -4h4l241 10v288l-6 -7q-18 -31 -39.5 -58t-44.5 -53l-7 -9q-3 -3 -9 -10l-12 -14t-11 -13t-6 -8q-27 -30 -55 -59.5t-59 -62.5z" />
    <glyph glyph-name="five" unicode="5" horiz-adv-x="594" 
d="M50 203q2 0 4 1q2 0 3 0.5t2 0.5h15h16q5 0 12 -0.5t15 -0.5q9 -1 18 -1l6 -2v-113l4 -8h215q24 0 43 13q2 0 4 2l4 4l19 19q16 19 21.5 50t5.5 54q0 33 -6.5 66.5t-26.5 59.5q-11 15 -24.5 19.5t-30.5 4.5h-251q-3 0 -11.5 0.5t-18 0.5t-18 0.5t-11.5 0.5q-2 0 -6 4
q0 13 -0.5 45.5t-1 69t-1 69t-0.5 44.5v79q0 5 4.5 10t8.5 9q15 0 52.5 0.5t79.5 0.5t79.5 0.5t52.5 0.5h194q6 0 11.5 -2t7.5 -9q0 -3 0.5 -12t0.5 -18.5t0.5 -18.5t0.5 -12v-17v-17q0 -4 -0.5 -13.5t-0.5 -19.5t-0.5 -19t-0.5 -13q-4 0 -14.5 -0.5t-21.5 -1t-21.5 -1
t-14.5 -0.5h-4h-4q-2 0 -4 2q-1 1 -1 3v82h-316v-154h232q30 0 58.5 -9t51.5 -29q1 -1 5 -4.5t8.5 -8t8 -8.5t5.5 -7l4 -4t2 -4q11 -20 17 -37.5t9 -35t3.5 -36.5t0.5 -41q0 -34 -4.5 -66.5t-18.5 -62.5q-2 -3 -4.5 -9.5t-5.5 -12.5t-5.5 -10.5t-3.5 -5.5
q-7 -13 -21.5 -26.5t-32 -24.5t-36 -18t-33.5 -7h-324l-5 4v201z" />
    <glyph glyph-name="six" unicode="6" horiz-adv-x="652" 
d="M79 165q-29 81 -29 167q0 107 45 205q11 23 26 47t36 41q1 2 6.5 6.5t11.5 10t12.5 10.5t9.5 7q9 8 21 13.5t23 10.5q11 3 20 6.5t20 5.5q34 8 67.5 9.5t67.5 1.5h91q3 0 10 -0.5t15 -1t15 -1t10 -1.5q4 0 6.5 -4.5t2.5 -6.5q0 -3 0.5 -10t0.5 -15t0.5 -15.5t0.5 -10.5
v-6v-6q-9 0 -32 -0.5t-49 -1t-49 -1t-32 -0.5q-3 0 -11.5 -0.5t-18.5 -1t-19.5 -1t-14.5 -1.5q-30 -3 -61.5 -13.5t-54.5 -30.5l-23 -23q-1 -2 -2 -3l-2 -4q-11 -22 -18 -45.5t-14 -47.5q0 -1 -0.5 -2.5t-0.5 -3.5q-1 -2 -1 -4v-9h4q6 1 19 6t27.5 11t27.5 10.5t19 6.5
q23 8 44.5 9.5t44.5 1.5h36q2 0 8.5 -1.5t10.5 -1.5q31 -5 60 -14t52.5 -24.5t41.5 -39.5t27 -57q1 -2 2.5 -8l3 -12t3 -11.5t2.5 -6.5q3 -14 3.5 -28.5t0.5 -28.5v-32q0 -2 -1 -7.5t-1 -9.5q-13 -66 -48.5 -116.5t-101.5 -71.5q-7 -2 -16 -4t-28.5 -3.5t-53 -2t-88.5 -0.5
q-28 0 -57.5 16t-55 40t-45 53t-27.5 56zM148 287q0 -24 4.5 -47t12.5 -46q3 -10 8 -22t13 -20q3 -2 8 -7.5t11 -11.5t10.5 -11t6.5 -6q17 -16 41.5 -24.5t47.5 -11.5h69q17 0 34.5 7t31.5 18q32 24 43 52.5t11 66.5q0 67 -31 113.5t-99 57.5h-28q-16 0 -32.5 -0.5
t-32.5 -5.5q-3 -1 -11.5 -3.5t-17.5 -6t-17 -6t-11 -3.5q-9 -3 -20.5 -9t-22.5 -13.5t-19.5 -17t-9.5 -20.5v-23z" />
    <glyph glyph-name="seven" unicode="7" horiz-adv-x="619" 
d="M217 21q0 35 4 70.5t10 70.5q6 40 16 79t24.5 76.5t34.5 72t48 64.5q3 3 10.5 11t16 16.5l16 16l9.5 9.5q3 2 12 10t19 16.5t19 15.5t12 9l10 10l2 5v40h-344v-161h-86v237l2 4q0 2 3 4q1 1 3 2h48.5t73.5 0.5t86 1t86 1t73.5 0.5h48.5h95v-167l-13 -13l-21 -21
q-3 -4 -12.5 -12t-12.5 -12q-2 -2 -8 -6.5t-12.5 -10t-12.5 -10.5t-7 -6l-11.5 -11.5l-18 -18l-18 -18t-11.5 -12.5q-2 -2 -7 -8.5t-8 -10.5l-26 -36q-14 -23 -25 -52q-16 -43 -25 -87.5t-9 -90.5q0 -5 -0.5 -17.5t-0.5 -27t-0.5 -27t-0.5 -17.5l-2 -10h-50t-26 1
q-10 0 -12 1q-3 4 -3 8q0 2 0.5 4.5t0.5 6.5z" />
    <glyph glyph-name="eight" unicode="8" horiz-adv-x="572" 
d="M50 194q0 48 14.5 88t44.5 77q9 13 24.5 22t29.5 18q-43 23 -64.5 55.5t-21.5 82.5q0 42 18 79.5t56 57.5q3 2 13 6.5t12 6.5q16 6 36.5 8t37.5 2h70q14 0 27 -1t27 -5q14 -5 27 -12.5t24 -17.5q32 -29 45.5 -61t13.5 -74q0 -40 -12.5 -65t-44.5 -49q-2 -2 -10 -6.5
t-11 -6.5q5 -2 19 -9.5t19 -9.5l2 -2q2 -2 4 -2q11 -8 20 -17t20 -21q23 -26 27.5 -57t4.5 -61v-34q-11 -74 -57 -121t-118 -63q-3 -2 -14.5 -3t-15.5 -1h-73q-41 1 -76 16.5t-61.5 41.5t-41.5 61.5t-15 76.5zM136 194q0 -42 18 -66t56 -35q26 -8 48.5 -11.5t48.5 -3.5h19
t19 2q51 15 73 46.5t22 69.5q0 29 -12 57.5t-33 51.5t-49.5 37.5t-61.5 14.5q-21 0 -37 -11.5t-33 -22.5q-39 -28 -63 -72q-5 -9 -10 -19.5t-5 -20.5v-17zM166 535q0 -13 2.5 -27.5t11.5 -23.5q11 -13 22 -21.5t25 -14.5q13 -7 24.5 -11t25.5 -4q11 0 20 3t18 8
q27 13 50.5 35t23.5 56q0 6 -1.5 13.5t-4.5 13.5q-10 27 -26.5 38t-43.5 17h-52q-13 0 -25.5 -1t-23.5 -5q-24 -10 -35 -30.5t-11 -45.5z" />
    <glyph glyph-name="nine" unicode="9" horiz-adv-x="651" 
d="M95 0q-4 0 -6.5 4t-2.5 6q0 3 -0.5 10.5t-0.5 15.5t-0.5 15t-0.5 10v6v7q9 0 32 0.5t49 0.5t49 0.5t32 0.5q3 0 11.5 0.5t18.5 1t19.5 1t14.5 1.5q30 3 61.5 13.5t54.5 30.5q3 4 11.5 12t11.5 12l2 2q2 2 2 4q11 20 17.5 41t12.5 43l2 9q0 3 1 6q0 2 1 5v8h-4
q-6 -2 -19 -6.5t-27.5 -10.5t-27.5 -11t-19 -6q-23 -8 -44.5 -9t-44.5 -1h-36q-2 0 -8.5 1t-10.5 1q-32 4 -60.5 13.5t-52 25t-41.5 39.5t-27 57q-1 2 -2.5 8l-3 12t-3 11t-2.5 7q-3 14 -3.5 28.5t-0.5 28.5v32q0 2 1 8t1 9q13 67 48.5 117t101.5 71q14 5 28.5 8t28.5 3h129
q11 0 21.5 -4t20.5 -9l29 -15l7 -4q4 -3 11.5 -9.5t15.5 -12.5t14.5 -11.5t8.5 -6.5q10 -8 18 -19t14 -22q16 -23 25 -52q16 -45 22 -82.5t6 -84.5v-36q-2 -43 -13.5 -87t-31.5 -82q-11 -24 -25.5 -48t-35.5 -41q-2 -2 -7 -6.5t-11 -10t-12.5 -10.5t-9.5 -7q-9 -8 -21 -13
t-23 -10q-11 -4 -20 -7.5t-20 -5.5q-34 -8 -67.5 -9.5t-67.5 -1.5h-91q-3 0 -10 0.5t-15 1t-15 1.5t-10 2zM151 477q0 -66 31.5 -113t99.5 -58h28q16 0 32.5 1t32.5 6q3 1 11.5 3.5t17.5 5.5t17 6t11 4q9 3 20.5 8.5t22.5 13t19 17t10 20.5v23q0 24 -4.5 47t-12.5 46
q-3 10 -8 22t-13 20l-36 36q-17 16 -41.5 24.5t-47.5 11.5h-69q-17 0 -34.5 -7t-31.5 -18q-32 -24 -43.5 -52.5t-11.5 -66.5z" />
    <glyph glyph-name="zero" unicode="0" horiz-adv-x="638" 
d="M50 329q0 35 4 66.5t11 65.5q6 32 15.5 60t22.5 58q5 13 12 24t15 20q3 3 7 8t8.5 10t8 9t4.5 5q1 2 4 4q2 2 4 3.5t4 3.5q30 23 65 32.5t74 9.5q48 0 93 -13q1 0 1.5 -0.5t2.5 -0.5q1 -1 3 -1q36 -17 63 -36.5t46.5 -43.5t32.5 -54.5t22 -70.5q7 -30 11 -61t4 -62
q0 -35 -4 -66t-11 -65q-8 -35 -18.5 -69t-27.5 -66q-8 -16 -21 -31t-26 -28q-17 -17 -43 -30.5t-49 -18.5q-11 -2 -25.5 -2h-25.5q-27 0 -51.5 2t-49.5 9q-3 0 -4 1q-2 0 -3 1q-36 17 -63 36.5t-46.5 43.5t-32.5 54.5t-22 70.5q-7 30 -11 61t-4 61zM128 317q0 -37 4 -76
t23 -72q18 -32 36 -50.5t51 -34.5q19 -8 38.5 -13.5t39.5 -5.5q26 0 48 4.5t45 18.5l12 9q3 1 8 6l11 11t10.5 11.5t6.5 7.5t4.5 6.5t4.5 6.5t6 12t6 13q18 38 23 84.5t5 88.5v13q0 6 -0.5 16t-0.5 21t-0.5 19.5t-0.5 11.5q0 2 -1 8.5t-1 8.5l-2 6q-8 30 -17 59t-29 53
t-48 40t-58 21h-28q-16 0 -30.5 -0.5t-28.5 -3.5q-36 -10 -58 -36.5t-39 -58.5q0 -2 -3 -10t-5 -11q-32 -90 -32 -184z" />
    <glyph glyph-name="a" unicode="a" horiz-adv-x="595" 
d="M51 229q0 2 1 5t1 5t2 8q1 3 3 5l14 15q2 0 8 3.5t9 5.5q35 14 72.5 23.5t74.5 20.5q2 0 14 4.5t17 6.5l60 19q2 0 5 2t5 2t9.5 3.5t9.5 3.5l3 10q-1 30 -1.5 48t-3 27.5t-8 13t-17.5 3.5h-151q-14 0 -21 -11.5t-10 -22.5v-64q-2 0 -3 -1q-2 -2 -2 -3l-2 -3
q-13 -2 -23 -2h-21h-26q-14 6 -16.5 21.5t-2.5 29.5v5q0 32 8.5 57.5t32.5 48.5q6 6 15.5 10.5t17.5 6.5q2 1 10 3q4 1 7 1h244q3 0 6 -1q6 -2 7 -3q23 -10 40 -35.5t17 -51.5v-364h76q4 0 7.5 -3.5t3.5 -6.5q2 -11 2 -19.5v-19.5v-23q0 -3 -2.5 -7t-5.5 -4h-172
q-2 0 -4 3.5t-2 5.5q0 3 -1.5 5.5t-3.5 5.5q-11 -5 -21 -10t-23 -7q-5 -2 -15.5 -3.5t-12.5 -1.5h-142q-2 0 -10 1.5t-11 3.5l-4 2q-2 2 -6 4q-3 1 -5 2l-13.5 13.5t-13.5 14.5q-11 13 -15.5 31t-8.5 35q-3 16 -3 36q0 9 0.5 18t0.5 18v51zM352 276q-51 -20 -87.5 -31.5
t-60.5 -18.5t-38.5 -12t-22 -10.5t-10 -12.5t-2.5 -17q0 -8 0.5 -17.5t0.5 -23.5v-6q0 -9 6.5 -18.5t16 -18t20 -13.5t18.5 -5h55q2 0 5 1q2 0 3.5 0.5t2.5 0.5q19 5 37 12.5t35 16.5q2 0 4 2q1 1 2 3l19 19q0 8 0.5 28t1 42t1 42t0.5 28v9h-7z" />
    <glyph glyph-name="b" unicode="b" horiz-adv-x="702" 
d="M245 10q-2 -1 -3 -2q-2 -2 -2 -4l-2 -3h-163v68q0 5 3.5 8t7.5 5h51q5 0 8 1q3 0 6 1v532l-91 4q-5 0 -7.5 4.5t-2.5 10.5v64q46 2 92 2h94q2 0 4.5 -2t4.5 -2v-196q35 32 70.5 42.5t81.5 10.5q40 0 75.5 -8t68.5 -28q4 -2 15.5 -10t14.5 -11q1 -1 4.5 -5t8.5 -9
l9.5 -9.5t7.5 -6.5q13 -14 23 -37t16 -48.5t9 -51t3 -44.5q0 -27 -4.5 -52.5t-10.5 -51.5q-5 -19 -15 -43t-24 -46.5t-31 -41.5t-36 -28q-20 -11 -39 -17.5t-42 -6.5h-38q-29 0 -55.5 2t-52.5 15q-17 8 -31 15.5t-28 18.5v-40zM243 231q0 -14 2 -30.5t10 -29.5q2 -3 7.5 -12
t7.5 -11l13 -15l25 -25q13 -13 31 -20t35 -12q2 -1 10 -3q4 -1 7 -1h23q23 0 43 5.5t37 22.5q23 20 39.5 42t24.5 53q4 13 4.5 25.5t0.5 25.5q0 33 -4 67.5t-15 66.5l-5 12.5t-6 10.5l-20 26t-25 23q-8 5 -18.5 11t-21.5 6h-89q-14 0 -34 -11.5t-29 -22.5q-4 -1 -9.5 -11
t-10.5 -15q-8 -11 -16 -25t-11 -28q-5 -22 -5.5 -44.5t-0.5 -46.5v-34z" />
    <glyph glyph-name="c" unicode="c" horiz-adv-x="560" 
d="M50 261q0 32 6.5 63.5t14.5 61.5q5 17 14.5 35.5t17.5 34.5q2 2 4 6.5t4 6.5q1 1 6 6.5t11 11.5l12 12t9 8q10 10 26 17q29 16 57.5 20t58.5 4q35 0 70 -8t64 -29q0 4 1 13.5t1 12.5q0 2 2 4l4 4q3 0 11 0.5t17 1t16.5 1t10.5 0.5h5h4q2 -2 5 -4.5t3 -4.5v-204
q0 -2 -1 -7.5t-1 -7.5q0 -1 -2 -3q-1 -1 -2 -1h-66l-6 6v62l-2 4q-1 2 -2 3.5t-2 3.5q-26 43 -60.5 60.5t-83.5 17.5q-15 0 -26.5 -3t-24.5 -11q-16 -10 -30 -28t-25 -40t-18.5 -44t-9.5 -40q0 -3 -1 -10t-1 -9v-70q3 -19 10.5 -42.5t21.5 -40.5l27 -27q3 -3 6 -5
q2 -2 4.5 -3.5t4.5 -2.5q14 -10 29 -15.5t33 -7.5h55q29 5 52 18t39 39q1 1 3 4.5t4 8t4.5 8.5t3.5 5q0 2 2 4t4 2h8q13 0 27.5 -5.5t23.5 -13.5l7 -7v-6q0 -11 -5 -19.5t-10 -18.5q-16 -31 -45.5 -55.5t-62.5 -33.5q-18 -5 -36.5 -7t-35.5 -2q-23 0 -45 2t-44 7q-3 0 -5 1
q-2 0 -4 1q-35 13 -62 29t-53 44q-14 15 -24 38t-16 48.5t-9 50.5t-3 45z" />
    <glyph glyph-name="d" unicode="d" horiz-adv-x="704" 
d="M50 284q0 27 4 52.5t11 51.5q3 13 7.5 26.5t11.5 24.5q20 38 55.5 62.5t75.5 38.5q21 8 45 10t44 2q47 0 82.5 -10.5t70.5 -42.5h4v196q0 5 6 5h113q34 0 72 1l2 -3v-65q0 -5 -4 -10t-9 -5l-91 -5v-531q3 -1 6 -1q2 -1 4.5 -1h4.5h51q3 -2 6.5 -5t3.5 -8v-68h-95t-49 1
q-18 0 -21 1q0 1 -0.5 2.5t-0.5 2.5q-1 1 -1 2v40q-14 -11 -26.5 -17.5t-28.5 -14.5l-7 -3q-25 -12 -52 -14t-56 -2q-22 0 -43 1t-44 8q-29 9 -49.5 27t-41.5 41q-6 8 -11 17t-10 19q-14 29 -21.5 58t-14.5 61q-3 14 -3.5 27.5t-0.5 27.5zM139 244q0 -26 3.5 -45.5t12 -36.5
t21.5 -32.5t31 -32.5q1 -1 3 -2t5 -4q10 -8 24 -14t27 -8h23q30 0 60 13t55 38t40.5 61.5t15.5 84.5q0 29 -6.5 61t-20.5 68q-11 27 -27.5 41.5t-37.5 21.5t-47 8t-56 1h-12q-11 0 -25.5 -8t-22.5 -16q-4 -2 -9.5 -8.5t-7.5 -8.5q-17 -19 -26.5 -41t-14.5 -45.5t-6.5 -47.5
t-1.5 -48z" />
    <glyph glyph-name="e" unicode="e" horiz-adv-x="560" 
d="M50 263q0 27 5.5 54t11.5 54l4 18q5 17 14.5 35t17.5 35q2 2 4.5 6t4.5 6q1 2 6 7.5t11 11.5t12 11.5t9 7.5q5 5 12 9.5t13 7.5q29 17 57.5 20.5t59.5 3.5t56.5 -4.5t47 -15t41 -27t39.5 -40.5q17 -25 27 -55q0 -4 1 -6q0 -3 1 -5v-123q0 -5 -3 -12t-9 -9
q-109 -2 -175.5 -2.5t-104.5 -0.5h-66q-1 0 -2 -0.5t-2 -0.5h-2q4 -59 23 -94t51 -55q14 -10 29 -15.5t33 -7.5h55q29 5 52 18t39 39q2 2 7.5 12.5t7.5 12.5q0 2 2 4.5t4 2.5h8q13 0 27.5 -5.5t23.5 -13.5q2 -4 4 -5q1 -1 3 -2v-6q0 -11 -5 -20l-10 -18q-16 -31 -45.5 -55.5
t-62.5 -33.5q-17 -5 -36 -7t-36 -2q-23 0 -44.5 2t-44.5 7q-3 0 -5 1q-2 0 -4 1q-35 13 -62 29t-53 44q-14 15 -24 38t-16 48t-9 50t-3 45zM150 335q13 0 46 -0.5t70 -0.5t70 -0.5t47 -0.5h42v53q0 7 -4 11q-2 2 -4.5 6.5t-4.5 6.5q-27 37 -58.5 51.5t-76.5 14.5
q-11 0 -17.5 -1t-16.5 -6q-34 -16 -49 -37.5t-30 -53.5q-3 -10 -8.5 -20t-5.5 -23z" />
    <glyph glyph-name="f" unicode="f" horiz-adv-x="511" 
d="M75 66q0 6 5.5 11.5t11.5 5.5h59v337h-84q-15 0 -17 11v21v21q0 4 1 12t1 10t3 6t5 4h91q1 29 3.5 58t11 54t25.5 45t49 31q36 12 72 12q15 0 38 -3t45 -9.5t39 -18t22 -29.5q3 -10 4 -22t1 -24v-26v-13t-2 -8h-83q0 5 -1 19t-1 19q-3 20 -18.5 29t-32.5 9q-36 0 -57 -27
q-11 -14 -13 -36.5t-2 -39.5v-22q5 0 17.5 -0.5t27 -0.5t27 -0.5t17.5 -0.5q2 0 8.5 -1t8.5 -1q4 -4 4 -6v-64q-1 0 -1 -1q-1 -1 -1 -3l-2 -3h-114v-343h63q5 0 9 -4t4 -9l2 -59l-2 -7q-17 -1 -32 -1q-14 -1 -27.5 -1h-23.5h-78h-24t-27 1q-16 0 -32 1l-2 7z" />
    <glyph glyph-name="g" unicode="g" horiz-adv-x="629" 
d="M50 -17q0 16 10.5 38.5t18.5 35.5q2 4 8.5 13.5t8.5 12.5q-22 16 -34 36t-12 47q0 42 22.5 73.5t51.5 51.5q2 2 2 4q0 6 -5.5 24t-5.5 59q0 14 5 30.5t10 30.5q3 10 9 22.5t12 20.5q14 16 29.5 25.5t36.5 18.5q23 10 48.5 11.5t48.5 1.5q19 0 34 -1t28 -5.5t25 -12.5
t26 -21v34q0 2 2.5 8.5t5.5 6.5h144q0 -31 -0.5 -47.5t-0.5 -24.5l-1 -11q-2 0 -6.5 -1t-6.5 -1q-4 0 -13.5 -0.5t-20 -1.5t-20.5 -1.5t-14 -0.5q-2 0 -5 -0.5t-5 -4.5q0 -5 -0.5 -17.5t-0.5 -27.5t-0.5 -28t-0.5 -18q0 -16 -4.5 -33t-10.5 -31q-1 -1 -3 -5.5t-4.5 -10
t-5.5 -10.5t-4 -8l-2 -4q-2 -4 -4 -6q0 -1 -3 -4q-1 -2 -2 -3l-23 -23q-5 -5 -13.5 -8.5t-16.5 -6.5q-1 0 -1.5 -0.5t-1.5 -0.5t-1.5 -0.5t-1.5 -0.5t-1.5 -0.5t-1.5 -0.5t-1.5 -0.5t-1.5 -0.5q-16 -5 -33.5 -5.5t-34.5 -0.5q-38 0 -65 6t-62 23q-20 -5 -28 -21t-8 -36
q0 -6 1 -13t7 -10l5 -2q13 -4 25 -6.5t25 -2.5q4 0 21 -0.5t36.5 -0.5t36.5 -0.5t21 -0.5q32 -1 64.5 -4.5t61 -14.5t51 -31.5t35.5 -53.5q6 -17 9 -31.5t3 -32.5q0 -38 -12 -62t-39 -48q-9 -10 -22 -16t-26 -10q-27 -8 -55 -13.5t-57 -7.5h-96q-17 0 -33.5 3t-33.5 8l-7 2
q-3 2 -15.5 5.5t-16.5 5.5q-32 11 -52.5 35t-29.5 56q0 2 -1 5t-1 5v24v23zM134 -23q0 -27 11 -43.5t38 -24.5q1 0 2 -0.5t2 -0.5q11 -3 21.5 -5.5t21.5 -2.5h125q17 0 38.5 4t35.5 13q9 7 14 21.5t5 25.5q0 16 -7 30.5t-18 26t-25 19.5t-29 11q-3 2 -15.5 4t-15.5 2
q-4 0 -12 1.5t-10 1.5h-120q-3 -1 -5 -2q-5 -2 -6 -3q-3 -2 -9 -5t-12 -7.5t-10 -9.5t-4 -9q-5 -7 -9.5 -15t-6.5 -15v-17zM191 355q0 -32 17 -50.5t47 -26.5q2 0 2.5 -0.5t2.5 -0.5q14 -3 28 -5t28 -2q20 0 33.5 5.5t22.5 16t15 25t12 31.5q0 3 1 5q0 2 1 4v19
q0 19 -2.5 28.5t-18.5 22.5q-17 16 -33.5 24t-40.5 8q-17 0 -38.5 -3.5t-35.5 -16.5q-21 -19 -31 -38t-10 -46z" />
    <glyph glyph-name="h" unicode="h" horiz-adv-x="744" 
d="M139 81h4.5t4.5 1q3 0 6 1v530l-91 5q-5 0 -9 5t-4 10v65l2 3q46 2 92.5 2h94.5q1 0 4 -3l2 -2v-225q26 24 60 39t69 20q14 2 28.5 2.5t28.5 0.5q40 0 81 -11.5t68 -43.5q9 -10 15.5 -25t11 -31.5t7 -33t2.5 -29.5l10 -278h59l2 -2q2 -2 3 -2l3 -3q1 -1 1 -2v-74h-233v68
q0 5 3.5 8t6.5 5h51q2 0 7.5 1t7.5 1v219q0 2 -0.5 9t-0.5 15t-0.5 15.5t-0.5 10.5q0 2 -1 6.5t-1 6.5q-1 1 -2.5 6.5t-4 11.5t-4 12t-2.5 8q-8 23 -28.5 37.5t-41.5 22.5q-9 3 -19.5 3.5t-20.5 0.5q-29 0 -55 -7.5t-47 -28.5l-22.5 -22.5t-21 -25t-15.5 -28t-6 -30.5
q0 -6 -0.5 -22t-0.5 -33.5t-0.5 -33.5t-0.5 -22v-82q0 -3 0.5 -10.5t0.5 -15t0.5 -14.5t0.5 -9h59q0 -1 1 -2q2 -2 3 -2l5 -5v-74h-233v68q0 5 3.5 8t6.5 5h51z" />
    <glyph glyph-name="i" unicode="i" horiz-adv-x="342" 
d="M52 79l4 2q3 0 11.5 0.5t17.5 0.5t17 0.5t11 0.5q2 0 6.5 1t6.5 1v42q0 84 -1 166t-1 166q-19 2 -37 2t-37 2v85q6 0 20.5 0.5t31.5 0.5t31.5 0.5t20.5 0.5h14h13q3 0 12 -1t11 -1q4 0 8.5 -5t4.5 -8v-448h72l2 -4q0 -1 0.5 -1.5t0.5 -1.5l-1 -1v-77q-22 -1 -42 -1
q-17 -1 -35.5 -1h-30.5h-78h-14h-16.5t-15 0.5t-7.5 1.5v77zM111 647q0 10 5 20.5t12.5 19t17.5 13.5t20 5q27 0 43.5 -18t16.5 -44q0 -24 -17.5 -38.5t-40.5 -14.5h-12q-4 0 -8.5 2.5t-6.5 4.5q-13 8 -21.5 21t-8.5 29z" />
    <glyph glyph-name="j" unicode="j" horiz-adv-x="333" 
d="M184 168v33.5t-0.5 51.5t-0.5 60.5t-0.5 60t-0.5 51.5v34q-20 2 -37.5 2t-36.5 2v85q5 0 20 0.5t31.5 0.5t31.5 0.5t20 0.5h31q8 0 18.5 -2t12.5 -13v-64t0.5 -97t0.5 -114t0.5 -114t0.5 -97v-64v-48q0 -14 -0.5 -29t-3.5 -29.5t-9.5 -27.5t-18.5 -23q-14 -11 -30 -14
t-33 -3h-121q-2 0 -5.5 2.5t-3.5 4.5v72l3 4q3 3 5 4t3 2h85q10 0 21 7q13 8 15 21t2 28v212zM169 647q0 10 5 20.5t12.5 19t17.5 13.5t20 5q27 0 43 -18t16 -44q0 -24 -17 -38.5t-40 -14.5h-13q-3 0 -7.5 2.5t-6.5 4.5q-13 8 -21.5 21t-8.5 29z" />
    <glyph glyph-name="k" unicode="k" horiz-adv-x="683" 
d="M139 81h4.5t4.5 1q3 0 6 1v530l-91 5q-5 0 -9 5t-4 10v65l2 3q47 2 93 2h94l3 -3q1 -1 1 -2v-424l19 17l10 10l22.5 22.5t29.5 30t32.5 33.5t31 32t24.5 25q4 3 12 12.5t10 12.5h-53l-1 1q-1 0 -2 0.5t-2 0.5l-3 3q-1 1 -1 2v74h233v-68q0 -5 -3.5 -8t-6.5 -5h-51
q-3 0 -6.5 -1t-8.5 -3l-25 -32l-15 -15t-25.5 -26t-25.5 -26.5t-15 -15.5q-5 -6 -14 -16.5t-9 -12.5q0 -1 8.5 -14.5t20 -32t23.5 -37.5t20 -31q1 -2 7 -10.5t13.5 -19t14.5 -20t11 -14.5q2 -2 7.5 -8.5t11.5 -14.5t12.5 -16t9.5 -12l8 -8h57q0 -1 1 -2q2 -2 3 -2
q1 -1 2 -1.5t2 -1.5t1 -2v-74h-233v68q0 3 3.5 9t6.5 6h49l-119 173q-24 -23 -50 -46t-49 -46v-15v-17q0 -3 0.5 -10.5t0.5 -15t0.5 -14.5t0.5 -9h59q0 -1 1 -2q2 -2 4 -2l3 -3q1 -1 1 -2v-74h-233v68q0 5 3.5 8t6.5 5h51z" />
    <glyph glyph-name="l" unicode="l" horiz-adv-x="360" 
d="M139 81h4.5t4.5 1q3 0 6 1v530l-91 5q-5 0 -9 5t-4 10v65l2 3q46 2 92 2h94l3 -3l2 -2v-615h59q0 -1 1 -2q2 -2 3 -2l3 -3q1 -1 1 -2v-74h-233v68q0 5 4 8t7 5h51z" />
    <glyph glyph-name="m" unicode="m" horiz-adv-x="973" 
d="M124 87q1 1 2.5 19.5t2.5 43t1.5 49.5t0.5 41v204l-2 27h-72l-1 1q-1 0 -2 0.5t-2 0.5l-2 3v65l2 5l3 2q59 0 90.5 -0.5t46.5 -0.5q18 -1 21 -1q0 -2 1 -6.5t1 -6.5q0 -3 1.5 -17t1.5 -17q19 17 41.5 30.5t49.5 18.5q10 2 19.5 2h17.5q34 0 59.5 -8t45 -21t33.5 -29.5
t24 -32.5q6 5 10 13t11 14q27 29 60 47.5t73 18.5q14 0 32.5 -2.5t36.5 -7.5t35 -12.5t28 -17.5q1 -2 5.5 -6.5l9.5 -9.5l9.5 -9.5l6.5 -6.5l2 -2q3 -3 3 -5q8 -16 14 -33t9 -34v-62q0 -67 -3 -132t-3 -131h72l4 -7v-74h-233v68q0 2 2 7.5t4 5.5h62l2 6q0 1 1 19.5t2 43
t2 49.5t1 41v140q-3 42 -30 65.5t-69 23.5q-30 0 -53.5 -13.5t-40 -34.5t-27 -47.5t-15.5 -52.5q-1 -12 -2 -42t-2 -63.5t-2 -63.5t-2 -42v-29h72l4 -7v-74h-233v68q0 2 2 7.5t4 5.5h62l2 6q0 1 1 19.5t2 43t2 49.5t1 41v140q-3 42 -30 65.5t-69 23.5q-28 0 -48.5 -10
t-35.5 -27t-24 -39t-15 -47q-1 -14 -2 -47t-2.5 -70.5t-2.5 -71t-2 -47.5v-29h72l4 -7v-74h-232v68q0 2 2 7.5t4 5.5h61z" />
    <glyph glyph-name="n" unicode="n" horiz-adv-x="708" 
d="M124 87q1 1 2 19.5t2 43t1.5 49.5t0.5 41v204l-2 27h-72l-1 1q-1 0 -1.5 0.5t-1.5 0.5l-2 3v65q0 1 4 7h159l4 -81q10 10 24 21.5t30 20.5t32.5 15.5t30.5 8.5q3 0 13 1t12 1h26q22 0 41 -2.5t39 -10.5q3 -2 16 -6.5t16 -6.5l12 -6t11 -8q3 -4 12.5 -13.5t13.5 -12.5
q6 -6 11.5 -17l9.5 -19q14 -33 16.5 -69t2.5 -71q0 -53 -2 -106t-2 -106h72l4 -7v-74h-233v68q0 2 2 7.5t4 5.5h62l2 6q0 1 0.5 15t1.5 33.5t1.5 39.5t0.5 33v104q0 17 -3 41t-10 40q-2 5 -5.5 8.5t-6.5 8.5q-23 24 -49.5 31t-58.5 7h-28q-30 -3 -52 -21t-41 -38
q-10 -10 -16.5 -24t-11.5 -25q-1 -13 -2 -45.5t-2 -69.5t-1.5 -69.5t-0.5 -45.5v-29h72l4 -7v-74h-233v68q0 2 2.5 7.5t4.5 5.5h61z" />
    <glyph glyph-name="o" unicode="o" horiz-adv-x="608" 
d="M50 265q0 50 13.5 97t37.5 92q2 2 4 6.5t4 6.5q3 2 8.5 8t12 12t12 12t7.5 8q4 4 10 7.5t10 5.5q33 17 61 22.5t66 5.5q52 0 96 -12t86 -46q18 -15 34 -34q25 -35 35.5 -82.5t10.5 -91.5q0 -49 -13.5 -96t-37.5 -92q-2 -2 -4 -6.5t-4 -6.5q-2 -3 -8 -8.5t-12 -12t-12 -12
t-8 -8.5q-4 -3 -10 -6.5t-9 -5.5q-21 -11 -42 -18.5t-45 -7.5h-87q-23 0 -43.5 7t-41.5 17q-29 14 -57 36t-42 53q-32 70 -32 150zM135 251q0 -29 5 -54.5t16.5 -47t31 -38t48.5 -26.5q16 -6 33.5 -10.5t34.5 -4.5q34 0 59 8t51 28q20 16 31.5 37t17.5 44t8 48t2 50
q0 7 0.5 13t0.5 13q0 8 -1 15.5t-4 15.5l-12 38q-8 21 -23.5 38t-35.5 29t-43 18t-45 6q-36 0 -64.5 -7t-54.5 -36q-32 -36 -44 -83.5t-12 -93.5z" />
    <glyph glyph-name="p" unicode="p" horiz-adv-x="704" 
d="M154 463q-3 0 -6 1q-2 0 -4.5 0.5t-4.5 0.5h-50q-4 2 -7.5 5t-3.5 8v68h163l2 -3q0 -2 2 -4l2 -2v-40q14 11 28 18.5t32 15.5q26 13 52.5 15t55.5 2q22 0 43 -1t43 -8q29 -10 50 -27.5t42 -40.5q6 -8 11 -17t10 -19q14 -29 21.5 -58t14.5 -61q3 -14 3.5 -27.5t0.5 -27.5
q0 -27 -4 -52.5t-11 -51.5q-3 -13 -7.5 -26.5t-11.5 -24.5q-20 -38 -55.5 -63t-75.5 -39q-21 -6 -45 -8t-44 -2q-47 0 -82.5 10.5t-70.5 42.5v-144h94q2 0 4 -3.5t2 -5.5q2 -16 2 -29.5v-27.5v-19l-6 -7h-284q-1 0 -2 1q-1 0 -2 0.5t-2 0.5l-3 2v68q0 5 4 10t9 5l91 5v560z
M245 272q0 -35 3 -62.5t23 -58.5q16 -26 33.5 -44t46.5 -26q1 0 4 -0.5t13.5 -1t30 -1t52.5 -0.5q11 0 26.5 9t21.5 15q4 2 9.5 8.5t7.5 8.5q17 19 26.5 41t14.5 45.5t6.5 48t1.5 48.5q0 25 -3.5 44.5t-12 36.5t-21.5 32.5t-31 32.5q-1 1 -3 2t-5 4q-13 11 -30 16t-36 5
q-27 0 -56.5 -9.5t-54 -26t-42 -38t-21.5 -46.5q-1 -3 -1.5 -8.5t-1 -11.5t-1 -11.5t-0.5 -7.5v-34v-10z" />
    <glyph glyph-name="q" unicode="q" horiz-adv-x="704" 
d="M355 -182v19q0 14 0.5 27.5t2.5 29.5q0 2 2 5.5t4 3.5h93v144q-35 -32 -70.5 -42.5t-81.5 -10.5q-40 0 -75.5 7.5t-68.5 28.5q-4 2 -15.5 10t-14.5 11l-30 30q-14 14 -23.5 37t-15.5 48.5t-9 50.5t-3 44q0 27 4.5 52.5t10.5 51.5q5 20 11.5 36.5t14.5 33.5l9.5 19
t11.5 17q2 3 8 8.5t12 12t12 12t8 8.5q3 3 9.5 6.5t9.5 5.5q20 11 39 17.5t42 6.5h38q29 0 55.5 -2t52.5 -15q17 -8 31 -15.5t30 -18.5v40q0 1 1 2q0 1 0.5 2t0.5 2l2 3h163v-68q0 -5 -3.5 -8t-6.5 -5h-51q-2 0 -4.5 -0.5t-4.5 -0.5q-3 -1 -6 -1v-560l91 -5q5 0 9 -5t4 -10
q0 -26 -0.5 -40t-0.5 -21l-1 -9q-1 0 -2 -0.5t-2 -0.5q-1 -1 -2 -1h-284zM139 302q0 -34 4 -68t15 -66l5 -12.5t6 -11.5l20 -26t25 -22q8 -5 18.5 -11t21.5 -6h89q14 0 34 11.5t29 22.5l19 25q8 11 16.5 25t11.5 28q5 23 5.5 45.5t0.5 45.5v34q0 14 -2.5 30.5t-10.5 29.5
q-2 3 -7 12t-7 11l-13 15l-25 25q-13 13 -31 20t-35 12q-2 1 -10 3q-4 1 -7 2h-21q-24 0 -45 -6t-38 -22q-22 -21 -38.5 -43t-24.5 -53q-4 -13 -4.5 -25.5t-0.5 -24.5z" />
    <glyph glyph-name="r" unicode="r" horiz-adv-x="558" 
d="M53 79l4 2q3 0 11 0.5t17.5 0.5t17.5 0.5t11 0.5q2 0 6.5 1t6.5 1v42q0 84 -1 166t-1 166q-20 2 -37.5 2t-37.5 2v85q6 0 20.5 0.5t31.5 0.5t31.5 0.5t20.5 0.5h15h13q3 0 12 -1t11 -1q3 0 8 -5t5 -8v-38q2 3 12 11.5t13 11.5q10 8 26 14.5t29 8.5q10 2 26.5 4.5
t18.5 2.5h129l30 -4q5 0 5.5 -7t0.5 -10v-5q0 -8 -0.5 -21t-0.5 -25.5t-0.5 -22.5t-0.5 -11v-10q0 -7 -1.5 -13t-7.5 -11h-27h-30q-3 0 -11 2t-8 8v36h-40q-11 0 -26 -2t-25 -4q-40 -8 -63 -26t-41 -55l-5 -12.5t-3 -12.5v-257h72v-3t0.5 -10.5t1 -25t0.5 -46.5
q-22 -1 -42 -1q-17 -1 -35.5 -1h-30.5h-78h-14h-16.5t-15 0.5t-7.5 1.5v77z" />
    <glyph glyph-name="s" unicode="s" horiz-adv-x="545" 
d="M133 17q0 -2 -2 -6.5t-2 -6.5q-2 -2 -5.5 -2h-5.5h-6h-16.5t-18.5 1q-11 0 -22 1l-3 3q-1 42 -1 81q-1 33 -1 68v58v11q0 7 2.5 11t10.5 4h57q8 0 12.5 -6.5t4.5 -12.5q0 -14 -1 -29.5t-1 -30.5q0 -35 30 -59q2 -2 6 -4t6 -4q27 -15 50.5 -20.5t53.5 -5.5q27 0 51 3.5
t47 19.5q29 20 29 58q0 18 -6 38q-8 24 -30 34t-44 17q-6 1 -21.5 3.5t-32.5 6t-31.5 6.5t-20.5 5q-2 0 -10.5 2t-19.5 5t-22.5 5.5t-17.5 4.5q-10 2 -18.5 8t-15.5 11q-27 23 -34.5 49t-7.5 59q0 61 38 106q10 11 23 18.5t26 13.5q16 8 37.5 10.5t38.5 2.5h91
q7 -2 14.5 -3.5t12.5 -4.5q3 -2 6 -3q2 -2 4.5 -2.5t4.5 -1.5l4 -2h5q0 3 0.5 8t5.5 7q2 0 7.5 1t7.5 1h27h28q6 0 6 -8v-219q0 -2 -4 -6q-11 -2 -22 -2.5t-22 -0.5h-26q-3 2 -5.5 4t-2.5 7v72q0 3 -1 6q-2 4 -4 7q-9 21 -19.5 34t-23.5 19.5t-30 8.5t-39 2h-32
q-33 -5 -51 -26t-18 -55v-13q0 -2 1 -5t3 -5q11 -18 28.5 -26.5t36.5 -12.5l155 -27q2 0 12.5 -2t15.5 -4q16 -4 26.5 -13.5t21.5 -20.5q10 -11 16 -26t9.5 -31.5t5 -32.5t1.5 -29q0 -26 -5 -50t-22 -44q-4 -3 -12.5 -11.5l-11.5 -11.5q-22 -21 -53.5 -27.5t-60.5 -6.5h-114
q-20 0 -38.5 4t-36.5 11q-2 0 -4 2t-4 2z" />
    <glyph glyph-name="t" unicode="t" horiz-adv-x="385" 
d="M54 494l-4 4v79l1 1q0 1 0.5 1.5t0.5 2.5l2 4h50v102q0 2 3 5t5 3h88l4 -5v-105h131v-92h-131q0 -12 -0.5 -41.5t-0.5 -62.5t-0.5 -62t-0.5 -41v-119q0 -3 0.5 -10t0.5 -15t0.5 -15t0.5 -10q1 -10 6.5 -15.5t13 -8.5t16.5 -3.5t17 -0.5q4 0 15 -0.5t23 -0.5t22.5 -0.5
t15.5 -0.5l2 -3v-85h-112q-8 0 -21.5 4t-20.5 8q-14 5 -30 13t-25 22q-2 2 -7 13t-7 16q-4 11 -7 22.5t-3 22.5v373h-48z" />
    <glyph glyph-name="u" unicode="u" horiz-adv-x="710" 
d="M492 70q-10 -11 -24 -22t-30 -20t-32.5 -16t-30.5 -8q-3 0 -13 -1.5t-12 -1.5h-26q-23 0 -41.5 2.5t-39.5 10.5l-31 13q-7 3 -13 6.5t-11 8.5l-25 25q-7 7 -12.5 18t-8.5 19q-15 33 -17.5 69t-2.5 71q0 53 2.5 111.5t2.5 112.5h-73l-4 4v75h162q0 -66 -1.5 -135.5
t-1.5 -135.5v-51q0 -17 3.5 -41t9.5 -40q2 -5 6 -8.5t7 -8.5q23 -24 49.5 -31t58.5 -7h28q30 3 52 21t41 38q10 10 16.5 24t11.5 25q1 13 2 47t2 72.5t1.5 72.5t0.5 47v32h-72l-4 4v75h163q0 -91 -3 -185.5t-3 -185.5v-83l2 -15h62q3 0 10 -2t7 -9v-63l-3 -3l-4 -2h-146
q-2 0 -6.5 1.5t-4.5 5.5l-4 64v0z" />
    <glyph glyph-name="v" unicode="v" horiz-adv-x="775" 
d="M76 476q-3 0 -9 1t-8 1q-5 2 -7 7t-2 10v7q0 5 1 16.5t1 13.5q0 3 1 5t2 3l6 6h223l25 -2q1 -1 3 -2l4 -4q3 -5 4.5 -13t1.5 -13v-17v-12l-6 -7h-81q63 -140 104 -223t51 -100l11 -15q0 2 3 5t3 5q1 4 4.5 11l7 14l6 12t3.5 6l121 277v8h-89l-6 7v10v15q0 2 1 7.5t1 7.5
q0 3 3.5 12t6.5 9l26 2h223q3 0 5.5 -3.5t2.5 -6.5q0 -2 1 -9.5t1 -9.5v-13v-13q-2 -8 -10 -11.5t-15 -3.5q-3 0 -11 -0.5t-17.5 -0.5t-17.5 -0.5t-11 -0.5q-2 -2 -5 -9t-7 -14.5t-7 -14t-5 -9.5q-2 -2 -6 -13t-9.5 -24t-10 -24t-6.5 -13l-16 -36q-2 -4 -8 -19l-13 -32.5
l-13 -32.5t-7 -19q-2 -6 -11 -25t-19.5 -42.5t-20.5 -45t-15 -31.5q-2 -4 -6 -13.5t-9.5 -19.5t-10 -19t-5.5 -12q-4 -6 -10 -7.5t-11 -1.5h-18q-9 0 -19 1.5t-13 7.5l-216 457q0 2 -2 5.5t-4 5.5l-3 2h-61z" />
    <glyph glyph-name="w" unicode="w" horiz-adv-x="945" 
d="M107 474q-5 0 -19 1t-19 1q-3 0 -8 1t-7 3q0 2 -2 4.5t-2 4.5v13v13q0 3 1 12t1 11t2 5t4 3h175l19 -2q5 0 6.5 -7.5t1.5 -9.5q2 -11 2 -17v-17v-10l-6 -7h-51l119 -323q12 31 27 63l88 254v8h-35.5t-18.5 1q-7 0 -8 1q0 2 -2 4.5t-2 4.5v13v13q0 3 1 12t1 11t2 5t4 3
h174l19 -2q5 0 7 -7.5t2 -9.5q2 -11 2 -17v-17v-10l-4 -5h-60q0 -9 4 -19.5t7 -20.5q5 -12 16.5 -42.5t24 -64t24 -64t16.5 -42.5q2 -2 5 -16t5 -16t4.5 -8.5t2.5 -8.5t2 -5.5t4 -5.5l100 281q2 4 4 12t2 10v8h-53l-4 4v43q0 1 1 3q0 2 0.5 3t0.5 3q0 3 1 4q0 1 1 2q0 2 2 4
l2 2l22 2q66 0 101 -0.5t52 -0.5q19 -1 23 -1q3 -5 3.5 -10.5t0.5 -11.5v-33q-2 -7 -7.5 -10t-11.5 -3q-5 0 -18 -1t-18 -1q-2 -2 -4.5 -5.5t-2.5 -5.5q-4 -9 -13 -32t-19 -49t-19 -49.5t-12 -33.5t-10 -29.5t-15.5 -45t-18 -53t-18.5 -53t-15.5 -45.5t-9.5 -29l-13 -32
q-2 -5 -5 -10t-10 -5h-36q-1 0 -2 1t-2 1.5t-2 1.5l-3 3l-14 29l-113 284q0 2 -2.5 5t-5.5 3l-115 -300q0 -2 -5 -10t-8 -11q-3 -5 -7.5 -6t-9.5 -1h-17q-6 0 -10.5 1.5t-8.5 7.5q-8 18 -12.5 31t-10.5 30.5t-16 44.5t-28.5 73t-47 116t-72.5 173z" />
    <glyph glyph-name="x" unicode="x" horiz-adv-x="623" 
d="M50 59q0 2 2.5 5t6.5 3h59l4 5q1 1 6.5 8t12 16t13.5 18t11 15l74 113q0 2 4.5 7.5t4.5 7.5q4 4 6 10t6 11l-2 4q-2 4 -9 15.5t-15.5 25t-16 25.5t-10.5 17q0 3 -2 5l-2 2q-5 6 -12.5 16.5l-15 21t-13 18t-6.5 8.5q-4 4 -9 10t-9.5 12t-8 10.5t-4.5 5.5q-3 0 -11 0.5
t-16 0.5t-16 0.5t-11 0.5q-2 0 -7 1t-7 1l-5 5q0 3 -1 12.5t-1 12.5v15v13l2 4q1 1 1.5 2t2.5 2q1 1 3 2h191q16 -2 21 -3q3 -1 4 -1q5 -10 5 -26v-33q-3 -5 -11 -5h-6q-4 0 -8 -0.5t-9 -0.5q-5 -1 -11 -1l-4 -2l76 -119l4 -4q4 5 13.5 19.5t20 30.5t19.5 30t13 20l13 23
l-55 4v56q0 2 1.5 6t4.5 4l28 2h193q6 0 8.5 -3.5t2.5 -8.5v-51l-3 -3q-3 -1 -7 -1q-3 -1 -6.5 -1h-5.5q-3 0 -10.5 -0.5t-15.5 -0.5t-16 -0.5t-11 -0.5l-4 -4q-2 -2 -10 -13t-18.5 -25.5t-21 -29.5t-16.5 -24l-13 -19.5t-18.5 -29.5t-18 -29.5t-11.5 -19.5l-3 -6l3 -4
l42 -68q21 -34 42.5 -69.5t50.5 -62.5q17 -2 32.5 -2.5t31.5 -2.5q5 -3 6 -10t1 -15v-11q0 -5 -0.5 -11.5t-2.5 -9.5q-2 -2 -4 -5.5t-4 -3.5h-221l-8 9v53l4 4h66l-2 5q-3 3 -6.5 8.5t-7 11.5t-6 10.5t-2.5 5.5q-2 2 -8.5 11.5t-14.5 21.5t-16 23.5t-12 17.5q-3 4 -7.5 10.5
t-6.5 6.5q-16 -23 -30 -45q-12 -19 -25.5 -38.5t-21.5 -33.5q0 -2 -3 -5t-3 -5l53 -5l4 -4v-11v-20t-2 -22q0 -2 -2 -5.5t-4 -3.5h-230v58z" />
    <glyph glyph-name="y" unicode="y" horiz-adv-x="775" 
d="M226 -94q11 3 21 6.5t21 10.5q21 11 38 34.5t28 43.5l13 26q0 3 1 4q0 1 1 2q-1 1 -1 3q-1 1 -1 4l-202 426q0 2 -2.5 5.5t-5.5 6.5h-62q-3 0 -9 1t-8 1q-5 2 -6.5 7.5t-1.5 10.5v6q0 5 1 16.5t1 13.5q0 3 1 5q0 2 1 3t2 1.5t2 2.5q1 1 2 3h223l26 -3l6 -6
q3 -5 4.5 -12.5t1.5 -12.5v-17v-13l-6 -7h-81q63 -140 104 -223t51 -100l11 -15q0 2 3 5t3 5q1 4 4.5 11l7 14l6 12t3.5 6l121 277v8h-89l-6 7v10v15q0 2 1 7.5t1 7.5q0 3 3.5 12t7.5 9l25 3h223q3 0 6 -4t3 -7q0 -2 1 -9.5t1 -9.5v-13v-13q-2 -8 -10.5 -11.5t-15.5 -3.5
q-3 0 -11 -0.5t-17.5 -0.5t-17.5 -0.5t-11 -0.5q-2 -2 -5 -9t-6.5 -14.5t-7 -14t-5.5 -9.5q-2 -2 -6 -13t-9.5 -24t-10 -24t-5.5 -13l-17 -36q-2 -4 -8 -19t-12.5 -32.5t-12.5 -32.5t-8 -19q-4 -9 -12 -28t-18.5 -43t-22 -50t-22 -50t-19 -43t-12.5 -28q-16 -35 -38 -63.5
t-51 -56.5q-10 -8 -26 -18t-29 -13q-3 -2 -12.5 -3.5t-11.5 -1.5h-89v88h60z" />
    <glyph glyph-name="z" unicode="z" horiz-adv-x="554" 
d="M56 57l6 13q1 1 14 17.5t31 39.5t37 46.5t31 38.5l40 47l81 106q1 3 9.5 15t18.5 27l20 30l16 24q2 2 6 10l6 12h-235q0 -4 -1 -15.5t-1 -14.5q0 -5 -0.5 -16t-0.5 -23.5t-0.5 -23.5t-0.5 -16l-7 -6h-72q-2 0 -3 2t-1 4v4q0 10 0.5 33.5t1.5 50t1.5 50t0.5 32.5q0 3 4 7
h33.5t50.5 0.5t59.5 0.5t59.5 0.5t50.5 0.5h33.5h93h60l4 -4v-15v-19.5t-2 -19.5q-1 -1 -2 -3q-2 -4 -2 -5q-4 -5 -11 -16.5t-9 -13.5q-2 -3 -10 -12.5t-11 -13.5l-265 -357l-4 -7q9 0 31 -0.5t47 -0.5t47.5 -0.5t31.5 -0.5h19h15h10.5t12.5 1q7 0 15 1l6 120l9 8h66
q3 0 4.5 -3t3.5 -5v-141q0 -5 -0.5 -12t-0.5 -13q-1 -7 -1 -15l-4 -4q-25 -1 -49 -1q-20 -1 -42.5 -1h-36.5h-178h-36t-43 1q-25 0 -51 1l-6 6v49z" />
    <glyph glyph-name="exclam" unicode="!" horiz-adv-x="205" 
d="M50 22q0 3 0.5 11.5t0.5 18t0.5 18t0.5 11.5q3 3 8.5 3.5t8.5 0.5q1 0 7 0.5t12 0.5t11.5 0.5t7.5 0.5t8.5 1t8.5 1h12h5.5t5.5 -2v-80q0 -2 -3.5 -4t-5.5 -2h-84l-4 4v6v11zM52 694l4 4q33 0 51.5 -0.5t27.5 -0.5l12 -1q0 -2 1 -4.5t1 -4.5q1 -11 2 -39.5t2 -60.5
t1.5 -60.5t0.5 -39.5v-97q0 -12 -0.5 -41.5t-0.5 -63.5t-0.5 -63.5t-0.5 -41.5h-97z" />
    <glyph glyph-name="dollar" unicode="$" horiz-adv-x="579" 
d="M258 -41q-2 0 -6.5 2.5t-4.5 4.5v29q-2 0 -8 0.5t-12.5 0.5t-12.5 0.5t-9 0.5q-5 0 -18.5 2t-16.5 2q-8 2 -19 5t-19 8q-3 3 -14.5 11.5t-15.5 11.5q-17 14 -27.5 34.5t-20.5 39.5q-3 6 -3.5 9t-0.5 10q0 5 3.5 9t8.5 6q7 3 20.5 8.5t15.5 5.5q3 2 11 4.5t10 2.5h7
q9 0 13 -11.5t8 -18.5q11 -22 26 -33t39 -17q5 -2 14 -4.5t11 -2.5h4q1 0 2 -0.5t3 -0.5q4 0 4 3q0 8 0.5 27.5t1.5 40.5t1.5 40t0.5 27v66v10.5v13.5t-0.5 12.5t-1.5 7.5l-95 25q-13 3 -22.5 9t-19.5 14q-32 29 -42.5 60.5t-10.5 76.5q0 27 7 54.5t20.5 51.5t34 43t48.5 28
q2 0 8.5 2t8.5 2q3 1 11.5 2t17.5 2t17.5 2.5t11.5 2.5l3 2q-2 8 -2 12q0 16 16 17q1 0 7.5 0.5t14 1.5t14.5 1.5t10 0.5h5q11 0 14 -8q0 -3 1.5 -11.5t1.5 -11.5l4 -4q13 -2 27.5 -4t26.5 -7q32 -14 53.5 -42.5t35.5 -58.5q9 -16 12 -38q-17 -10 -36.5 -17t-38.5 -12h-3h-4
q-4 10 -11 25t-17 28.5t-22 23t-25 9.5v-124q0 -5 0.5 -17t0.5 -25.5t0.5 -25.5t0.5 -17l6 -2q2 -1 12.5 -3t22 -4t22 -4t12.5 -3q5 -2 17 -4.5t15 -4.5q2 0 6.5 -2t6.5 -4q24 -14 38.5 -35.5t22 -46t10 -51.5t2.5 -52v-36q-5 -40 -27 -72t-55 -55q-23 -16 -52.5 -19.5
t-56.5 -5.5v-27q0 -5 -8.5 -8t-10.5 -3q-3 0 -12 0.5t-19 0.5t-18.5 0.5t-11.5 0.5zM336 242q0 -10 0.5 -33t0.5 -49.5t0.5 -49.5t0.5 -33q3 0 11.5 2t11.5 2t5 1t3 2q35 11 53.5 36.5t18.5 62.5q0 25 -5.5 51t-26.5 43q-8 8 -20 12t-24 9l-4 2q-6 2 -12.5 4.5t-12.5 2.5
v-65zM151 494q0 -23 14 -39t36 -26q1 -1 7 -3l13.5 -4.5t15 -4t11.5 -1.5t4 2q0 3 -0.5 11t-0.5 17t-0.5 17t-0.5 10v6q0 7 -0.5 26t-1 40.5t-1 40.5t-0.5 26h-8q-10 0 -19 -2.5t-17 -5.5q-33 -16 -42.5 -45.5t-9.5 -64.5z" />
    <glyph glyph-name="ampersand" unicode="&#x26;" horiz-adv-x="769" 
d="M50 207v28q0 6 2.5 14t4.5 13q6 20 15 39t25 35q12 14 26.5 28.5t32.5 23.5q3 1 11 6t17 11t17 10.5t11 6.5q-2 3 -8.5 12.5t-8.5 12.5q-2 2 -7 13.5t-7 16.5q-10 19 -12.5 36t-2.5 37v24q0 11 4 22.5t9 21.5q10 24 26.5 40.5t37.5 27t45 15.5t48 5q49 0 92 -25.5
t64 -71.5q5 -11 8.5 -23t3.5 -23q0 -24 -4 -46.5t-15 -41.5q0 -2 -2 -4.5t-4 -4.5l-21.5 -21.5t-24.5 -18.5q-2 -2 -13.5 -7.5t-13.5 -7.5q-2 0 -5.5 -3t-5.5 -3t-8.5 -4t-8.5 -4q-3 0 -5 -3.5t-7 -5.5l2 -4l109 -164q5 -7 10 -13t13 -10q14 25 22.5 54.5t13.5 58.5
q0 2 1 8.5t1 8.5v4l-65 5v39t1 21q0 8 1 9l4 2h238v-71l-2 -3q-2 0 -3.5 -0.5t-3.5 -0.5q-2 -1 -4 -1h-69q-1 -1 -1 -3q-1 -2 -1 -5q0 -2 -1 -8.5t-2.5 -14.5t-2.5 -15t-1 -8q0 -4 -2 -14.5t-4 -13.5q-6 -25 -15.5 -51t-22.5 -50q-2 -2 -7.5 -11.5t-7.5 -11.5q0 -2 -2 -4
t-2 -7l2 -4q2 -3 9.5 -12.5t9.5 -12.5l4 -4q6 0 20.5 -0.5t30.5 -0.5t30.5 -0.5t19.5 -0.5q3 0 7.5 -0.5t9.5 -0.5q5 -1 11 -1l2 -3v-77h-191l-3 2q-7 7 -14 19t-7 13q-3 5 -5.5 7.5t-8.5 2.5q-2 -1 -3 -1q-2 -1 -4 -1q-2 -2 -14.5 -8.5t-14.5 -8.5l-5 -2q-12 -7 -25.5 -13
t-26.5 -8q-5 -1 -12.5 -2l-15 -2t-13.5 -2t-7 -1h-46q-26 0 -50 1t-49 6q-3 0 -5 1q-2 0 -4 1l-33 15q-5 2 -14 6t-11 6q-3 1 -5 3q-5 3 -6 6l-4 4q-27 32 -44.5 63.5t-27.5 73.5v29zM160 190q0 -9 3.5 -21.5t9.5 -25t13.5 -23t15.5 -16.5q6 -5 14.5 -8t14.5 -5
q17 -5 34.5 -8.5t37.5 -3.5h6q6 3 24.5 6.5t39 8.5t36.5 11.5t16 15.5q0 2 -3.5 6t-3.5 6l-21 34q-6 10 -23 35.5t-36 53t-36.5 52.5t-24.5 34q0 2 -6 2l-44 -29q-19 -14 -32 -29.5t-23 -38.5q-12 -26 -12 -57zM261 550q0 -2 1 -7t1 -7q5 -21 13 -35.5t22 -30.5q2 -2 3 -2
t4 -2l4 2q5 3 12.5 8t14.5 9.5t12.5 8t6.5 4.5q4 3 8 7q3 3 6 5.5t5 4.5q10 9 17.5 20.5t7.5 25.5v11q0 6 -1 12t-5 11q-13 14 -24 19.5t-31 5.5q-28 0 -47.5 -15t-27.5 -44q0 -1 -0.5 -2.5t-0.5 -3.5q-1 -3 -1 -5z" />
    <glyph glyph-name="percent" unicode="%" horiz-adv-x="850" 
d="M544 148q0 43 9 80t28 74q7 13 19.5 24t25.5 16q4 2 7 3q2 1 5 1h61q3 0 7 -1q8 -2 10 -3q17 -5 35 -15t24 -29q11 -32 18 -58.5t7 -59.5q0 -20 -3 -42.5t-9.5 -44t-16.5 -41t-25 -32.5q-2 -1 -3 -2l-4 -2q-16 -8 -29.5 -11.5t-29.5 -3.5q-74 0 -105 39t-31 108zM187 16
q0 3 1 4q0 1 1 2l210 381q1 3 10.5 21.5t21.5 42.5t23.5 48t17.5 37l19 45q11 23 23 43.5t25 41.5l5 9q8 10 16.5 11.5t19.5 1.5h4q12 0 25 -2.5t13 -16.5q0 -8 -3.5 -14t-5.5 -13l-69 -141q-2 -2 -8.5 -15t-8.5 -15q0 -2 -2 -4t-2 -4l-13 -30l-69 -126q-2 -4 -9 -18.5
t-15 -31t-15.5 -30.5t-9.5 -17l-111 -200q0 -2 -3 -8.5t-5 -8.5l-4 -4q-2 -1 -3 -2h-69q-10 0 -10 13zM619 148q0 -12 0.5 -26t4.5 -26.5t12.5 -21.5t24.5 -12h5q18 0 29.5 14.5t18 34.5t9 40.5t2.5 32.5q0 24 -3.5 45.5t-15.5 40.5q-7 10 -16 12.5t-20 2.5h-9q-3 0 -5 -0.5
t-5 -3.5q-14 -11 -18 -27t-7 -32q-1 -4 -2 -11l-2 -14t-2 -12.5t-1 -6.5v-26v-4zM50 502q0 42 9.5 79.5t28.5 73.5q6 13 18.5 24t25.5 16q4 2 7 3q2 1 5 2h61q3 -1 7 -2q8 -2 10 -3q17 -5 35 -15t24 -29q11 -32 18 -58.5t7 -59.5q0 -20 -3 -42t-9 -44t-16.5 -41.5
t-25.5 -32.5q-2 -1 -3 -2l-4 -2q-16 -8 -29 -11.5t-29 -3.5q-75 0 -106 39t-31 109zM126 494q0 -12 1 -24.5t5 -24t12.5 -19.5t23.5 -11h4q18 0 29.5 14.5t18 34.5t9 40.5t2.5 32.5q0 24 -3 45.5t-16 41.5q-7 9 -16 11.5t-20 2.5q-3 0 -5.5 0.5t-4.5 0.5q-5 0 -9 -5
q-14 -11 -18 -27t-7 -32q-2 -8 -4 -25t-2 -19v-25v-12z" />
    <glyph glyph-name="asterisk" unicode="*" horiz-adv-x="446" 
d="M182 451q-13 -5 -23.5 -10.5t-20.5 -12.5q-10 -6 -20.5 -14.5t-21.5 -8.5h-7t-6 2q-9 7 -18 23.5t-9 27.5v4q0 2 2 4t4 2q3 1 10 5t14.5 8.5t14.5 8.5t10 6q2 2 12 7.5t15 8.5l10 9q-3 1 -10.5 5.5t-16.5 10t-16.5 9.5t-10.5 6q-2 2 -11.5 8.5t-11.5 8.5q-5 4 -13 8.5
t-8 12.5q0 7 3.5 13t6.5 11q7 8 13 16.5t19 8.5q5 0 10.5 -2.5t10.5 -6.5q19 -9 36.5 -20t36.5 -24v103q0 2 4.5 6.5t6.5 4.5h61q5 0 6.5 -6t3.5 -9v-17q0 -17 -1 -35.5t-1 -35.5h4q4 1 15.5 8t14.5 9t13 7t12 5q3 2 12.5 5.5t12.5 3.5h4q8 0 15 -7q2 -3 11 -15.5t12 -17.5
q2 -4 2 -9q0 -6 -2 -10t-6.5 -7.5t-8.5 -5.5q-3 -2 -8.5 -6.5t-7.5 -4.5l-51 -25l-6 -4l80 -51l12 -12v-4q0 -6 -2.5 -14.5t-7 -16t-10.5 -13t-13 -5.5h-4q-2 0 -10 3.5t-11 5.5l-30 14q-2 0 -8.5 5.5t-8.5 5.5q-5 3 -14 8t-11 5l-6 -99l-2 -4q-2 -3 -5 -3q-4 -2 -12 -2h-6
q-5 0 -17 1t-15 1q-2 0 -6.5 1t-6.5 1t-5 3t-3 6v92v0z" />
    <glyph glyph-name="hyphen" unicode="-" horiz-adv-x="478" 
d="M50 352q0 4 1 15.5t1 14.5l9 8h355q5 0 6.5 -2.5t3.5 -5.5q0 -5 1 -21t1 -21v-4q0 -8 -2 -20t-14 -12h-194h-45t-53 1q-30 0 -62 1l-6 6q-1 7 -1 13q-1 5 -1 10.5v8.5v4v4z" />
    <glyph glyph-name="plus" unicode="+" horiz-adv-x="479" 
d="M59 306l-6 6q-1 7 -2 13q-1 5 -1 10.5v8.5v4v4q0 4 1.5 15.5t1.5 14.5q2 2 4 4.5t4 5.5h137v137l6 7q6 0 12 1q5 0 10.5 0.5t8.5 0.5h5h4q3 0 14.5 -1t14.5 -1q2 -2 5 -4.5t6 -4.5v-135h132q3 0 6 -3.5t5 -6.5q0 -5 1 -21t1 -21v-4q0 -10 -1.5 -16.5t-9.5 -13.5
q-1 0 -2 -0.5t-2 -0.5q-1 -1 -2 -1h-128v-133q0 -3 -4 -5.5t-7 -4.5q-2 0 -8 -0.5t-12.5 -0.5t-12.5 -0.5t-9 -0.5h-4q-10 0 -16.5 1t-12.5 9q0 1 -0.5 1.5t-0.5 2.5q-1 1 -1 3v130h-137z" />
    <glyph glyph-name="at" unicode="@" horiz-adv-x="1034" 
d="M257 -138q-2 0 -6.5 2t-6.5 4q-2 1 -9 6t-16.5 11.5t-18.5 13t-15 9.5q-3 3 -5 4t-3 2q-2 2 -6 6.5t-8.5 9t-9 8.5t-5.5 6q-2 2 -4.5 5t-4.5 5q-38 56 -60 111t-28 121v55q0 9 -0.5 19t-0.5 21q0 20 3 40q0 2 1 9.5t2.5 16t2.5 17t2 12.5q0 3 2 13q1 4 3 8l46 124l12 25
q20 32 43 62t50 56q3 2 11.5 8.5t18.5 14t19.5 14.5t13.5 9q63 44 133.5 57t145.5 13q37 0 73 -3.5t72 -11.5q21 -5 41 -13.5t37 -17.5q23 -11 42 -23t38 -28q2 0 5.5 -4t5.5 -6q16 -18 29.5 -36t24.5 -38l13 -25l17 -38q17 -38 22 -77.5t5 -80.5q0 -29 -2.5 -55.5
t-7.5 -56.5q-5 -26 -11.5 -51.5t-16.5 -49.5q0 -2 -2 -6.5t-4 -6.5l-19 -31q-11 -17 -24 -31t-29 -28q-17 -16 -36 -26.5t-39 -19.5q-24 -11 -49.5 -14t-51.5 -3h-17q-2 0 -8 1t-9 1q-14 2 -19.5 5t-11.5 16q-1 1 -1.5 2.5t-2.5 1.5h-3q-2 0 -5 -2t-5 -2q-13 -7 -23.5 -11.5
t-24.5 -7.5q-5 -2 -15.5 -3t-12.5 -1h-141q-2 0 -9.5 1t-11.5 3l-4 2q-2 2 -6 4l-4 2q-3 4 -13.5 14t-14.5 14q-11 13 -15.5 31t-7.5 34t-3 36q0 9 0.5 18t0.5 18v50q0 2 1 5.5t1 5.5q0 1 2 7q1 2 2 5l7.5 7.5l7.5 7.5q2 0 8 3t9 5q35 14 72 24t73 21q1 0 5 1.5t9 3l10 3
t8 2.5l58 19q2 0 5.5 2t5.5 2t9.5 3.5t9.5 3.5l2 10l-2 61q0 13 -6.5 21.5t-20.5 8.5h-150q-14 0 -21 -11.5t-10 -22.5v-63q-1 0 -2 -1q-2 -2 -2 -3l-3 -2q-12 -2 -22.5 -2.5t-21.5 -0.5h-25q-14 6 -16.5 21t-2.5 29v5q0 32 8.5 57.5t31.5 47.5q7 7 16.5 11t17.5 6q2 1 10 3
q4 1 7 2h241l6 -2q6 -2 7 -3q22 -9 39.5 -34.5t17.5 -51.5v-335l2 -4l6 -6h13q30 0 56 21q24 16 38.5 31t31.5 38q17 24 23 52.5t12 57.5q5 19 6 36t1 37q0 30 -3.5 56t-11.5 56q-3 14 -7.5 29.5t-11.5 29.5q-6 14 -17 27l-25 34q-17 20 -37.5 35t-46.5 26
q-30 13 -61.5 25.5t-64.5 12.5h-46h-40q-2 0 -7.5 -0.5t-12.5 -1.5t-13.5 -2t-10.5 -2q-5 -1 -16 -3t-23 -4.5t-22 -4.5t-13 -3q-20 -5 -40.5 -15.5t-39.5 -20.5q-29 -16 -51 -38.5t-40 -47.5q-27 -36 -44 -72t-27.5 -73t-14.5 -77t-4 -84q0 -22 0.5 -43.5t4.5 -44.5
q6 -43 21.5 -83t41.5 -75q8 -8 15.5 -18.5t15.5 -21.5q23 -19 46.5 -33t50.5 -28q33 -18 65 -23q36 -7 61.5 -11t43.5 -5.5t31 -2t26 -0.5q121 0 228 47q31 14 55.5 30t48.5 39h4q5 0 10.5 -10.5t8.5 -15.5q2 -2 4 -6.5t4 -8.5l5 -10v-15q-7 -6 -14 -11q-6 -5 -12 -9t-10 -7
q-2 -2 -6.5 -4t-6.5 -4q-4 -3 -11 -7t-14.5 -8.5t-13.5 -8t-7 -4.5q-59 -33 -125.5 -45.5t-132.5 -17.5h-21q-45 0 -88.5 6.5t-86.5 18.5q-3 2 -15.5 5.5t-15.5 5.5q-6 2 -20 7.5t-29.5 11.5t-29.5 11t-20 8zM440 218l-32 -13l-10 -5q-4 -2 -7 -3q-2 -2 -4 -8.5t-2 -8.5v-55
q0 -9 6.5 -18.5t16 -17.5t20 -13.5t18.5 -5.5h55q2 0 4 1q2 0 3.5 0.5t2.5 0.5q26 7 50 18.5t45 28.5l4 4v149h-6z" />
    <glyph glyph-name="equal" unicode="=" horiz-adv-x="478" 
d="M50 268q0 3 1 14.5t1 15.5l9 8h355q5 0 6.5 -2.5t3.5 -5.5q0 -3 0.5 -9t0.5 -12.5t0.5 -12.5t0.5 -8v-5q0 -8 -2 -19.5t-14 -11.5h-194h-45t-53 1q-30 0 -62 1l-6 6q-1 7 -1 13q-1 5 -1 10v9v4v4zM50 437q0 3 1 14.5t1 14.5q2 2 4.5 4t4.5 2l56 3h299q6 0 10 -9
q0 -5 1 -21t1 -21v-4q0 -8 -2 -20t-14 -12h-194h-45t-53 1q-30 0 -62 1l-6 7q-1 6 -1 12q-1 5 -1 10.5v8.5v4v5z" />
    <glyph glyph-name="sterling" unicode="&#xa3;" horiz-adv-x="613" 
d="M50 68q0 9 2 17.5t5 17.5q0 1 0.5 1.5t0.5 1.5q16 40 42 55t68 15q9 0 17.5 -2.5t17.5 -2.5q0 23 -4 46.5t-9 44.5q0 2 -0.5 3t-0.5 3l-3 4q-1 1 -1 3q-1 1 -1 4h-111q-1 5 -1 9q-1 4 -1 8v6v25v25q0 8 6 11q2 0 10 1t11 1t12 0.5t19 0.5t18.5 0.5t11.5 0.5v4q0 1 -1 6
t-2.5 11t-3.5 12l-3 9l-15 38q-8 21 -11.5 44t-3.5 47q0 20 4.5 41.5t14.5 40.5q2 7 6 12q2 4 5 7q2 3 13 13.5t16 15.5q22 21 51 25.5t58 4.5q30 0 59.5 -3t56.5 -16q5 -2 16 -7.5t13 -7.5q16 -9 27.5 -26t19 -36.5t11 -40t3.5 -36.5v-15q-2 -2 -3.5 -7t-6.5 -5h-70
q-2 0 -4 3t-2 5q-2 8 -2 15t-2 15q-3 17 -11 29l-5 10q-2 4 -3 7q-10 13 -25.5 20.5t-31.5 11.5h-23h-25q-20 0 -34.5 -17t-18.5 -36q0 -3 -1 -9t-1 -8v-25v-23q0 -2 1 -5.5t1 -5.5q10 -29 20.5 -57.5t21.5 -58.5q12 -1 23 -1q10 -1 20 -1h18h49q8 -2 11 -10.5t3 -16.5v-28
v-27q-3 -10 -14 -10h-91q5 -21 9 -42.5t4 -42.5v-14q0 -3 -0.5 -9t-1.5 -13.5t-2 -13.5t-2 -9q5 -5 11.5 -9t13.5 -8l46 -23q14 -6 30.5 -8t30.5 -2h11q2 0 6 1q2 1 5 1.5t5 1.5q12 3 14.5 10.5t3.5 16.5t4.5 17t17.5 11h19h19q7 0 18.5 -1t13.5 -3v-53q0 -2 -2.5 -7.5
t-2.5 -7.5q-11 -30 -36 -45.5t-54 -23.5h-36q-35 0 -63 4t-61 17l-46 19q-4 2 -8 2h-5q-17 -16 -34.5 -29t-40.5 -18h-49q-6 0 -12.5 0.5t-12.5 2.5q-25 6 -37.5 25.5t-12.5 45.5zM117 83q0 -7 7 -9t12 -2q17 0 27 13q-5 6 -14 7t-15 1h-13q-4 -2 -4 -10z" />
    <glyph glyph-name="parenleft" unicode="(" horiz-adv-x="363" 
d="M50 348q0 53 13 101q0 2 2 10l4.5 18t5.5 20t5 15q5 20 15.5 37t19.5 33q8 14 18.5 27.5t21.5 24.5q27 27 64.5 44.5t76.5 17.5h8q7 -3 7 -11q2 -16 2 -26v-24v-21q-3 -5 -6 -5q-24 -9 -44 -20t-40 -28q-14 -11 -24.5 -26t-18.5 -31q-22 -43 -32 -88.5t-10 -94.5
q0 -26 7 -53.5t19 -54t28.5 -50t36.5 -40.5q2 -2 9 -7t10 -8q2 0 4 -2l2 -2q5 -3 17.5 -9t16.5 -8q2 0 8 -3t8 -3q7 -3 8 -7t1 -12v-11q0 -2 -1 -10.5t-1 -10.5v-17q0 -2 -4 -12h-11q-47 0 -88 23q-45 26 -76 65q-1 1 -4.5 7t-7.5 12.5t-8.5 13t-6.5 9.5q-8 13 -15 26
t-10 27l-2 8q0 2 -0.5 2.5t-0.5 2.5q-11 38 -19 75t-8 76z" />
    <glyph glyph-name="parenright" unicode=")" horiz-adv-x="362" 
d="M50 62q0 8 1 12t7 7q14 6 29 12t28 16q24 18 44 42t34.5 52t22.5 58t8 60q0 36 -5.5 72t-18 70t-32.5 63.5t-49 51.5q-10 8 -20.5 13t-21.5 10q-2 0 -10.5 4t-10.5 4q-3 0 -6 5v21v24t2 26q0 8 6 11h11q38 0 75 -17.5t63 -43.5q11 -11 21.5 -25t18.5 -28q10 -16 21 -33
t16 -37q11 -41 19.5 -81t8.5 -83q0 -50 -12 -101q0 -2 -2 -9.5t-5 -17.5l-6 -20t-4 -16q-3 -14 -10 -27t-15 -26q-3 -3 -7 -9.5t-8.5 -13t-8 -12.5t-4.5 -7q-28 -38 -71 -63t-92 -25h-5.5t-7.5 2q-3 7 -3 13q0 3 0.5 6t0.5 8q0 2 -1 10.5t-1 10.5v11v0z" />
    <glyph glyph-name="underscore" unicode="_" horiz-adv-x="478" 
d="M50 45q0 3 1 14.5t1 14.5l4.5 4.5l4.5 4.5h355q5 0 6.5 -2.5t3.5 -6.5q0 -2 0.5 -8t0.5 -12.5t0.5 -12.5t0.5 -9v-4q0 -8 -2 -19.5t-14 -11.5h-194h-45t-53 1q-30 0 -61 1l-7 6q-1 7 -1 13q-1 5 -1 10v9v4v4z" />
    <glyph glyph-name="asciicircum" unicode="^" horiz-adv-x="482" 
d="M50 365q9 29 19.5 56.5t24.5 53.5l95 223q2 5 12 6.5t20 1.5h12h23.5t24.5 -2q19 0 25 -13q8 -16 13.5 -31.5t11.5 -31.5l97 -242q2 -2 3 -6.5t1 -6.5v-6v-4q0 -2 -2 -4t-4 -2h-76q-1 0 -2 1q-2 2 -2 3q-1 1 -2 3q-2 4 -2 5q-20 54 -40.5 107t-43.5 106q-2 2 -7.5 12
t-7.5 9l-15 -29l-88 -222h-80q-5 0 -7.5 4t-2.5 9z" />
    <glyph glyph-name="braceleft" unicode="{" horiz-adv-x="377" 
d="M136 249q0 3 -3 13.5t-3 14.5q-5 17 -20 22t-31 7q-3 0 -12.5 1t-12.5 1l-4 4v78l6 7h40q1 0 2 1q1 0 2 0.5t3 0.5q13 6 21 21q13 27 14 58t4 60q0 3 1 11.5t2.5 18.5t3 19.5t2.5 13.5q5 33 27.5 54.5t52.5 33.5q10 5 22 6t24 1h42q6 -3 6 -11q0 -5 1 -22t1 -22v-6
q0 -4 -0.5 -8.5t-3.5 -6.5q-2 0 -5 -1t-5 -1q-16 -2 -29.5 -2.5t-24.5 -5t-19.5 -14t-12.5 -27.5q0 -7 -1 -24t-2.5 -36t-3 -36t-2.5 -24q0 -2 -0.5 -8.5t-1.5 -15t-2 -16.5t-2 -12q-2 -8 -3.5 -15.5t-5.5 -14.5q0 -2 -3 -6t-3 -6v-3q0 -3 4.5 -9t6.5 -10q5 -11 6.5 -25
t1.5 -27q0 -3 0.5 -15t0.5 -25.5t0.5 -25t0.5 -14.5q2 -19 3.5 -36t9.5 -34q6 -16 14.5 -27.5t25.5 -14.5q2 -1 8 -2t12.5 -2t12.5 -1.5t9 -0.5q6 -2 8 -7.5t2 -11.5v-57q0 -2 -4 -6h-44q-11 0 -22.5 1t-21.5 5q-30 13 -52.5 34t-27.5 55q-1 4 -2.5 13t-3 19t-2.5 19t-1 12
q-1 4 -2 17t-2 28t-1.5 27.5t-0.5 17.5z" />
    <glyph glyph-name="braceright" unicode="}" horiz-adv-x="378" 
d="M65 83q5 0 21 2t21 4q17 3 25.5 14.5t14.5 27.5q8 17 9.5 34t3.5 36q0 3 0.5 14.5t0.5 25t0.5 25.5t0.5 15q0 13 1.5 27t6.5 25q2 4 6.5 10t4.5 9v3q0 2 -3.5 6t-3.5 6q-8 19 -10 40.5t-4 41.5q-1 7 -2.5 24t-3 36t-2.5 36t-1 24q-12 44 -54 47q-2 0 -16 1t-16 1
q-10 2 -12.5 4.5t-2.5 12.5v6q0 5 1 22t1 22q0 7 7 11h43q11 0 23 -1t22 -6q20 -8 38 -20.5t29 -31.5q10 -15 13 -36q1 -4 2 -13.5t2.5 -19.5t2.5 -18.5t1 -11.5q2 -18 2 -36.5t2.5 -36.5t9.5 -34.5t22 -29.5l4 -2q1 0 1.5 -0.5t2.5 -0.5q1 -1 3 -1h39l7 -7v-78l-4 -4
q-18 0 -38.5 -3.5t-33.5 -17.5q-2 -2 -3 -5t-1 -5q0 -4 -3 -14.5t-3 -13.5q0 -5 -1 -17.5t-2 -27.5t-2 -28t-2 -17q0 -3 -1 -12t-2.5 -19t-2.5 -19t-2 -13q-5 -34 -27.5 -55t-52.5 -34q-10 -4 -21 -5t-22 -1h-45q-4 4 -4 6v57q0 6 2 11.5t8 7.5z" />
    <glyph glyph-name="bracketright" unicode="]" horiz-adv-x="319" 
d="M56 81q4 0 16.5 1t15.5 1q5 0 17.5 0.5t27 0.5t26.5 0.5t17 0.5q0 8 0.5 29t0.5 44t0.5 44t0.5 29v312q0 4 -0.5 14t-0.5 21.5t-0.5 22t-0.5 15.5h-113q-3 0 -7 5t-4 8v63l4 4q8 0 16 1q7 0 14 0.5t12 0.5h167l4 -4v-678q0 -2 -1 -4q-2 -4 -3 -5q-2 -1 -6 -5l-3 -3h-197
q-2 1 -3 2q-2 1 -2.5 2t-1.5 2l-2 4v64q0 2 2 4z" />
    <glyph glyph-name="asciitilde" unicode="~" horiz-adv-x="479" 
d="M412 406q3 0 6 1q2 0 5 1q2 0 4 -2q0 -2 1 -8.5t1 -8.5v-73q0 -10 -2 -21.5t-15 -11.5h-25q-16 0 -30.5 1t-30.5 6q-33 9 -67.5 20t-69.5 11q-22 0 -42.5 -3.5t-39.5 -13.5q-5 -2 -21 -9.5t-21 -11.5h-4h-6q-1 0 -3 2q-1 1 -2 3v105q0 4 4.5 7.5t10.5 7t12 5.5l9 3
q3 2 13 4t12 2q5 2 13.5 3.5t10.5 1.5h90q2 0 8 -1t9 -1l20 -4q32 -6 65.5 -10.5t67.5 -4.5h17z" />
    <glyph glyph-name="quotesingle" unicode="'" horiz-adv-x="245" 
d="M108 557q-2 4 -6.5 13.5t-10 19.5t-10.5 19.5t-6 13.5q-13 27 -15.5 31.5t-2.5 5.5q-3 6 -5 12t-2 14q0 14 12.5 16.5t25.5 2.5h4q11 0 19 -1.5t16 -11.5q17 -29 33 -56.5t28 -57.5q2 -5 4.5 -10.5t2.5 -10.5q0 -6 -5 -8t-10 -2t-16.5 -1t-15.5 -1q-11 0 -21.5 1.5
t-18.5 10.5z" />
    <glyph glyph-name="slash" unicode="/" horiz-adv-x="535" 
d="M50 16q0 3 1 4q0 1 1 2l210 381q1 3 10.5 22l21.5 43t23.5 47.5t17.5 37.5q1 1 4 7.5t6 14t5.5 14t3.5 8.5q11 23 23 44.5t25 42.5l5 8q8 10 16.5 11.5t19.5 1.5h4q13 0 25.5 -2.5t12.5 -16.5q0 -8 -2.5 -14.5t-6.5 -13.5l-69 -141q-2 -2 -8.5 -14.5t-8.5 -14.5
q0 -2 -2 -4.5t-2 -4.5l-13 -29l-69 -127l-9 -18t-15 -30.5t-15.5 -31t-8.5 -17.5q-6 -11 -22 -39.5t-34 -60.5t-34 -60.5t-22 -39.5q0 -2 -3 -8.5t-5 -8.5l-4 -4q-2 -1 -3 -2h-69q-10 0 -10 13z" />
    <glyph glyph-name="period" unicode="." horiz-adv-x="197" 
d="M50 79q0 3 2.5 6.5t5.5 3.5h80q1 -1 3.5 -1.5t5.5 -2.5v-86q0 -2 -3.5 -4t-5.5 -2h-88v86z" />
    <glyph glyph-name="comma" unicode="," 
d="M57 7l-5 5q-1 8 -1 15q-1 6 -1 13v12v4v4v5.5t1 6.5q0 4 1 7l5 4h10h15q6 0 20 -0.5t29.5 -0.5t29.5 -0.5t20 -0.5q4 -4 4 -8q0 -2 1 -7.5t1 -7.5v-75q0 -11 -0.5 -22.5t-3.5 -22.5q0 -1 -0.5 -2t-0.5 -2q-1 -2 -1 -3q-6 -14 -12.5 -23.5t-15 -16t-19 -11.5t-25.5 -10
q-9 -3 -18.5 -3.5t-19.5 -0.5q-6 0 -10 2q-1 0 -3 2q-1 1 -1 2v70q0 3 5 4.5t11 2t11.5 1.5t7.5 3q11 8 13 21.5t2 27.5v5h-50z" />
    <glyph glyph-name="less" unicode="&#x3c;" horiz-adv-x="454" 
d="M99 273q-2 0 -5.5 2t-5.5 2q-3 2 -12 6.5t-11 4.5q-12 6 -12 25q-2 13 -2.5 24t-0.5 24q0 10 0.5 16.5t2.5 17.5q0 5 3 5q1 0 2.5 0.5t9 3.5t24 10.5t45.5 20.5t74 33.5t111 50.5q2 2 7 4.5t7 2.5q3 1 11 3.5t16 6t15.5 6l10.5 3.5h4q3 0 7 -3t4 -8v-78q0 -1 -1 -2
q-2 -2 -3 -2l-6 -2q-2 -1 -4.5 -2t-4.5 -2q-6 -3 -29 -12t-50 -19t-50 -19t-29 -12q-2 -1 -8.5 -3t-13.5 -5t-13.5 -6t-8.5 -4q-3 -2 -8 -4.5t-10 -4.5q-5 -3 -11 -6l-3 -2l3 -2q3 -2 11 -5.5t10 -5.5q5 -2 16 -6.5t22.5 -9.5t21.5 -9.5t13 -6.5q3 -1 14.5 -5t24.5 -9.5
t24.5 -9.5t14.5 -5q2 0 7.5 -3t7.5 -3q1 -1 8 -3.5t15 -5.5t14.5 -5t8.5 -3q1 0 5 -2q2 -1 3 -2l3 -3l2 -2v-76q0 -2 -2.5 -4t-4.5 -2h-4h-6q-2 0 -6.5 2t-6.5 2l-242 97z" />
    <glyph glyph-name="greater" unicode="&#x3e;" horiz-adv-x="453" 
d="M271 366l-221 88v80q0 5 4.5 8t10.5 3l5 -2q26 -9 52 -19t50 -24l223 -94q5 -2 6.5 -11t1.5 -18v-16v-24t-2 -24q0 -19 -12 -25q-16 -8 -31.5 -13.5t-31.5 -12.5l-242 -97q-2 0 -6.5 -2t-6.5 -2h-6h-4q-2 0 -4.5 2t-2.5 4v76q0 1 1 2q3 3 4 3q1 1 3 2q4 2 5 2
q54 20 107 40t105 44q4 4 10.5 6t12.5 7z" />
    <glyph glyph-name="question" unicode="?" horiz-adv-x="523" 
d="M201 83q0 3 3 7t6 4h80q1 -1 2 -1q1 -1 4 -1l2 -3v-86q0 -2 -3 -4t-5 -2h-89v86zM199 277q0 14 0.5 35.5t1.5 41.5q1 24 3 49l2 3q4 0 14 0.5t21.5 1.5t21.5 1.5t14 0.5q51 3 76 31.5t25 79.5q0 14 -4 28t-9 27q-9 24 -31.5 35.5t-45.5 11.5h-9q-1 0 -6.5 -1t-12.5 -2
l-14 -2t-11 -2q-11 -2 -19.5 -5t-18.5 -9q-33 -21 -42.5 -49.5t-11.5 -64.5l-5 -4q-12 -1 -23 -2q-10 -1 -20.5 -1h-17.5h-10q-7 0 -10.5 1t-6.5 6v19q0 43 16 85.5t49 72.5q10 8 21.5 14t22.5 11q36 17 76 17q29 0 58 -2.5t56 -12.5q5 -2 9 -4t7.5 -3.5t6.5 -2.5
q2 -2 8.5 -4.5t8.5 -4.5q2 -1 4.5 -2.5t5.5 -3.5l8 -4q35 -29 50.5 -71t15.5 -87q0 -26 -4.5 -52.5t-18.5 -46.5q-21 -27 -40.5 -44t-37.5 -26.5t-34 -14.5t-31 -8l-5 -127h-101l-2 3v88z" />
    <glyph glyph-name="colon" unicode=":" horiz-adv-x="196" 
d="M50 79q0 3 2.5 6.5t5.5 3.5h80l8 -4v-86q0 -2 -3 -4t-5 -2h-88v86zM50 433q0 3 2.5 6.5t5.5 3.5h80l8 -4v-86q0 -2 -3 -4t-5 -2h-88v86z" />
    <glyph glyph-name="semicolon" unicode=";" 
d="M56 138l-4 4q-1 7 -1 15q-1 6 -1 13v12v4v5v5.5t1 6.5q0 4 1 7l4 4h11h15q5 0 19 -0.5t30 -0.5t30 -0.5t19 -0.5q5 -5 5 -9q0 -2 1 -7t1 -7v-72q0 -12 -1 -24t-4 -25q0 -1 -0.5 -2t-0.5 -2q-1 -1 -1 -2q-6 -14 -12 -23.5t-14.5 -16.5t-19 -11.5t-25.5 -9.5
q-10 -3 -19 -3.5t-19 -0.5q-6 0 -11 2q-1 0 -3 2q-1 1 -1 2v70q0 3 5 4.5t11.5 2t12 1t7.5 2.5q11 9 13 22.5t2 27.5v5h-51zM75 439q0 3 2.5 7t6.5 4h80l8 -4v-87q0 -2 -3 -4t-5 -2h-89v86z" />
    <glyph glyph-name="quotedbl" unicode="&#x22;" horiz-adv-x="422" 
d="M57 620l-4 5q-1 8 -2 15q-1 6 -1 13v12v4v4v5.5t1 6.5q1 4 2 7l4 4h10h15q6 0 20 -0.5t29.5 -0.5t29.5 -0.5t20 -0.5q4 -4 4 -8q0 -2 1 -7.5t1 -7.5v-74q0 -11 -0.5 -23t-3.5 -23q0 -1 -0.5 -2t-0.5 -2q-1 -1 -1 -2q-6 -14 -12.5 -24t-15 -16.5t-19 -11.5t-25.5 -9
q-9 -4 -18.5 -4.5t-18.5 -0.5q-7 0 -11 2q-1 0 -3 2q-1 1 -1 3v69q0 3 5 4.5t11 2.5t12 1.5t8 2.5q11 8 12.5 22t1.5 27v5h-50zM242 620l-4 5q-1 8 -1 15q-1 6 -1 13v12v4v4v5.5t1 6.5q0 4 1 7l4 4h10h15q6 0 20 -0.5t29.5 -0.5t29.5 -0.5t20 -0.5q4 -4 4 -8q0 -2 1 -7.5
t1 -7.5v-74q0 -11 -0.5 -23t-3.5 -23q0 -1 -0.5 -2t-0.5 -2q-1 -1 -1 -2q-6 -14 -12.5 -24t-15 -16.5t-19 -11.5t-25.5 -9q-9 -4 -18.5 -4.5t-18.5 -0.5q-7 0 -11 2q-1 0 -3 2q-1 1 -1 3v69q0 3 5 4.5t11 2.5t12 1.5t8 2.5q11 8 12.5 22t1.5 27v5h-50z" />
    <glyph glyph-name="quotedblright" unicode="&#x201d;" horiz-adv-x="422" 
d="M57 620l-4 5q-1 8 -2 15q-1 6 -1 13v12v4v4v5.5t1 6.5q1 4 2 7l4 4h10h15q6 0 20 -0.5t29.5 -0.5t29.5 -0.5t20 -0.5q4 -4 4 -8q0 -2 1 -7.5t1 -7.5v-74q0 -11 -0.5 -23t-3.5 -23q0 -1 -0.5 -2t-0.5 -2q-1 -1 -1 -2q-6 -14 -12.5 -24t-15 -16.5t-19 -11.5t-25.5 -9
q-9 -4 -18.5 -4.5t-18.5 -0.5q-7 0 -11 2q-1 0 -3 2q-1 1 -1 3v69q0 3 5 4.5t11 2.5t12 1.5t8 2.5q11 8 12.5 22t1.5 27v5h-50zM242 620l-4 5q-1 8 -1 15q-1 6 -1 13v12v4v4v5.5t1 6.5q0 4 1 7l4 4h10h15q6 0 20 -0.5t29.5 -0.5t29.5 -0.5t20 -0.5q4 -4 4 -8q0 -2 1 -7.5
t1 -7.5v-74q0 -11 -0.5 -23t-3.5 -23q0 -1 -0.5 -2t-0.5 -2q-1 -1 -1 -2q-6 -14 -12.5 -24t-15 -16.5t-19 -11.5t-25.5 -9q-9 -4 -18.5 -4.5t-18.5 -0.5q-7 0 -11 2q-1 0 -3 2q-1 1 -1 3v69q0 3 5 4.5t11 2.5t12 1.5t8 2.5q11 8 12.5 22t1.5 27v5h-50z" />
    <glyph glyph-name="quoteright" unicode="&#x2019;" 
d="M56 620l-4 5q-1 8 -1 15q-1 6 -1 13v12v4v4v5.5t1 6.5q0 4 1 7l4 4h11h14q6 0 20 -0.5t30 -0.5t30 -0.5t19 -0.5q2 -2 3.5 -4t1.5 -4t1 -7.5t1 -7.5v-72q0 -12 -1 -24t-4 -24q0 -1 -0.5 -2t-0.5 -2q-1 -1 -1 -2q-6 -14 -12.5 -24t-14.5 -16.5t-18.5 -11.5t-25.5 -9
q-10 -4 -19 -4.5t-19 -0.5q-6 0 -11 2q-1 0 -3 2q-1 1 -1 3v69q0 3 5 4.5t11.5 2.5t12 1.5t7.5 2.5q11 8 13 22t2 27v5h-51z" />
    <glyph glyph-name="quoteleft" unicode="&#x2018;" 
d="M130 620v-5q0 -13 2 -27t13 -22q1 -2 7 -2.5t12.5 -1.5t11.5 -2.5t5 -4.5v-69q0 -2 -1 -3q-2 -2 -3 -2q-5 -2 -11 -2q-10 0 -19 0.5t-19 4.5q-15 4 -25.5 9t-18.5 11.5t-14.5 16.5t-12.5 24q-1 1 -1 2q-1 1 -1 4q-3 12 -4 24t-1 24v72q0 2 1 7.5t1 7.5t1.5 4t3.5 4
q5 0 19 0.5t30 0.5t30 0.5t20 0.5h14h11l4 -4q0 -3 1 -7q0 -3 0.5 -6.5t0.5 -5.5v-4v-4q0 -5 -0.5 -12t-0.5 -13q-1 -7 -1 -15l-4 -5h-51z" />
    <glyph glyph-name="quotedblleft" unicode="&#x201c;" horiz-adv-x="422" 
d="M315 620v-5q0 -13 1.5 -27t12.5 -22q2 -2 8 -2.5t12 -1.5t11 -2.5t5 -4.5v-69q0 -2 -1 -3q-2 -2 -3 -2q-4 -2 -11 -2q-9 0 -18.5 0.5t-18.5 4.5q-15 4 -25.5 9t-19 11.5t-15 16.5t-12.5 24q-1 1 -1 2q-1 1 -1 4q-3 11 -3.5 23t-0.5 23v74q0 2 1 7.5t1 7.5q0 4 4 8
q6 0 20 0.5t29.5 0.5t29.5 0.5t20 0.5h15h10l4 -4q0 -3 1 -7q2 -8 2 -12v-4v-4q0 -5 -0.5 -12t-1.5 -13q-1 -7 -1 -15l-4 -5h-50zM130 620v-5q0 -13 1.5 -27t12.5 -22q2 -2 8 -2.5t12 -1.5t11 -2.5t5 -4.5v-69q0 -2 -1 -3q-2 -2 -3 -2q-4 -2 -11 -2q-9 0 -18.5 0.5
t-18.5 4.5q-15 4 -25.5 9t-19 11.5t-15 16.5t-12.5 24q-1 1 -1 2q-1 1 -1 4q-3 11 -3.5 23t-0.5 23v74q0 2 1 7.5t1 7.5q0 4 4 8q6 0 20 0.5t29.5 0.5t29.5 0.5t20 0.5h15h10l4 -4q0 -3 1 -7q0 -3 0.5 -6.5t0.5 -5.5v-4v-4q0 -5 -0.5 -12t-0.5 -13q-1 -7 -1 -15l-4 -5h-50z
" />
    <glyph glyph-name="quotedblbase" unicode="&#x201e;" horiz-adv-x="422" 
d="M57 0l-4 5q-1 8 -2 15q-1 6 -1 13v12v4v4v5.5t1 6.5q1 4 2 7l4 4h10h15q6 0 20 -0.5t29.5 -0.5t29.5 -0.5t20 -0.5q4 -4 4 -8q0 -2 1 -7.5t1 -7.5v-74q0 -11 -0.5 -23t-3.5 -23q0 -1 -0.5 -2t-0.5 -2q-1 -1 -1 -2q-6 -14 -12.5 -24t-15 -16.5t-19 -11.5t-25.5 -9
q-9 -4 -18.5 -4.5t-18.5 -0.5q-7 0 -11 2q-1 0 -3 2q-1 1 -1 3v69q0 3 5 4.5t11 2.5t12 1.5t8 2.5q11 8 12.5 22t1.5 27v5h-50zM242 0l-4 5q-1 8 -1 15q-1 6 -1 13v12v4v4v5.5t1 6.5q0 4 1 7l4 4h10h15q6 0 20 -0.5t29.5 -0.5t29.5 -0.5t20 -0.5q4 -4 4 -8q0 -2 1 -7.5
t1 -7.5v-74q0 -11 -0.5 -23t-3.5 -23q0 -1 -0.5 -2t-0.5 -2q-1 -1 -1 -2q-6 -14 -12.5 -24t-15 -16.5t-19 -11.5t-25.5 -9q-9 -4 -18.5 -4.5t-18.5 -0.5q-7 0 -11 2q-1 0 -3 2q-1 1 -1 3v69q0 3 5 4.5t11 2.5t12 1.5t8 2.5q11 8 12.5 22t1.5 27v5h-50z" />
    <glyph glyph-name="quotesinglbase" unicode="&#x201a;" 
d="M56 0l-4 5q-1 8 -1 15q-1 6 -1 13v12v4v4v5.5t1 6.5q0 4 1 7l4 4h11h14q6 0 20 -0.5t30 -0.5t30 -0.5t19 -0.5q5 -5 5 -8q0 -2 1 -7.5t1 -7.5v-72q0 -12 -1 -24t-4 -24q0 -1 -0.5 -2t-0.5 -2q-1 -1 -1 -2q-6 -14 -12.5 -24t-14.5 -16.5t-18.5 -11.5t-25.5 -9
q-10 -4 -19 -4.5t-19 -0.5q-6 0 -11 2q-1 0 -3 2q-1 1 -1 3v69q0 3 5 4.5t11.5 2.5t12 1.5t7.5 2.5q11 8 13 22t2 27v5h-51z" />
    <glyph glyph-name="circumflex" unicode="&#x2c6;" horiz-adv-x="428" 
d="M50 455q3 10 5 13.5t5 9l9 16.5t18 35t30.5 64.5t47.5 104.5q2 5 12 6.5t20 1.5h12h23.5t24.5 -2q19 0 25 -13q8 -16 13.5 -31.5t11.5 -31.5l67 -162q2 -2 3 -6.5t1 -6.5v-6v-4q0 -2 -2 -4t-4 -2h-76q-1 0 -2 1q-2 2 -2 3q-1 1 -2 3q-2 4 -2 5l-69 154l-79 -161h-80
q-5 0 -7.5 4t-2.5 9z" />
    <glyph glyph-name="bar" unicode="|" horiz-adv-x="192" 
d="M50 43q0 91 2 180t2 180q0 69 -2 136.5t-2 135.5v13q0 2 1 4l3 6h78q6 0 8 -4.5t2 -9.5q0 -20 -1 -37.5t-1 -34.5v-29.5t2 -29.5v-331q0 -9 -0.5 -34.5t-0.5 -54t-0.5 -54.5t-0.5 -36q0 -2 -0.5 -8t-0.5 -12.5t-0.5 -12.5t-0.5 -7h-88v40z" />
    <glyph glyph-name="backslash" unicode="\" horiz-adv-x="550" 
d="M391 20q-6 11 -22 39.5t-34 60.5t-34 60.5t-22 39.5q-2 3 -9 17.5t-15 31t-15.5 30.5t-8.5 18q-1 2 -5.5 10t-10.5 17.5t-10.5 17.5t-5.5 10l-37 71q-1 1 -3 5.5t-4 10t-3.5 9.5t-2.5 5q0 2 -2 4t-2 4q-1 1 -3.5 5.5t-5 10t-5 9.5t-3.5 5q-5 10 -16.5 32t-23.5 45.5
t-21.5 42.5t-9.5 23q-7 14 -7 25t8 15t19 4h36h23l9 -8q3 -7 7 -13q3 -5 5.5 -11t4.5 -10q12 -25 23 -50t21 -51l67 -135l19 -31q0 -2 2 -4.5t2 -4.5l149 -259q2 -2 5.5 -8.5t5.5 -8.5l4 -8q1 -3 5.5 -11t10.5 -17t10.5 -17t5.5 -10q3 -6 5.5 -13.5t2.5 -15.5q0 -15 -17 -15
h-78l-6 6q-2 2 -5 8.5t-3 8.5z" />
    <glyph glyph-name="grave" unicode="`" horiz-adv-x="264" 
d="M127 557q-6 7 -17.5 21.5t-23.5 30.5t-20.5 30.5t-8.5 20.5q-3 6 -5 12t-2 14q0 14 12.5 16.5t25.5 2.5h4q11 0 19 -1.5t16 -11.5q9 -14 20 -28t22.5 -28t21.5 -28.5t16 -29.5q2 -5 4.5 -10.5t2.5 -10.5q0 -6 -5 -8t-10 -2t-16.5 -1t-15.5 -1q-11 0 -21.5 1.5t-18.5 10.5
z" />
    <glyph glyph-name="breve" unicode="&#x2d8;" horiz-adv-x="833" 
 />
    <glyph glyph-name="A" unicode="A" horiz-adv-x="911" 
d="M50 23q0 2 0.5 9t0.5 14.5t0.5 14.5t0.5 9q0 1 1 3q2 4 3 4l17 2h113l185 507q3 8 6 15.5t4 17.5l-4 4h-119v66q0 5 3.5 9t8.5 4h233q8 0 12 -8t6 -13l136 -382q1 -4 3.5 -13t6 -18.5t6 -18.5t3.5 -12q2 -3 6 -16t6 -17l41 -123h124l2 -4q5 -13 5.5 -26.5t0.5 -25.5v-17
q0 -2 -1 -3q-2 -3 -3 -3l-23 -2h-335q-3 0 -5.5 7t-2.5 10v6q0 3 1 16.5t1 16.5q2 5 6.5 9.5t7.5 6.5q2 2 6 4.5t6 2.5h112q1 0 -3 13t-10 31t-12 36.5t-10 30.5l-5 12.5t-6 15.5q-4 9 -8 19l-4 5h-233l-2 -5q-1 -1 -6.5 -15.5t-13 -34.5t-15.5 -41t-12 -34q-2 -4 -5 -16
t-5 -15h135q7 0 7 -7v-74h-369q-2 0 -3 7.5t-1 9.5v6zM377 332q8 0 27.5 -0.5t41 -0.5t40.5 -0.5t27 -0.5h33v5q-15 43 -29 85q-12 36 -26.5 76t-26.5 72q-19 -61 -43 -118.5t-44 -117.5z" />
    <glyph glyph-name="D" unicode="D" horiz-adv-x="773" 
d="M52 70q0 3 4 5t6 2l113 4q1 80 3 155q0 32 0.5 66t1 66t1 61t0.5 52v133l-2 7h-123q-2 0 -4 3.5t-2 5.5v18v19q0 2 1 12t3 15l2 4q22 2 41 2h41h56q12 0 42.5 -0.5t64.5 -0.5t64.5 -0.5t42.5 -0.5q40 0 80 -9.5t78 -23.5l4 -2q4 -2 14 -8.5t13 -8.5q2 -1 8 -5q3 -2 5 -3
l59 -60l8 -16q8 -17 15 -35.5t10 -35.5q2 -12 5.5 -29.5t7.5 -34.5q4 -19 8 -41v-10q0 -2 -1 -15.5t-2.5 -31.5t-3.5 -36t-4 -29q0 -2 -2 -10.5t-2 -11.5q0 -2 -1.5 -8.5t-3.5 -14.5t-4 -15.5t-3 -11.5q-3 -11 -8.5 -21.5t-10.5 -19.5q-8 -16 -19 -28.5t-24 -25.5
q-22 -23 -48.5 -41t-54.5 -33l-4 -2q-4 -2 -6 -2q-1 0 -2 -0.5t-2 -0.5q-1 -1 -2 -1q-22 -5 -43.5 -10t-43.5 -5q-13 0 -45.5 -0.5t-69.5 -0.5t-69.5 -0.5t-45.5 -0.5h-89h-14h-18t-16.5 0.5t-8.5 1.5v68zM272 81q3 0 16.5 -1t16.5 -1h21q42 0 77.5 4.5t76.5 13.5
q18 3 35 15q15 9 27 19.5t25 24.5q17 19 29 43t19.5 50t11 53t3.5 53q0 32 -6.5 64.5t-15.5 63.5q-4 11 -8.5 23.5t-10.5 22.5q-8 12 -18.5 23.5t-22.5 17.5q-51 28 -107 36.5t-113 8.5h-35q-2 0 -9 -1t-10 -1q-1 0 -2 -0.5t-3 -0.5q-2 -1 -3 -1v-524q0 -3 2 -4.5t4 -1.5z
" />
    <glyph glyph-name="B" unicode="B" horiz-adv-x="736" 
d="M50 23q0 2 0.5 9t0.5 14.5t0.5 14.5t0.5 9q0 1 1 3q2 4 3 4l17 4h115q6 0 13.5 2t9.5 10q0 5 1 15.5t1 13.5v462l-2 27q0 2 -1.5 3t-3.5 3q-3 3 -5 4t-3 2h-144l-2 5v53q0 4 1 8t3 9h447q2 -1 4 -1q2 -1 6 -1q1 0 2 -0.5t3 -0.5q2 -1 3 -1q4 -2 11 -4.5l14 -5t12.5 -4
t6.5 -1.5q2 -2 12.5 -6.5t15.5 -7.5q35 -19 50.5 -55.5t15.5 -74.5q0 -26 -3 -45t-15 -42q-8 -16 -19.5 -26.5t-24.5 -23.5q-3 -3 -8 -5t-8 -7q42 -19 69.5 -48t35.5 -76v-74q0 -16 -4 -31t-10 -29q-9 -21 -26.5 -43t-40 -40.5t-48.5 -30.5t-50 -12h-453q-3 0 -3.5 6.5
t-0.5 8.5v6zM295 128v-12v-14.5t0.5 -13.5t1.5 -7h183q2 0 12 1t15 3q20 5 42.5 16.5t33.5 30.5l2 3q5 8 9 17t6 17v25q0 16 -1 31t-8 29q-2 5 -7 14t-5 11l-4.5 4.5l-8 8l-9 9l-7.5 7.5q-8 6 -22 11t-23 7q-3 0 -10 0.5t-14 1.5t-13.5 1.5t-7.5 0.5q-4 0 -17 1t-29 1.5
t-31 1.5t-22 1h-13h-19q-9 0 -18 -1t-14 -6q0 -7 -0.5 -25t-0.5 -38.5t-0.5 -39t-0.5 -25.5v-72zM291 549q0 -12 0.5 -30.5t1.5 -36.5t1.5 -31.5t0.5 -14.5l2 -15q5 -1 9 -1q4 -1 7.5 -1h6.5q4 0 11.5 -0.5t15.5 -0.5t15 -0.5t9 -0.5h64q13 0 25 1t24 5q18 6 34.5 13.5
t29 18.5t20 26.5t7.5 36.5q0 14 -3.5 27.5t-8.5 26.5q-2 3 -4.5 8.5t-4.5 7.5q-11 15 -29 25q-3 2 -8 4t-8 2h-179l-37 -2q-1 -8 -1 -16q-1 -7 -1 -13.5v-11.5v-12v-15z" />
    <glyph glyph-name="C" unicode="C" horiz-adv-x="670" 
d="M50 330q0 39 7.5 76.5t16.5 74.5q4 14 9 27.5t10 26.5l23 45q3 6 8 13.5t10 13.5q3 2 8.5 7.5t11.5 12t11.5 12l7.5 7.5l4 2q2 1 5 4q35 25 74 36.5t84 11.5q47 0 84 -9t79 -30q1 -2 2 -3q2 -2 4 -2l21 -16q1 -1 2 -1q1 -1 4 -1v56l4 4h74v-254q0 -2 -1 -11t-1 -12
q0 -2 -2 -2h-74q-1 5 -1 10q-1 4 -1 8.5v6.5q0 3 -0.5 11.5t-0.5 18t-0.5 18.5t-0.5 12q-5 14 -11.5 22.5t-15.5 20.5q-37 45 -91 66q-3 2 -7.5 3t-6.5 1q-5 1 -12.5 2t-16 2t-15 1.5t-8.5 0.5h-20h-21q-24 -6 -45 -18q-22 -11 -37.5 -30.5t-26.5 -39.5q-12 -23 -22.5 -46.5
t-18.5 -48.5q-9 -29 -10.5 -60t-1.5 -62q0 -35 6.5 -71t26.5 -67q15 -23 34 -41t42 -34q28 -18 53.5 -22t59.5 -4h35q20 3 44.5 11t39.5 22q3 2 7.5 7t10 10t9.5 9.5t6 6.5l9 12q2 3 6 11t6 10q3 6 5.5 12t10.5 6q4 0 14 -3t21 -8t19.5 -10.5t9.5 -9.5q-6 -19 -15 -36
t-20 -34q-19 -29 -48.5 -48.5t-60.5 -33.5l-2 -2q-1 -1 -4 -1t-9 -2t-8 -2q-2 -1 -7.5 -2t-11.5 -2t-11.5 -1.5t-8.5 -0.5h-39q-34 0 -62 3t-53.5 10.5t-50.5 20.5t-52 34q-1 1 -2.5 2t-3.5 3l-4 4l-29 28l-2 4q-1 2 -4 5q-22 31 -33 64.5t-19 69.5q-5 20 -7.5 41t-2.5 41z
" />
  </font>
</defs>
</svg>
