<?xml version="1.0" standalone="no"?>
<!DOCTYPE svg PUBLIC "-//W3C//DTD SVG 1.1//EN" "http://www.w3.org/Graphics/SVG/1.1/DTD/svg11.dtd" >
<svg xmlns="http://www.w3.org/2000/svg" xmlns:xlink="http://www.w3.org/1999/xlink" version="1.1">
<metadata>
Created by FontForge 20200427 at Fri Dec  9 04:49:40 2016
 By www
(c) 2010 by Jeffrey N. Levine.  All rights reserved.
</metadata>
<defs>
<font id="HandmadeDropshadowJNL" horiz-adv-x="412" >
  <font-face 
    font-family="HandmadeDropshadowJNL"
    font-weight="400"
    font-stretch="normal"
    units-per-em="1000"
    panose-1="0 0 4 0 0 0 0 0 0 0"
    ascent="997"
    descent="-3"
    x-height="760"
    cap-height="760"
    bbox="0 -150 1053 969"
    underline-thickness="20"
    underline-position="-143"
    unicode-range="U+0020-2122"
  />
<missing-glyph horiz-adv-x="500" 
d="M63 0v800h375v-800h-375zM125 63h250v675h-250v-675z" />
    <glyph glyph-name=".notdef" horiz-adv-x="500" 
d="M63 0v800h375v-800h-375zM125 63h250v675h-250v-675z" />
    <glyph glyph-name=".null" horiz-adv-x="0" 
 />
    <glyph glyph-name="nonmarkingreturn" horiz-adv-x="245" 
 />
    <glyph glyph-name="space" unicode=" " horiz-adv-x="245" 
 />
    <glyph glyph-name="exclam" unicode="!" horiz-adv-x="223" 
d="M172 262v482h-65v-482h65zM172 74v71h-65v-71h65zM188 160l-2 -98l-46 -62h-105v80l62 80h91zM188 760l-2 -510l-46 -62h-105v480l62 92h91z" />
    <glyph glyph-name="quotedbl" unicode="&#x22;" horiz-adv-x="303" 
d="M268 760l-2 -196l-46 -62h-185l2 179l59 79h172zM252 576v168h-65v-168h65zM172 576v168h-66v-168h66z" />
    <glyph glyph-name="numbersign" unicode="#" horiz-adv-x="652" 
d="M593 446h-119l-70 -142h130l-23 -68h-141l-79 -159h-70l79 159h-95l-79 -159h-70l79 159h-100l25 68h109l71 142h-122l24 68h132l65 131h70l-66 -131h96l65 131h70l-66 -131h109zM309 446l-70 -142h95l71 142h-96z" />
    <glyph glyph-name="dollar" unicode="$" horiz-adv-x="380" 
d="M345 194q0 -54 -17 -82q-20 -33 -71 -40v-10l-31 -62h-70l1 70h-10q-98 0 -106 55v65l63 51h79l1 -39q5 -14 12 -14q10 0 10 22v116q0 33 -42 32q-129 -3 -129 72v169q0 37 39 64q36 25 88 30v0h2l33 67h61v-67h13q72 0 72 -58v-57l-52 -37l-82 -2l-1 29q-1 26 -26 21
v-101q0 -13 30 -13h61q30 0 51 -15t21 -44v-222zM335 206l-1 208q0 48 -69 50h-52q-40 1 -40 34v104q0 18 4 24q8 10 33 10h26q31 0 34 -30v-22h62v44q-7 56 -70 56h-14v62h-46v-62h-39q-57 -5 -56 -67l1 -151q0 -21 21 -35q23 -17 64 -17h31q47 0 47 -43v-153
q0 -43 -35 -49h-36q-19 0 -24 10q-3 6 -3 28v27h-64v-37q0 -38 19 -52q16 -13 53 -12h21v-62h46v62h16q71 1 71 73z" />
    <glyph glyph-name="percent" unicode="%" horiz-adv-x="808" 
d="M773 118q0 -67 -21 -95q-19 -23 -59 -23h-96q-85 0 -85 95v386q0 93 97 93h103q52 -7 61 -57v-399zM572 760l-219 -698l-46 -62h-75l213 680l59 80h68zM757 141l-1 365q0 50 -50 50h-91q-39 -4 -39 -60l1 -380q0 -32 11.5 -45t40.5 -13l78 1q50 0 50 82zM550 744h-36
l-210 -670h35zM717 140q0 -37 -30 -44h-44q-16 0 -20 13q-2 5 -2 25v355q0 33 33 33h33q30 0 30 -30v-352zM662 126v337q0 13 -13 13q-14 0 -14 -13v-337q0 -14 14 -14q13 0 13 14zM296 304q0 -67 -22 -95q-18 -23 -58 -23h-96q-85 0 -85 96v385q0 93 97 93h102
q52 -7 62 -57v-399zM279 327l-1 366q0 50 -50 50h-90q-40 -5 -40 -61l2 -379q0 -32 11.5 -45.5t40.5 -13.5l78 1q49 1 49 82zM239 326q0 -36 -30 -43h-43q-16 0 -21 12q-2 6 -2 25v355q0 33 34 33h32q30 0 30 -30v-352zM185 312v337q0 14 -14 14q-13 0 -13 -14v-337
q0 -13 13 -13q14 0 14 13z" />
    <glyph glyph-name="ampersand" unicode="&#x26;" horiz-adv-x="450" 
d="M415 287l-59 -51v-71q0 -104 -24 -139q-18 -26 -61 -26h-157q-37 0 -58 33t-18 92v0l-1 259q0 34 35 59q-35 3 -35 66v164q0 35 28.5 61t68.5 26h136q84 0 83 -83l-1 -80l-45 -59l-91 1l1 71q0 19 -17 19t-17 -25v-101q0 -22 15 -24h32v-99h185v-93zM399 303v61h-168v-64
h41v-136q0 -39 -36 -39h-43q-29 0 -25 30l1 208q0 41 28 41h17v57h-16q-20 0 -26 16q-1 6 -1 29v148q-4 39 23 39h49q30 0 30 -33l-1 -51h67v80q0 55 -58 55h-128q-53 0 -53 -55l1 -181q1 -59 41 -63q-40 -8 -40 -60l1 -257q0 -57 43 -57h118q75 0 75 95v137h60zM216 237
h-33v-69q0 -26 15 -25q10 -1 15 6t3 20v68z" />
    <glyph glyph-name="quotesingle" unicode="'" horiz-adv-x="222" 
d="M187 757v-190l-47 -68h-105v170l61 88h91zM172 573v168h-66v-168h66z" />
    <glyph glyph-name="parenleft" unicode="(" horiz-adv-x="279" 
d="M244 756q-61 -174 -61 -349q0 -170 57 -343l-50 -64h-104q-51 181 -51 368q0 179 53 309v0l36 79h120zM222 74q-53 178 -53 342q0 165 53 324h-65q-50 -166 -50 -333q0 -166 50 -333h65z" />
    <glyph glyph-name="parenright" unicode=")" horiz-adv-x="255" 
d="M187 756q33 -164 33 -334q0 -176 -35 -360l-45 -62h-105q43 239 43 426q0 174 -37 257v0l55 73h91zM171 74q34 180 34 345t-34 321h-65q40 -153 40 -318q0 -164 -40 -348h65z" />
    <glyph glyph-name="asterisk" unicode="*" horiz-adv-x="353" 
d="M210 548q57 -14 63 -16q43 -15 43 -39q0 -29 -33 -29q-16 0 -83 54q1 -6 14 -58q9 -35 9 -58q0 -20 -11 -36t-30 -16q-36 0 -36 47q0 28 28 115q-69 -69 -93 -69q-28 0 -28 28q0 14 47 40l54 28q-34 9 -69 18q-50 16 -50 34q0 14 11 24.5t25 10.5q38 -20 103 -60
q-2 17 -17 62q-13 38 -13 62q0 35 39 35q41 0 41 -37q0 -24 -11 -60q-14 -51 -16 -59q69 79 86 79q35 0 35 -36q0 -17 -50 -40z" />
    <glyph glyph-name="plus" unicode="+" horiz-adv-x="436" 
d="M260 563v-140h141v-86h-141v-140h-85v140h-140v86h140v140h85z" />
    <glyph glyph-name="comma" unicode="," horiz-adv-x="222" 
d="M187 160v-190l-47 -68h-105v170l61 88h91zM172 -24v168h-66v-168h66z" />
    <glyph glyph-name="hyphen" unicode="-" horiz-adv-x="307" 
d="M292 460v-90l-48 -70h-229v80l61 80h216zM276 374v70h-190v-70h190z" />
    <glyph glyph-name="hyphen" unicode="&#x2010;" horiz-adv-x="307" 
d="M292 460v-90l-48 -70h-229v80l61 80h216zM276 374v70h-190v-70h190z" />
    <glyph glyph-name="period" unicode="." horiz-adv-x="222" 
d="M187 160v-90l-47 -70h-105v80l61 80h91zM172 74v70h-66v-70h66z" />
    <glyph glyph-name="slash" unicode="/" horiz-adv-x="480" 
d="M445 760l-259 -698l-46 -62h-105l253 680l59 80h98zM423 744h-66l-250 -670h65z" />
    <glyph glyph-name="zero" unicode="0" 
d="M377 154q0 -88 -28 -124q-24 -30 -76 -30h-127q-64 0 -90 36q-21 28 -21 89v514q0 128 127 121v0h136q67 -9 79 -74v-532zM363 164l-4 509q0 69 -69 69h-120q-56 -7 -56 -83l2 -507q0 -48 21 -66q15 -14 51 -14l104 1q72 1 71 91zM302 184q0 -47 -38 -55h-57
q-19 0 -25 13q-3 7 -3 34v473q0 44 42 41v0h43q38 0 38 -37v-469zM235 165v449q0 21 -21 21t-21 -21v-449q0 -21 21 -21v0q21 0 21 21z" />
    <glyph glyph-name="one" unicode="1" horiz-adv-x="279" 
d="M229 760l-2 -698l-46 -62h-105l2 600h-63v80l60 80h154zM213 74v670h-128v-67h63v-603h65z" />
    <glyph glyph-name="two" unicode="2" horiz-adv-x="429" 
d="M394 73l-48 -73h-311l162 535h-139v125q-4 100 130 100h112q81 0 81 -63q0 -12 -3 -24l-156 -516h172v-84zM381 142h-178l157 534q2 8 2 14q0 52 -62 52h-113q-66 0 -66 -65v-76h64v76h97q13 1 13 -9q0 -4 -3 -10l-173 -585h261z" />
    <glyph glyph-name="three" unicode="3" horiz-adv-x="420" 
d="M381 131q-20 -131 -127 -131h-108q-64 0 -90 36q-21 28 -21 89v94l68 66h91l-1 -120q0 -8 6.5 -14.5t14.5 -6.5l15 1q16 1 14 24v130q0 19 -14 28h-70v104l45 44h21q9 -1 14 6t4 20v101q4 25 -14 27l-18 1q-18 0 -18 -16v-113h-158v138q0 121 127 121h134q75 3 83 -83
v-180q6 -29 -28 -50q7 0 18 -13q12 -16 12 -32v-271zM365 166v220q0 42 -41 61q32 6 41 52v190q-8 47 -54 53h-141q-56 -7 -56 -83l1 -101h64v91q0 42 35 42h50q28 0 34 -44v-134q-5 -52 -49 -52h-34v-57h36q47 5 47 -42v-198q0 -40 -39 -40h-49q-31 0 -31 52v96h-63v-120
q0 -43 16 -61.5t56 -18.5h101q76 0 76 94z" />
    <glyph glyph-name="four" unicode="4" horiz-adv-x="393" 
d="M378 242l-61 -56v-124l-45 -62h-104v184h-153v129l155 383l59 64h90l-1 -427h60v-91zM364 255v65h-60l-1 424h-65l-175 -427v-62h176v-181h65v181h60zM239 320h-105l105 256v-256z" />
    <glyph glyph-name="five" unicode="5" horiz-adv-x="375" 
d="M340 153q0 -75 -19 -109q-25 -44 -88 -44h-100q-34 0 -60 13q-36 17 -36 52v80l63 64h82l1 -48q4 -17 12 -17q9 0 9 26v142q0 41 -41 41h-54l-74 87v240l65 80h240v-76l-47 -49h-112v-124q0 -19 29 -15h61q26 0 46 -18q23 -21 23 -56v-269zM331 166l-1 254q0 60 -66 63
l-53 -1q-40 0 -40 41v168h158l-1 56h-221v-278l43 -46l73 -2q45 -1 46 -53l1 -187q0 -53 -36 -61h-35q-20 0 -25 13q-3 8 -3 34v33h-66v-44q0 -50 15 -66q12 -13 45 -13h97q69 0 69 89z" />
    <glyph glyph-name="six" unicode="6" horiz-adv-x="414" 
d="M379 121q0 -129 -127 -121v0h-136q-81 0 -81 97v532q0 129 125 130l122 1q97 0 97 -95v-133l-71 -59h-87v121q0 20 -21 20t-21 -20v-137h108q86 0 92 -63v-273zM368 390q0 28 -26 43q-22 12 -52 12h-124v214q0 31 38 31l65 -1q11 1 21 -7q14 -10 14 -29v-109h63l1 122
q0 80 -88 80h-101q-75 0 -74 -87l4 -514q1 -68 69 -68h121q27 0 48 18.5t21 45.5v249zM304 340v-169q0 -22 -5 -30q-8 -13 -33 -13h-70q-30 0 -30 41v183q0 27 24 32l72 1q22 0 33 -12t9 -33zM221 164v125q1 9 -5 17t-15 7v0q-22 0 -22 -25v-124q0 -21 21 -21t21 21z" />
    <glyph glyph-name="seven" unicode="7" horiz-adv-x="399" 
d="M384 760l-222 -760h-147l168 598l-145 -1v86l50 77h296zM360 742h-259v-65l176 1l-178 -605h66z" />
    <glyph glyph-name="eight" unicode="8" horiz-adv-x="388" 
d="M353 131q0 -78 -28.5 -104.5t-109.5 -26.5h-114q-66 0 -66 96q0 14 1 29v0v259q0 33 35 58q-35 4 -35 66v164q0 36 28.5 61.5t68.5 25.5h135q76 0 83 -83v-180q0 -34 -27 -49q7 0 18 -14.5t11 -31.5v-270zM338 166v220q0 41 -42 61q33 6 42 51v190q-9 50 -56 56h-130
q-54 -4 -53 -56l1 -180q1 -59 41 -64q-40 -7 -40 -59v-257q0 -57 44 -57h117q76 0 76 95zM270 512q-4 -51 -49 -51h-24q-21 0 -26 16q-1 5 -1 29v148q-5 38 23 38h49q28 0 28 -45v-135zM270 164q0 -39 -35 -39h-43q-14 0 -19 5q-8 8 -5 34v0v199q0 40 28 40h27q47 5 47 -41
v-198zM215 504v97q4 25 -16 28q-8 1 -13.5 -5.5t-4.5 -20.5v0v-100q0 -22 16 -24q10 -2 14.5 5t3.5 20zM215 169v129q4 28 -15 28q-17 4 -19 -25v0v-133q0 -26 16 -25q10 -1 14.5 6t3.5 20z" />
    <glyph glyph-name="nine" unicode="9" horiz-adv-x="415" 
d="M380 154q0 -154 -107 -154h-127q-64 0 -90 36q-21 28 -21 89v102l70 59h88v-121q0 -21 21 -21t21 21v137h-112q-82 0 -88 63v274q0 128 127 121v0h136q81 0 81 -97zM363 164l-4 509q0 69 -69 69h-120q-55 0 -55 -64v-250q0 -30 10.5 -42t36.5 -12l140 -1v-189
q0 -46 -37 -54h-51q-12 -2 -22 6q-13 10 -13 29v109h-63l-1 -122q0 -48 21 -66q16 -14 52 -14l104 1q72 1 71 91zM302 466q0 -26 -23 -31h-74q-29 0 -26 28v186q0 22 6.5 31.5t31.5 9.5h55q30 0 30 -40v-184zM235 472v142q0 21 -21 21t-21 -21v-144q-1 -8 5 -16.5t15 -7.5v0
q22 0 22 26z" />
    <glyph glyph-name="colon" unicode=":" horiz-adv-x="222" 
d="M187 160v-90l-47 -70h-105v80l61 80h91zM172 74v70h-66v-70h66zM187 430v-90l-47 -70h-105v80l61 80h91zM172 344v70h-66v-70h66z" />
    <glyph glyph-name="semicolon" unicode=";" horiz-adv-x="222" 
d="M187 430v-90l-47 -70h-105v80l61 80h91zM172 344v70h-66v-70h66zM187 160v-190l-47 -68h-105v170l61 88h91zM172 -24v168h-66v-168h66z" />
    <glyph glyph-name="equal" unicode="=" horiz-adv-x="436" 
d="M401 407h-366v86h366v-86zM401 267h-366v86h366v-86z" />
    <glyph glyph-name="question" unicode="?" horiz-adv-x="328" 
d="M275 478q-35 -82 -42 -104q-19 -60 -16 -115l-32 -72h-109q-4 42 -4 77q0 110 58 227q39 78 39 117q0 16 -7 16q-10 0 -13 -25l-35 -65h-103q-1 21 -1 40q0 96 37 139q40 47 134 47v0q134 -4 134 -122q0 -65 -40 -160zM217 160l-2 -98l-46 -62h-105l2 81l60 79h91z
M262 488q39 81 39 146q0 112 -120 110q-118 -2 -112 -143h68q0 42 11.5 60t35.5 18q41 -2 41 -55q0 -56 -37 -140q-54 -124 -54 -224h66q2 101 62 228zM201 74v70h-65v-70h65z" />
    <glyph glyph-name="at" unicode="@" horiz-adv-x="787" 
d="M521 129q-37 0 -63.5 21.5t-30.5 57.5q-63 -67 -132 -67q-55 0 -88 39q-31 36 -31 92q0 115 78.5 204.5t191.5 89.5q65 0 90 -52l24 39h94q-41 -78 -82 -157q-72 -144 -72 -173q0 -36 39 -36q66 0 114 95q41 82 41 156q0 111 -76 175q-71 61 -184 61q-145 0 -236 -109
q-86 -102 -86 -250q0 -126 89 -201q84 -71 212 -71q82 0 156.5 38.5t123.5 105.5l36 -36q-58 -73 -143.5 -114.5t-178.5 -41.5q-155 0 -260 86q-112 92 -112 243q0 176 114 289t290 113q128 0 217 -72q96 -77 96 -202q0 -112 -59 -210q-68 -113 -172 -113zM451 521
q-67 0 -129 -102q-57 -93 -57 -166q0 -20 13 -35.5t33 -15.5q64 0 127 102q58 94 58 164q0 53 -45 53z" />
    <glyph glyph-name="A" unicode="A" horiz-adv-x="447" 
d="M432 63l-36 -63h-95l-33 120h-87l-14 -63l-41 -57l-111 2l142 663l75 95h65zM411 72l-128 670l-41 2l-144 -669l59 -2l27 122h142l29 -122zM315 247l-119 1l61 303zM238 261l-12 65l-18 -67z" />
    <glyph glyph-name="B" unicode="B" horiz-adv-x="406" 
d="M367 131q-9 -57 -42 -92q-38 -39 -97 -39h-176l-2 681l65 79h167q75 0 83 -83v-180q6 -29 -28 -50q7 0 18.5 -14.5t11.5 -30.5v-271zM351 166v220q0 42 -42 61q33 6 42 52v190q-9 49 -56 55h-182l6 -673h157q75 0 75 95zM284 513q-5 -52 -50 -52h-51v232h67q27 0 34 -46
v-134zM284 164q0 -39 -36 -39h-67v279h55q48 5 48 -42v-198zM228 505v97q3 17 -14 27h-20v-150h16q10 -1 14.5 6t3.5 20zM228 169v130q3 17 -14 27h-20v-183h16q10 -1 14.5 6t3.5 20z" />
    <glyph glyph-name="C" unicode="C" 
d="M377 154q0 -89 -23 -121.5t-81 -32.5h-127q-64 0 -90 36q-21 28 -21 89v514q0 128 127 120v0h136q67 -9 79 -73v-81l-51 -64l-91 1v72q0 21 -21 21t-21 -21v-449q0 -21 21 -21v0q21 0 21 21v51l55 66h87v-128zM363 166l-1 106h-60v-86q0 -47 -38 -56h-57q-19 0 -25 14
q-3 7 -3 34v472q0 42 42 42h43q38 0 38 -38v-46h58l-1 66q0 69 -69 69h-121q-55 -6 -55 -83l2 -506q0 -49 21 -67q15 -13 51 -13l104 1q72 1 71 91z" />
    <glyph glyph-name="D" unicode="D" horiz-adv-x="406" 
d="M367 131q-19 -121 -108 -131h-207l-2 681l65 79h167q89 0 83 -83zM351 166v523q-9 49 -56 55h-182l2 -673h161q74 0 75 95zM283 164q0 -39 -35 -39h-67l2 568h67q27 0 33 -46v-483zM228 169v433q3 17 -14 27h-20v-486h16q10 -1 14.5 6t3.5 20z" />
    <glyph glyph-name="E" unicode="E" horiz-adv-x="357" 
d="M320 60l-55 -60h-215v673l67 87h205v-67l-46 -61h-74v-159h92v-63l-43 -73h-49v-197h118v-80zM310 66v60h-124l2 282h90v55h-86l-2 224l118 1v60h-179l1 -682h180z" />
    <glyph glyph-name="F" unicode="F" horiz-adv-x="337" 
d="M322 693l-45 -61l-72 -1v-159h90v-63l-44 -73h-49v-266l-55 -70h-97v673l67 87h205v-67zM308 748l-178 1v-670l56 -1l2 329h91v55h-87v229h114z" />
    <glyph glyph-name="G" unicode="G" 
d="M377 154q0 -89 -23 -121.5t-81 -32.5h-127q-64 0 -90 36q-21 28 -21 89v514q0 128 127 120v0h136q67 -9 79 -73v-81l-51 -64l-91 1v72q0 21 -21 21t-21 -21v-449q0 -21 21 -21v0q21 0 21 21v123l-20 2v83l20 33h142v-252zM363 166l-2 230h-96v-49h37v-161q0 -47 -38 -56
h-57q-19 0 -25 14q-3 7 -3 34v472q0 42 42 42h43q38 0 38 -38v-46h58l-1 66q0 69 -69 69h-121q-55 -6 -55 -83l2 -506q0 -49 21 -67q15 -13 51 -13l104 1q72 1 71 91z" />
    <glyph glyph-name="H" unicode="H" horiz-adv-x="418" 
d="M368 760l-2 -694l-47 -66h-103l1 336h-16l-1 -270l-47 -66h-103l2 681l59 79h91l-1 -288h17v209l60 79h90zM353 78v666h-66v-282h-101v282h-65v-666h65v329h101v-329h66z" />
    <glyph glyph-name="I" unicode="I" horiz-adv-x="253" 
d="M203 760l-2 -698l-46 -62h-105l2 680l60 80h91zM187 74v670h-65v-670h65z" />
    <glyph glyph-name="J" unicode="J" horiz-adv-x="360" 
d="M345 760l-1 -590q0 -170 -106 -170h-89q-72 0 -100.5 30.5t-33.5 113.5l2 49l63 69h89v-86q0 -37 16 -37q20 0 20 37v515l55 69h85zM329 180v566h-63v-576q0 -43 -36 -48h-38q-37 7 -37 58v70h-63v-82q0 -47 24 -75t63 -28l79 1q71 1 71 114z" />
    <glyph glyph-name="K" unicode="K" horiz-adv-x="392" 
d="M377 760l-109 -312l105 -381l-51 -67h-97l-26 151l1 -88l-48 -63h-102l2 680l59 79h92v-206l75 206zM353 75l-101 373l101 295h-65l-101 -283v283h-66v-668h66v330l101 -330h65z" />
    <glyph glyph-name="L" unicode="L" horiz-adv-x="341" 
d="M326 134v-70l-49 -64h-227l2 675l61 85h91v-626h122zM313 73v51h-123l2 622h-59v-673h180z" />
    <glyph glyph-name="M" unicode="M" horiz-adv-x="614" 
d="M564 755l-1 -684l-47 -73h-100l1 288l-45 -215l-49 -71h-57l-66 315v-248l-50 -69h-100v660l61 98h145l53 -264l42 177l72 87zM552 79v662l-119 1l-94 -447l-100 447h-118v-663h65v574l139 -582h34l127 584l1 -576h65z" />
    <glyph glyph-name="N" unicode="N" horiz-adv-x="457" 
d="M407 760v-690l-56 -70h-92l-58 315l-1 -249l-47 -66h-103l2 681l59 77h146l12 -60l47 62h91zM391 78v666h-65v-398l-88 399l-117 -1v-666h65v571l136 -571h69z" />
    <glyph glyph-name="O" unicode="O" 
d="M377 154q0 -88 -28 -124q-24 -30 -76 -30h-127q-64 0 -90 36q-21 28 -21 89v514q0 128 127 121v0h136q67 -9 79 -74v-532zM363 164v499q0 79 -73 79h-120q-56 -7 -56 -83l2 -507q0 -48 21 -66q15 -14 51 -14l104 1q71 1 71 91zM302 184q0 -47 -38 -55h-57q-19 0 -25 13
q-3 7 -3 34v473q0 44 42 41v0h43q38 0 38 -37v-469zM235 165v449q0 21 -21 21t-21 -21v-449q0 -21 21 -21v0q21 0 21 21z" />
    <glyph glyph-name="P" unicode="P" horiz-adv-x="364" 
d="M349 508q0 -75 -18 -109q-28 -54 -107 -54q-15 0 -33 3l1 -281l-49 -67h-93l2 675l63 85h150q46 -3 61.5 -17t22.5 -62v-173zM335 536v145q0 63 -59 63h-157v-669h57v338h67q39 0 65.5 31.5t26.5 91.5zM275 521q1 -48 -51 -48h-45v222l54 -1q41 -1 41 -37zM212 485v118
q0 26 -21 30v-148h21z" />
    <glyph glyph-name="Q" unicode="Q" horiz-adv-x="451" 
d="M416 96l-66 -96l-45 29q-18 -29 -34 -29h-125q-64 0 -90 36q-21 28 -21 89v514q0 128 127 120v0h136q73 -9 81 -95v0l-2 -510q-3 -16 -6 -26zM400 94l-44 31q10 30 10 42l1 494q0 32 -17 54q-21 27 -60 27h-121q-55 -7 -55 -83v-504q0 -84 74 -83l104 1q6 0 16 3l52 -40z
M302 184q0 -55 -35 -55h-60q-19 0 -25 13q-3 7 -3 34v473q0 44 42 41v0h43q38 0 38 -37v-469zM235 165v449q0 21 -21 21t-21 -21v-449q0 -21 21 -21v0q21 0 21 21z" />
    <glyph glyph-name="R" unicode="R" horiz-adv-x="387" 
d="M352 72l-59 -72h-70l-10 22v301q7 23 -16 23q-4 0 -7 -1v-270l-47 -75h-93l2 675l63 85h140q91 0 94 -79v-171q0 -19 -12 -37.5t-30 -23.5q16 -9 29 -28q16 -22 16 -45v-304zM340 74v294q0 54 -60 83q49 17 55 63v167q0 63 -59 63h-157v-669h57v338l56 -1q17 0 31.5 -13
t14.5 -37v-287zM275 521q1 -25 -9 -37.5t-31 -11.5l-56 1v222l54 -1q41 -1 41 -37zM212 485v118q0 26 -21 30v-148h21z" />
    <glyph glyph-name="S" unicode="S" horiz-adv-x="376" 
d="M338 619l-51 -45l-81 -2l-1 36q-1 26 -17 26q-4 0 -8 -1v-123q0 -19 29 -16h60q29 0 50 -20q22 -23 22 -58v-272q0 -72 -20 -104q-26 -40 -90 -40h-86q-40 0 -68 15q-32 18 -36 51v81l61 61h79l1 -48q4 -16 11 -16q10 0 10 26v142q0 41 -41 40q-127 -4 -127 87v206
q0 45 37 77t88 38v0h106q72 0 72 -71v-70zM330 167l-2 252q-1 59 -67 61l-51 1q-40 0 -40 41v127q0 22 6 31.5t31 9.5h26q33 0 33 -37v-26h61l-1 54q0 68 -68 68h-98q-55 -6 -54 -82l1 -184q0 -26 20 -43q23 -20 63 -20h31q46 0 46 -53l1 -186q0 -53 -35 -61h-35
q-20 0 -25 13q-3 7 -3 34v32h-63l1 -44q0 -48 20 -66q16 -13 51 -13l81 1q71 1 70 90z" />
    <glyph glyph-name="T" unicode="T" horiz-adv-x="336" 
d="M321 683l-38 -46l-44 -2v-568l-65 -67l-82 2v631h-77v62l50 65h254zM303 695v51h-221v-51h82v-620h63v620h76z" />
    <glyph glyph-name="U" unicode="U" horiz-adv-x="400" 
d="M365 760l-1 -590q0 -170 -106 -170h-89q-73 0 -103.5 31t-30.5 113l2 547l63 69h89v-584q0 -37 16 -37q20 0 20 37v515l55 69h85zM349 180v566h-63v-576q0 -43 -36 -48h-38q-37 7 -37 58v568h-63v-580q0 -47 24 -75t63 -28l79 1q71 1 71 114z" />
    <glyph glyph-name="V" unicode="V" horiz-adv-x="421" 
d="M406 760l-142 -689l-50 -71h-57l-142 683l47 75h85l54 -265l41 178l73 89h91zM384 744h-59l-95 -448l-101 448h-61l148 -673h34z" />
    <glyph glyph-name="W" unicode="W" horiz-adv-x="682" 
d="M667 760l-143 -689l-49 -71h-57l-85 407l-69 -336l-50 -71h-57l-142 683l47 75h85l54 -265l41 178l73 89h91l55 -267l42 178l73 89h91zM645 744h-59l-95 -448l-102 447l-64 1l-95 -448l-101 448h-61l148 -673h34l106 533l121 -533h34z" />
    <glyph glyph-name="X" unicode="X" horiz-adv-x="439" 
d="M404 760l-106 -354l96 -332l-48 -73h-89l-40 136l-38 -137l-144 1l112 397l-89 285l50 77h89l39 -132l36 132h132zM380 74l-98 336l98 332h-65l-66 -223l-65 223h-65l98 -332l-98 -336h63l67 227l68 -227h63z" />
    <glyph glyph-name="Y" unicode="Y" horiz-adv-x="330" 
d="M315 759l-92 -388l-1 -309l-45 -62h-105l2 368l-59 320l43 70l88 1l13 -73l67 74zM294 744h-54l-57 -271l-51 270h-61l72 -376v-293h65v301z" />
    <glyph glyph-name="Z" unicode="Z" horiz-adv-x="439" 
d="M404 760l-182 -603h172v-84l-47 -73h-312l168 597h-145v86l50 77h296zM381 142h-178l177 600h-259v-65l177 1l-179 -605h261z" />
    <glyph glyph-name="bracketleft" unicode="[" horiz-adv-x="257" 
d="M222 715l-48 -44l-1 -692h46l1 -66l-47 -62l-123 1v882l34 46h137zM205 724v40h-111v-838h111v39h-46v759h46z" />
    <glyph glyph-name="bracketright" unicode="]" horiz-adv-x="254" 
d="M204 780l-2 -868l-46 -62l-121 1l1 76l23 51h22v694h-45v58l27 50h141zM189 -75l-1 839h-111v-40h45v-759h-46v-39z" />
    <glyph glyph-name="underscore" unicode="_" horiz-adv-x="452" 
d="M0 -27h482v-26h-482v26z" />
    <glyph glyph-name="grave" unicode="`" horiz-adv-x="220" 
d="M185 823l-37 -48h-59l-54 149l34 45h61zM172 831l-47 126h-49l47 -126h49z" />
    <glyph glyph-name="a" unicode="a" horiz-adv-x="447" 
d="M432 63l-36 -63h-95l-33 120h-87l-14 -63l-41 -57l-111 2l142 663l75 95h65zM411 72l-128 670l-41 2l-144 -669l59 -2l27 122h142l29 -122zM315 247l-119 1l61 303zM238 261l-12 65l-18 -67z" />
    <glyph glyph-name="b" unicode="b" horiz-adv-x="406" 
d="M367 131q-9 -57 -42 -92q-38 -39 -97 -39h-176l-2 681l65 79h167q75 0 83 -83v-180q6 -29 -28 -50q7 0 18.5 -14.5t11.5 -30.5v-271zM351 166v220q0 42 -42 61q33 6 42 52v190q-9 49 -56 55h-182l6 -673h157q75 0 75 95zM284 513q-5 -52 -50 -52h-51v232h67q27 0 34 -46
v-134zM284 164q0 -39 -36 -39h-67v279h55q48 5 48 -42v-198zM228 505v97q3 17 -14 27h-20v-150h16q10 -1 14.5 6t3.5 20zM228 169v130q3 17 -14 27h-20v-183h16q10 -1 14.5 6t3.5 20z" />
    <glyph glyph-name="c" unicode="c" 
d="M377 154q0 -89 -23 -121.5t-81 -32.5h-127q-64 0 -90 36q-21 28 -21 89v514q0 128 127 120v0h136q67 -9 79 -73v-81l-51 -64l-91 1v72q0 21 -21 21t-21 -21v-449q0 -21 21 -21v0q21 0 21 21v51l55 66h87v-128zM363 166l-1 106h-60v-86q0 -47 -38 -56h-57q-19 0 -25 14
q-3 7 -3 34v472q0 42 42 42h43q38 0 38 -38v-46h58l-1 66q0 69 -69 69h-121q-55 -6 -55 -83l2 -506q0 -49 21 -67q15 -13 51 -13l104 1q72 1 71 91z" />
    <glyph glyph-name="d" unicode="d" horiz-adv-x="406" 
d="M367 131q-19 -121 -108 -131h-207l-2 681l65 79h167q89 0 83 -83zM351 166v523q-9 49 -56 55h-182l2 -673h161q74 0 75 95zM283 164q0 -39 -35 -39h-67l2 568h67q27 0 33 -46v-483zM228 169v433q3 17 -14 27h-20v-486h16q10 -1 14.5 6t3.5 20z" />
    <glyph glyph-name="e" unicode="e" horiz-adv-x="357" 
d="M320 60l-55 -60h-215v673l67 87h205v-67l-46 -61h-74v-159h92v-63l-43 -73h-49v-197h118v-80zM310 66v60h-124l2 282h90v55h-86l-2 224l118 1v60h-179l1 -682h180z" />
    <glyph glyph-name="f" unicode="f" horiz-adv-x="337" 
d="M322 693l-45 -61l-72 -1v-159h90v-63l-44 -73h-49v-266l-55 -70h-97v673l67 87h205v-67zM308 748l-178 1v-670l56 -1l2 329h91v55h-87v229h114z" />
    <glyph glyph-name="g" unicode="g" 
d="M377 154q0 -89 -23 -121.5t-81 -32.5h-127q-64 0 -90 36q-21 28 -21 89v514q0 128 127 120v0h136q67 -9 79 -73v-81l-51 -64l-91 1v72q0 21 -21 21t-21 -21v-449q0 -21 21 -21v0q21 0 21 21v123l-20 2v83l20 33h142v-252zM363 166l-2 230h-96v-49h37v-161q0 -47 -38 -56
h-57q-19 0 -25 14q-3 7 -3 34v472q0 42 42 42h43q38 0 38 -38v-46h58l-1 66q0 69 -69 69h-121q-55 -6 -55 -83l2 -506q0 -49 21 -67q15 -13 51 -13l104 1q72 1 71 91z" />
    <glyph glyph-name="h" unicode="h" horiz-adv-x="418" 
d="M368 760l-2 -694l-47 -66h-103l1 336h-16l-1 -270l-47 -66h-103l2 681l59 79h91l-1 -288h17v209l60 79h90zM353 78v666h-66v-282h-101v282h-65v-666h65v329h101v-329h66z" />
    <glyph glyph-name="i" unicode="i" horiz-adv-x="253" 
d="M203 760l-2 -698l-46 -62h-105l2 680l60 80h91zM187 74v670h-65v-670h65z" />
    <glyph glyph-name="j" unicode="j" horiz-adv-x="360" 
d="M345 760l-1 -590q0 -170 -106 -170h-89q-72 0 -100.5 30.5t-33.5 113.5l2 49l63 69h89v-86q0 -37 16 -37q20 0 20 37v515l55 69h85zM329 180v566h-63v-576q0 -43 -36 -48h-38q-37 7 -37 58v70h-63v-82q0 -47 24 -75t63 -28l79 1q71 1 71 114z" />
    <glyph glyph-name="k" unicode="k" horiz-adv-x="392" 
d="M377 760l-109 -312l105 -381l-51 -67h-97l-26 151l1 -88l-48 -63h-102l2 680l59 79h92v-206l75 206zM353 75l-101 373l101 295h-65l-101 -283v283h-66v-668h66v330l101 -330h65z" />
    <glyph glyph-name="l" unicode="l" horiz-adv-x="341" 
d="M326 134v-70l-49 -64h-227l2 675l61 85h91v-626h122zM313 73v51h-123l2 622h-59v-673h180z" />
    <glyph glyph-name="m" unicode="m" horiz-adv-x="614" 
d="M564 755l-1 -684l-47 -73h-100l1 288l-45 -215l-49 -71h-57l-66 315v-248l-50 -69h-100v660l61 98h145l53 -264l42 177l72 87zM552 79v662l-119 1l-94 -447l-100 447h-118v-663h65v574l139 -582h34l127 584l1 -576h65z" />
    <glyph glyph-name="n" unicode="n" horiz-adv-x="457" 
d="M407 760v-690l-56 -70h-92l-58 315l-1 -249l-47 -66h-103l2 681l59 77h146l12 -60l47 62h91zM391 78v666h-65v-398l-88 399l-117 -1v-666h65v571l136 -571h69z" />
    <glyph glyph-name="o" unicode="o" 
d="M377 154q0 -88 -28 -124q-24 -30 -76 -30h-127q-64 0 -90 36q-21 28 -21 89v514q0 128 127 121v0h136q67 -9 79 -74v-532zM363 164v499q0 79 -73 79h-120q-56 -7 -56 -83l2 -507q0 -48 21 -66q15 -14 51 -14l104 1q71 1 71 91zM302 184q0 -47 -38 -55h-57q-19 0 -25 13
q-3 7 -3 34v473q0 44 42 41v0h43q38 0 38 -37v-469zM235 165v449q0 21 -21 21t-21 -21v-449q0 -21 21 -21v0q21 0 21 21z" />
    <glyph glyph-name="p" unicode="p" horiz-adv-x="364" 
d="M349 508q0 -75 -18 -109q-28 -54 -107 -54q-15 0 -33 3l1 -281l-49 -67h-93l2 675l63 85h150q46 -3 61.5 -17t22.5 -62v-173zM335 536v145q0 63 -59 63h-157v-669h57v338h67q39 0 65.5 31.5t26.5 91.5zM275 521q1 -48 -51 -48h-45v222l54 -1q41 -1 41 -37zM212 485v118
q0 26 -21 30v-148h21z" />
    <glyph glyph-name="q" unicode="q" horiz-adv-x="451" 
d="M416 96l-66 -96l-45 29q-18 -29 -34 -29h-125q-64 0 -90 36q-21 28 -21 89v514q0 128 127 120v0h136q73 -9 81 -95v0l-2 -510q-3 -16 -6 -26zM400 94l-44 31q10 30 10 42l1 494q0 32 -17 54q-21 27 -60 27h-121q-55 -7 -55 -83v-504q0 -84 74 -83l104 1q6 0 16 3l52 -40z
M302 184q0 -55 -35 -55h-60q-19 0 -25 13q-3 7 -3 34v473q0 44 42 41v0h43q38 0 38 -37v-469zM235 165v449q0 21 -21 21t-21 -21v-449q0 -21 21 -21v0q21 0 21 21z" />
    <glyph glyph-name="r" unicode="r" horiz-adv-x="387" 
d="M352 72l-59 -72h-70l-10 22v301q7 23 -16 23q-4 0 -7 -1v-270l-47 -75h-93l2 675l63 85h140q91 0 94 -79v-171q0 -19 -12 -37.5t-30 -23.5q16 -9 29 -28q16 -22 16 -45v-304zM340 74v294q0 54 -60 83q49 17 55 63v167q0 63 -59 63h-157v-669h57v338l56 -1q17 0 31.5 -13
t14.5 -37v-287zM275 521q1 -25 -9 -37.5t-31 -11.5l-56 1v222l54 -1q41 -1 41 -37zM212 485v118q0 26 -21 30v-148h21z" />
    <glyph glyph-name="s" unicode="s" horiz-adv-x="376" 
d="M338 619l-51 -45l-81 -2l-1 36q-1 26 -17 26q-4 0 -8 -1v-123q0 -19 29 -16h60q29 0 50 -20q22 -23 22 -58v-272q0 -72 -20 -104q-26 -40 -90 -40h-86q-40 0 -68 15q-32 18 -36 51v81l61 61h79l1 -48q4 -16 11 -16q10 0 10 26v142q0 41 -41 40q-127 -4 -127 87v206
q0 45 37 77t88 38v0h106q72 0 72 -71v-70zM330 167l-2 252q-1 59 -67 61l-51 1q-40 0 -40 41v127q0 22 6 31.5t31 9.5h26q33 0 33 -37v-26h61l-1 54q0 68 -68 68h-98q-55 -6 -54 -82l1 -184q0 -26 20 -43q23 -20 63 -20h31q46 0 46 -53l1 -186q0 -53 -35 -61h-35
q-20 0 -25 13q-3 7 -3 34v32h-63l1 -44q0 -48 20 -66q16 -13 51 -13l81 1q71 1 70 90z" />
    <glyph glyph-name="t" unicode="t" horiz-adv-x="336" 
d="M321 683l-38 -46l-44 -2v-568l-65 -67l-82 2v631h-77v62l50 65h254zM303 695v51h-221v-51h82v-620h63v620h76z" />
    <glyph glyph-name="u" unicode="u" horiz-adv-x="400" 
d="M365 760l-1 -590q0 -170 -106 -170h-89q-73 0 -103.5 31t-30.5 113l2 547l63 69h89v-584q0 -37 16 -37q20 0 20 37v515l55 69h85zM349 180v566h-63v-576q0 -43 -36 -48h-38q-37 7 -37 58v568h-63v-580q0 -47 24 -75t63 -28l79 1q71 1 71 114z" />
    <glyph glyph-name="v" unicode="v" horiz-adv-x="421" 
d="M406 760l-142 -689l-50 -71h-57l-142 683l47 75h85l54 -265l41 178l73 89h91zM384 744h-59l-95 -448l-101 448h-61l148 -673h34z" />
    <glyph glyph-name="w" unicode="w" horiz-adv-x="682" 
d="M667 760l-143 -689l-49 -71h-57l-85 407l-69 -336l-50 -71h-57l-142 683l47 75h85l54 -265l41 178l73 89h91l55 -267l42 178l73 89h91zM645 744h-59l-95 -448l-102 447l-64 1l-95 -448l-101 448h-61l148 -673h34l106 533l121 -533h34z" />
    <glyph glyph-name="x" unicode="x" horiz-adv-x="439" 
d="M404 760l-106 -354l96 -332l-48 -73h-89l-40 136l-38 -137l-144 1l112 397l-89 285l50 77h89l39 -132l36 132h132zM380 74l-98 336l98 332h-65l-66 -223l-65 223h-65l98 -332l-98 -336h63l67 227l68 -227h63z" />
    <glyph glyph-name="y" unicode="y" horiz-adv-x="330" 
d="M315 759l-92 -388l-1 -309l-45 -62h-105l2 368l-59 320l43 70l88 1l13 -73l67 74zM294 744h-54l-57 -271l-51 270h-61l72 -376v-293h65v301z" />
    <glyph glyph-name="z" unicode="z" horiz-adv-x="439" 
d="M404 760l-182 -603h172v-84l-47 -73h-312l168 597h-145v86l50 77h296zM381 142h-178l177 600h-259v-65l177 1l-179 -605h261z" />
    <glyph glyph-name="exclamdown" unicode="&#xa1;" horiz-adv-x="223" 
d="M188 760l-2 -98l-46 -62h-105l2 80l60 80h91zM188 572l-2 -510l-46 -62h-105l2 493l60 79h91zM172 674v70h-65v-70h65zM172 74v482h-65v-482h65z" />
    <glyph glyph-name="cent" unicode="&#xa2;" horiz-adv-x="414" 
d="M379 199q0 -72 -23 -98.5t-82 -26.5h-2v-12l-30 -62h-70v74h-26q-64 0 -90 29q-21 23 -21 72v416q0 98 127 98h16l35 71h61v-71h25q68 -7 80 -59v-66l-51 -52l-92 1v58q0 17 -21 17t-21 -17v-363q0 -17 21 -17v0q21 0 21 17v41l55 53h88v-103zM365 209l-1 85h-61v-69
q1 -38 -37 -45h-58q-20 0 -25 11q-3 6 -3 27v383q0 34 42 34h44q34 0 37 -31v-37h58v53q-6 56 -70 56h-28v13v0v0v55v0v1h-44v-69h-49q-56 -5 -56 -67l2 -410q1 -38 20 -53q16 -12 53 -12l30 1v-59h2v-2h-1v0h43v0h-1v2h1v59h30q73 1 72 74z" />
    <glyph glyph-name="sterling" unicode="&#xa3;" horiz-adv-x="503" 
d="M468 70l-59 -70h-374l1 85l45 62h32l1 187l-79 1v60l36 74h42v169q0 61 30 89t97 32v0l211 1v-79l-31 -63l-128 1q-21 0 -21 -20v-129h142l1 -76l-40 -55l-103 1v-195h196zM455 74v57h-200l2 267h143v59h-143l-1 192q0 47 43 43h136v51h-175q-66 -8 -66 -83v-203h-115
v-60l115 1v-267h-107v-57h368z" />
    <glyph glyph-name="currency" unicode="&#xa4;" horiz-adv-x="489" 
d="M454 154q0 -89 -23 -121.5t-81 -32.5h-127q-64 0 -90 36q-21 28 -21 88v151h-97v60l26 62l-26 -1v61l33 74h64v107q0 61 30 88.5t97 32.5v0l211 1v-79l-31 -63h-128q-21 0 -21 -19v-67l146 1l-42 -122h42l-28 -77l-46 -57l-72 -1v-111q0 -21 21 -21t21 21v51l55 66h87
v-128zM440 166l-1 106h-61l1 -86q0 -47 -38 -56h-57q-19 0 -25 13q-2 8 -3 35v161h121l22 58h-143v63l122 1l21 57h-143l-1 131q0 47 43 42h136v52h-175q-66 -8 -66 -83v-142h-93l-22 -59l115 1v-63h-94l-20 -58h114v-185q0 -49 21 -67q15 -13 51 -13l104 1q72 1 71 91z" />
    <glyph glyph-name="yen" unicode="&#xa5;" horiz-adv-x="350" 
d="M335 759l-85 -359h69l-2 -88l-38 -52h40l-1 -87l-42 -56h-33l-1 -55l-45 -62h-104v117h-78l2 73l50 67h-52l2 72l53 71h18l-53 288l43 70l88 1l14 -73l66 74zM314 744h-54l-57 -271l-51 270h-61l68 -355h-85v-65h85v-76h-85v-63h85v-110h70v110h75v62l-75 1v76h74l1 65
h-74z" />
    <glyph glyph-name="dieresis" unicode="&#xa8;" horiz-adv-x="260" 
d="M225 896l-1 -73l-35 -47h-48v16l-11 -16h-95l1 61l45 59h69l-1 -9l8 9h68zM213 832v52h-49v-52h49zM138 832v52h-49v-52h49z" />
    <glyph glyph-name="copyright" unicode="&#xa9;" horiz-adv-x="800" 
d="M400 -5q-155 0 -260 105t-105 260t105 260t260 105t260 -105t105 -260t-105 -260t-260 -105zM400 680q-137 0 -228.5 -91.5t-91.5 -228.5t91.5 -228.5t228.5 -91.5t228.5 91.5t91.5 228.5t-91.5 228.5t-228.5 91.5zM394 152q-90 0 -153 54q-66 57 -66 145q0 102 70 161
q66 56 170 56q149 0 209 -117l-51 -27q-54 86 -155 86q-177 0 -177 -169q0 -56 49 -96q46 -37 104 -37q118 0 188 100l45 -31q-85 -125 -233 -125z" />
    <glyph glyph-name="guillemotleft" unicode="&#xab;" horiz-adv-x="332" 
d="M154 383l143 143v-71l-73 -73l73 -73v-69zM35 383l143 143v-71l-73 -73l73 -73v-69z" />
    <glyph glyph-name="minus" unicode="&#xad;" horiz-adv-x="436" 
d="M401 337h-366v86h366v-86z" />
    <glyph glyph-name="minus" unicode="&#x2212;" horiz-adv-x="436" 
d="M401 337h-366v86h366v-86z" />
    <glyph glyph-name="registered" unicode="&#xae;" horiz-adv-x="493" 
d="M246 302q-89 0 -150 61t-61 150q0 90 60.5 151t150.5 61t151 -61t61 -151t-61 -150.5t-151 -60.5zM246 687q-73 0 -123 -50.5t-50 -123.5q0 -72 50.5 -122.5t122.5 -50.5q73 0 123.5 50t50.5 123t-50.5 123.5t-123.5 50.5zM323 392l-57 92h-75v-93h-50v245h117
q113 0 113 -76q0 -51 -52 -69l60 -99h-56zM259 589h-67v-56h63q67 0 67 29q0 27 -63 27z" />
    <glyph glyph-name="acute" unicode="&#xb4;" horiz-adv-x="237" 
d="M202 969l-54 -147l-34 -47h-79l48 134l45 60h74zM185 957h-49l-47 -126h49z" />
    <glyph glyph-name="guillemotright" unicode="&#xbb;" horiz-adv-x="332" 
d="M154 240v69l73 73l-73 73v71l143 -143zM35 240v69l73 73l-73 73v71l143 -143z" />
    <glyph glyph-name="onequarter" unicode="&#xbc;" horiz-adv-x="689" 
d="M654 183l-45 -43v-92l-35 -48h-81v138h-115v99l117 288l44 49h71l-1 -320h45v-71zM497 760l-219 -698l-45 -62h-76l213 680l60 80h67zM640 195v45h-46v318h-46l-130 -318v-45h132v-135h44v135h46zM475 744h-36l-210 -670h36zM550 240h-84l84 204v-204zM198 234l-35 -48
h-82l1 450h-47v63l46 61h119zM184 744h-93v-46h47v-452h46v498z" />
    <glyph glyph-name="onehalf" unicode="&#xbd;" horiz-adv-x="752" 
d="M497 760l-219 -698l-45 -62h-76l213 680l60 80h67zM200 760l-2 -526l-35 -48h-82l1 450h-47v63l46 61h119zM475 744h-36l-210 -670h36zM184 246v498h-93v-46h47v-452h46zM680 0h-237l121 401h-103l-1 96q0 77 100 77h84q63 0 63 -49q0 -9 -3 -19l-116 -384h128l1 -66z
M568 107l119 402q7 48 -43 47h-85q-47 0 -47 -47v-54h44v57h74q9 0 11 -4q3 -5 -1 -13l-129 -436h191v47z" />
    <glyph glyph-name="threequarters" unicode="&#xbe;" horiz-adv-x="772" 
d="M737 183l-45 -43v-92l-35 -48h-81v138h-115v99l117 288l45 49h70v-320h44v-71zM580 760l-218 -698l-46 -62h-75l212 680l60 80h67zM723 195v45h-45v318h-46l-131 -318v-45h132v-135h45v135h45zM558 744h-35l-211 -670h36zM633 240h-84l84 204v-204zM201 186h-81
q-85 0 -85 96v71l52 51h71v-92q0 -6 4 -10t9 -4q13 1 15 2q6 3 5 15v97q0 14 -9 19h-54v82l35 33h17q5 -1 8.5 3.5t2.5 14.5v75q3 18 -9 19h-13q-11 1 -11 -9v-87h-123v105q0 93 97 93h101q58 0 64 -64v-135q4 -21 -18 -37q20 -12 20 -35v-203q-15 -100 -98 -100zM283 478
q0 30 -36 46q29 6 36 38v142q-6 34 -39 39l-106 -1q-40 -4 -40 -60l1 -73h44v66q0 33 28 33h38q22 0 27 -34v-102q-3 -40 -39 -40h-23v-39h25q37 4 37 -33v-149q0 -32 -31 -32h-37q-25 0 -25 41v70h-44l1 -88q0 -35 15 -48q11 -10 37 -10h76q55 0 55 69v165z" />
    <glyph glyph-name="questiondown" unicode="&#xbf;" horiz-adv-x="381" 
d="M287 760l-2 -98l-46 -63h-105l2 81l59 80h92zM344 227q2 -21 2 -40q0 -97 -38 -142q-40 -48 -134 -45v0q-139 2 -139 134q0 67 34 155q22 51 42 102t26 113l33 72h109q1 -88 -25 -168q-14 -38 -28 -77q-37 -90 -37 -136q0 -33 17 -33q22 0 26 31l23 33zM271 674v70h-66
v-70h66zM335 219h-69q0 -43 -11 -61t-36 -18q-41 2 -41 55q0 57 37 141q55 125 55 225h-67q-2 -101 -62 -228q-39 -82 -39 -147q0 -113 120 -111q118 2 113 144z" />
    <glyph glyph-name="Agrave" unicode="&#xc0;" horiz-adv-x="447" 
d="M432 63l-36 -63h-95l-33 120h-87l-14 -63l-41 -57l-111 2l142 663l75 95h65zM411 72l-128 670l-41 2l-144 -669l59 -2l27 122h142l29 -122zM315 247l-119 1l61 303zM238 261l-12 65l-18 -67zM315 823l-37 -48h-59l-54 149l34 45h61zM302 831l-47 126h-49l47 -126h49z" />
    <glyph glyph-name="Aacute" unicode="&#xc1;" horiz-adv-x="447" 
d="M432 63l-36 -63h-95l-33 120h-87l-14 -63l-41 -57l-111 2l142 663l75 95h65zM411 72l-128 670l-41 2l-144 -669l59 -2l27 122h142l29 -122zM315 247l-119 1l61 303zM238 261l-12 65l-18 -67zM342 969l-54 -147l-34 -47h-79l48 134l45 60h74zM325 957h-49l-47 -126h49z
" />
    <glyph glyph-name="Acircumflex" unicode="&#xc2;" horiz-adv-x="447" 
d="M432 63l-36 -63h-95l-33 120h-87l-14 -63l-41 -57l-111 2l142 663l75 95h65zM411 72l-128 670l-41 2l-144 -669l59 -2l27 122h142l29 -122zM315 247l-119 1l61 303zM238 261l-12 65l-18 -67zM348 771h-106l-15 45l-19 -45h-93l56 145l36 47h74zM316 827l-43 124h-58
l-47 -126h47l28 82l27 -81z" />
    <glyph glyph-name="Atilde" unicode="&#xc3;" horiz-adv-x="447" 
d="M432 63l-36 -63h-95l-33 120h-87l-14 -63l-41 -57l-111 2l142 663l75 95h65zM411 72l-128 670l-41 2l-144 -669l59 -2l27 122h142l29 -122zM315 247l-119 1l61 303zM238 261l-12 65l-18 -67zM356 825q-3 -14 -24.5 -27t-43.5 -13q-10 0 -31 7t-33 7q-9 0 -16 -4
q-10 -2 -17 -7t-13 -10l-33 56q25 51 78 51q15 0 31 -4q16 -7 34 -7q24 0 40 12zM340 836l-17 37q-15 -11 -34 -11q-16 0 -36 9q-18 4 -31 4q-27 0 -44 -17l21 -38q21 13 41 13q15 0 29 -9q11 -4 23 -4q28 0 48 16z" />
    <glyph glyph-name="Adieresis" unicode="&#xc4;" horiz-adv-x="447" 
d="M432 63l-36 -63h-95l-33 120h-87l-14 -63l-41 -57l-111 2l142 663l75 95h65zM411 72l-128 670l-41 2l-144 -669l59 -2l27 122h142l29 -122zM315 247l-119 1l61 303zM238 261l-12 65l-18 -67zM345 896l-1 -73l-35 -47h-48v16l-11 -16h-95l1 61l45 59h69l-1 -9l8 9h68z
M333 832v52h-49v-52h49zM258 832v52h-49v-52h49z" />
    <glyph glyph-name="Aring" unicode="&#xc5;" horiz-adv-x="447" 
d="M411 72l-128 670l-41 2l-144 -669l59 -2l27 122h142l29 -122zM339 834q0 -51 -47 -74h5l135 -697l-36 -63h-95l-33 120h-87l-14 -63l-41 -57l-111 2l142 663l73 92q-55 20 -55 77q0 34 24.5 58t57.5 24q34 0 58 -24t24 -58zM323 849q0 24 -17 40.5t-40 16.5t-40 -16.5
t-17 -40.5q0 -23 17 -39.5t40 -16.5t40 16.5t17 39.5zM315 247l-119 1l61 303zM238 261l-12 65l-18 -67zM294 849q0 -27 -28 -27q-27 0 -27 27q0 28 27 28q28 0 28 -28z" />
    <glyph glyph-name="AE" unicode="&#xc6;" horiz-adv-x="485" 
d="M450 69l-57 -71h-147v122h-66l-13 -63l-42 -57l-110 2l142 662l75 94h218v-67l-45 -61h-75v-159h93v-63l-43 -73h-50v-197h118zM439 77v47h-124v278l96 1l-1 58h-90v228h117v57h-195l-144 -671l59 -2l27 122h77v-118h178zM260 248h-65l65 320v-320z" />
    <glyph glyph-name="Ccedilla" unicode="&#xc7;" 
d="M377 154q0 -89 -23 -121.5t-81 -32.5h-15l-23 -113h-96l23 113h-16q-64 0 -90 36q-21 28 -21 89v514q0 120 127 120h136q67 -9 79 -73v-81l-51 -64l-91 1v72q0 21 -21 21t-21 -21v-449q0 -21 21 -21q21 10 21 21v51l55 66h87v-128zM363 166l-1 106h-60v-86q0 -47 -38 -56
h-57q-19 0 -25 14q-3 7 -3 34v472q0 42 42 42h43q38 0 38 -38v-46h58l-1 66q0 69 -69 69h-121q-55 -35 -55 -83l2 -506q0 -49 21 -67q15 -13 51 -13l38 1l-35 -163h30l35 163h36q72 1 71 91z" />
    <glyph glyph-name="Egrave" unicode="&#xc8;" horiz-adv-x="357" 
d="M320 60l-55 -60h-215v673l67 87h205v-67l-46 -61h-74v-159h92v-63l-43 -73h-49v-197h118v-80zM310 66v60h-124l2 282h90v55h-86l-2 224l118 1v60h-179l1 -682h180zM265 823l-37 -48h-59l-54 149l34 45h61zM252 831l-47 126h-49l47 -126h49z" />
    <glyph glyph-name="Eacute" unicode="&#xc9;" horiz-adv-x="357" 
d="M320 60l-55 -60h-215v673l67 87h205v-67l-46 -61h-74v-159h92v-63l-43 -73h-49v-197h118v-80zM310 66v60h-124l2 282h90v55h-86l-2 224l118 1v60h-179l1 -682h180zM282 969l-54 -147l-34 -47h-79l48 134l45 60h74zM265 957h-49l-47 -126h49z" />
    <glyph glyph-name="Ecircumflex" unicode="&#xca;" horiz-adv-x="357" 
d="M320 60l-55 -60h-215v673l67 87h205v-67l-46 -61h-74v-159h92v-63l-43 -73h-49v-197h118v-80zM310 66v60h-124l2 282h90v55h-86l-2 224l118 1v60h-179l1 -682h180zM298 771h-106l-15 45l-19 -45h-93l56 145l36 47h74zM266 827l-43 124h-58l-47 -126h47l28 82l27 -81z" />
    <glyph glyph-name="Edieresis" unicode="&#xcb;" horiz-adv-x="357" 
d="M320 60l-55 -60h-215v673l67 87h205v-67l-46 -61h-74v-159h92v-63l-43 -73h-49v-197h118v-80zM310 66v60h-124l2 282h90v55h-86l-2 224l118 1v60h-179l1 -682h180zM285 896l-1 -73l-35 -47h-48v16l-11 -16h-95l1 61l45 59h69l-1 -9l8 9h68zM273 832v52h-49v-52h49z
M198 832v52h-49v-52h49z" />
    <glyph glyph-name="Igrave" unicode="&#xcc;" horiz-adv-x="258" 
d="M208 760l-2 -698l-46 -62h-105l2 680l60 80h91zM192 74v670h-65v-670h65zM200 823l-37 -48h-59l-54 149l34 45h61zM187 831l-47 126h-49l47 -126h49z" />
    <glyph glyph-name="Iacute" unicode="&#xcd;" horiz-adv-x="272" 
d="M203 760l-2 -698l-46 -62h-105l2 680l60 80h91zM187 74v670h-65v-670h65zM222 969l-54 -147l-34 -47h-79l48 134l45 60h74zM205 957h-49l-47 -126h49z" />
    <glyph glyph-name="Icircumflex" unicode="&#xce;" horiz-adv-x="263" 
d="M203 760l-2 -698l-46 -62h-105l2 680l60 80h91zM187 74v670h-65v-670h65zM249 771h-106l-15 45l-19 -45h-93l56 145l36 47h74zM217 827l-43 124h-58l-47 -126h47l28 82l27 -81z" />
    <glyph glyph-name="Idieresis" unicode="&#xcf;" horiz-adv-x="260" 
d="M194 760l-2 -698l-46 -62h-105l2 680l60 80h91zM178 74v670h-65v-670h65zM225 896l-1 -73l-35 -47h-48v16l-11 -16h-95l1 61l45 59h69l-1 -9l8 9h68zM213 832v52h-49v-52h49zM138 832v52h-49v-52h49z" />
    <glyph glyph-name="Eth" unicode="&#xd0;" horiz-adv-x="418" 
d="M382 131q-18 -121 -107 -131h-207l-1 315h-32v101l31 32v233l65 79h166q79 0 86 -76zM367 166v523q-2 13 -8 24q-14 25 -48 31l-177 -1l-2 -308h-40v-55h40l-1 -309h160q22 2 38 11q37 23 38 84zM299 164q0 -39 -35 -39h-68l1 255h46v55h-46l1 258h68q27 0 33 -46v-483z
M244 448v154q3 17 -14 27h-20v-181h34zM244 169v146h-34v-172h16q9 -1 14 6t4 20z" />
    <glyph glyph-name="Ntilde" unicode="&#xd1;" horiz-adv-x="457" 
d="M407 760v-690l-56 -70h-92l-58 315l-1 -249l-47 -66h-103l2 681l59 77h146l12 -60l47 62h91zM391 78v666h-65v-398l-88 399l-117 -1v-666h65v571l136 -571h69zM346 825q-3 -14 -24.5 -27t-43.5 -13q-10 0 -31 7t-33 7q-9 0 -16 -4q-10 -2 -17 -7t-13 -10l-33 56
q25 51 78 51q15 0 31 -4q16 -7 34 -7q24 0 40 12zM330 836l-17 37q-15 -11 -34 -11q-16 0 -36 9q-18 4 -31 4q-27 0 -44 -17l21 -38q21 13 41 13q15 0 29 -9q11 -4 23 -4q28 0 48 16z" />
    <glyph glyph-name="Ograve" unicode="&#xd2;" 
d="M377 154q0 -88 -28 -124q-24 -30 -76 -30h-127q-64 0 -90 36q-21 28 -21 89v514q0 128 127 121v0h136q67 -9 79 -74v-532zM363 164v499q0 79 -73 79h-120q-56 -7 -56 -83l2 -507q0 -48 21 -66q15 -14 51 -14l104 1q71 1 71 91zM302 184q0 -47 -38 -55h-57q-19 0 -25 13
q-3 7 -3 34v473q0 44 42 41v0h43q38 0 38 -37v-469zM235 165v449q0 21 -21 21t-21 -21v-449q0 -21 21 -21v0q21 0 21 21zM295 823l-37 -48h-59l-54 149l34 45h61zM282 831l-47 126h-49l47 -126h49z" />
    <glyph glyph-name="Oacute" unicode="&#xd3;" 
d="M377 154q0 -88 -28 -124q-24 -30 -76 -30h-127q-64 0 -90 36q-21 28 -21 89v514q0 128 127 121v0h136q67 -9 79 -74v-532zM363 164v499q0 79 -73 79h-120q-56 -7 -56 -83l2 -507q0 -48 21 -66q15 -14 51 -14l104 1q71 1 71 91zM302 184q0 -47 -38 -55h-57q-19 0 -25 13
q-3 7 -3 34v473q0 44 42 41v0h43q38 0 38 -37v-469zM235 165v449q0 21 -21 21t-21 -21v-449q0 -21 21 -21v0q21 0 21 21zM312 969l-54 -147l-34 -47h-79l48 134l45 60h74zM295 957h-49l-47 -126h49z" />
    <glyph glyph-name="Ocircumflex" unicode="&#xd4;" 
d="M377 154q0 -88 -28 -124q-24 -30 -76 -30h-127q-64 0 -90 36q-21 28 -21 89v514q0 128 127 121v0h136q67 -9 79 -74v-532zM363 164v499q0 79 -73 79h-120q-56 -7 -56 -83l2 -507q0 -48 21 -66q15 -14 51 -14l104 1q71 1 71 91zM302 184q0 -47 -38 -55h-57q-19 0 -25 13
q-3 7 -3 34v473q0 44 42 41v0h43q38 0 38 -37v-469zM235 165v449q0 21 -21 21t-21 -21v-449q0 -21 21 -21v0q21 0 21 21zM318 771h-106l-15 45l-19 -45h-93l56 145l36 47h74zM286 827l-43 124h-58l-47 -126h47l28 82l27 -81z" />
    <glyph glyph-name="Otilde" unicode="&#xd5;" 
d="M377 154q0 -88 -28 -124q-24 -30 -76 -30h-127q-64 0 -90 36q-21 28 -21 89v514q0 128 127 121v0h136q67 -9 79 -74v-532zM363 164v499q0 79 -73 79h-120q-56 -7 -56 -83l2 -507q0 -48 21 -66q15 -14 51 -14l104 1q71 1 71 91zM302 184q0 -47 -38 -55h-57q-19 0 -25 13
q-3 7 -3 34v473q0 44 42 41v0h43q38 0 38 -37v-469zM235 165v449q0 21 -21 21t-21 -21v-449q0 -21 21 -21v0q21 0 21 21zM326 825q-3 -14 -24.5 -27t-43.5 -13q-10 0 -31 7t-33 7q-9 0 -16 -4q-10 -2 -17 -7t-13 -10l-33 56q25 51 78 51q15 0 31 -4q16 -7 34 -7q24 0 40 12z
M310 836l-17 37q-15 -11 -34 -11q-16 0 -36 9q-18 4 -31 4q-27 0 -44 -17l21 -38q21 13 41 13q15 0 29 -9q11 -4 23 -4q28 0 48 16z" />
    <glyph glyph-name="Odieresis" unicode="&#xd6;" 
d="M377 154q0 -88 -28 -124q-24 -30 -76 -30h-127q-64 0 -90 36q-21 28 -21 89v514q0 128 127 121v0h136q67 -9 79 -74v-532zM363 164v499q0 79 -73 79h-120q-56 -7 -56 -83l2 -507q0 -48 21 -66q15 -14 51 -14l104 1q71 1 71 91zM302 184q0 -47 -38 -55h-57q-19 0 -25 13
q-3 7 -3 34v473q0 44 42 41v0h43q38 0 38 -37v-469zM235 165v449q0 21 -21 21t-21 -21v-449q0 -21 21 -21v0q21 0 21 21zM315 896l-1 -73l-35 -47h-48v16l-11 -16h-95l1 61l45 59h69l-1 -9l8 9h68zM303 832v52h-49v-52h49zM228 832v52h-49v-52h49z" />
    <glyph glyph-name="multiply" unicode="&#xd7;" horiz-adv-x="389" 
d="M96 539l99 -99l99 99l60 -60l-99 -99l99 -99l-60 -60l-99 99l-99 -99l-61 60l100 99l-100 99z" />
    <glyph glyph-name="Oslash" unicode="&#xd8;" 
d="M377 154q0 -88 -28 -124q-24 -30 -76 -30h-80l-7 -33h-106l9 43q-54 23 -54 115v514q0 68 56 99q41 22 101 22h53l5 24h106l-9 -42q23 -16 30 -56v-532zM363 164v499q0 51 -35 70l7 32h-49l-5 -23h-111q-56 -35 -56 -83l2 -507q0 -57 29 -72l-19 -91h49l17 83l100 1
q71 1 71 91zM271 690l-92 -442v401q0 41 42 41h43h7zM302 184q0 -47 -38 -55h-60l98 476v-421z" />
    <glyph glyph-name="Ugrave" unicode="&#xd9;" horiz-adv-x="400" 
d="M365 760l-1 -590q0 -170 -106 -170h-89q-73 0 -103.5 31t-30.5 113l2 547l63 69h89v-584q0 -37 16 -37q20 0 20 37v515l55 69h85zM349 180v566h-63v-576q0 -43 -36 -48h-38q-37 7 -37 58v568h-63v-580q0 -47 24 -75t63 -28l79 1q71 1 71 114zM285 823l-37 -48h-59
l-54 149l34 45h61zM272 831l-47 126h-49l47 -126h49z" />
    <glyph glyph-name="Uacute" unicode="&#xda;" horiz-adv-x="400" 
d="M365 760l-1 -590q0 -170 -106 -170h-89q-73 0 -103.5 31t-30.5 113l2 547l63 69h89v-584q0 -37 16 -37q20 0 20 37v515l55 69h85zM349 180v566h-63v-576q0 -43 -36 -48h-38q-37 7 -37 58v568h-63v-580q0 -47 24 -75t63 -28l79 1q71 1 71 114zM312 969l-54 -147l-34 -47
h-79l48 134l45 60h74zM295 957h-49l-47 -126h49z" />
    <glyph glyph-name="Ucircumflex" unicode="&#xdb;" horiz-adv-x="400" 
d="M365 760l-1 -590q0 -170 -106 -170h-89q-73 0 -103.5 31t-30.5 113l2 547l63 69h89v-584q0 -37 16 -37q20 0 20 37v515l55 69h85zM349 180v566h-63v-576q0 -43 -36 -48h-38q-37 7 -37 58v568h-63v-580q0 -47 24 -75t63 -28l79 1q71 1 71 114zM338 771h-106l-15 45
l-19 -45h-93l56 145l36 47h74zM306 827l-43 124h-58l-47 -126h47l28 82l27 -81z" />
    <glyph glyph-name="Udieresis" unicode="&#xdc;" horiz-adv-x="400" 
d="M365 760l-1 -590q0 -170 -106 -170h-89q-73 0 -103.5 31t-30.5 113l2 547l63 69h89v-584q0 -37 16 -37q20 0 20 37v515l55 69h85zM349 180v566h-63v-576q0 -43 -36 -48h-38q-37 7 -37 58v568h-63v-580q0 -47 24 -75t63 -28l79 1q71 1 71 114zM305 896l-1 -73l-35 -47h-48
v16l-11 -16h-95l1 61l45 59h69l-1 -9l8 9h68zM293 832v52h-49v-52h49zM218 832v52h-49v-52h49z" />
    <glyph glyph-name="Yacute" unicode="&#xdd;" horiz-adv-x="330" 
d="M315 759l-92 -388l-1 -309l-45 -62h-105l2 368l-59 320l43 70l88 1l13 -73l67 74zM294 744h-54l-57 -271l-51 270h-61l72 -376v-293h65v301zM272 969l-54 -147l-34 -47h-79l48 134l45 60h74zM255 957h-49l-47 -126h49z" />
    <glyph glyph-name="Thorn" unicode="&#xde;" horiz-adv-x="386" 
d="M351 323q0 -61 -23 -87q-28 -31 -103 -31q-15 0 -32 1l1 -135l-51 -71h-93v660l53 99h90v-182h73q56 0 74 -26q11 -15 11 -53v-175zM337 351v147q0 63 -59 63h-98v188h-68v-673h68v152h64q39 0 66 31.5t27 91.5zM277 336q0 -48 -52 -48h-45v223l54 -1q41 0 42 -37z
M213 301v118q0 26 -22 30v-148h22z" />
    <glyph glyph-name="agrave" unicode="&#xe0;" horiz-adv-x="447" 
d="M432 63l-36 -63h-95l-33 120h-87l-14 -63l-41 -57l-111 2l142 663l75 95h65zM411 72l-128 670l-41 2l-144 -669l59 -2l27 122h142l29 -122zM315 247l-119 1l61 303zM238 261l-12 65l-18 -67zM315 823l-37 -48h-59l-54 149l34 45h61zM302 831l-47 126h-49l47 -126h49z" />
    <glyph glyph-name="aacute" unicode="&#xe1;" horiz-adv-x="447" 
d="M432 63l-36 -63h-95l-33 120h-87l-14 -63l-41 -57l-111 2l142 663l75 95h65zM411 72l-128 670l-41 2l-144 -669l59 -2l27 122h142l29 -122zM315 247l-119 1l61 303zM238 261l-12 65l-18 -67zM342 969l-54 -147l-34 -47h-79l48 134l45 60h74zM325 957h-49l-47 -126h49z
" />
    <glyph glyph-name="acircumflex" unicode="&#xe2;" horiz-adv-x="447" 
d="M432 63l-36 -63h-95l-33 120h-87l-14 -63l-41 -57l-111 2l142 663l75 95h65zM411 72l-128 670l-41 2l-144 -669l59 -2l27 122h142l29 -122zM315 247l-119 1l61 303zM238 261l-12 65l-18 -67zM348 771h-106l-15 45l-19 -45h-93l56 145l36 47h74zM316 827l-43 124h-58
l-47 -126h47l28 82l27 -81z" />
    <glyph glyph-name="atilde" unicode="&#xe3;" horiz-adv-x="447" 
d="M432 63l-36 -63h-95l-33 120h-87l-14 -63l-41 -57l-111 2l142 663l75 95h65zM411 72l-128 670l-41 2l-144 -669l59 -2l27 122h142l29 -122zM315 247l-119 1l61 303zM238 261l-12 65l-18 -67zM356 825q-3 -14 -24.5 -27t-43.5 -13q-10 0 -31 7t-33 7q-9 0 -16 -4
q-10 -2 -17 -7t-13 -10l-33 56q25 51 78 51q15 0 31 -4q16 -7 34 -7q24 0 40 12zM340 836l-17 37q-15 -11 -34 -11q-16 0 -36 9q-18 4 -31 4q-27 0 -44 -17l21 -38q21 13 41 13q15 0 29 -9q11 -4 23 -4q28 0 48 16z" />
    <glyph glyph-name="adieresis" unicode="&#xe4;" horiz-adv-x="447" 
d="M432 63l-36 -63h-95l-33 120h-87l-14 -63l-41 -57l-111 2l142 663l75 95h65zM411 72l-128 670l-41 2l-144 -669l59 -2l27 122h142l29 -122zM315 247l-119 1l61 303zM238 261l-12 65l-18 -67zM345 896l-1 -73l-35 -47h-48v16l-11 -16h-95l1 61l45 59h69l-1 -9l8 9h68z
M333 832v52h-49v-52h49zM258 832v52h-49v-52h49z" />
    <glyph glyph-name="aring" unicode="&#xe5;" horiz-adv-x="447" 
d="M411 72l-128 670l-41 2l-144 -669l59 -2l27 122h142l29 -122zM339 834q0 -51 -47 -74h5l135 -697l-36 -63h-95l-33 120h-87l-14 -63l-41 -57l-111 2l142 663l73 92q-55 20 -55 77q0 34 24.5 58t57.5 24q34 0 58 -24t24 -58zM323 849q0 24 -17 40.5t-40 16.5t-40 -16.5
t-17 -40.5q0 -23 17 -39.5t40 -16.5t40 16.5t17 39.5zM315 247l-119 1l61 303zM238 261l-12 65l-18 -67zM294 849q0 -27 -28 -27q-27 0 -27 27q0 28 27 28q28 0 28 -28z" />
    <glyph glyph-name="ae" unicode="&#xe6;" horiz-adv-x="485" 
d="M450 69l-57 -71h-147v122h-66l-13 -63l-42 -57l-110 2l142 662l75 94h218v-67l-45 -61h-75v-159h93v-63l-43 -73h-50v-197h118zM439 77v47h-124v278l96 1l-1 58h-90v228h117v57h-195l-144 -671l59 -2l27 122h77v-118h178zM260 248h-65l65 320v-320z" />
    <glyph glyph-name="ccedilla" unicode="&#xe7;" 
d="M377 154q0 -89 -23 -121.5t-81 -32.5h-15l-23 -113h-96l23 113h-16q-64 0 -90 36q-21 28 -21 89v514q0 120 127 120h136q67 -9 79 -73v-81l-51 -64l-91 1v72q0 21 -21 21t-21 -21v-449q0 -21 21 -21q21 10 21 21v51l55 66h87v-128zM363 166l-1 106h-60v-86q0 -47 -38 -56
h-57q-19 0 -25 14q-3 7 -3 34v472q0 42 42 42h43q38 0 38 -38v-46h58l-1 66q0 69 -69 69h-121q-55 -35 -55 -83l2 -506q0 -49 21 -67q15 -13 51 -13l38 1l-35 -163h30l35 163h36q72 1 71 91z" />
    <glyph glyph-name="egrave" unicode="&#xe8;" horiz-adv-x="357" 
d="M320 60l-55 -60h-215v673l67 87h205v-67l-46 -61h-74v-159h92v-63l-43 -73h-49v-197h118v-80zM310 66v60h-124l2 282h90v55h-86l-2 224l118 1v60h-179l1 -682h180zM265 823l-37 -48h-59l-54 149l34 45h61zM252 831l-47 126h-49l47 -126h49z" />
    <glyph glyph-name="eacute" unicode="&#xe9;" horiz-adv-x="357" 
d="M320 60l-55 -60h-215v673l67 87h205v-67l-46 -61h-74v-159h92v-63l-43 -73h-49v-197h118v-80zM310 66v60h-124l2 282h90v55h-86l-2 224l118 1v60h-179l1 -682h180zM282 969l-54 -147l-34 -47h-79l48 134l45 60h74zM265 957h-49l-47 -126h49z" />
    <glyph glyph-name="ecircumflex" unicode="&#xea;" horiz-adv-x="357" 
d="M320 60l-55 -60h-215v673l67 87h205v-67l-46 -61h-74v-159h92v-63l-43 -73h-49v-197h118v-80zM310 66v60h-124l2 282h90v55h-86l-2 224l118 1v60h-179l1 -682h180zM298 771h-106l-15 45l-19 -45h-93l56 145l36 47h74zM266 827l-43 124h-58l-47 -126h47l28 82l27 -81z" />
    <glyph glyph-name="edieresis" unicode="&#xeb;" horiz-adv-x="357" 
d="M320 60l-55 -60h-215v673l67 87h205v-67l-46 -61h-74v-159h92v-63l-43 -73h-49v-197h118v-80zM310 66v60h-124l2 282h90v55h-86l-2 224l118 1v60h-179l1 -682h180zM285 896l-1 -73l-35 -47h-48v16l-11 -16h-95l1 61l45 59h69l-1 -9l8 9h68zM273 832v52h-49v-52h49z
M198 832v52h-49v-52h49z" />
    <glyph glyph-name="igrave" unicode="&#xec;" horiz-adv-x="258" 
d="M208 760l-2 -698l-46 -62h-105l2 680l60 80h91zM192 74v670h-65v-670h65zM200 823l-37 -48h-59l-54 149l34 45h61zM187 831l-47 126h-49l47 -126h49z" />
    <glyph glyph-name="iacute" unicode="&#xed;" horiz-adv-x="272" 
d="M203 760l-2 -698l-46 -62h-105l2 680l60 80h91zM187 74v670h-65v-670h65zM222 969l-54 -147l-34 -47h-79l48 134l45 60h74zM205 957h-49l-47 -126h49z" />
    <glyph glyph-name="icircumflex" unicode="&#xee;" horiz-adv-x="263" 
d="M203 760l-2 -698l-46 -62h-105l2 680l60 80h91zM187 74v670h-65v-670h65zM248 771h-106l-15 45l-19 -45h-93l56 145l36 47h74zM216 827l-43 124h-58l-47 -126h47l28 82l27 -81z" />
    <glyph glyph-name="idieresis" unicode="&#xef;" horiz-adv-x="260" 
d="M193 760l-2 -698l-46 -62h-105l2 680l60 80h91zM177 74v670h-65v-670h65zM225 896l-1 -73l-35 -47h-48v16l-11 -16h-95l1 61l45 59h69l-1 -9l8 9h68zM213 832v52h-49v-52h49zM138 832v52h-49v-52h49z" />
    <glyph glyph-name="eth" unicode="&#xf0;" horiz-adv-x="418" 
d="M382 131q-18 -121 -107 -131h-207l-1 315h-32v101l31 32v233l65 79h166q79 0 86 -76zM367 166v523q-2 13 -8 24q-14 25 -48 31l-177 -1l-2 -308h-40v-55h40l-1 -309h160q22 2 38 11q37 23 38 84zM299 164q0 -39 -35 -39h-68l1 255h46v55h-46l1 258h68q27 0 33 -46v-483z
M244 448v154q3 17 -14 27h-20v-181h34zM244 169v146h-34v-172h16q9 -1 14 6t4 20z" />
    <glyph glyph-name="ntilde" unicode="&#xf1;" horiz-adv-x="457" 
d="M407 760v-690l-56 -70h-92l-58 315l-1 -249l-47 -66h-103l2 681l59 77h146l12 -60l47 62h91zM391 78v666h-65v-398l-88 399l-117 -1v-666h65v571l136 -571h69zM346 825q-3 -14 -24.5 -27t-43.5 -13q-10 0 -31 7t-33 7q-9 0 -16 -4q-10 -2 -17 -7t-13 -10l-33 56
q25 51 78 51q15 0 31 -4q16 -7 34 -7q24 0 40 12zM330 836l-17 37q-15 -11 -34 -11q-16 0 -36 9q-18 4 -31 4q-27 0 -44 -17l21 -38q21 13 41 13q15 0 29 -9q11 -4 23 -4q28 0 48 16z" />
    <glyph glyph-name="ograve" unicode="&#xf2;" 
d="M377 154q0 -88 -28 -124q-24 -30 -76 -30h-127q-64 0 -90 36q-21 28 -21 89v514q0 128 127 121v0h136q67 -9 79 -74v-532zM363 164v499q0 79 -73 79h-120q-56 -7 -56 -83l2 -507q0 -48 21 -66q15 -14 51 -14l104 1q71 1 71 91zM302 184q0 -47 -38 -55h-57q-19 0 -25 13
q-3 7 -3 34v473q0 44 42 41v0h43q38 0 38 -37v-469zM235 165v449q0 21 -21 21t-21 -21v-449q0 -21 21 -21v0q21 0 21 21zM295 823l-37 -48h-59l-54 149l34 45h61zM282 831l-47 126h-49l47 -126h49z" />
    <glyph glyph-name="oacute" unicode="&#xf3;" 
d="M377 154q0 -88 -28 -124q-24 -30 -76 -30h-127q-64 0 -90 36q-21 28 -21 89v514q0 128 127 121v0h136q67 -9 79 -74v-532zM363 164v499q0 79 -73 79h-120q-56 -7 -56 -83l2 -507q0 -48 21 -66q15 -14 51 -14l104 1q71 1 71 91zM302 184q0 -47 -38 -55h-57q-19 0 -25 13
q-3 7 -3 34v473q0 44 42 41v0h43q38 0 38 -37v-469zM235 165v449q0 21 -21 21t-21 -21v-449q0 -21 21 -21v0q21 0 21 21zM312 969l-54 -147l-34 -47h-79l48 134l45 60h74zM295 957h-49l-47 -126h49z" />
    <glyph glyph-name="ocircumflex" unicode="&#xf4;" 
d="M377 154q0 -88 -28 -124q-24 -30 -76 -30h-127q-64 0 -90 36q-21 28 -21 89v514q0 128 127 121v0h136q67 -9 79 -74v-532zM363 164v499q0 79 -73 79h-120q-56 -7 -56 -83l2 -507q0 -48 21 -66q15 -14 51 -14l104 1q71 1 71 91zM302 184q0 -47 -38 -55h-57q-19 0 -25 13
q-3 7 -3 34v473q0 44 42 41v0h43q38 0 38 -37v-469zM235 165v449q0 21 -21 21t-21 -21v-449q0 -21 21 -21v0q21 0 21 21zM318 771h-106l-15 45l-19 -45h-93l56 145l36 47h74zM286 827l-43 124h-58l-47 -126h47l28 82l27 -81z" />
    <glyph glyph-name="otilde" unicode="&#xf5;" 
d="M377 154q0 -88 -28 -124q-24 -30 -76 -30h-127q-64 0 -90 36q-21 28 -21 89v514q0 128 127 121v0h136q67 -9 79 -74v-532zM363 164v499q0 79 -73 79h-120q-56 -7 -56 -83l2 -507q0 -48 21 -66q15 -14 51 -14l104 1q71 1 71 91zM302 184q0 -47 -38 -55h-57q-19 0 -25 13
q-3 7 -3 34v473q0 44 42 41v0h43q38 0 38 -37v-469zM235 165v449q0 21 -21 21t-21 -21v-449q0 -21 21 -21v0q21 0 21 21zM326 825q-3 -14 -24.5 -27t-43.5 -13q-10 0 -31 7t-33 7q-9 0 -16 -4q-10 -2 -17 -7t-13 -10l-33 56q25 51 78 51q15 0 31 -4q16 -7 34 -7q24 0 40 12z
M310 836l-17 37q-15 -11 -34 -11q-16 0 -36 9q-18 4 -31 4q-27 0 -44 -17l21 -38q21 13 41 13q15 0 29 -9q11 -4 23 -4q28 0 48 16z" />
    <glyph glyph-name="odieresis" unicode="&#xf6;" 
d="M377 154q0 -88 -28 -124q-24 -30 -76 -30h-127q-64 0 -90 36q-21 28 -21 89v514q0 128 127 121v0h136q67 -9 79 -74v-532zM363 164v499q0 79 -73 79h-120q-56 -7 -56 -83l2 -507q0 -48 21 -66q15 -14 51 -14l104 1q71 1 71 91zM302 184q0 -47 -38 -55h-57q-19 0 -25 13
q-3 7 -3 34v473q0 44 42 41v0h43q38 0 38 -37v-469zM235 165v449q0 21 -21 21t-21 -21v-449q0 -21 21 -21v0q21 0 21 21zM315 896l-1 -73l-35 -47h-48v16l-11 -16h-95l1 61l45 59h69l-1 -9l8 9h68zM303 832v52h-49v-52h49zM228 832v52h-49v-52h49z" />
    <glyph glyph-name="divide" unicode="&#xf7;" horiz-adv-x="436" 
d="M401 337h-366v86h366v-86zM157 530q0 23 16.5 39.5t39.5 16.5t39.5 -16.5t16.5 -39.5t-16.5 -39.5t-39.5 -16.5t-39.5 16.5t-16.5 39.5zM157 240q0 23 16.5 39.5t39.5 16.5t39.5 -16.5t16.5 -39.5t-16.5 -39.5t-39.5 -16.5t-39.5 16.5t-16.5 39.5z" />
    <glyph glyph-name="oslash" unicode="&#xf8;" 
d="M377 154q0 -88 -28 -124q-24 -30 -76 -30h-80l-7 -33h-106l9 43q-54 23 -54 115v514q0 68 56 99q41 22 101 22h53l5 24h106l-9 -42q23 -16 30 -56v-532zM363 164v499q0 51 -35 70l7 32h-49l-5 -23h-111q-56 -35 -56 -83l2 -507q0 -57 29 -72l-19 -91h49l17 83l100 1
q71 1 71 91zM271 690l-92 -442v401q0 41 42 41h43h7zM302 184q0 -47 -38 -55h-60l98 476v-421z" />
    <glyph glyph-name="ugrave" unicode="&#xf9;" horiz-adv-x="400" 
d="M365 760l-1 -590q0 -170 -106 -170h-89q-73 0 -103.5 31t-30.5 113l2 547l63 69h89v-584q0 -37 16 -37q20 0 20 37v515l55 69h85zM349 180v566h-63v-576q0 -43 -36 -48h-38q-37 7 -37 58v568h-63v-580q0 -47 24 -75t63 -28l79 1q71 1 71 114zM285 823l-37 -48h-59
l-54 149l34 45h61zM272 831l-47 126h-49l47 -126h49z" />
    <glyph glyph-name="uacute" unicode="&#xfa;" horiz-adv-x="400" 
d="M365 760l-1 -590q0 -170 -106 -170h-89q-73 0 -103.5 31t-30.5 113l2 547l63 69h89v-584q0 -37 16 -37q20 0 20 37v515l55 69h85zM349 180v566h-63v-576q0 -43 -36 -48h-38q-37 7 -37 58v568h-63v-580q0 -47 24 -75t63 -28l79 1q71 1 71 114zM312 969l-54 -147l-34 -47
h-79l48 134l45 60h74zM295 957h-49l-47 -126h49z" />
    <glyph glyph-name="ucircumflex" unicode="&#xfb;" horiz-adv-x="400" 
d="M365 760l-1 -590q0 -170 -106 -170h-89q-73 0 -103.5 31t-30.5 113l2 547l63 69h89v-584q0 -37 16 -37q20 0 20 37v515l55 69h85zM349 180v566h-63v-576q0 -43 -36 -48h-38q-37 7 -37 58v568h-63v-580q0 -47 24 -75t63 -28l79 1q71 1 71 114zM338 771h-106l-15 45
l-19 -45h-93l56 145l36 47h74zM306 827l-43 124h-58l-47 -126h47l28 82l27 -81z" />
    <glyph glyph-name="udieresis" unicode="&#xfc;" horiz-adv-x="400" 
d="M365 760l-1 -590q0 -170 -106 -170h-89q-73 0 -103.5 31t-30.5 113l2 547l63 69h89v-584q0 -37 16 -37q20 0 20 37v515l55 69h85zM349 180v566h-63v-576q0 -43 -36 -48h-38q-37 7 -37 58v568h-63v-580q0 -47 24 -75t63 -28l79 1q71 1 71 114zM305 896l-1 -73l-35 -47h-48
v16l-11 -16h-95l1 61l45 59h69l-1 -9l8 9h68zM293 832v52h-49v-52h49zM218 832v52h-49v-52h49z" />
    <glyph glyph-name="yacute" unicode="&#xfd;" horiz-adv-x="330" 
d="M315 759l-92 -388l-1 -309l-45 -62h-105l2 368l-59 320l43 70l88 1l13 -73l67 74zM294 744h-54l-57 -271l-51 270h-61l72 -376v-293h65v301zM272 969l-54 -147l-34 -47h-79l48 134l45 60h74zM255 957h-49l-47 -126h49z" />
    <glyph glyph-name="thorn" unicode="&#xfe;" horiz-adv-x="386" 
d="M351 323q0 -61 -23 -87q-28 -31 -103 -31q-15 0 -32 1l1 -135l-51 -71h-93v660l53 99h90v-182h73q56 0 74 -26q11 -15 11 -53v-175zM337 351v147q0 63 -59 63h-98v188h-68v-673h68v152h64q39 0 66 31.5t27 91.5zM277 336q0 -48 -52 -48h-45v223l54 -1q41 0 42 -37z
M213 301v118q0 26 -22 30v-148h22z" />
    <glyph glyph-name="ydieresis" unicode="&#xff;" horiz-adv-x="330" 
d="M315 759l-92 -388l-1 -309l-45 -62h-105l2 368l-59 320l43 70l88 1l13 -73l67 74zM294 744h-54l-57 -271l-51 270h-61l72 -376v-293h65v301zM255 896l-1 -73l-35 -47h-48v16l-11 -16h-95l1 61l45 59h69l-1 -9l8 9h68zM243 832v52h-49v-52h49zM168 832v52h-49v-52h49z" />
    <glyph glyph-name="Lslash" unicode="&#x141;" horiz-adv-x="341" 
d="M326 134v-60l-49 -74h-227v670l63 90h91v-211l26 61h68l-65 -476h93zM313 73v51l-98 1l67 473h-41l-49 -292v440h-59v-673h180z" />
    <glyph glyph-name="lslash" unicode="&#x142;" horiz-adv-x="341" 
d="M326 134v-60l-49 -74h-227v670l63 90h91v-211l26 61h68l-65 -476h93zM313 73v51l-98 1l67 473h-41l-49 -292v440h-59v-673h180z" />
    <glyph glyph-name="OE" unicode="&#x152;" horiz-adv-x="531" 
d="M496 141l-1 -70l-70 -71h-279q-63 0 -89 36q-22 28 -22 88v514q0 67 52 100q38 25 75 20v0l330 2v-70l-41 -57h-75v-160h88v-69l-39 -67h-49v-197zM482 125l-122 1l2 282h91v55h-87v229h114l-1 52l-309 -2q-61 -7 -61 -74l1 -511q0 -83 78 -83l294 1v50zM302 186
q-3 -48 -38 -56h-57q-19 0 -24 13q-3 8 -3 35v471q0 42 41 42h43q38 0 38 -38v-467zM235 165v448q0 21 -21 21t-21 -21v-448q0 -21 21 -21t21 21z" />
    <glyph glyph-name="oe" unicode="&#x153;" horiz-adv-x="531" 
d="M496 141l-1 -70l-70 -71h-279q-63 0 -89 36q-22 28 -22 88v514q0 67 52 100q38 25 75 20v0l330 2v-70l-41 -57h-75v-160h88v-69l-39 -67h-49v-197zM482 125l-122 1l2 282h91v55h-87v229h114l-1 52l-309 -2q-61 -7 -61 -74l1 -511q0 -83 78 -83l294 1v50zM302 186
q-3 -48 -38 -56h-57q-19 0 -24 13q-3 8 -3 35v471q0 42 41 42h43q38 0 38 -38v-467zM235 165v448q0 21 -21 21t-21 -21v-448q0 -21 21 -21t21 21z" />
    <glyph glyph-name="Scaron" unicode="&#x160;" horiz-adv-x="376" 
d="M338 619l-51 -45l-81 -2l-1 36q-1 26 -17 26q-4 0 -8 -1v-123q0 -19 29 -16h60q29 0 50 -20q22 -23 22 -58v-272q0 -72 -20 -104q-26 -40 -90 -40h-86q-40 0 -68 15q-32 18 -36 51v81l61 61h79l1 -48q4 -16 11 -16q10 0 10 26v142q0 41 -41 40q-127 -4 -127 87v206
q0 45 37 77t88 38v0h106q72 0 72 -71v-70zM330 167l-2 252q-1 59 -67 61l-51 1q-40 0 -40 41v127q0 22 6 31.5t31 9.5h26q33 0 33 -37v-26h61l-1 54q0 68 -68 68h-98q-55 -6 -54 -82l1 -184q0 -26 20 -43q23 -20 63 -20h31q46 0 46 -53l1 -186q0 -53 -35 -61h-35
q-20 0 -25 13q-3 7 -3 34v32h-63l1 -44q0 -48 20 -66q16 -13 51 -13l81 1q71 1 70 90zM298 964l-49 -145l-31 -48h-60l-53 149l33 44h62l10 -27l22 27h66zM282 953h-43l-22 -60l-22 59h-49l47 -126h49z" />
    <glyph glyph-name="scaron" unicode="&#x161;" horiz-adv-x="376" 
d="M338 619l-51 -45l-81 -2l-1 36q-1 26 -17 26q-4 0 -8 -1v-123q0 -19 29 -16h60q29 0 50 -20q22 -23 22 -58v-272q0 -72 -20 -104q-26 -40 -90 -40h-86q-40 0 -68 15q-32 18 -36 51v81l61 61h79l1 -48q4 -16 11 -16q10 0 10 26v142q0 41 -41 40q-127 -4 -127 87v206
q0 45 37 77t88 38v0h106q72 0 72 -71v-70zM330 167l-2 252q-1 59 -67 61l-51 1q-40 0 -40 41v127q0 22 6 31.5t31 9.5h26q33 0 33 -37v-26h61l-1 54q0 68 -68 68h-98q-55 -6 -54 -82l1 -184q0 -26 20 -43q23 -20 63 -20h31q46 0 46 -53l1 -186q0 -53 -35 -61h-35
q-20 0 -25 13q-3 7 -3 34v32h-63l1 -44q0 -48 20 -66q16 -13 51 -13l81 1q71 1 70 90zM298 964l-49 -145l-31 -48h-60l-53 149l33 44h62l10 -27l22 27h66zM282 953h-43l-22 -60l-22 59h-49l47 -126h49z" />
    <glyph glyph-name="Ydieresis" unicode="&#x178;" horiz-adv-x="330" 
d="M315 759l-92 -388l-1 -309l-45 -62h-105l2 368l-59 320l43 70l88 1l13 -73l67 74zM294 744h-54l-57 -271l-51 270h-61l72 -376v-293h65v301zM255 896l-1 -73l-35 -47h-48v16l-11 -16h-95l1 61l45 59h69l-1 -9l8 9h68zM243 832v52h-49v-52h49zM168 832v52h-49v-52h49z" />
    <glyph glyph-name="Zcaron" unicode="&#x17d;" horiz-adv-x="439" 
d="M404 760l-182 -603h172v-84l-47 -73h-312l168 597h-145v86l50 77h296zM381 142h-178l177 600h-259v-65l177 1l-179 -605h261zM338 964l-49 -145l-31 -48h-60l-53 149l33 44h62l10 -27l22 27h66zM322 953h-43l-22 -60l-22 59h-49l47 -126h49z" />
    <glyph glyph-name="zcaron" unicode="&#x17e;" horiz-adv-x="439" 
d="M404 760l-182 -603h172v-84l-47 -73h-312l168 597h-145v86l50 77h296zM381 142h-178l177 600h-259v-65l177 1l-179 -605h261zM338 964l-49 -145l-31 -48h-60l-53 149l33 44h62l10 -27l22 27h66zM322 953h-43l-22 -60l-22 59h-49l47 -126h49z" />
    <glyph glyph-name="circumflex" unicode="&#x2c6;" horiz-adv-x="303" 
d="M268 771h-106l-15 45l-19 -45h-93l56 145l36 47h74zM236 827l-43 124h-58l-47 -126h47l28 82l27 -81z" />
    <glyph glyph-name="caron" unicode="&#x2c7;" horiz-adv-x="263" 
d="M228 964l-49 -145l-31 -48h-60l-53 149l33 44h62l10 -27l22 27h66zM212 953h-43l-22 -60l-22 59h-49l47 -126h49z" />
    <glyph glyph-name="ring" unicode="&#x2da;" horiz-adv-x="234" 
d="M199 834q0 -34 -24 -58t-58 -24t-58 24t-24 58t24 58t58 24v0q34 0 58 -24t24 -58zM183 849q0 24 -16.5 40.5t-40.5 16.5v0q-23 0 -40 -16.5t-17 -40.5q0 -23 17 -39.5t40 -16.5q24 0 40.5 16.5t16.5 39.5zM154 849q0 -27 -28 -27q-27 0 -27 27q0 28 27 28q28 0 28 -28z
" />
    <glyph glyph-name="tilde" unicode="&#x2dc;" horiz-adv-x="281" 
d="M246 825q-3 -14 -24.5 -27t-43.5 -13q-10 0 -31 7t-33 7q-9 0 -16 -4q-10 -2 -17 -7t-13 -10l-33 56q25 51 78 51q15 0 31 -4q16 -7 34 -7q24 0 40 12zM230 836l-17 37q-15 -11 -34 -11q-16 0 -36 9q-18 4 -31 4q-27 0 -44 -17l21 -38q21 13 41 13q15 0 29 -9
q11 -4 23 -4q28 0 48 16z" />
    <glyph glyph-name="endash" unicode="&#x2013;" horiz-adv-x="377" 
d="M362 460v-90l-48 -70h-299v80l61 80h286zM346 374v70h-260v-70h260z" />
    <glyph glyph-name="emdash" unicode="&#x2014;" horiz-adv-x="547" 
d="M532 460l-2 -98l-46 -62h-469v80l61 80h456zM516 374v70h-430v-70h430z" />
    <glyph glyph-name="quoteleft" unicode="&#x2018;" horiz-adv-x="222" 
d="M187 757v-190l-47 -68h-105v170l61 88h91zM172 573v168h-66v-168h66z" />
    <glyph glyph-name="quoteright" unicode="&#x2019;" horiz-adv-x="222" 
d="M187 757v-190l-47 -68h-105v170l61 88h91zM172 573v168h-66v-168h66z" />
    <glyph glyph-name="quotesinglbase" unicode="&#x201a;" horiz-adv-x="222" 
d="M187 160v-190l-47 -68h-105v170l61 88h91zM172 -24v168h-66v-168h66z" />
    <glyph glyph-name="quotereversed" unicode="&#x201b;" horiz-adv-x="222" 
d="M187 757v-190l-47 -68h-105v170l61 88h91zM172 573v168h-66v-168h66z" />
    <glyph glyph-name="quotedblleft" unicode="&#x201c;" horiz-adv-x="303" 
d="M268 760l-2 -196l-46 -62h-185l2 179l59 79h172zM252 576v168h-65v-168h65zM172 576v168h-66v-168h66z" />
    <glyph glyph-name="quotedblright" unicode="&#x201d;" horiz-adv-x="303" 
d="M268 760l-2 -196l-46 -62h-185l2 179l59 79h172zM252 576v168h-65v-168h65zM172 576v168h-66v-168h66z" />
    <glyph glyph-name="quotedblbase" unicode="&#x201e;" horiz-adv-x="303" 
d="M268 160l-2 -196l-46 -62h-185l2 179l59 79h172zM252 -24v168h-65v-168h65zM172 -24v168h-66v-168h66z" />
    <glyph glyph-name="bullet" unicode="&#x2022;" horiz-adv-x="477" 
d="M35 381q0 85 59.5 144t144.5 59q84 0 143.5 -59.5t59.5 -143.5q0 -85 -59 -144.5t-144 -59.5t-144.5 59.5t-59.5 144.5z" />
    <glyph glyph-name="ellipsis" unicode="&#x2026;" horiz-adv-x="822" 
d="M187 160v-90l-47 -70h-105v80l61 80h91zM172 74v70h-66v-70h66zM787 160v-90l-47 -70h-105v80l61 80h91zM772 74v70h-66v-70h66zM487 160v-90l-47 -70h-105v80l61 80h91zM472 74v70h-66v-70h66z" />
    <glyph glyph-name="perthousand" unicode="&#x2030;" horiz-adv-x="1088" 
d="M773 118q0 -67 -21 -95q-19 -23 -59 -23h-96q-85 0 -85 95v386q0 93 97 93h103q52 -7 61 -57v-399zM572 760l-219 -698l-46 -62h-75l213 680l59 80h68zM757 141l-1 365q0 50 -50 50h-91q-39 -4 -39 -60l1 -380q0 -32 11.5 -45t40.5 -13l78 1q50 0 50 82zM550 744h-36
l-210 -670h35zM717 140q0 -37 -30 -44h-44q-16 0 -20 13q-2 5 -2 25v355q0 33 33 33h33q30 0 30 -30v-352zM662 126v337q0 13 -13 13q-14 0 -14 -13v-337q0 -14 14 -14q13 0 13 14zM296 304q0 -67 -22 -95q-18 -23 -58 -23h-96q-85 0 -85 96v385q0 93 97 93h102
q52 -7 62 -57v-399zM279 327l-1 366q0 50 -50 50h-90q-40 -5 -40 -61l2 -379q0 -32 11.5 -45.5t40.5 -13.5l78 1q49 1 49 82zM239 326q0 -36 -30 -43h-43q-16 0 -21 12q-2 6 -2 25v355q0 33 34 33h32q30 0 30 -30v-352zM185 312v337q0 14 -14 14q-13 0 -13 -14v-337
q0 -13 13 -13q14 0 14 13zM1053 118q0 -67 -21 -95q-19 -23 -59 -23h-96q-85 0 -85 95v386q0 93 97 93h103q52 -7 61 -57v-399zM1037 141l-1 365q0 50 -50 50h-91q-39 -4 -39 -60l1 -380q0 -32 11.5 -45t40.5 -13l78 1q50 0 50 82zM997 140q0 -37 -30 -44h-44q-16 0 -20 13
q-2 5 -2 25v355q0 33 33 33h33q30 0 30 -30v-352zM942 126v337q0 13 -13 13q-14 0 -14 -13v-337q0 -14 14 -14q13 0 13 14z" />
    <glyph glyph-name="Euro" unicode="&#x20ac;" horiz-adv-x="489" 
d="M454 154q0 -89 -23 -121.5t-81 -32.5h-127q-64 0 -90 36q-21 28 -21 88v151h-97v60l26 62l-26 -1v61l33 74h64v107q0 61 30 88.5t97 32.5v0l211 1v-79l-31 -63h-128q-21 0 -21 -19v-67l146 1l-42 -122h42l-28 -77l-46 -57l-72 -1v-111q0 -21 21 -21t21 21v51l55 66h87
v-128zM440 166l-1 106h-61l1 -86q0 -47 -38 -56h-57q-19 0 -25 13q-2 8 -3 35v161h121l22 58h-143v63l122 1l21 57h-143l-1 131q0 47 43 42h136v52h-175q-66 -8 -66 -83v-142h-93l-22 -59l115 1v-63h-94l-20 -58h114v-185q0 -49 21 -67q15 -13 51 -13l104 1q72 1 71 91z" />
    <glyph glyph-name="afii61352" unicode="&#x2116;" horiz-adv-x="727" 
d="M690 304q0 -67 -21 -95q-18 -23 -58 -23h-96q-85 0 -85 96v385q0 93 97 93h102q52 -7 61 -57v-399zM407 70l-56 -70h-92l-58 315l-1 -249l-47 -66h-103l2 681l59 77h146l12 -60l47 62h91v-690zM676 311v375q0 57 -53 57h-90q-40 -5 -40 -61l2 -379q0 -32 11 -45.5
t41 -13.5l78 1q51 1 51 66zM391 78v666h-65v-398l-88 399l-117 -1v-666h65v571l136 -571h69zM634 326q0 -36 -30 -43h-43q-17 0 -21 12q-2 6 -2 25v355q0 33 33 33h33q30 0 30 -30v-352zM580 312v337q0 14 -14 14t-14 -14v-337q0 -13 14 -13t14 13zM655 39h-225v63l47 61
h215v-70zM676 147h-189v-48h189v48z" />
    <glyph glyph-name="trademark" unicode="&#x2122;" horiz-adv-x="672" 
d="M565 434v156l-54 -156h-64l-54 156v-156h-66v331h81l69 -211l76 211h84v-331h-72zM202 699v-265h-72v265h-95v66h262v-66h-95z" />
    <glyph glyph-name="NULL" horiz-adv-x="0" 
 />
  </font>
</defs>
</svg>
