<?xml version="1.0" standalone="no"?>
<!DOCTYPE svg PUBLIC "-//W3C//DTD SVG 1.1//EN" "http://www.w3.org/Graphics/SVG/1.1/DTD/svg11.dtd" >
<svg xmlns="http://www.w3.org/2000/svg" xmlns:xlink="http://www.w3.org/1999/xlink" version="1.1">
<metadata>
Created by FontForge 20200427 at Fri Apr  5 15:53:09 2013
 By www
Copyright (c) 2001-2006 DTP Types Limited. All rights reserved. VigorDTCondensed is a trademark of DTP Types Limited.
</metadata>
<defs>
<font id="VigorDTCond-Black" horiz-adv-x="286" >
  <font-face 
    font-family="VigorDTCond-Black"
    font-weight="400"
    font-stretch="normal"
    units-per-em="1000"
    panose-1="2 4 10 6 4 5 6 2 2 4"
    ascent="773"
    descent="-227"
    x-height="518"
    cap-height="681"
    bbox="-167 -326 1375 1053"
    underline-thickness="50"
    underline-position="-100"
    unicode-range="U+0020-FB04"
  />
<missing-glyph horiz-adv-x="500" 
d="M30 70v580h440v-580h-440zM80 120h340v480h-340v-480z" />
    <glyph glyph-name="fi" unicode="fi" horiz-adv-x="738" 
d="M377 544q-26 15 -58 15q-13 0 -20.5 -13t-7.5 -33v-15h127l256 28v-326q0 -40 24 -40h28v-160h-328v160h32q24 0 24 40v98q0 40 -24 40h-139v-138q0 -40 24 -40h37v-160h-337v160h32q24 0 24 40v138h-56v160h56v30q0 93 51.5 149t146.5 56q47 0 73.5 -4.5t62.5 -20.5z
M541 754q52 0 86 -29t34 -78t-34 -78t-86 -29q-51 0 -85 29t-34 78t34 78t85 29z" />
    <glyph glyph-name="fl" unicode="fl" horiz-adv-x="738" 
d="M332 562q-16 0 -28.5 -13.5t-12.5 -32.5v-18h86l-21 -160h-65v-138q0 -40 24 -40h37v-160h-337v160h32q24 0 24 40v138h-56v160h56v30q0 92 56 148.5t152 56.5q43 0 83 -8h153l159 8v-533q0 -40 24 -40h28v-160h-328v160h32q24 0 24 40v322q0 40 -24 40h-98z" />
    <glyph glyph-name="f_f" unicode="ff" horiz-adv-x="766" 
d="M454 498v30q0 93 51.5 149t146.5 56q79 0 147 -30l-28 -164q-33 20 -69 20q-13 0 -20.5 -13t-7.5 -33v-15h86l-21 -160h-65v-138q0 -40 24 -40h37v-160h-337v160h32q24 0 24 40v138h-163v-138q0 -40 24 -40h37v-160h-337v160h32q24 0 24 40v138h-56v160h56v30
q0 93 51.5 149t146.5 56q79 0 147 -30l-28 -164q-33 20 -69 20q-13 0 -20.5 -13t-7.5 -33v-15h163z" />
    <glyph glyph-name="f_f_i" unicode="ffi" horiz-adv-x="1121" 
d="M454 338h-163v-138q0 -40 24 -40h37v-160h-337v160h32q24 0 24 40v138h-56v160h56v30q0 93 51.5 149t146.5 56q79 0 147 -30l-28 -164q-33 20 -69 20q-13 0 -20.5 -13t-7.5 -33v-15h163v30q0 93 51.5 149t146.5 56q47 0 73.5 -4.5t62.5 -20.5l-28 -164q-26 15 -58 15
q-13 0 -20.5 -13t-7.5 -33v-15h127l256 28v-326q0 -40 24 -40h28v-160h-328v160h32q24 0 24 40v98q0 40 -24 40h-139v-138q0 -40 24 -40h37v-160h-337v160h32q24 0 24 40v138zM924 754q52 0 86 -29t34 -78t-34 -78t-86 -29q-51 0 -85 29t-34 78t34 78t85 29z" />
    <glyph glyph-name="f_f_l" unicode="ffl" horiz-adv-x="1121" 
d="M454 338h-163v-138q0 -40 24 -40h37v-160h-337v160h32q24 0 24 40v138h-56v160h56v30q0 93 51.5 149t146.5 56q79 0 147 -30l-28 -164q-33 20 -69 20q-13 0 -20.5 -13t-7.5 -33v-15h163v30q0 92 56 148.5t152 56.5q43 0 83 -8h153l159 8v-533q0 -40 24 -40h28v-160h-328
v160h32q24 0 24 40v322q0 40 -24 40h-98q-16 0 -28.5 -13.5t-12.5 -32.5v-18h86l-21 -160h-65v-138q0 -40 24 -40h37v-160h-337v160h32q24 0 24 40v138z" />
    <glyph glyph-name=".notdef" horiz-adv-x="500" 
d="M30 70v580h440v-580h-440zM80 120h340v480h-340v-480z" />
    <glyph glyph-name=".null" horiz-adv-x="0" 
 />
    <glyph glyph-name="nonmarkingreturn" horiz-adv-x="333" 
 />
    <glyph glyph-name="space" unicode=" " horiz-adv-x="190" 
 />
    <glyph glyph-name="exclam" unicode="!" 
d="M220 268h-162l-20 411l202 13zM144 227q53 0 88 -32t35 -87t-35 -87t-88 -32t-88.5 32t-35.5 87t35.5 87t88.5 32z" />
    <glyph glyph-name="quotedbl" unicode="&#x22;" horiz-adv-x="372" 
d="M15 726h156l-7 -235h-142zM200 726h156l-7 -235h-142z" />
    <glyph glyph-name="numbersign" unicode="#" horiz-adv-x="566" 
d="M530 182h-90l-20 -182h-147l20 182h-42l-19 -182h-148l20 182h-92v140h106l6 60h-83v140h99l18 170h148l-18 -170h41l18 170h147l-18 -170h78v-140h-92l-7 -60h75v-140zM266 322h41l6 60h-40z" />
    <glyph glyph-name="dollar" unicode="$" horiz-adv-x="544" 
d="M304 667q101 -3 188 -50v-149h-164v16q0 26 -24 33v-94q99 -44 137 -73q81 -63 82 -157q0 -190 -219 -204v-110h-62v109q-113 1 -199 38v164h164v-19q0 -28 35 -37v109q-2 1 -27 12t-30.5 13.5t-28.5 13.5t-30.5 16.5t-26.5 18.5t-26 22.5t-19.5 24.5t-17.5 29.5t-9.5 33
t-4.5 38.5q0 90 57 141.5t163 59.5v89h62v-88zM304 222v-90q30 8 30 48q0 23 -30 42zM242 519q-30 -5 -30 -40q0 -18 30 -37v77z" />
    <glyph glyph-name="percent" unicode="%" horiz-adv-x="962" 
d="M216 434q16 0 25.5 16.5t9.5 45.5t-9.5 45.5t-25.5 16.5t-25.5 -16.5t-9.5 -45.5t9.5 -45.5t25.5 -16.5zM216 280q-87 0 -142.5 58.5t-55.5 157.5t55.5 157.5t142.5 58.5t142 -58.5t55 -157.5t-55 -157.5t-142 -58.5zM721 656l-348 -676l-125 77l349 676zM747 267
q-16 0 -25.5 -16.5t-9.5 -45.5t9.5 -45.5t25.5 -16.5t25.5 16.5t9.5 45.5t-9.5 45.5t-25.5 16.5zM747 421q87 0 142 -58.5t55 -157.5t-55 -157.5t-142 -58.5t-142.5 58.5t-55.5 157.5t55.5 157.5t142.5 58.5z" />
    <glyph glyph-name="ampersand" unicode="&#x26;" horiz-adv-x="645" 
d="M313 156l-98 94q-10 -17 -10 -51q0 -21 16 -40t37 -19q33 0 55 16zM260 460q24 32 24 59q0 33 -34 33q-33 0 -33 -31q0 -15 9.5 -28t33.5 -33zM649 105l-130 -121l-68 59q-94 -54 -199 -54q-110 0 -173.5 52.5t-63.5 136.5q0 117 104 186q-37 43 -52.5 76.5t-15.5 78.5
q0 75 52.5 124t144.5 49q89 0 146 -42.5t57 -121.5q0 -55 -25 -92.5t-68 -71.5l63 -56q10 40 10 80h189q1 -131 -47 -215z" />
    <glyph glyph-name="quotesingle" unicode="'" horiz-adv-x="187" 
d="M15 726h156l-7 -235h-142z" />
    <glyph glyph-name="parenleft" unicode="(" horiz-adv-x="348" 
d="M229 254q0 -161 35 -252q28 -73 84 -150l-124 -83q-84 82 -123 151q-86 149 -86 334t86 334q39 69 123 151l124 -83q-57 -81 -84 -150q-35 -91 -35 -252z" />
    <glyph glyph-name="parenright" unicode=")" horiz-adv-x="348" 
d="M119 254q0 161 -35 252q-28 73 -84 150l124 83q84 -82 123 -151q86 -149 86 -334t-86 -334q-39 -69 -123 -151l-124 83q57 81 84 150q35 91 35 252z" />
    <glyph glyph-name="asterisk" unicode="*" horiz-adv-x="392" 
d="M289 506l54 -78l-103 -79l-50 85l-52 -79l-101 80l59 78l-86 28l39 126l91 -40l-2 99h122l-2 -106l85 37l39 -126z" />
    <glyph glyph-name="plus" unicode="+" horiz-adv-x="482" 
d="M323 336h131v-164h-131v-131h-164v131h-131v164h131v131h164v-131z" />
    <glyph glyph-name="comma" unicode="," 
d="M98 -4q-39 6 -61.5 38.5t-22.5 78.5q0 57 36.5 90.5t92.5 33.5q63 0 96 -48t33 -119q0 -70 -49.5 -143.5t-122.5 -124.5l-80 94q58 52 78 100z" />
    <glyph glyph-name="hyphen" unicode="-" horiz-adv-x="255" 
d="M243 174h-231v170h231v-170z" />
    <glyph glyph-name="period" unicode="." 
d="M143 237q55 0 92 -33.5t37 -90.5t-37 -90.5t-92 -33.5q-56 0 -92.5 33.5t-36.5 90.5t36.5 90.5t92.5 33.5z" />
    <glyph glyph-name="slash" unicode="/" horiz-adv-x="356" 
d="M215 730l161 -69l-231 -728l-165 75z" />
    <glyph glyph-name="zero" unicode="0" horiz-adv-x="544" 
d="M526 335q0 -156 -72 -250.5t-181 -94.5q-117 0 -186 90.5t-69 254.5q0 157 72 250t183 93q121 0 187 -93.5t66 -249.5zM238 335q0 -173 34 -173t34 173q0 171 -34 171t-34 -171z" />
    <glyph glyph-name="one" unicode="1" horiz-adv-x="544" 
d="M466 0h-357v160h46q28 0 28 40v230q0 40 -18 40h-52l-25 160h77q45 0 81 37h157v-467q0 -40 27 -40h36v-160z" />
    <glyph glyph-name="two" unicode="2" horiz-adv-x="544" 
d="M286 159q4 1 13 1h22q13 0 17 5t4 18v13h163v-196h-472v118l112 126q66 73 97 122.5t31 88.5q0 51 -28 51q-29 0 -29 -39v-22h-179v149q52 43 100 63t120 20q102 0 169 -61.5t67 -149.5q0 -53 -31.5 -104.5t-84.5 -110.5l-91 -91v-1z" />
    <glyph glyph-name="three" unicode="3" horiz-adv-x="544" 
d="M503 189q0 -86 -68 -142.5t-172 -56.5q-73 0 -121 18t-99 58v149h179v-14q0 -39 33 -39q11 0 19.5 12.5t8.5 35.5q0 51 -40 51q-21 0 -71 -3v161h56q20 0 29 10t9 33q0 44 -25 44q-19 0 -19 -31v-14h-179v140q51 40 99 58t121 18q106 0 164.5 -46.5t58.5 -132.5
q0 -58 -42 -98.5t-94 -48.5v-1q58 -5 105.5 -46.5t47.5 -114.5z" />
    <glyph glyph-name="four" unicode="4" horiz-adv-x="544" 
d="M455 355h61v-147h-61v-8q0 -40 27 -40h34v-160h-355v160h47q27 0 27 40v8h-214l-9 129l224 330h219v-312zM174 355h61v100z" />
    <glyph glyph-name="five" unicode="5" horiz-adv-x="544" 
d="M286 229q0 38 -24 63.5t-63 25.5q-59 0 -150 -30l16 379h419l-10 -188h-168v12q0 16 -11 16h-67l-3 -57q21 3 47 3q41 0 80.5 -12t75 -36t57 -68t21.5 -102q0 -117 -70 -181t-179 -64q-73 0 -121 18t-99 58v149h179v-14q0 -39 34 -39q16 0 26 18.5t10 48.5z" />
    <glyph glyph-name="six" unicode="6" horiz-adv-x="544" 
d="M309 225q0 28 -9 45t-24 17q-19 0 -38 -30q-2 -9 -2 -23q0 -34 11.5 -53t25.5 -19q16 0 26 17t10 46zM260 419q19 4 47 4q93 0 157.5 -56t64.5 -148q0 -99 -72.5 -164t-182.5 -65q-123 0 -190.5 75t-67.5 205q0 74 22 141t70 130t136.5 106t208.5 55l26 -169
q-77 -6 -130 -32.5t-89 -81.5z" />
    <glyph glyph-name="seven" unicode="7" horiz-adv-x="544" 
d="M507 667v-131q-137 -243 -173 -536h-236q44 255 205 507h-76q-10 0 -10 -20v-38h-179v218h469z" />
    <glyph glyph-name="eight" unicode="8" horiz-adv-x="544" 
d="M274 439q35 20 35 51q0 17 -10 27.5t-27 10.5q-16 0 -26 -11t-10 -28q0 -31 38 -50zM315 183q0 20 -11 32t-39 25q-34 -18 -34 -53q0 -22 12 -34.5t32 -12.5q17 0 28.5 12t11.5 31zM426 356h-1q99 -73 99 -176q0 -85 -67.5 -137.5t-181.5 -52.5q-122 0 -187.5 51.5
t-65.5 137.5q0 107 100 171q-82 64 -82 158q0 76 63.5 123t168.5 47q111 0 172 -46t61 -130q0 -75 -79 -146z" />
    <glyph glyph-name="nine" unicode="9" horiz-adv-x="544" 
d="M235 443q0 -29 9 -48.5t24 -19.5q18 0 39 32q1 9 1 28q0 34 -11.5 52.5t-25.5 18.5q-16 0 -26 -17t-10 -46zM284 243q-19 -4 -47 -4q-92 0 -157 58.5t-65 151.5q0 99 72.5 164t182.5 65q123 0 190.5 -75t67.5 -205q0 -74 -22 -142t-70 -132t-136.5 -108t-208.5 -56
l-26 169q77 6 130 32.5t89 81.5z" />
    <glyph glyph-name="colon" unicode=":" 
d="M143 237q55 0 92 -33.5t37 -90.5t-37 -90.5t-92 -33.5q-56 0 -92.5 33.5t-36.5 90.5t36.5 90.5t92.5 33.5zM143 528q55 0 92 -33.5t37 -90.5t-37 -90.5t-92 -33.5q-56 0 -92.5 33.5t-36.5 90.5t36.5 90.5t92.5 33.5z" />
    <glyph glyph-name="semicolon" unicode=";" 
d="M98 -4q-39 6 -61.5 38.5t-22.5 78.5q0 57 36.5 90.5t92.5 33.5q63 0 96 -48t33 -119q0 -70 -49.5 -143.5t-122.5 -124.5l-80 94q58 52 78 100zM143 528q55 0 92 -33.5t37 -90.5t-37 -90.5t-92 -33.5q-56 0 -92.5 33.5t-36.5 90.5t36.5 90.5t92.5 33.5z" />
    <glyph glyph-name="less" unicode="&#x3c;" horiz-adv-x="482" 
d="M258 254l196 -87v-176l-426 208v110l426 207v-176z" />
    <glyph glyph-name="equal" unicode="=" horiz-adv-x="482" 
d="M28 211h426v-164h-426v164zM28 461h426v-164h-426v164z" />
    <glyph glyph-name="greater" unicode="&#x3e;" horiz-adv-x="482" 
d="M224 254l-196 86v176l426 -207v-110l-426 -208v176z" />
    <glyph glyph-name="question" unicode="?" horiz-adv-x="473" 
d="M212 227q53 0 88.5 -32t35.5 -87t-35.5 -87t-88.5 -32t-88 32t-35 87t35 87t88 32zM123 268q-2 10 -2 19q0 86 51 139q9 9 25.5 24.5t24 23t14 20.5t6.5 26q0 31 -34 31q-25 0 -25 -27v-20h-166v120q46 35 91.5 51.5t108.5 16.5q110 0 172 -38.5t62 -116.5
q0 -20 -5 -37.5t-18 -36t-20.5 -28.5t-27.5 -30.5t-24 -25.5t-15.5 -17t-15 -16t-11.5 -13t-11 -14t-7 -12t-5 -13.5t-1 -13.5q0 -5 1 -12h-168z" />
    <glyph glyph-name="at" unicode="@" horiz-adv-x="766" 
d="M539 250q28 0 56 38.5t28 99.5q0 94 -60 155t-166 61q-96 0 -171.5 -87.5t-75.5 -214.5q0 -120 75.5 -200.5t165.5 -80.5q44 0 97.5 19.5t84.5 49.5l62 -74q-41 -50 -108.5 -79t-138.5 -29q-164 0 -267 110t-103 278q0 177 115.5 297t279.5 120q148 0 241.5 -91.5
t93.5 -224.5q0 -69 -22.5 -122.5t-58 -82.5t-73.5 -43t-75 -14q-44 0 -64.5 19.5t-19.5 53.5h-1q-43 -73 -119 -73q-42 0 -72 37.5t-30 86.5q0 111 53 171.5t141 60.5q24 0 77.5 -6t76.5 -13l-40 -173q-13 -49 18 -49zM430 384q-20 5 -36 5q-24 0 -43.5 -31.5t-19.5 -74.5
q0 -18 9.5 -28.5t23.5 -10.5q20 0 34.5 25.5t20.5 62.5z" />
    <glyph glyph-name="A" unicode="A" horiz-adv-x="643" 
d="M289 360h58l-6 18q-16 44 -22 92h-1q-6 -31 -24 -93zM380 218h-124l-6 -18q-5 -17 -0.5 -28.5t17.5 -11.5h25v-160h-295v160h12q12 0 17.5 6.5t11.5 27.5l158 487h251l158 -487q6 -20 11.5 -27t16.5 -7h13v-160h-295v160h18q28 0 17 41z" />
    <glyph glyph-name="B" unicode="B" horiz-adv-x="592" 
d="M292 276v-116h19q19 0 30.5 16.5t11.5 41.5q0 24 -12 41t-30 17h-19zM292 436h20q12 0 20 12.5t8 29.5q0 18 -8 30.5t-20 12.5h-20v-85zM321 681q103 0 159 -46q59 -44 59 -112q0 -69 -40 -109t-98 -51v-1q23 -2 45 -8t46 -19.5t41.5 -32.5t29 -49.5t11.5 -67.5
q0 -83 -66 -139q-56 -46 -153 -46h-340v160h30q27 0 27 40v281q0 40 -27 40h-30v160h306z" />
    <glyph glyph-name="C" unicode="C" horiz-adv-x="569" 
d="M327 520q-42 0 -64.5 -48.5t-22.5 -139.5q0 -78 29.5 -124.5t84.5 -46.5q39 0 70.5 11t73.5 39l55 -169q-50 -29 -91.5 -41t-123.5 -12q-139 0 -228.5 94.5t-89.5 256.5q0 176 94.5 264t237.5 88q101 0 196 -42v-234h-179v50q0 30 -9 42t-33 12z" />
    <glyph glyph-name="D" unicode="D" horiz-adv-x="670" 
d="M310 0h-295v160h30q27 0 27 40v281q0 40 -27 40h-30v160h295q184 0 268 -107q72 -89 72 -230q0 -157 -80 -249q-44 -51 -98 -73t-162 -22zM337 160q39 0 63 32q30 40 30 152q0 102 -31 143q-25 34 -62 34h-45v-361h45z" />
    <glyph glyph-name="E" unicode="E" horiz-adv-x="550" 
d="M300 268h-1h-6h-1v-108h43q20 0 20 25v51h179v-236h-519v160h30q27 0 27 40v281q0 40 -27 40h-30v160h512v-223h-179v35q0 18 -4.5 23t-19.5 5h-32v-93h1h6h1h127v-160h-127z" />
    <glyph glyph-name="F" unicode="F" horiz-adv-x="530" 
d="M363 0h-348v160h30q27 0 27 40v281q0 40 -27 40h-30v160h500v-223h-179v35q0 18 -4.5 23t-19.5 5h-20v-93h1h11h1h110v-160h-110h-1h-11h-1v-68q0 -40 28 -40h43v-160z" />
    <glyph glyph-name="G" unicode="G" horiz-adv-x="605" 
d="M394 169v32q0 30 -27 30h-21v150h243v-340q-55 -31 -104.5 -41.5t-140.5 -10.5q-137 0 -230.5 95t-93.5 256q0 90 28 159.5t75.5 110.5t105 61.5t121.5 20.5q124 0 223 -42v-220h-186v36q0 54 -47 54q-100 0 -100 -188q0 -74 31.5 -122.5t76.5 -48.5q26 0 46 8z" />
    <glyph glyph-name="H" unicode="H" horiz-adv-x="712" 
d="M420 272h-128v-72q0 -40 28 -40h24v-160h-329v160h30q27 0 27 40v281q0 40 -27 40h-30v160h329v-160h-24q-28 0 -28 -40v-49h128v49q0 40 -28 40h-24v160h329v-160h-30q-27 0 -27 -40v-281q0 -40 27 -40h30v-160h-329v160h24q28 0 28 40v72z" />
    <glyph glyph-name="I" unicode="I" horiz-adv-x="364" 
d="M292 481v-281q0 -40 27 -40h30v-160h-334v160h30q27 0 27 40v281q0 40 -27 40h-30v160h334v-160h-30q-27 0 -27 -40z" />
    <glyph glyph-name="J" unicode="J" horiz-adv-x="364" 
d="M72 81v400q0 40 -27 40h-30v160h334v-160h-29q-28 0 -28 -40v-409q0 -144 -66 -213q-58 -62 -218 -79l-48 171q60 11 86 40q26 28 26 90z" />
    <glyph glyph-name="K" unicode="K" horiz-adv-x="651" 
d="M292 325v-125q0 -40 28 -40h14v-160h-319v160h30q27 0 27 40v281q0 40 -27 40h-30v160h319v-160h-14q-28 0 -28 -40v-92l140 292h204v-160h-17q-17 0 -28 -20l-82 -150l85 -170q10 -21 29 -21h13v-160h-204z" />
    <glyph glyph-name="L" unicode="L" horiz-adv-x="540" 
d="M360 681v-160h-40q-28 0 -28 -40v-321h33q13 0 17 6t4 19v68h179v-253h-510v160h30q27 0 27 40v281q0 40 -27 40h-30v160h345z" />
    <glyph glyph-name="M" unicode="M" horiz-adv-x="846" 
d="M567 308l-51 -308h-181l-55 308q-4 17 -5 23h-1q0 -15 -1 -23l-17 -114q-3 -34 17 -34h12v-160h-270v160h22q22 0 25 40l20 281q1 19 -8.5 29.5t-24.5 10.5h-20v160h323l60 -288q2 -9 5.5 -27t5.5 -27h1q4 26 11 55l60 287h322v-160h-30q-28 0 -25 -40l23 -281
q3 -40 24 -40h22v-160h-267v160h11q17 0 15 34l-16 114q0 11 -2 23h-1z" />
    <glyph glyph-name="N" unicode="N" horiz-adv-x="712" 
d="M640 0h-241l-97 274q-3 8 -8.5 24.5t-8.5 24.5h-1q1 -7 1 -91v-32q0 -40 18 -40h11v-160h-299v160h30q27 0 27 40v281q0 40 -17 40h-40v160h298l93 -274l21 -63h1q-1 6 -1 97v40q0 40 -18 40h-14v160h302v-160h-30q-27 0 -27 -40v-481z" />
    <glyph glyph-name="O" unicode="O" horiz-adv-x="694" 
d="M347 -11q-145 0 -236 93.5t-91 257.5t91 258t236 94t236 -94t91 -258t-91 -257.5t-236 -93.5zM347 161q50 0 78.5 44t28.5 135t-28.5 135.5t-78.5 44.5t-78.5 -44.5t-28.5 -135.5t28.5 -135t78.5 -44z" />
    <glyph glyph-name="P" unicode="P" horiz-adv-x="577" 
d="M370 276h-78v-76q0 -40 28 -40h45v-160h-350v160h30q27 0 27 40v281q0 40 -27 40h-30v160h343q85 0 146 -56.5t61 -146.5q0 -82 -57 -142t-138 -60zM292 436h25q28 0 28 42q0 43 -28 43h-25v-85z" />
    <glyph glyph-name="Q" unicode="Q" horiz-adv-x="694" 
d="M347 161q50 0 78.5 44t28.5 135t-28.5 135.5t-78.5 44.5t-78.5 -44.5t-28.5 -135.5t28.5 -135t78.5 -44zM399 -7v-1q24 -4 84.5 -22t102.5 -18q47 0 93 10v-161q-43 -9 -93 -9t-123.5 23.5t-125.5 23.5q-36 0 -129 -17v160q45 9 78 11v1q-116 13 -191 105t-75 241
q0 164 91 258t236 94t236 -94t91 -258q0 -147 -75 -238.5t-200 -108.5z" />
    <glyph glyph-name="R" unicode="R" horiz-adv-x="618" 
d="M292 436h25q12 0 20 11.5t8 30.5t-8 31t-20 12h-25v-85zM475 319q18 -11 35 -43l52 -98q10 -18 22 -18h19v-160h-188l-109 245q-4 11 -14 11v-56q0 -40 23 -40h11v-160h-311v160h30q27 0 27 40v281q0 40 -27 40h-30v160h343q85 0 146 -56.5t61 -146.5q0 -49 -24.5 -91
t-65.5 -68z" />
    <glyph glyph-name="S" unicode="S" horiz-adv-x="536" 
d="M298 185q0 18 -15.5 33.5t-40 28.5t-54.5 26.5t-60 32t-54.5 41.5t-40 57.5t-15.5 77.5q0 101 66.5 155.5t189.5 54.5q134 0 213 -46v-178h-192v16q0 56 -31 56q-26 0 -26 -36q0 -22 29 -42t70 -39.5t82 -45t70 -71.5t29 -106q0 -55 -17 -95t-42.5 -62t-64 -35t-71 -16.5
t-72.5 -3.5q-120 0 -213 42v185h193v-26q0 -49 38 -49q29 0 29 45z" />
    <glyph glyph-name="T" unicode="T" horiz-adv-x="658" 
d="M149 0v160h43q27 0 27 40v321h-10q-15 0 -15 -25v-115h-179v300h628v-300h-179v115q0 25 -14 25h-11v-321q0 -40 27 -40h44v-160h-361z" />
    <glyph glyph-name="U" unicode="U" horiz-adv-x="712" 
d="M420 257v224q0 40 -28 40h-24v160h329v-160h-30q-27 0 -27 -40v-205q0 -143 -70.5 -215t-220.5 -72q-131 0 -204 60.5t-73 205.5v226q0 40 -27 40h-30v160h329v-160h-24q-28 0 -28 -40v-224q0 -95 63 -95q65 0 65 95z" />
    <glyph glyph-name="V" unicode="V" horiz-adv-x="644" 
d="M325 285h1q2 10 10 38l39 158q4 13 2.5 26.5t-9.5 13.5h-27v160h306v-160h-17q-9 0 -15.5 -5.5t-9.5 -11.5t-7 -19l-167 -485h-219l-167 484q-5 13 -7.5 19t-8 12t-13.5 6h-19v160h305v-160h-23q-19 0 -6 -41l41 -157q1 -4 5 -17.5t6 -20.5z" />
    <glyph glyph-name="W" unicode="W" horiz-adv-x="927" 
d="M656 395l15 85q8 41 -8 41h-28v160h295v-160h-18q-21 0 -31 -43l-103 -478h-249l-52 296q-10 58 -12 74h-2q-6 -38 -13 -74l-52 -296h-249l-105 484q-8 37 -28 37h-19v160h295v-160h-28q-15 0 -8 -41l15 -85q2 -9 6 -30t6 -32h1q1 9 14 62l63 286h206l63 -286
q3 -11 13 -63h1q4 25 12 63z" />
    <glyph glyph-name="X" unicode="X" horiz-adv-x="561" 
d="M280 542l80 139h194v-160h-24q-10 0 -25 -25l-94 -150l101 -161q15 -25 25 -25h24v-160h-195l-86 150l-85 -150h-195v160h24q9 0 24 25l102 161l-95 150q-15 25 -24 25h-24v160h194z" />
    <glyph glyph-name="Y" unicode="Y" horiz-adv-x="585" 
d="M319 471l10 24q6 8 4.5 17t-9.5 9h-12v160h276v-160h-22q-13 0 -24 -20l-140 -276v-25q0 -40 29 -40h43v-160h-362v160h43q27 0 27 40v25l-138 276q-10 20 -24 20h-23v160h275v-160h-11q-7 0 -8.5 -9t2.5 -17l10 -24q22 -58 26 -70h1q14 40 27 70z" />
    <glyph glyph-name="Z" unicode="Z" horiz-adv-x="549" 
d="M314 160h30q10 0 10 25v46h179v-231h-518v137l210 322q26 40 50 63q-14 -1 -39 -1h-31q-10 0 -10 -25v-46h-179v231h518v-137l-209 -322q-23 -37 -49 -63q14 1 38 1z" />
    <glyph glyph-name="bracketleft" unicode="[" horiz-adv-x="355" 
d="M268 -60h72v-160h-285v901h285v-160h-72v-581z" />
    <glyph glyph-name="backslash" unicode="\" horiz-adv-x="356" 
d="M141 730l235 -722l-165 -75l-231 728z" />
    <glyph glyph-name="bracketright" unicode="]" horiz-adv-x="355" 
d="M87 -60v581h-72v160h285v-901h-285v160h72z" />
    <glyph glyph-name="asciicircum" unicode="^" horiz-adv-x="430" 
d="M135 399h-108l136 282h105l137 -282h-109l-81 100z" />
    <glyph glyph-name="underscore" unicode="_" horiz-adv-x="430" 
d="M430 -55v-107h-430v107h430z" />
    <glyph glyph-name="grave" unicode="`" 
d="M262 676l-61 -105l-201 125l82 132z" />
    <glyph glyph-name="a" unicode="a" horiz-adv-x="565" 
d="M276 149v68h-1q-16 -4 -26.5 -19.5t-10.5 -32.5q0 -43 15 -43q7 0 14 7.5t9 19.5zM224 366v-20h-181v137q46 26 93 35.5t121 9.5q239 0 239 -154v-174q0 -40 25 -40h24v-160h-241q-4 18 -4 40h-1q-45 -50 -128 -50q-68 0 -110.5 42.5t-42.5 107.5q0 175 257 179h1v42
q0 11 -9 18t-18 7q-25 0 -25 -20z" />
    <glyph glyph-name="b" unicode="b" horiz-adv-x="583" 
d="M345 263q0 93 -24 93q-22 0 -31 -42v-136q8 -16 21 -16q15 0 24.5 27t9.5 74zM269 34q-16 -43 -17 -44l-188 19q6 66 6 109v407q0 40 -25 40h-32v160h118l159 8v-199q0 -22 -2 -40h1q42 34 94 34q83 0 132.5 -69.5t49.5 -191.5q0 -135 -59.5 -206t-134.5 -71
q-63 0 -102 44z" />
    <glyph glyph-name="c" unicode="c" horiz-adv-x="468" 
d="M274 317v25q0 14 -8 14q-28 0 -28 -89q0 -38 16.5 -66.5t47.5 -28.5q48 0 94 39l58 -168q-80 -53 -196 -53q-108 0 -174 70t-66 188q0 71 23.5 127.5t61 88.5t79 48t82.5 16q102 0 180 -37v-174h-170z" />
    <glyph glyph-name="d" unicode="d" horiz-adv-x="573" 
d="M238 255q0 -93 25 -93q13 0 21.5 14t8.5 28v136q-9 16 -21 16q-34 0 -34 -101zM293 501l1 1q-1 7 -1 21v12q0 16 -4 23t-19 7h-42v160h128l157 8v-533q0 -40 24 -40h24v-160h-234q-5 20 -5 49h-1q-43 -59 -120 -59q-84 0 -133.5 69.5t-49.5 191.5q0 136 60 206.5
t139 70.5q46 0 76 -27z" />
    <glyph glyph-name="e" unicode="e" horiz-adv-x="529" 
d="M238 221q6 -39 29.5 -60t60.5 -21q70 0 127 46l56 -141q-90 -55 -219 -55q-274 0 -274 269q0 130 74.5 199.5t178.5 69.5q106 0 172 -68.5t66 -206.5v-31h-271v-1zM313 325q-1 54 -35 54q-17 0 -28 -14t-12 -40h75z" />
    <glyph glyph-name="f" unicode="f" horiz-adv-x="383" 
d="M71 498v30q0 93 51.5 149t146.5 56q79 0 147 -30l-28 -164q-33 20 -69 20q-13 0 -20.5 -13t-7.5 -33v-15h86l-21 -160h-65v-138q0 -40 24 -40h37v-160h-337v160h32q24 0 24 40v138h-56v160h56z" />
    <glyph glyph-name="g" unicode="g" horiz-adv-x="562" 
d="M519 538l33 -126q-24 -10 -43 -10q-16 0 -22 1v-1q13 -32 13 -54q0 -84 -63 -132.5t-173 -48.5q-9 0 -18 1q-19 -10 -19 -30q0 -15 18 -15h85q89 0 149 -42.5t60 -119.5q0 -83 -73.5 -132t-190.5 -49q-124 0 -194.5 40.5t-70.5 113.5q0 92 94 139q-54 16 -54 52
q0 43 63 74q-88 48 -88 139q0 83 65.5 136.5t173.5 53.5q68 0 92 -10q38 -8 66 -8q44 0 97 28zM273 -99q50 0 50 44q0 18 -8.5 24.5t-29.5 6.5h-49q-15 -11 -15 -35q0 -40 52 -40zM232 344q0 -48 32 -48q30 0 30 49t-30 49q-15 0 -23.5 -14t-8.5 -36z" />
    <glyph glyph-name="h" unicode="h" horiz-adv-x="610" 
d="M291 734v-174q0 -44 -7 -87l1 -1q60 56 110 56q62 0 107 -41t45 -122v-165q0 -40 24 -40h27v-160h-274v160h1q2 0 2 24v144q0 28 -10 28q-19 0 -26 -42v-130q0 -24 2 -24h1v-160h-279v160h32q24 0 24 40v325q0 40 -24 40h-32v160h117z" />
    <glyph glyph-name="i" unicode="i" horiz-adv-x="355" 
d="M71 318q0 40 -24 40h-32v160h119l157 8v-326q0 -40 24 -40h28v-160h-328v160h32q24 0 24 40v118zM153 754q52 0 86 -29t34 -78t-34 -78t-86 -29q-51 0 -85 29t-34 78t34 78t85 29z" />
    <glyph glyph-name="j" unicode="j" horiz-adv-x="335" 
d="M153 754q52 0 86 -29t34 -78t-34 -78t-86 -29q-51 0 -85 29t-34 78t34 78t85 29zM71 106v212q0 40 -24 40h-32v160h119l157 8v-427q0 -85 -15.5 -136.5t-59.5 -97.5q-72 -77 -213 -86l-36 202q61 3 85 33q19 24 19 92z" />
    <glyph glyph-name="k" unicode="k" horiz-adv-x="599" 
d="M291 236v-52q0 -14 2.5 -19t9.5 -5h8v-160h-296v160h32q24 0 24 40v325q0 40 -24 40h-32v160h117l159 8v-400l77 185h208v-160h-45q-4 0 -10 -12l-31 -66l47 -108q5 -12 10 -12h43v-160h-213z" />
    <glyph glyph-name="l" unicode="l" horiz-adv-x="355" 
d="M343 0h-328v160h32q24 0 24 40v325q0 40 -24 40h-32v160h117l159 8v-533q0 -40 24 -40h28v-160z" />
    <glyph glyph-name="m" unicode="m" horiz-adv-x="868" 
d="M518 469q47 59 135 59q62 0 106 -40.5t44 -122.5v-165q0 -40 25 -40h28v-160h-275v160h1q1 0 1 24v144q0 28 -10 28q-19 0 -26 -42v-130q0 -24 1 -24h1v-160h-224v160h1q1 0 1 24v144q0 28 -10 28q-19 0 -26 -42v-130q0 -24 1 -24h1v-160h-278v160h32q24 0 24 40v118
q0 40 -24 40h-32v160h106l157 8v-53h1q57 55 117 55q81 0 122 -59z" />
    <glyph glyph-name="n" unicode="n" horiz-adv-x="610" 
d="M598 0h-274v160h1q2 0 2 24v144q0 28 -10 28q-19 0 -26 -42v-130q0 -24 2 -24h1v-160h-279v160h32q24 0 24 40v118q0 40 -24 40h-32v160h106l157 8v-53h1q63 55 116 55q62 0 107 -41t45 -122v-165q0 -40 24 -40h27v-160z" />
    <glyph glyph-name="o" unicode="o" horiz-adv-x="548" 
d="M310 259q0 97 -36 97t-36 -97t36 -97t36 97zM530 259q0 -129 -69 -199t-187 -70q-117 0 -186.5 70t-69.5 199t69.5 199t186.5 70q118 0 187 -70t69 -199z" />
    <glyph glyph-name="p" unicode="p" horiz-adv-x="584" 
d="M346 263q0 93 -25 93q-22 0 -30 -42v-136q8 -16 22 -16q33 0 33 101zM278 478q58 50 117 50q79 0 125 -64.5t46 -196.5q0 -136 -59.5 -206.5t-138.5 -70.5q-29 0 -77 23v-43q0 -16 4 -23t18 -7h42v-160h-340v160h32q24 0 24 40v338q0 40 -24 40h-32v160h106l157 8
q0 -21 -2 -47z" />
    <glyph glyph-name="q" unicode="q" horiz-adv-x="583" 
d="M238 255q0 -93 25 -93t30 49v129q-9 16 -21 16q-34 0 -34 -101zM513 400v-420q0 -40 24 -40h33v-160h-342v160h41q15 0 19.5 7t4.5 23v35q0 7 2 19l-1 1q-48 -35 -94 -35q-83 0 -132.5 69.5t-49.5 191.5q0 138 56.5 207.5t136.5 69.5q54 0 101 -36q9 22 18 36l189 -19
q-6 -66 -6 -109z" />
    <glyph glyph-name="r" unicode="r" horiz-adv-x="464" 
d="M343 0h-328v160h32q24 0 24 40v118q0 40 -24 40h-32v160h106l156 8v-54h1q52 56 109 56q45 0 81 -14l-41 -209q-48 34 -74 34q-22 0 -43 -31q-19 -25 -19 -78v-30q0 -40 24 -40h28v-160z" />
    <glyph glyph-name="s" unicode="s" horiz-adv-x="464" 
d="M10 355q0 79 62.5 126t169.5 47q108 0 189 -34v-135h-162v5q0 22 -24 22t-24 -19q0 -12 24 -23.5t57.5 -24t67.5 -30t58 -51t24 -78.5q0 -77 -61 -124t-159 -47q-132 0 -205 34v145h161v-15q0 -22 25 -22q28 0 28 21q0 12 -24 22.5t-57.5 23t-67.5 30t-58 50.5t-24 77z
" />
    <glyph glyph-name="t" unicode="t" horiz-adv-x="400" 
d="M71 630l220 56v-188h87l-22 -160h-65v-128q0 -38 21 -38q32 0 65 27l22 -179q-68 -30 -164 -30q-92 0 -128 57t-36 160v131h-56v160h56v132z" />
    <glyph glyph-name="u" unicode="u" horiz-adv-x="610" 
d="M338 48h-1q-53 -58 -119 -58q-62 0 -106.5 41t-44.5 122v165q0 40 -24 40h-28v160h111l160 8v-326q0 -38 10 -38q20 0 26 32v136q0 28 -15 28h-5v160h84l156 8v-326q0 -40 24 -40h32v-160h-256q-4 22 -4 48z" />
    <glyph glyph-name="v" unicode="v" horiz-adv-x="533" 
d="M244 349l14 -46q4 -15 16 -64h1q1 5 4 19.5t6 26t5 18.5l14 46q4 9 -7 9h-15v160h254v-160h-23q-19 0 -29 -31l-121 -327h-197l-117 327q-10 31 -33 31h-19v160h269v-160h-18q-8 0 -4 -9z" />
    <glyph glyph-name="w" unicode="w" horiz-adv-x="825" 
d="M597 303l10 41q3 14 -8 14h-16v160h245v-160h-16q-6 0 -14 -5.5t-11 -15.5l-108 -337h-204l-54 203q-5 16 -10 40h-1q-5 -24 -10 -40l-54 -203h-206l-101 337q-3 10 -11 15.5t-14 5.5h-17v160h262v-160h-21q-12 0 -7 -14l13 -43q6 -17 9 -34h1q1 10 7 34l52 217h214
l52 -217q1 -7 4 -18.5t4 -16.5h1q4 15 9 37z" />
    <glyph glyph-name="x" unicode="x" horiz-adv-x="450" 
d="M225 429l47 89h168v-160h-32q-12 0 -25 -19l-45 -69l64 -98q8 -12 26 -12h22v-160h-162l-63 111l-63 -111h-162v160h25q14 0 22 11l66 99l-47 69q-12 19 -32 19h-24v160h168z" />
    <glyph glyph-name="y" unicode="y" horiz-adv-x="543" 
d="M156 41l-102 286q-10 31 -33 31h-24v160h274v-160h-14q-11 0 -7 -16l13 -43q9 -30 16 -65h1q9 44 15 65l13 43q4 16 -8 16h-13v160h259v-160h-28q-19 0 -29 -31l-127 -342q-37 -100 -100.5 -149.5t-172.5 -56.5l-36 203q72 3 93 41z" />
    <glyph glyph-name="z" unicode="z" horiz-adv-x="452" 
d="M275 160q10 0 10 14v15h155v-189h-428v119l193 241q-12 -2 -21 -2h-9q-8 0 -8 -10v-14h-155v184h420v-119l-190 -242q12 3 16 3h17z" />
    <glyph glyph-name="braceleft" unicode="{" horiz-adv-x="328" 
d="M152 233q98 -47 98 -161v-111q0 -47 12 -65.5t51 -20.5v-100h-47q-103 0 -157.5 40t-54.5 144v109q0 57 -11.5 80t-42.5 33v104q31 10 42.5 33t11.5 80v109q0 104 54.5 144t157.5 40h47v-100q-39 -2 -51 -20.5t-12 -65.5v-111q0 -114 -98 -161z" />
    <glyph glyph-name="bar" unicode="|" 
d="M45 692h196v-912h-196v912z" />
    <glyph glyph-name="braceright" unicode="}" horiz-adv-x="328" 
d="M177 233q-99 46 -99 161v111q0 47 -12 65.5t-51 20.5v100h47q103 0 157.5 -40t54.5 -144v-109q0 -57 11.5 -80t42.5 -33v-104q-31 -10 -42.5 -33t-11.5 -80v-109q0 -104 -54.5 -144t-157.5 -40h-47v100q39 2 51 20.5t12 65.5v111q0 115 99 161z" />
    <glyph glyph-name="asciitilde" unicode="~" horiz-adv-x="482" 
d="M131 156l-103 54q28 86 59.5 117.5t74.5 31.5q41 0 88 -40q30 -25 48 -25q26 0 53 50l102 -54q-27 -86 -58 -117.5t-73 -31.5t-73 27q-3 3 -13 11t-14 11t-12 8t-14 6.5t-12 1.5q-26 0 -53 -50z" />
    <glyph glyph-name="nbspace" unicode="&#xa0;" horiz-adv-x="190" 
 />
    <glyph glyph-name="exclamdown" unicode="&#xa1;" 
d="M66 249h162l20 -411l-202 -13zM142 290q-53 0 -88 32t-35 87t35 87t88 32t88.5 -32t35.5 -87t-35.5 -87t-88.5 -32z" />
    <glyph glyph-name="cent" unicode="&#xa2;" horiz-adv-x="468" 
d="M289 -9v-113h-60v114q-96 9 -153.5 77.5t-57.5 178.5q0 123 63 193t148 84v82h60v-80q87 -4 155 -36v-174h-170v25q0 14 -8 14q-28 0 -28 -89q0 -38 16.5 -66.5t47.5 -28.5q48 0 94 39l58 -168q-68 -45 -165 -52z" />
    <glyph glyph-name="sterling" unicode="&#xa3;" horiz-adv-x="544" 
d="M330 419h125v-148h-98v-3q0 -51 -44 -110v-1q7 0 19.5 1t21.5 1.5t14 0.5h142v-160h-480v105q54 13 85 56q22 35 22 102v8h-102v148h73q-9 47 -9 87q0 88 59.5 137t160.5 49q116 0 197 -34v-150h-162v17q0 27 -18 27q-17 0 -17 -53q0 -38 11 -80z" />
    <glyph glyph-name="currency" unicode="&#xa4;" horiz-adv-x="750" 
d="M625 348q0 -73 -39 -134l60 -60l-79 -79l-59 61q-62 -38 -133 -38q-75 0 -134 39l-60 -60l-77 77l60 60q-39 61 -39 134q0 74 40 135l-58 56l79 80l58 -59q59 38 131 38q74 0 134 -38l59 59l78 -78l-60 -59q39 -61 39 -134zM478 348q0 43 -30 73t-73 30t-73 -30t-30 -73
t30 -73t73 -30t73 30t30 73z" />
    <glyph glyph-name="yen" unicode="&#xa5;" horiz-adv-x="516" 
d="M359 201v-1q0 -40 14 -40h49v-160h-327v160h49q14 0 14 40v1h-149v120h107v1l-25 38h-82v120h37l-11 17q-1 2 -4.5 7.5t-5 7t-4 4.5t-6 4t-7.5 1h-16v160h257v-160h-15q-18 0 -10 -26l10 -26q12 -31 23 -69h1q10 34 26 71l10 24q4 9 1 17.5t-12 8.5h-15v160h257v-160h-15
q-7 0 -12.5 -3.5t-8 -7t-7.5 -13.5l-9 -17h34v-120h-80l-19 -36v-3h99v-120h-148z" />
    <glyph glyph-name="brokenbar" unicode="&#xa6;" horiz-adv-x="333" 
d="M67 692h200v-332h-200v332zM67 112h200v-332h-200v332z" />
    <glyph glyph-name="section" unicode="&#xa7;" horiz-adv-x="524" 
d="M393 397q40 -32 61 -52t38 -51t17 -65q0 -113 -115 -148q76 -49 76 -121q0 -68 -65 -116t-164 -48q-112 0 -204 64l91 139q60 -35 85 -35q18 0 18 21q0 13 -16.5 28.5t-96.5 81.5q-28 23 -41 35t-30.5 35t-24.5 50.5t-7 63.5q0 83 117 131q-31 20 -52.5 49t-21.5 59
q0 77 59 125.5t164 48.5q122 0 194 -53l-95 -147q-55 44 -80 44t-25 -27q0 -12 18.5 -29t99.5 -83zM197 291q0 -14 25 -38.5t60 -52.5t44 -37q5 7 5 26q0 13 -24 36.5t-60 52.5t-44 37q-6 -7 -6 -24z" />
    <glyph glyph-name="dieresis" unicode="&#xa8;" 
d="M280 755q44 0 74 -25t30 -67t-30 -67t-74 -25t-73.5 25t-29.5 67t29.5 67t73.5 25zM6 755q44 0 73.5 -25t29.5 -67t-29.5 -67t-73.5 -25t-73.5 25t-29.5 67t29.5 67t73.5 25z" />
    <glyph glyph-name="copyright" unicode="&#xa9;" horiz-adv-x="750" 
d="M375 684q145 0 248 -103t103 -248t-103 -248t-248 -103t-248 103t-103 248t103 248t248 103zM375 573q-100 0 -170 -70t-70 -170t70 -170t170 -70t170 70t70 170t-70 170t-170 70zM404 253q39 0 68 16l22 -74q-54 -28 -113 -28q-80 0 -127.5 44.5t-47.5 117.5
q0 75 49 122.5t126 47.5q65 0 111 -22l-23 -79q-25 19 -74 19q-33 0 -56.5 -23.5t-23.5 -64.5q0 -38 25.5 -57.5t63.5 -18.5z" />
    <glyph glyph-name="ordfeminine" unicode="&#xaa;" horiz-adv-x="350" 
d="M179 458v37h-4q-29 0 -29 -32q0 -26 18 -26q10 0 15 21zM166 690q145 0 145 -97v-106q0 -25 18 -25h11v-103h-144q-1 7 -4 26h-1q-37 -32 -81 -32q-39 0 -67.5 27t-28.5 67q0 112 163 112h2v26q0 14 -19 14q-23 0 -23 -15v-9h-107v89q45 26 136 26z" />
    <glyph glyph-name="guillemotleft" unicode="&#xab;" horiz-adv-x="588" 
d="M568 138l-151 -104l-124 216l126 218l149 -103l-66 -114zM295 138l-151 -104l-123 216l125 218l150 -103l-66 -114z" />
    <glyph glyph-name="logicalnot" unicode="&#xac;" horiz-adv-x="482" 
d="M290 243h-262v164h426v-305h-164v141z" />
    <glyph glyph-name="sfthyphen" unicode="&#xad;" horiz-adv-x="255" 
d="M243 174h-231v170h231v-170z" />
    <glyph glyph-name="registered" unicode="&#xae;" horiz-adv-x="750" 
d="M346 174h-95v318h131q123 0 123 -83q0 -61 -81 -78q34 -6 56 -49l59 -108h-106l-56 110l-5 10t-4 5.5t-6.5 4t-9.5 0.5h-6v-130zM346 367h22q27 0 27 25q0 21 -27 21h-22v-46zM375 684q145 0 248 -103t103 -248t-103 -248t-248 -103t-248 103t-103 248t103 248t248 103z
M375 573q-100 0 -170 -70t-70 -170t70 -170t170 -70t170 70t70 170t-70 170t-170 70z" />
    <glyph glyph-name="macron" unicode="&#xaf;" 
d="M-43 785h372v-179h-372v179z" />
    <glyph glyph-name="degree" unicode="&#xb0;" horiz-adv-x="318" 
d="M159 692q65 0 107 -45t42 -116t-42 -116t-107 -45t-107 45t-42 116t42 116t107 45zM159 610q-23 0 -37 -22.5t-14 -56.5t14 -56.5t37 -22.5t37 22.5t14 56.5t-14 56.5t-37 22.5z" />
    <glyph glyph-name="plusminus" unicode="&#xb1;" horiz-adv-x="482" 
d="M323 526h131v-164h-131v-131h-164v131h-131v164h131v131h164v-131zM28 164h426v-164h-426v164z" />
    <glyph glyph-name="two.superior" unicode="&#xb2;" horiz-adv-x="378" 
d="M350 264h-319v76l76 77q86 86 86 128q0 33 -19 33q-22 0 -22 -27v-14h-117v99q35 26 67 38.5t81 12.5q69 0 111.5 -38t42.5 -94q0 -63 -73 -132l-59 -56l1 -1q3 1 11 1h16q7 0 7 13v14h110v-130z" />
    <glyph glyph-name="three.superior" unicode="&#xb3;" horiz-adv-x="378" 
d="M179 368q22 0 22 28q0 29 -28 29q-23 0 -47 -1v103h35q28 0 28 25q0 26 -19 26q-16 0 -16 -23v-8h-117v93q35 25 67 36t81 11q71 0 110 -29t39 -83q0 -37 -27 -62.5t-61 -29.5v-1q38 -4 69 -29.5t31 -70.5q0 -53 -45.5 -88.5t-115.5 -35.5q-49 0 -81 11t-67 36v95h117v-8
q0 -24 25 -24z" />
    <glyph glyph-name="acute" unicode="&#xb4;" 
d="M24 676l181 152l81 -132l-201 -125z" />
    <glyph glyph-name="micro" unicode="&#xb5;" horiz-adv-x="610" 
d="M598 0h-256q-4 22 -4 28h-1q-6 -28 -25 -28t-25 28h-1v-58q0 -15 6 -22.5t22 -7.5h27v-160h-326v160h23q29 0 29 40v338q0 40 -24 40h-28v160h111l160 8v-326q0 -38 10 -38q20 0 26 32v136q0 28 -15 28h-5v160h84l156 8v-326q0 -40 24 -40h32v-160z" />
    <glyph glyph-name="paragraph" unicode="&#xb6;" horiz-adv-x="436" 
d="M201 -99v412h-14q-70 0 -114.5 49t-44.5 126q0 78 46 128.5t142 50.5h204v-40h-41v-726h-50v726h-78v-726h-50z" />
    <glyph glyph-name="periodcentered" unicode="&#xb7;" 
d="M143 414q55 0 92 -33.5t37 -90.5t-37 -90.5t-92 -33.5q-56 0 -92.5 33.5t-36.5 90.5t36.5 90.5t92.5 33.5z" />
    <glyph glyph-name="cedilla" unicode="&#xb8;" 
d="M149 -41q5 1 21 1q57 0 95.5 -32t38.5 -87q0 -71 -59.5 -117t-141.5 -46q-47 0 -109 23l26 88q8 -1 19.5 -4t21.5 -4t25 -1q65 0 65 41q0 46 -59 46q-20 0 -62 -15l22 148h102z" />
    <glyph glyph-name="one.superior" unicode="&#xb9;" horiz-adv-x="378" 
d="M124 530q0 25 -15 25h-33l-18 103h52q33 0 59 23h100v-289q0 -25 14 -25h30v-103h-241v103h37q15 0 15 25v138z" />
    <glyph glyph-name="ordmasculine" unicode="&#xba;" horiz-adv-x="350" 
d="M206 522q0 57 -30 57t-30 -57q0 -59 30 -59t30 59zM336 522q0 -81 -44.5 -125t-115.5 -44t-116.5 44.5t-45.5 124.5t45.5 124t116.5 44t115.5 -44t44.5 -124z" />
    <glyph glyph-name="guillemotright" unicode="&#xbb;" horiz-adv-x="588" 
d="M21 138l65 113l-66 114l149 103l126 -218l-124 -216zM293 138l66 113l-67 114l150 103l126 -218l-124 -216z" />
    <glyph glyph-name="onequarter" unicode="&#xbc;" horiz-adv-x="885" 
d="M124 530q0 25 -15 25h-33l-18 103h52q33 0 59 23h100v-289q0 -25 14 -25h30v-103h-241v103h37q15 0 15 25v138zM691 672l-360 -722l-104 60l360 723zM820 224h41v-94h-41v-2q0 -25 14 -25h27v-103h-238v103h37q14 0 14 25v2h-147l-6 83l154 204h145v-193zM674 214v58
l-41 -58h41z" />
    <glyph glyph-name="onehalf" unicode="&#xbd;" horiz-adv-x="885" 
d="M124 530q0 25 -15 25h-33l-18 103h52q33 0 59 23h100v-289q0 -25 14 -25h30v-103h-241v103h37q15 0 15 25v138zM675 672l-360 -722l-104 60l360 723zM857 0h-319v76l76 77q86 86 86 128q0 33 -19 33q-22 0 -22 -27v-14h-117v99q35 26 67 38.5t81 12.5q69 0 111.5 -38
t42.5 -94q0 -63 -73 -132l-59 -56l1 -1q3 1 11 1h16q7 0 7 13v14h110v-130z" />
    <glyph glyph-name="threequarters" unicode="&#xbe;" horiz-adv-x="885" 
d="M179 368q22 0 22 28q0 29 -28 29q-23 0 -47 -1v103h35q28 0 28 25q0 26 -19 26q-16 0 -16 -23v-8h-117v93q35 25 67 36t81 11q71 0 110 -29t39 -83q0 -37 -27 -62.5t-61 -29.5v-1q38 -4 69 -29.5t31 -70.5q0 -53 -45.5 -88.5t-115.5 -35.5q-49 0 -81 11t-67 36v95h117v-8
q0 -24 25 -24zM675 672l-360 -722l-104 60l360 723zM820 224h41v-94h-41v-2q0 -25 14 -25h27v-103h-238v103h37q14 0 14 25v2h-147l-6 83l154 204h145v-193zM674 214v58l-41 -58h41z" />
    <glyph glyph-name="questiondown" unicode="&#xbf;" horiz-adv-x="473" 
d="M261 290q-53 0 -88.5 32t-35.5 87t35.5 87t88.5 32t88 -32t35 -87t-35 -87t-88 -32zM350 249q2 -10 2 -19q0 -86 -51 -139q-9 -9 -25.5 -24.5t-24 -23t-14 -20.5t-6.5 -26q0 -31 34 -31q25 0 25 27v20h166v-120q-46 -35 -91.5 -51.5t-108.5 -16.5q-110 0 -172 38.5
t-62 116.5q0 20 5 37.5t18 36t20.5 28.5t27.5 30.5t24 25.5t15.5 17t15 16t11.5 13t11 14t7 12t5 13.5t1 13.5q0 5 -1 12h168z" />
    <glyph glyph-name="Agrave" unicode="&#xc0;" horiz-adv-x="643" 
d="M289 360h58l-6 18q-16 44 -22 92h-1q-6 -31 -24 -93zM380 218h-124l-6 -18q-5 -17 -0.5 -28.5t17.5 -11.5h25v-160h-295v160h12q12 0 17.5 6.5t11.5 27.5l158 487h251l158 -487q6 -20 11.5 -27t16.5 -7h13v-160h-295v160h18q28 0 17 41zM414 842l-61 -105l-201 125
l82 132z" />
    <glyph glyph-name="Aacute" unicode="&#xc1;" horiz-adv-x="643" 
d="M289 360h58l-6 18q-16 44 -22 92h-1q-6 -31 -24 -93zM380 218h-124l-6 -18q-5 -17 -0.5 -28.5t17.5 -11.5h25v-160h-295v160h12q12 0 17.5 6.5t11.5 27.5l158 487h251l158 -487q6 -20 11.5 -27t16.5 -7h13v-160h-295v160h18q28 0 17 41zM204 842l181 152l81 -132
l-201 -125z" />
    <glyph glyph-name="Acircumflex" unicode="&#xc2;" horiz-adv-x="643" 
d="M289 360h58l-6 18q-16 44 -22 92h-1q-6 -31 -24 -93zM380 218h-124l-6 -18q-5 -17 -0.5 -28.5t17.5 -11.5h25v-160h-295v160h12q12 0 17.5 6.5t11.5 27.5l158 487h251l158 -487q6 -20 11.5 -27t16.5 -7h13v-160h-295v160h18q28 0 17 41zM319 813l-125 -76l-61 105
l186 152l186 -152l-61 -105z" />
    <glyph glyph-name="Atilde" unicode="&#xc3;" horiz-adv-x="643" 
d="M289 360h58l-6 18q-16 44 -22 92h-1q-6 -31 -24 -93zM380 218h-124l-6 -18q-5 -17 -0.5 -28.5t17.5 -11.5h25v-160h-295v160h12q12 0 17.5 6.5t11.5 27.5l158 487h251l158 -487q6 -20 11.5 -27t16.5 -7h13v-160h-295v160h18q28 0 17 41zM392 930q7 0 14 2t12 3.5t11.5 7
t9.5 7.5t10.5 9t9.5 9l81 -159q-40 -37 -73.5 -54.5t-76.5 -17.5q-44 0 -88 28.5t-76 28.5q-7 0 -14 -2t-12 -3.5t-11.5 -7t-9.5 -7.5t-10.5 -9t-9.5 -9l-81 159q41 37 74 54.5t76 17.5q42 0 85.5 -28.5t78.5 -28.5z" />
    <glyph glyph-name="Adieresis" unicode="&#xc4;" horiz-adv-x="643" 
d="M289 360h58l-6 18q-16 44 -22 92h-1q-6 -31 -24 -93zM380 218h-124l-6 -18q-5 -17 -0.5 -28.5t17.5 -11.5h25v-160h-295v160h12q12 0 17.5 6.5t11.5 27.5l158 487h251l158 -487q6 -20 11.5 -27t16.5 -7h13v-160h-295v160h18q28 0 17 41zM446 921q44 0 74 -25t30 -67
t-30 -67t-74 -25t-73.5 25t-29.5 67t29.5 67t73.5 25zM172 921q44 0 73.5 -25t29.5 -67t-29.5 -67t-73.5 -25t-73.5 25t-29.5 67t29.5 67t73.5 25z" />
    <glyph glyph-name="Aring" unicode="&#xc5;" horiz-adv-x="643" 
d="M289 360h58l-6 18q-16 44 -22 92h-1q-6 -31 -24 -93zM380 218h-124l-6 -18q-5 -17 -0.5 -28.5t17.5 -11.5h25v-160h-295v160h12q12 0 17.5 6.5t11.5 27.5l158 487h251l158 -487q6 -20 11.5 -27t16.5 -7h13v-160h-295v160h18q28 0 17 41zM309 1053q62 0 106.5 -46.5
t44.5 -111.5t-44.5 -111.5t-106.5 -46.5t-106 46.5t-44 111.5t44 111.5t106 46.5zM309 940q-18 0 -30.5 -13t-12.5 -32t12.5 -32t30.5 -13t30.5 13t12.5 32t-12.5 32t-30.5 13z" />
    <glyph glyph-name="AE" unicode="&#xc6;" horiz-adv-x="850" 
d="M151 469q9 20 6.5 36t-16.5 16h-35v160h721v-223h-179v35q0 18 -4 23t-19 5h-33v-93h1h6h1h127v-160h-127h-1h-6h-1v-108h43q20 0 20 25v51h179v-236h-506v160h17q27 0 27 40v18h-119l-6 -18q-6 -16 -2 -28t18 -12h12v-160h-279v160h24q15 0 25 26zM372 360v161h-18
l-58 -161h76z" />
    <glyph glyph-name="Ccedilla" unicode="&#xc7;" horiz-adv-x="569" 
d="M358 -41q5 1 21 1q57 0 95.5 -32t38.5 -87q0 -71 -59.5 -117t-141.5 -46q-47 0 -109 23l26 88q8 -1 19.5 -4t21.5 -4t25 -1q65 0 65 41q0 46 -59 46q-20 0 -62 -15l21 146q-108 24 -174 114t-66 228q0 176 94.5 264t237.5 88q101 0 196 -42v-234h-179v50q0 30 -9 42
t-33 12q-42 0 -64.5 -48.5t-22.5 -139.5q0 -78 29.5 -124.5t84.5 -46.5q39 0 70.5 11t73.5 39l55 -169q-46 -27 -84 -39t-108 -14z" />
    <glyph glyph-name="Egrave" unicode="&#xc8;" horiz-adv-x="550" 
d="M300 268h-1h-6h-1v-108h43q20 0 20 25v51h179v-236h-519v160h30q27 0 27 40v281q0 40 -27 40h-30v160h512v-223h-179v35q0 18 -4.5 23t-19.5 5h-32v-93h1h6h1h127v-160h-127zM369 842l-61 -105l-201 125l82 132z" />
    <glyph glyph-name="Eacute" unicode="&#xc9;" horiz-adv-x="550" 
d="M300 268h-1h-6h-1v-108h43q20 0 20 25v51h179v-236h-519v160h30q27 0 27 40v281q0 40 -27 40h-30v160h512v-223h-179v35q0 18 -4.5 23t-19.5 5h-32v-93h1h6h1h127v-160h-127zM160 842l181 152l81 -132l-201 -125z" />
    <glyph glyph-name="Ecircumflex" unicode="&#xca;" horiz-adv-x="550" 
d="M300 268h-1h-6h-1v-108h43q20 0 20 25v51h179v-236h-519v160h30q27 0 27 40v281q0 40 -27 40h-30v160h512v-223h-179v35q0 18 -4.5 23t-19.5 5h-32v-93h1h6h1h127v-160h-127zM275 813l-125 -76l-61 105l186 152l186 -152l-61 -105z" />
    <glyph glyph-name="Edieresis" unicode="&#xcb;" horiz-adv-x="550" 
d="M300 268h-1h-6h-1v-108h43q20 0 20 25v51h179v-236h-519v160h30q27 0 27 40v281q0 40 -27 40h-30v160h512v-223h-179v35q0 18 -4.5 23t-19.5 5h-32v-93h1h6h1h127v-160h-127zM410 921q44 0 74 -25t30 -67t-30 -67t-74 -25t-73.5 25t-29.5 67t29.5 67t73.5 25zM136 921
q44 0 73.5 -25t29.5 -67t-29.5 -67t-73.5 -25t-73.5 25t-29.5 67t29.5 67t73.5 25z" />
    <glyph glyph-name="Igrave" unicode="&#xcc;" horiz-adv-x="364" 
d="M292 481v-281q0 -40 27 -40h30v-160h-334v160h30q27 0 27 40v281q0 40 -27 40h-30v160h334v-160h-30q-27 0 -27 -40zM295 842l-61 -105l-201 125l82 132z" />
    <glyph glyph-name="Iacute" unicode="&#xcd;" horiz-adv-x="364" 
d="M292 481v-281q0 -40 27 -40h30v-160h-334v160h30q27 0 27 40v281q0 40 -27 40h-30v160h334v-160h-30q-27 0 -27 -40zM75 842l181 152l81 -132l-201 -125z" />
    <glyph glyph-name="Icircumflex" unicode="&#xce;" horiz-adv-x="364" 
d="M292 481v-281q0 -40 27 -40h30v-160h-334v160h30q27 0 27 40v281q0 40 -27 40h-30v160h334v-160h-30q-27 0 -27 -40zM181 813l-125 -76l-61 105l186 152l186 -152l-61 -105z" />
    <glyph glyph-name="Idieresis" unicode="&#xcf;" horiz-adv-x="364" 
d="M292 481v-281q0 -40 27 -40h30v-160h-334v160h30q27 0 27 40v281q0 40 -27 40h-30v160h334v-160h-30q-27 0 -27 -40zM318 921q44 0 74 -25t30 -67t-30 -67t-74 -25t-73.5 25t-29.5 67t29.5 67t73.5 25zM44 921q44 0 73.5 -25t29.5 -67t-29.5 -67t-73.5 -25t-73.5 25
t-29.5 67t29.5 67t73.5 25z" />
    <glyph glyph-name="Eth" unicode="&#xd0;" horiz-adv-x="670" 
d="M15 261v160h57v60q0 40 -27 40h-30v160h295q184 0 268 -107q72 -89 72 -230q0 -157 -80 -249q-44 -51 -98 -73t-162 -22h-295v160h30q27 0 27 40v61h-57zM337 160q39 0 63 32q30 40 30 152q0 102 -31 143q-25 34 -62 34h-45v-100h71v-160h-71v-101h45z" />
    <glyph glyph-name="Ntilde" unicode="&#xd1;" horiz-adv-x="712" 
d="M640 0h-241l-97 274q-3 8 -8.5 24.5t-8.5 24.5h-1q1 -7 1 -91v-32q0 -40 18 -40h11v-160h-299v160h30q27 0 27 40v281q0 40 -17 40h-40v160h298l93 -274l21 -63h1q-1 6 -1 97v40q0 40 -18 40h-14v160h302v-160h-30q-27 0 -27 -40v-481zM426 930q7 0 14 2t12 3.5t11.5 7
t9.5 7.5t10.5 9t9.5 9l81 -159q-40 -37 -73.5 -54.5t-76.5 -17.5q-44 0 -88 28.5t-76 28.5q-7 0 -14 -2t-12 -3.5t-11.5 -7t-9.5 -7.5t-10.5 -9t-9.5 -9l-81 159q41 37 74 54.5t76 17.5q42 0 85.5 -28.5t78.5 -28.5z" />
    <glyph glyph-name="Ograve" unicode="&#xd2;" horiz-adv-x="694" 
d="M347 -11q-145 0 -236 93.5t-91 257.5t91 258t236 94t236 -94t91 -258t-91 -257.5t-236 -93.5zM347 161q50 0 78.5 44t28.5 135t-28.5 135.5t-78.5 44.5t-78.5 -44.5t-28.5 -135.5t28.5 -135t78.5 -44zM452 842l-61 -105l-201 125l82 132z" />
    <glyph glyph-name="Oacute" unicode="&#xd3;" horiz-adv-x="694" 
d="M347 -11q-145 0 -236 93.5t-91 257.5t91 258t236 94t236 -94t91 -258t-91 -257.5t-236 -93.5zM347 161q50 0 78.5 44t28.5 135t-28.5 135.5t-78.5 44.5t-78.5 -44.5t-28.5 -135.5t28.5 -135t78.5 -44zM241 842l181 152l81 -132l-201 -125z" />
    <glyph glyph-name="Ocircumflex" unicode="&#xd4;" horiz-adv-x="694" 
d="M347 -11q-145 0 -236 93.5t-91 257.5t91 258t236 94t236 -94t91 -258t-91 -257.5t-236 -93.5zM347 161q50 0 78.5 44t28.5 135t-28.5 135.5t-78.5 44.5t-78.5 -44.5t-28.5 -135.5t28.5 -135t78.5 -44zM347 813l-125 -76l-61 105l186 152l186 -152l-61 -105z" />
    <glyph glyph-name="Otilde" unicode="&#xd5;" horiz-adv-x="694" 
d="M347 -11q-145 0 -236 93.5t-91 257.5t91 258t236 94t236 -94t91 -258t-91 -257.5t-236 -93.5zM347 161q50 0 78.5 44t28.5 135t-28.5 135.5t-78.5 44.5t-78.5 -44.5t-28.5 -135.5t28.5 -135t78.5 -44zM414 930q7 0 14 2t12 3.5t11.5 7t9.5 7.5t10.5 9t9.5 9l81 -159
q-40 -37 -73.5 -54.5t-76.5 -17.5q-44 0 -88 28.5t-76 28.5q-7 0 -14 -2t-12 -3.5t-11.5 -7t-9.5 -7.5t-10.5 -9t-9.5 -9l-81 159q41 37 74 54.5t76 17.5q42 0 85.5 -28.5t78.5 -28.5z" />
    <glyph glyph-name="Odieresis" unicode="&#xd6;" horiz-adv-x="694" 
d="M347 -11q-145 0 -236 93.5t-91 257.5t91 258t236 94t236 -94t91 -258t-91 -257.5t-236 -93.5zM347 161q50 0 78.5 44t28.5 135t-28.5 135.5t-78.5 44.5t-78.5 -44.5t-28.5 -135.5t28.5 -135t78.5 -44zM468 921q44 0 74 -25t30 -67t-30 -67t-74 -25t-73.5 25t-29.5 67
t29.5 67t73.5 25zM194 921q44 0 73.5 -25t29.5 -67t-29.5 -67t-73.5 -25t-73.5 25t-29.5 67t29.5 67t73.5 25z" />
    <glyph glyph-name="multiply" unicode="&#xd7;" horiz-adv-x="482" 
d="M241 370l100 100l116 -116l-100 -100l100 -100l-116 -116l-100 100l-100 -100l-116 116l100 100l-100 100l116 116z" />
    <glyph glyph-name="Oslash" unicode="&#xd8;" horiz-adv-x="694" 
d="M72 133q-52 84 -52 207q0 164 91 258t236 94q109 0 190 -55l51 55l86 -90l-52 -56q52 -87 52 -206q0 -164 -91 -257.5t-236 -93.5q-111 0 -191 54l-50 -54l-86 88zM240 315l168 182q-26 23 -61 23q-50 0 -78.5 -44.5t-28.5 -135.5v-25zM286 183q25 -22 61 -22
q50 0 78.5 44t28.5 135q0 16 -1 24z" />
    <glyph glyph-name="Ugrave" unicode="&#xd9;" horiz-adv-x="712" 
d="M420 257v224q0 40 -28 40h-24v160h329v-160h-30q-27 0 -27 -40v-205q0 -143 -70.5 -215t-220.5 -72q-131 0 -204 60.5t-73 205.5v226q0 40 -27 40h-30v160h329v-160h-24q-28 0 -28 -40v-224q0 -95 63 -95q65 0 65 95zM461 842l-61 -105l-201 125l82 132z" />
    <glyph glyph-name="Uacute" unicode="&#xda;" horiz-adv-x="712" 
d="M420 257v224q0 40 -28 40h-24v160h329v-160h-30q-27 0 -27 -40v-205q0 -143 -70.5 -215t-220.5 -72q-131 0 -204 60.5t-73 205.5v226q0 40 -27 40h-30v160h329v-160h-24q-28 0 -28 -40v-224q0 -95 63 -95q65 0 65 95zM252 842l181 152l81 -132l-201 -125z" />
    <glyph glyph-name="Ucircumflex" unicode="&#xdb;" horiz-adv-x="712" 
d="M420 257v224q0 40 -28 40h-24v160h329v-160h-30q-27 0 -27 -40v-205q0 -143 -70.5 -215t-220.5 -72q-131 0 -204 60.5t-73 205.5v226q0 40 -27 40h-30v160h329v-160h-24q-28 0 -28 -40v-224q0 -95 63 -95q65 0 65 95zM356 813l-125 -76l-61 105l186 152l186 -152
l-61 -105z" />
    <glyph glyph-name="Udieresis" unicode="&#xdc;" horiz-adv-x="712" 
d="M420 257v224q0 40 -28 40h-24v160h329v-160h-30q-27 0 -27 -40v-205q0 -143 -70.5 -215t-220.5 -72q-131 0 -204 60.5t-73 205.5v226q0 40 -27 40h-30v160h329v-160h-24q-28 0 -28 -40v-224q0 -95 63 -95q65 0 65 95zM480 921q44 0 74 -25t30 -67t-30 -67t-74 -25
t-73.5 25t-29.5 67t29.5 67t73.5 25zM206 921q44 0 73.5 -25t29.5 -67t-29.5 -67t-73.5 -25t-73.5 25t-29.5 67t29.5 67t73.5 25z" />
    <glyph glyph-name="Yacute" unicode="&#xdd;" horiz-adv-x="585" 
d="M319 471l10 24q6 8 4.5 17t-9.5 9h-12v160h276v-160h-22q-13 0 -24 -20l-140 -276v-25q0 -40 29 -40h43v-160h-362v160h43q27 0 27 40v25l-138 276q-10 20 -24 20h-23v160h275v-160h-11q-7 0 -8.5 -9t2.5 -17l10 -24q22 -58 26 -70h1q14 40 27 70zM189 842l181 152
l81 -132l-201 -125z" />
    <glyph glyph-name="Thorn" unicode="&#xde;" horiz-adv-x="569" 
d="M380 193h-82q3 -33 25 -33h32v-160h-340v160h33q24 0 24 40v281q0 40 -24 40h-33v160h340v-160h-32q-23 0 -25 -36h82q77 0 125 -39.5t48 -106.5t-48 -106.5t-125 -39.5zM298 307h14q15 0 15 32t-15 32h-14v-64z" />
    <glyph glyph-name="germandbls" unicode="&#xdf;" horiz-adv-x="670" 
d="M432 187q0 11 -6.5 22t-13 16.5t-23 18t-22.5 17.5q-58 46 -58 113q0 22 8 42t14.5 29t21.5 27q31 39 31 68q0 34 -45 34q-47 0 -47 -51v-523h-276v160h32q24 0 24 40v298q0 235 276 235q118 0 185.5 -43.5t67.5 -129.5q0 -55 -36 -99q-7 -8 -17 -19.5t-16.5 -18t-11 -15
t-4.5 -15.5q0 -9 10.5 -18.5t31.5 -24t35 -28.5q59 -57 59 -147q0 -77 -50 -131t-135 -54q-79 0 -158 26l21 175q52 -30 80 -30q12 0 17 5t5 21z" />
    <glyph glyph-name="agrave" unicode="&#xe0;" horiz-adv-x="565" 
d="M276 149v68h-1q-16 -4 -26.5 -19.5t-10.5 -32.5q0 -43 15 -43q7 0 14 7.5t9 19.5zM224 366v-20h-181v137q46 26 93 35.5t121 9.5q239 0 239 -154v-174q0 -40 25 -40h24v-160h-241q-4 18 -4 40h-1q-45 -50 -128 -50q-68 0 -110.5 42.5t-42.5 107.5q0 175 257 179h1v42
q0 11 -9 18t-18 7q-25 0 -25 -20zM353 676l-61 -105l-201 125l82 132z" />
    <glyph glyph-name="aacute" unicode="&#xe1;" horiz-adv-x="565" 
d="M276 149v68h-1q-16 -4 -26.5 -19.5t-10.5 -32.5q0 -43 15 -43q7 0 14 7.5t9 19.5zM224 366v-20h-181v137q46 26 93 35.5t121 9.5q239 0 239 -154v-174q0 -40 25 -40h24v-160h-241q-4 18 -4 40h-1q-45 -50 -128 -50q-68 0 -110.5 42.5t-42.5 107.5q0 175 257 179h1v42
q0 11 -9 18t-18 7q-25 0 -25 -20zM143 676l181 152l81 -132l-201 -125z" />
    <glyph glyph-name="acircumflex" unicode="&#xe2;" horiz-adv-x="565" 
d="M276 149v68h-1q-16 -4 -26.5 -19.5t-10.5 -32.5q0 -43 15 -43q7 0 14 7.5t9 19.5zM224 366v-20h-181v137q46 26 93 35.5t121 9.5q239 0 239 -154v-174q0 -40 25 -40h24v-160h-241q-4 18 -4 40h-1q-45 -50 -128 -50q-68 0 -110.5 42.5t-42.5 107.5q0 175 257 179h1v42
q0 11 -9 18t-18 7q-25 0 -25 -20zM247 647l-125 -76l-61 105l186 152l186 -152l-61 -105z" />
    <glyph glyph-name="atilde" unicode="&#xe3;" horiz-adv-x="565" 
d="M276 149v68h-1q-16 -4 -26.5 -19.5t-10.5 -32.5q0 -43 15 -43q7 0 14 7.5t9 19.5zM224 366v-20h-181v137q46 26 93 35.5t121 9.5q239 0 239 -154v-174q0 -40 25 -40h24v-160h-241q-4 18 -4 40h-1q-45 -50 -128 -50q-68 0 -110.5 42.5t-42.5 107.5q0 175 257 179h1v42
q0 11 -9 18t-18 7q-25 0 -25 -20zM331 764q7 0 14 2t12 3.5t11.5 7t9.5 7.5t10.5 9t9.5 9l81 -159q-40 -37 -73.5 -54.5t-76.5 -17.5q-44 0 -88 28.5t-76 28.5q-7 0 -14 -2t-12 -3.5t-11.5 -7t-9.5 -7.5t-10.5 -9t-9.5 -9l-81 159q41 37 74 54.5t76 17.5q42 0 85.5 -28.5
t78.5 -28.5z" />
    <glyph glyph-name="adieresis" unicode="&#xe4;" horiz-adv-x="565" 
d="M276 149v68h-1q-16 -4 -26.5 -19.5t-10.5 -32.5q0 -43 15 -43q7 0 14 7.5t9 19.5zM224 366v-20h-181v137q46 26 93 35.5t121 9.5q239 0 239 -154v-174q0 -40 25 -40h24v-160h-241q-4 18 -4 40h-1q-45 -50 -128 -50q-68 0 -110.5 42.5t-42.5 107.5q0 175 257 179h1v42
q0 11 -9 18t-18 7q-25 0 -25 -20zM390 755q44 0 74 -25t30 -67t-30 -67t-74 -25t-73.5 25t-29.5 67t29.5 67t73.5 25zM116 755q44 0 73.5 -25t29.5 -67t-29.5 -67t-73.5 -25t-73.5 25t-29.5 67t29.5 67t73.5 25z" />
    <glyph glyph-name="aring" unicode="&#xe5;" horiz-adv-x="565" 
d="M276 149v68h-1q-16 -4 -26.5 -19.5t-10.5 -32.5q0 -43 15 -43q7 0 14 7.5t9 19.5zM224 366v-20h-181v137q46 26 93 35.5t121 9.5q239 0 239 -154v-174q0 -40 25 -40h24v-160h-241q-4 18 -4 40h-1q-45 -50 -128 -50q-68 0 -110.5 42.5t-42.5 107.5q0 175 257 179h1v42
q0 11 -9 18t-18 7q-25 0 -25 -20zM248 887q62 0 106.5 -46.5t44.5 -111.5t-44.5 -111.5t-106.5 -46.5t-106 46.5t-44 111.5t44 111.5t106 46.5zM248 774q-18 0 -30.5 -13t-12.5 -32t12.5 -32t30.5 -13t30.5 13t12.5 32t-12.5 32t-30.5 13z" />
    <glyph glyph-name="ae" unicode="&#xe6;" horiz-adv-x="787" 
d="M276 156v61h-1q-16 -4 -26.5 -19.5t-10.5 -32.5q0 -33 15 -33q19 0 23 24zM571 325q-1 54 -35 54q-17 0 -28 -14t-12 -40h75zM414 495q57 33 115 33q106 0 172 -68.5t66 -206.5v-31h-271v-1q6 -39 29.5 -60t60.5 -21q69 0 127 46l56 -141q-90 -55 -219 -55
q-136 0 -202 66h-1q-64 -66 -166 -66q-69 0 -116 43t-47 107q0 175 257 179h1v42q0 11 -9 18t-18 7q-25 0 -25 -20v-20h-181v137q46 26 93 35.5t121 9.5q97 0 156 -33h1z" />
    <glyph glyph-name="ccedilla" unicode="&#xe7;" horiz-adv-x="468" 
d="M289 -41q5 1 21 1q57 0 95.5 -32t38.5 -87q0 -71 -59.5 -117t-141.5 -46q-47 0 -109 23l26 88q8 -1 19.5 -4t21.5 -4t25 -1q65 0 65 41q0 46 -59 46q-20 0 -62 -15l21 146q-80 20 -126.5 86t-46.5 164q0 71 23.5 127.5t61 88.5t79 48t82.5 16q102 0 180 -37v-174h-170v25
q0 14 -8 14q-28 0 -28 -89q0 -38 16.5 -66.5t47.5 -28.5q48 0 94 39l58 -168q-65 -44 -161 -51z" />
    <glyph glyph-name="egrave" unicode="&#xe8;" horiz-adv-x="529" 
d="M238 221q6 -39 29.5 -60t60.5 -21q70 0 127 46l56 -141q-90 -55 -219 -55q-274 0 -274 269q0 130 74.5 199.5t178.5 69.5q106 0 172 -68.5t66 -206.5v-31h-271v-1zM313 325q-1 54 -35 54q-17 0 -28 -14t-12 -40h75zM368 676l-61 -105l-201 125l82 132z" />
    <glyph glyph-name="eacute" unicode="&#xe9;" horiz-adv-x="529" 
d="M238 221q6 -39 29.5 -60t60.5 -21q70 0 127 46l56 -141q-90 -55 -219 -55q-274 0 -274 269q0 130 74.5 199.5t178.5 69.5q106 0 172 -68.5t66 -206.5v-31h-271v-1zM313 325q-1 54 -35 54q-17 0 -28 -14t-12 -40h75zM181 676l181 152l81 -132l-201 -125z" />
    <glyph glyph-name="ecircumflex" unicode="&#xea;" horiz-adv-x="529" 
d="M238 221q6 -39 29.5 -60t60.5 -21q70 0 127 46l56 -141q-90 -55 -219 -55q-274 0 -274 269q0 130 74.5 199.5t178.5 69.5q106 0 172 -68.5t66 -206.5v-31h-271v-1zM313 325q-1 54 -35 54q-17 0 -28 -14t-12 -40h75zM270 647l-125 -76l-61 105l186 152l186 -152l-61 -105z
" />
    <glyph glyph-name="edieresis" unicode="&#xeb;" horiz-adv-x="529" 
d="M238 221q6 -39 29.5 -60t60.5 -21q70 0 127 46l56 -141q-90 -55 -219 -55q-274 0 -274 269q0 130 74.5 199.5t178.5 69.5q106 0 172 -68.5t66 -206.5v-31h-271v-1zM313 325q-1 54 -35 54q-17 0 -28 -14t-12 -40h75zM404 755q44 0 74 -25t30 -67t-30 -67t-74 -25t-73.5 25
t-29.5 67t29.5 67t73.5 25zM130 755q44 0 73.5 -25t29.5 -67t-29.5 -67t-73.5 -25t-73.5 25t-29.5 67t29.5 67t73.5 25z" />
    <glyph glyph-name="igrave" unicode="&#xec;" horiz-adv-x="355" 
d="M71 318q0 40 -24 40h-32v160h119l157 8v-326q0 -40 24 -40h28v-160h-328v160h32q24 0 24 40v118zM283 676l-61 -105l-201 125l82 132z" />
    <glyph glyph-name="iacute" unicode="&#xed;" horiz-adv-x="355" 
d="M71 318q0 40 -24 40h-32v160h119l157 8v-326q0 -40 24 -40h28v-160h-328v160h32q24 0 24 40v118zM62 676l181 152l81 -132l-201 -125z" />
    <glyph glyph-name="icircumflex" unicode="&#xee;" horiz-adv-x="355" 
d="M71 318q0 40 -24 40h-32v160h119l157 8v-326q0 -40 24 -40h28v-160h-328v160h32q24 0 24 40v118zM179 647l-125 -76l-61 105l186 152l186 -152l-61 -105z" />
    <glyph glyph-name="idieresis" unicode="&#xef;" horiz-adv-x="355" 
d="M71 318q0 40 -24 40h-32v160h119l157 8v-326q0 -40 24 -40h28v-160h-328v160h32q24 0 24 40v118zM321 755q44 0 74 -25t30 -67t-30 -67t-74 -25t-73.5 25t-29.5 67t29.5 67t73.5 25zM47 755q44 0 73.5 -25t29.5 -67t-29.5 -67t-73.5 -25t-73.5 25t-29.5 67t29.5 67
t73.5 25z" />
    <glyph glyph-name="eth" unicode="&#xf0;" horiz-adv-x="548" 
d="M530 303q0 -159 -68 -236t-188 -77q-117 0 -186.5 68.5t-69.5 195.5q0 126 69.5 194.5t186.5 68.5q6 0 14 -2v1q-24 27 -65 41l-36 -51l-97 53l15 22q-29 3 -56 5l23 149q82 -6 133 -16l42 57l90 -66l-21 -29q214 -102 214 -378zM310 254q0 95 -36 95t-36 -95t36 -95
t36 95z" />
    <glyph glyph-name="ntilde" unicode="&#xf1;" horiz-adv-x="610" 
d="M598 0h-274v160h1q2 0 2 24v144q0 28 -10 28q-19 0 -26 -42v-130q0 -24 2 -24h1v-160h-279v160h32q24 0 24 40v118q0 40 -24 40h-32v160h106l157 8v-53h1q63 55 116 55q62 0 107 -41t45 -122v-165q0 -40 24 -40h27v-160zM393 764q7 0 14 2t12 3.5t11.5 7t9.5 7.5t10.5 9
t9.5 9l81 -159q-40 -37 -73.5 -54.5t-76.5 -17.5q-44 0 -88 28.5t-76 28.5q-7 0 -14 -2t-12 -3.5t-11.5 -7t-9.5 -7.5t-10.5 -9t-9.5 -9l-81 159q41 37 74 54.5t76 17.5q42 0 85.5 -28.5t78.5 -28.5z" />
    <glyph glyph-name="ograve" unicode="&#xf2;" horiz-adv-x="548" 
d="M310 259q0 97 -36 97t-36 -97t36 -97t36 97zM530 259q0 -129 -69 -199t-187 -70q-117 0 -186.5 70t-69.5 199t69.5 199t186.5 70q118 0 187 -70t69 -199zM393 676l-61 -105l-201 125l82 132z" />
    <glyph glyph-name="oacute" unicode="&#xf3;" horiz-adv-x="548" 
d="M310 259q0 97 -36 97t-36 -97t36 -97t36 97zM530 259q0 -129 -69 -199t-187 -70q-117 0 -186.5 70t-69.5 199t69.5 199t186.5 70q118 0 187 -70t69 -199zM151 676l181 152l81 -132l-201 -125z" />
    <glyph glyph-name="ocircumflex" unicode="&#xf4;" horiz-adv-x="548" 
d="M310 259q0 97 -36 97t-36 -97t36 -97t36 97zM530 259q0 -129 -69 -199t-187 -70q-117 0 -186.5 70t-69.5 199t69.5 199t186.5 70q118 0 187 -70t69 -199zM272 647l-125 -76l-61 105l186 152l186 -152l-61 -105z" />
    <glyph glyph-name="otilde" unicode="&#xf5;" horiz-adv-x="548" 
d="M310 259q0 97 -36 97t-36 -97t36 -97t36 97zM530 259q0 -129 -69 -199t-187 -70q-117 0 -186.5 70t-69.5 199t69.5 199t186.5 70q118 0 187 -70t69 -199zM355 764q7 0 14 2t12 3.5t11.5 7t9.5 7.5t10.5 9t9.5 9l81 -159q-40 -37 -73.5 -54.5t-76.5 -17.5q-44 0 -88 28.5
t-76 28.5q-7 0 -14 -2t-12 -3.5t-11.5 -7t-9.5 -7.5t-10.5 -9t-9.5 -9l-81 159q41 37 74 54.5t76 17.5q42 0 85.5 -28.5t78.5 -28.5z" />
    <glyph glyph-name="odieresis" unicode="&#xf6;" horiz-adv-x="548" 
d="M310 259q0 97 -36 97t-36 -97t36 -97t36 97zM530 259q0 -129 -69 -199t-187 -70q-117 0 -186.5 70t-69.5 199t69.5 199t186.5 70q118 0 187 -70t69 -199zM411 755q44 0 74 -25t30 -67t-30 -67t-74 -25t-73.5 25t-29.5 67t29.5 67t73.5 25zM137 755q44 0 73.5 -25
t29.5 -67t-29.5 -67t-73.5 -25t-73.5 25t-29.5 67t29.5 67t73.5 25z" />
    <glyph glyph-name="divide" unicode="&#xf7;" horiz-adv-x="482" 
d="M28 336h426v-164h-426v164zM137 16q0 43 30.5 73.5t73.5 30.5t73.5 -30.5t30.5 -73.5t-30.5 -73.5t-73.5 -30.5t-73.5 30.5t-30.5 73.5zM137 491q0 43 30.5 73.5t73.5 30.5t73.5 -30.5t30.5 -73.5t-30.5 -73.5t-73.5 -30.5t-73.5 30.5t-30.5 73.5z" />
    <glyph glyph-name="oslash" unicode="&#xf8;" horiz-adv-x="548" 
d="M294 345q-8 11 -20 11q-29 0 -35 -69v-1zM254 173q8 -11 20 -11q31 0 35 69v1zM119 33l-41 -43l-60 65l40 42q-40 65 -40 162q0 129 69.5 199t186.5 70q91 0 154 -42l40 42l62 -67l-40 -41q40 -65 40 -161q0 -129 -69 -199t-187 -70q-93 0 -155 43z" />
    <glyph glyph-name="ugrave" unicode="&#xf9;" horiz-adv-x="610" 
d="M338 48h-1q-53 -58 -119 -58q-62 0 -106.5 41t-44.5 122v165q0 40 -24 40h-28v160h111l160 8v-326q0 -38 10 -38q20 0 26 32v136q0 28 -15 28h-5v160h84l156 8v-326q0 -40 24 -40h32v-160h-256q-4 22 -4 48zM396 676l-61 -105l-201 125l82 132z" />
    <glyph glyph-name="uacute" unicode="&#xfa;" horiz-adv-x="610" 
d="M338 48h-1q-53 -58 -119 -58q-62 0 -106.5 41t-44.5 122v165q0 40 -24 40h-28v160h111l160 8v-326q0 -38 10 -38q20 0 26 32v136q0 28 -15 28h-5v160h84l156 8v-326q0 -40 24 -40h32v-160h-256q-4 22 -4 48zM186 676l181 152l81 -132l-201 -125z" />
    <glyph glyph-name="ucircumflex" unicode="&#xfb;" horiz-adv-x="610" 
d="M338 48h-1q-53 -58 -119 -58q-62 0 -106.5 41t-44.5 122v165q0 40 -24 40h-28v160h111l160 8v-326q0 -38 10 -38q20 0 26 32v136q0 28 -15 28h-5v160h84l156 8v-326q0 -40 24 -40h32v-160h-256q-4 22 -4 48zM290 647l-125 -76l-61 105l186 152l186 -152l-61 -105z" />
    <glyph glyph-name="udieresis" unicode="&#xfc;" horiz-adv-x="610" 
d="M338 48h-1q-53 -58 -119 -58q-62 0 -106.5 41t-44.5 122v165q0 40 -24 40h-28v160h111l160 8v-326q0 -38 10 -38q20 0 26 32v136q0 28 -15 28h-5v160h84l156 8v-326q0 -40 24 -40h32v-160h-256q-4 22 -4 48zM427 755q44 0 74 -25t30 -67t-30 -67t-74 -25t-73.5 25
t-29.5 67t29.5 67t73.5 25zM153 755q44 0 73.5 -25t29.5 -67t-29.5 -67t-73.5 -25t-73.5 25t-29.5 67t29.5 67t73.5 25z" />
    <glyph glyph-name="yacute" unicode="&#xfd;" horiz-adv-x="543" 
d="M156 41l-102 286q-10 31 -33 31h-24v160h274v-160h-14q-11 0 -7 -16l13 -43q9 -30 16 -65h1q9 44 15 65l13 43q4 16 -8 16h-13v160h259v-160h-28q-19 0 -29 -31l-127 -342q-37 -100 -100.5 -149.5t-172.5 -56.5l-36 203q72 3 93 41zM166 676l181 152l81 -132l-201 -125z
" />
    <glyph glyph-name="thorn" unicode="&#xfe;" horiz-adv-x="584" 
d="M346 263q0 93 -25 93q-22 0 -30 -42v-136q8 -16 22 -16q33 0 33 101zM289 484q57 44 106 44q79 0 125 -64.5t46 -196.5q0 -136 -59.5 -206.5t-138.5 -70.5q-29 0 -77 23v-43q0 -16 4 -23t18 -7h42v-160h-340v160h32q24 0 24 40v545q0 40 -24 40h-32v160h117l159 8v-198
q0 -25 -3 -50z" />
    <glyph glyph-name="ydieresis" unicode="&#xff;" horiz-adv-x="543" 
d="M156 41l-102 286q-10 31 -33 31h-24v160h274v-160h-14q-11 0 -7 -16l13 -43q9 -30 16 -65h1q9 44 15 65l13 43q4 16 -8 16h-13v160h259v-160h-28q-19 0 -29 -31l-127 -342q-37 -100 -100.5 -149.5t-172.5 -56.5l-36 203q72 3 93 41zM404 755q44 0 74 -25t30 -67t-30 -67
t-74 -25t-73.5 25t-29.5 67t29.5 67t73.5 25zM130 755q44 0 73.5 -25t29.5 -67t-29.5 -67t-73.5 -25t-73.5 25t-29.5 67t29.5 67t73.5 25z" />
    <glyph glyph-name="Amacron" unicode="&#x100;" horiz-adv-x="643" 
d="M289 360h58l-6 18q-16 44 -22 92h-1q-6 -31 -24 -93zM380 218h-124l-6 -18q-5 -17 -0.5 -28.5t17.5 -11.5h25v-160h-295v160h12q12 0 17.5 6.5t11.5 27.5l158 487h251l158 -487q6 -20 11.5 -27t16.5 -7h13v-160h-295v160h18q28 0 17 41zM135 951h372v-179h-372v179z" />
    <glyph glyph-name="amacron" unicode="&#x101;" horiz-adv-x="511" 
d="M276 149v68h-1q-16 -4 -26.5 -19.5t-10.5 -32.5q0 -43 15 -43q7 0 14 7.5t9 19.5zM224 366v-20h-181v137q46 26 93 35.5t121 9.5q239 0 239 -154v-174q0 -40 25 -40h24v-160h-241q-4 18 -4 40h-1q-45 -50 -128 -50q-68 0 -110.5 42.5t-42.5 107.5q0 175 257 179h1v42
q0 11 -9 18t-18 7q-25 0 -25 -20zM60 785h372v-179h-372v179z" />
    <glyph glyph-name="Abreve" unicode="&#x102;" horiz-adv-x="643" 
d="M289 360h58l-6 18q-16 44 -22 92h-1q-6 -31 -24 -93zM380 218h-124l-6 -18q-5 -17 -0.5 -28.5t17.5 -11.5h25v-160h-295v160h12q12 0 17.5 6.5t11.5 27.5l158 487h251l158 -487q6 -20 11.5 -27t16.5 -7h13v-160h-295v160h18q28 0 17 41zM322 737q-76 0 -137 50.5
t-82 118.5l85 88q21 -42 51.5 -68.5t82.5 -26.5q86 0 134 95l85 -88q-21 -68 -82 -118.5t-137 -50.5z" />
    <glyph glyph-name="abreve" unicode="&#x103;" horiz-adv-x="511" 
d="M276 149v68h-1q-16 -4 -26.5 -19.5t-10.5 -32.5q0 -43 15 -43q7 0 14 7.5t9 19.5zM224 366v-20h-181v137q46 26 93 35.5t121 9.5q239 0 239 -154v-174q0 -40 25 -40h24v-160h-241q-4 18 -4 40h-1q-45 -50 -128 -50q-68 0 -110.5 42.5t-42.5 107.5q0 175 257 179h1v42
q0 11 -9 18t-18 7q-25 0 -25 -20zM247 571q-76 0 -137 50.5t-82 118.5l85 88q47 -95 134 -95t134 95l85 -88q-21 -68 -82 -118.5t-137 -50.5z" />
    <glyph glyph-name="Aogonek" unicode="&#x104;" horiz-adv-x="643" 
d="M643 -199v-98q-57 -25 -124 -25q-71 0 -113.5 37.5t-42.5 99.5q0 26 8 50t24.5 45.5t28.5 34.5t33.5 32t25.5 23h-132v160h18q28 0 17 41l-6 17h-124l-6 -18q-5 -17 -0.5 -28.5t17.5 -11.5h25v-160h-295v160h12q12 0 17.5 6.5t11.5 27.5l158 487h251l158 -487
q6 -20 11.5 -27t16.5 -7h13v-160h-43q-26 -28 -56.5 -80.5t-30.5 -86.5q0 -53 44 -53q38 0 83 21zM289 360h58l-6 18q-16 44 -22 92h-1q-6 -31 -24 -93z" />
    <glyph glyph-name="aogonek" unicode="&#x105;" horiz-adv-x="565" 
d="M464 -199v-98q-57 -25 -124 -25q-71 0 -113.5 37.5t-42.5 99.5q0 26 8 50t24.5 45.5t28.5 34.5t33.5 32t25.5 23q-4 18 -4 40h-1q-45 -50 -128 -50q-68 0 -110.5 42.5t-42.5 107.5q0 175 257 179h1v42q0 11 -9 18t-18 7q-25 0 -25 -20v-20h-181v137q46 26 93 35.5
t121 9.5q239 0 239 -154v-174q0 -40 25 -40h24v-160h-121q-26 -28 -56.5 -80.5t-30.5 -86.5q0 -53 44 -53q37 0 83 21zM276 149v68h-1q-16 -4 -26.5 -19.5t-10.5 -32.5q0 -43 15 -43q7 0 14 7.5t9 19.5z" />
    <glyph glyph-name="Cacute" unicode="&#x106;" horiz-adv-x="569" 
d="M327 520q-42 0 -64.5 -48.5t-22.5 -139.5q0 -78 29.5 -124.5t84.5 -46.5q39 0 70.5 11t73.5 39l55 -169q-50 -29 -91.5 -41t-123.5 -12q-139 0 -228.5 94.5t-89.5 256.5q0 176 94.5 264t237.5 88q101 0 196 -42v-234h-179v50q0 30 -9 42t-33 12zM225 842l181 152l81 -132
l-201 -125z" />
    <glyph glyph-name="cacute" unicode="&#x107;" horiz-adv-x="468" 
d="M274 317v25q0 14 -8 14q-28 0 -28 -89q0 -38 16.5 -66.5t47.5 -28.5q48 0 94 39l58 -168q-80 -53 -196 -53q-108 0 -174 70t-66 188q0 71 23.5 127.5t61 88.5t79 48t82.5 16q102 0 180 -37v-174h-170zM140 676l181 152l81 -132l-201 -125z" />
    <glyph glyph-name="Ccircumflex" unicode="&#x108;" horiz-adv-x="569" 
d="M327 520q-42 0 -64.5 -48.5t-22.5 -139.5q0 -78 29.5 -124.5t84.5 -46.5q39 0 70.5 11t73.5 39l55 -169q-50 -29 -91.5 -41t-123.5 -12q-139 0 -228.5 94.5t-89.5 256.5q0 176 94.5 264t237.5 88q101 0 196 -42v-234h-179v50q0 30 -9 42t-33 12zM327 813l-125 -76
l-61 105l186 152l186 -152l-61 -105z" />
    <glyph glyph-name="ccircumflex" unicode="&#x109;" horiz-adv-x="468" 
d="M274 317v25q0 14 -8 14q-28 0 -28 -89q0 -38 16.5 -66.5t47.5 -28.5q48 0 94 39l58 -168q-80 -53 -196 -53q-108 0 -174 70t-66 188q0 71 23.5 127.5t61 88.5t79 48t82.5 16q102 0 180 -37v-174h-170zM267 647l-125 -76l-61 105l186 152l186 -152l-61 -105z" />
    <glyph glyph-name="Cdotaccent" unicode="&#x10a;" horiz-adv-x="569" 
d="M327 520q-42 0 -64.5 -48.5t-22.5 -139.5q0 -78 29.5 -124.5t84.5 -46.5q39 0 70.5 11t73.5 39l55 -169q-50 -29 -91.5 -41t-123.5 -12q-139 0 -228.5 94.5t-89.5 256.5q0 176 94.5 264t237.5 88q101 0 196 -42v-234h-179v50q0 30 -9 42t-33 12zM327 933q46 0 77.5 -26.5
t31.5 -71.5t-31.5 -71.5t-77.5 -26.5t-77.5 26.5t-31.5 71.5t31.5 71.5t77.5 26.5z" />
    <glyph glyph-name="cdotaccent" unicode="&#x10b;" horiz-adv-x="468" 
d="M274 317v25q0 14 -8 14q-28 0 -28 -89q0 -38 16.5 -66.5t47.5 -28.5q48 0 94 39l58 -168q-80 -53 -196 -53q-108 0 -174 70t-66 188q0 71 23.5 127.5t61 88.5t79 48t82.5 16q102 0 180 -37v-174h-170zM267 767q46 0 77.5 -26.5t31.5 -71.5t-31.5 -71.5t-77.5 -26.5
t-77.5 26.5t-31.5 71.5t31.5 71.5t77.5 26.5z" />
    <glyph glyph-name="Ccaron" unicode="&#x10c;" horiz-adv-x="569" 
d="M327 520q-42 0 -64.5 -48.5t-22.5 -139.5q0 -78 29.5 -124.5t84.5 -46.5q39 0 70.5 11t73.5 39l55 -169q-50 -29 -91.5 -41t-123.5 -12q-139 0 -228.5 94.5t-89.5 256.5q0 176 94.5 264t237.5 88q101 0 196 -42v-234h-179v50q0 30 -9 42t-33 12zM327 918l125 76l61 -105
l-186 -152l-186 152l61 105z" />
    <glyph glyph-name="ccaron" unicode="&#x10d;" horiz-adv-x="468" 
d="M274 317v25q0 14 -8 14q-28 0 -28 -89q0 -38 16.5 -66.5t47.5 -28.5q48 0 94 39l58 -168q-80 -53 -196 -53q-108 0 -174 70t-66 188q0 71 23.5 127.5t61 88.5t79 48t82.5 16q102 0 180 -37v-174h-170zM267 752l125 76l61 -105l-186 -152l-186 152l61 105z" />
    <glyph glyph-name="Dcaron" unicode="&#x10e;" horiz-adv-x="670" 
d="M310 0h-295v160h30q27 0 27 40v281q0 40 -27 40h-30v160h295q184 0 268 -107q72 -89 72 -230q0 -157 -80 -249q-44 -51 -98 -73t-162 -22zM337 160q39 0 63 32q30 40 30 152q0 102 -31 143q-25 34 -62 34h-45v-361h45zM286 918l125 76l61 -105l-186 -152l-186 152l61 105
z" />
    <glyph glyph-name="dcaron" unicode="&#x10f;" horiz-adv-x="573" 
d="M238 255q0 -93 25 -93q13 0 21.5 14t8.5 28v136q-9 16 -21 16q-34 0 -34 -101zM293 501l1 1q-1 7 -1 21v12q0 16 -4 23t-19 7h-42v160h128l157 8v-533q0 -40 24 -40h24v-160h-234q-5 20 -5 49h-1q-43 -59 -120 -59q-84 0 -133.5 69.5t-49.5 191.5q0 136 60 206.5
t139 70.5q46 0 76 -27zM610 581q-28 4 -45 24t-17 49q0 35 31.5 57t72.5 22q45 0 69 -30.5t24 -75.5q0 -44 -38 -93.5t-90 -81.5l-66 68q48 39 59 61z" />
    <glyph glyph-name="Dcroat" unicode="&#x110;" horiz-adv-x="670" 
d="M15 261v160h57v60q0 40 -27 40h-30v160h295q184 0 268 -107q72 -89 72 -230q0 -157 -80 -249q-44 -51 -98 -73t-162 -22h-295v160h30q27 0 27 40v61h-57zM337 160q39 0 63 32q30 40 30 152q0 102 -31 143q-25 34 -62 34h-45v-100h71v-160h-71v-101h45z" />
    <glyph glyph-name="dcroat" unicode="&#x111;" horiz-adv-x="573" 
d="M175 543v48h118q-2 24 -23 24h-42v130h128l157 8v-162h48v-48h-48v-343q0 -40 24 -40h24v-160h-234q-5 20 -5 49h-1q-43 -59 -120 -59q-84 0 -133.5 69.5t-49.5 191.5q0 135 59.5 201t139.5 66q46 0 76 -27l1 1q-1 7 -1 21v30h-118zM238 255q0 -93 25 -93q13 0 21.5 14
t8.5 28v136q-9 16 -21 16q-34 0 -34 -101z" />
    <glyph glyph-name="Emacron" unicode="&#x112;" horiz-adv-x="550" 
d="M300 268h-1h-6h-1v-108h43q20 0 20 25v51h179v-236h-519v160h30q27 0 27 40v281q0 40 -27 40h-30v160h512v-223h-179v35q0 18 -4.5 23t-19.5 5h-32v-93h1h6h1h127v-160h-127zM89 951h372v-179h-372v179z" />
    <glyph glyph-name="emacron" unicode="&#x113;" horiz-adv-x="529" 
d="M238 221q6 -39 29.5 -60t60.5 -21q70 0 127 46l56 -141q-90 -55 -219 -55q-274 0 -274 269q0 130 74.5 199.5t178.5 69.5q106 0 172 -68.5t66 -206.5v-31h-271v-1zM313 325q-1 54 -35 54q-17 0 -28 -14t-12 -40h75zM85 785h372v-179h-372v179z" />
    <glyph glyph-name="Edotaccent" unicode="&#x116;" horiz-adv-x="550" 
d="M300 268h-1h-6h-1v-108h43q20 0 20 25v51h179v-236h-519v160h30q27 0 27 40v281q0 40 -27 40h-30v160h512v-223h-179v35q0 18 -4.5 23t-19.5 5h-32v-93h1h6h1h127v-160h-127zM275 933q46 0 77.5 -26.5t31.5 -71.5t-31.5 -71.5t-77.5 -26.5t-77.5 26.5t-31.5 71.5
t31.5 71.5t77.5 26.5z" />
    <glyph glyph-name="edotaccent" unicode="&#x117;" horiz-adv-x="529" 
d="M238 221q6 -39 29.5 -60t60.5 -21q70 0 127 46l56 -141q-90 -55 -219 -55q-274 0 -274 269q0 130 74.5 199.5t178.5 69.5q106 0 172 -68.5t66 -206.5v-31h-271v-1zM313 325q-1 54 -35 54q-17 0 -28 -14t-12 -40h75zM271 767q46 0 77.5 -26.5t31.5 -71.5t-31.5 -71.5
t-77.5 -26.5t-77.5 26.5t-31.5 71.5t31.5 71.5t77.5 26.5z" />
    <glyph glyph-name="Eogonek" unicode="&#x118;" horiz-adv-x="550" 
d="M540 -199v-98q-57 -25 -124 -25q-71 0 -113.5 37.5t-42.5 99.5q0 26 8 50t24.5 45.5t28.5 34.5t33.5 32t25.5 23h-365v160h30q27 0 27 40v281q0 40 -27 40h-30v160h512v-223h-179v35q0 18 -4.5 23t-19.5 5h-32v-93h1h6h1h127v-160h-127h-1h-6h-1v-108h43q20 0 20 25v51
h179v-236h-34q-26 -28 -56.5 -80.5t-30.5 -86.5q0 -53 44 -53q37 0 83 21z" />
    <glyph glyph-name="eogonek" unicode="&#x119;" horiz-adv-x="529" 
d="M497 -199v-98q-57 -25 -124 -25q-71 0 -113.5 37.5t-42.5 99.5q0 15 3.5 30.5t7.5 27t13.5 26t15.5 22.5t18.5 21t17 17.5t18.5 17.5t16 14q-5 0 -17 -0.5t-18 -0.5q-274 0 -274 269q0 130 74.5 199.5t178.5 69.5q106 0 172 -68.5t66 -206.5v-31h-271v-1q6 -39 29.5 -60
t60.5 -21q70 0 127 46l56 -141q-12 -7 -23 -13q-47 -43 -82.5 -102t-35.5 -97q0 -53 44 -53q38 0 83 21zM313 325q-1 54 -35 54q-17 0 -28 -14t-12 -40h75z" />
    <glyph glyph-name="Ecaron" unicode="&#x11a;" horiz-adv-x="550" 
d="M300 268h-1h-6h-1v-108h43q20 0 20 25v51h179v-236h-519v160h30q27 0 27 40v281q0 40 -27 40h-30v160h512v-223h-179v35q0 18 -4.5 23t-19.5 5h-32v-93h1h6h1h127v-160h-127zM275 918l125 76l61 -105l-186 -152l-186 152l61 105z" />
    <glyph glyph-name="ecaron" unicode="&#x11b;" horiz-adv-x="529" 
d="M238 221q6 -39 29.5 -60t60.5 -21q70 0 127 46l56 -141q-90 -55 -219 -55q-274 0 -274 269q0 130 74.5 199.5t178.5 69.5q106 0 172 -68.5t66 -206.5v-31h-271v-1zM313 325q-1 54 -35 54q-17 0 -28 -14t-12 -40h75zM271 752l125 76l61 -105l-186 -152l-186 152l61 105z
" />
    <glyph glyph-name="Gcircumflex" unicode="&#x11c;" horiz-adv-x="605" 
d="M394 169v32q0 30 -27 30h-21v150h243v-340q-55 -31 -104.5 -41.5t-140.5 -10.5q-137 0 -230.5 95t-93.5 256q0 90 28 159.5t75.5 110.5t105 61.5t121.5 20.5q124 0 223 -42v-220h-186v36q0 54 -47 54q-100 0 -100 -188q0 -74 31.5 -122.5t76.5 -48.5q26 0 46 8zM339 813
l-125 -76l-61 105l186 152l186 -152l-61 -105z" />
    <glyph glyph-name="gcircumflex" unicode="&#x11d;" horiz-adv-x="562" 
d="M519 538l33 -126q-24 -10 -43 -10q-16 0 -22 1v-1q13 -32 13 -54q0 -84 -63 -132.5t-173 -48.5q-9 0 -18 1q-19 -10 -19 -30q0 -15 18 -15h85q89 0 149 -42.5t60 -119.5q0 -83 -73.5 -132t-190.5 -49q-124 0 -194.5 40.5t-70.5 113.5q0 92 94 139q-54 16 -54 52
q0 43 63 74q-88 48 -88 139q0 83 65.5 136.5t173.5 53.5q68 0 92 -10q38 -8 66 -8q44 0 97 28zM273 -99q50 0 50 44q0 18 -8.5 24.5t-29.5 6.5h-49q-15 -11 -15 -35q0 -40 52 -40zM232 344q0 -48 32 -48q30 0 30 49t-30 49q-15 0 -23.5 -14t-8.5 -36zM273 647l-125 -76
l-61 105l186 152l186 -152l-61 -105z" />
    <glyph glyph-name="Gbreve" unicode="&#x11e;" horiz-adv-x="605" 
d="M394 169v32q0 30 -27 30h-21v150h243v-340q-55 -31 -104.5 -41.5t-140.5 -10.5q-137 0 -230.5 95t-93.5 256q0 90 28 159.5t75.5 110.5t105 61.5t121.5 20.5q124 0 223 -42v-220h-186v36q0 54 -47 54q-100 0 -100 -188q0 -74 31.5 -122.5t76.5 -48.5q26 0 46 8zM339 737
q-76 0 -137 50.5t-82 118.5l85 88q47 -95 134 -95t134 95l85 -88q-21 -68 -82 -118.5t-137 -50.5z" />
    <glyph glyph-name="gbreve" unicode="&#x11f;" horiz-adv-x="562" 
d="M519 538l33 -126q-24 -10 -43 -10q-16 0 -22 1v-1q13 -32 13 -54q0 -84 -63 -132.5t-173 -48.5q-9 0 -18 1q-19 -10 -19 -30q0 -15 18 -15h85q89 0 149 -42.5t60 -119.5q0 -83 -73.5 -132t-190.5 -49q-124 0 -194.5 40.5t-70.5 113.5q0 92 94 139q-54 16 -54 52
q0 43 63 74q-88 48 -88 139q0 83 65.5 136.5t173.5 53.5q68 0 92 -10q38 -8 66 -8q44 0 97 28zM273 -99q50 0 50 44q0 18 -8.5 24.5t-29.5 6.5h-49q-15 -11 -15 -35q0 -40 52 -40zM232 344q0 -48 32 -48q30 0 30 49t-30 49q-15 0 -23.5 -14t-8.5 -36zM273 571
q-76 0 -137 50.5t-82 118.5l85 88q47 -95 134 -95t134 95l85 -88q-21 -68 -82 -118.5t-137 -50.5z" />
    <glyph glyph-name="Gdotaccent" unicode="&#x120;" horiz-adv-x="605" 
d="M394 169v32q0 30 -27 30h-21v150h243v-340q-55 -31 -104.5 -41.5t-140.5 -10.5q-137 0 -230.5 95t-93.5 256q0 90 28 159.5t75.5 110.5t105 61.5t121.5 20.5q124 0 223 -42v-220h-186v36q0 54 -47 54q-100 0 -100 -188q0 -74 31.5 -122.5t76.5 -48.5q26 0 46 8zM339 933
q46 0 77.5 -26.5t31.5 -71.5t-31.5 -71.5t-77.5 -26.5t-77.5 26.5t-31.5 71.5t31.5 71.5t77.5 26.5z" />
    <glyph glyph-name="gdotaccent" unicode="&#x121;" horiz-adv-x="562" 
d="M519 538l33 -126q-24 -10 -43 -10q-16 0 -22 1v-1q13 -32 13 -54q0 -84 -63 -132.5t-173 -48.5q-9 0 -18 1q-19 -10 -19 -30q0 -15 18 -15h85q89 0 149 -42.5t60 -119.5q0 -83 -73.5 -132t-190.5 -49q-124 0 -194.5 40.5t-70.5 113.5q0 92 94 139q-54 16 -54 52
q0 43 63 74q-88 48 -88 139q0 83 65.5 136.5t173.5 53.5q68 0 92 -10q38 -8 66 -8q44 0 97 28zM273 -99q50 0 50 44q0 18 -8.5 24.5t-29.5 6.5h-49q-15 -11 -15 -35q0 -40 52 -40zM232 344q0 -48 32 -48q30 0 30 49t-30 49q-15 0 -23.5 -14t-8.5 -36zM273 767
q46 0 77.5 -26.5t31.5 -71.5t-31.5 -71.5t-77.5 -26.5t-77.5 26.5t-31.5 71.5t31.5 71.5t77.5 26.5z" />
    <glyph glyph-name="Gcommaaccent" unicode="&#x122;" horiz-adv-x="605" 
d="M394 169v32q0 30 -27 30h-21v150h243v-340q-55 -31 -104.5 -41.5t-140.5 -10.5q-137 0 -230.5 95t-93.5 256q0 90 28 159.5t75.5 110.5t105 61.5t121.5 20.5q124 0 223 -42v-220h-186v36q0 54 -47 54q-100 0 -100 -188q0 -74 31.5 -122.5t76.5 -48.5q26 0 46 8zM322 -197
q-28 4 -45 24t-17 49q0 35 31.5 57t72.5 22q45 0 69 -30.5t24 -75.5q0 -44 -38 -93.5t-90 -81.5l-66 68q48 39 59 61z" />
    <glyph glyph-name="gcommaaccent" unicode="&#x123;" horiz-adv-x="562" 
d="M519 538l33 -126q-24 -10 -43 -10q-16 0 -22 1v-1q13 -32 13 -54q0 -84 -63 -132.5t-173 -48.5q-9 0 -18 1q-19 -10 -19 -30q0 -15 18 -15h85q89 0 149 -42.5t60 -119.5q0 -83 -73.5 -132t-190.5 -49q-124 0 -194.5 40.5t-70.5 113.5q0 92 94 139q-54 16 -54 52
q0 43 63 74q-88 48 -88 139q0 83 65.5 136.5t173.5 53.5q68 0 92 -10q38 -8 66 -8q44 0 97 28zM273 -99q50 0 50 44q0 18 -8.5 24.5t-29.5 6.5h-49q-15 -11 -15 -35q0 -40 52 -40zM232 344q0 -48 32 -48q30 0 30 49t-30 49q-15 0 -23.5 -14t-8.5 -36zM162 676l181 152
l81 -132l-201 -125z" />
    <glyph glyph-name="Hcircumflex" unicode="&#x124;" horiz-adv-x="712" 
d="M420 272h-128v-72q0 -40 28 -40h24v-160h-329v160h30q27 0 27 40v281q0 40 -27 40h-30v160h329v-160h-24q-28 0 -28 -40v-49h128v49q0 40 -28 40h-24v160h329v-160h-30q-27 0 -27 -40v-281q0 -40 27 -40h30v-160h-329v160h24q28 0 28 40v72zM356 813l-125 -76l-61 105
l186 152l186 -152l-61 -105z" />
    <glyph glyph-name="hcircumflex" unicode="&#x125;" horiz-adv-x="610" 
d="M291 734v-174q0 -44 -7 -87l1 -1q60 56 110 56q62 0 107 -41t45 -122v-165q0 -40 24 -40h27v-160h-274v160h1q2 0 2 24v144q0 28 -10 28q-19 0 -26 -42v-130q0 -24 2 -24h1v-160h-279v160h32q24 0 24 40v325q0 40 -24 40h-32v160h117zM215 823l-125 -76l-61 105l186 152
l186 -152l-61 -105z" />
    <glyph glyph-name="Hbar" unicode="&#x126;" horiz-adv-x="712" 
d="M15 411v80h57v1q-2 29 -27 29h-30v160h329v-160h-24q-25 0 -28 -29v-1h128v1q-3 29 -28 29h-24v160h329v-160h-30q-24 0 -27 -29v-1h57v-80h-57v-211q0 -40 27 -40h30v-160h-329v160h24q28 0 28 40v72h-128v-72q0 -40 28 -40h24v-160h-329v160h30q27 0 27 40v211h-57z
M292 382h128v29h-128v-29z" />
    <glyph glyph-name="hbar" unicode="&#x127;" horiz-adv-x="610" 
d="M401 543h-110q-2 -36 -7 -70l1 -1q49 46 110 46q64 0 108 -36t44 -117v-165q0 -40 24 -40h27v-160h-274v160h1q2 0 2 24v144q0 28 -10 28q-19 0 -26 -42v-130q0 -24 2 -24h1v-160h-279v160h32q24 0 24 40v343h-56v48h56q-2 24 -23 24h-33v130h119l157 8v-162h110v-48z
" />
    <glyph glyph-name="Imacron" unicode="&#x12a;" horiz-adv-x="364" 
d="M292 481v-281q0 -40 27 -40h30v-160h-334v160h30q27 0 27 40v281q0 40 -27 40h-30v160h334v-160h-30q-27 0 -27 -40zM-4 951h372v-179h-372v179z" />
    <glyph glyph-name="imacron" unicode="&#x12b;" horiz-adv-x="355" 
d="M71 318q0 40 -24 40h-32v160h119l157 8v-326q0 -40 24 -40h28v-160h-328v160h32q24 0 24 40v118zM-13 785h372v-179h-372v179z" />
    <glyph glyph-name="Iogonek" unicode="&#x12e;" horiz-adv-x="364" 
d="M306 -199v-98q-57 -25 -124 -25q-71 0 -113.5 37.5t-42.5 99.5q0 26 8 50t24.5 45.5t28.5 34.5t33.5 32t25.5 23h-131v160h30q27 0 27 40v281q0 40 -27 40h-30v160h334v-160h-30q-27 0 -27 -40v-281q0 -40 27 -40h30v-160h-83q-26 -28 -56.5 -80.5t-30.5 -86.5
q0 -53 44 -53q37 0 83 21z" />
    <glyph glyph-name="iogonek" unicode="&#x12f;" horiz-adv-x="355" 
d="M298 -199v-98q-57 -25 -124 -25q-71 0 -113.5 37.5t-42.5 99.5q0 26 8 50t24.5 45.5t28.5 34.5t33.5 32t25.5 23h-123v160h32q24 0 24 40v118q0 40 -24 40h-32v160h119l157 8v-326q0 -40 24 -40h28v-160h-85q-26 -28 -56.5 -80.5t-30.5 -86.5q0 -53 44 -53q37 0 83 21z
M153 754q52 0 86 -29t34 -78t-34 -78t-86 -29q-51 0 -85 29t-34 78t34 78t85 29z" />
    <glyph glyph-name="Idotaccent" unicode="&#x130;" horiz-adv-x="364" 
d="M292 481v-281q0 -40 27 -40h30v-160h-334v160h30q27 0 27 40v281q0 40 -27 40h-30v160h334v-160h-30q-27 0 -27 -40zM182 933q46 0 77.5 -26.5t31.5 -71.5t-31.5 -71.5t-77.5 -26.5t-77.5 26.5t-31.5 71.5t31.5 71.5t77.5 26.5z" />
    <glyph glyph-name="dotlessi" unicode="&#x131;" horiz-adv-x="355" 
d="M71 318q0 40 -24 40h-32v160h119l157 8v-326q0 -40 24 -40h28v-160h-328v160h32q24 0 24 40v118z" />
    <glyph glyph-name="Jcircumflex" unicode="&#x134;" horiz-adv-x="364" 
d="M72 81v400q0 40 -27 40h-30v160h334v-160h-29q-28 0 -28 -40v-409q0 -144 -66 -213q-58 -62 -218 -79l-48 171q60 11 86 40q26 28 26 90zM182 813l-125 -76l-61 105l186 152l186 -152l-61 -105z" />
    <glyph glyph-name="jcircumflex" unicode="&#x135;" horiz-adv-x="335" 
d="M71 106v212q0 40 -24 40h-32v160h119l157 8v-427q0 -85 -15.5 -136.5t-59.5 -97.5q-72 -77 -213 -86l-36 202q61 3 85 33q19 24 19 92zM158 647l-125 -76l-61 105l186 152l186 -152l-61 -105z" />
    <glyph glyph-name="Kcommaaccent" unicode="&#x136;" horiz-adv-x="651" 
d="M292 325v-125q0 -40 28 -40h14v-160h-319v160h30q27 0 27 40v281q0 40 -27 40h-30v160h319v-160h-14q-28 0 -28 -40v-92l140 292h204v-160h-17q-17 0 -28 -20l-82 -150l85 -170q10 -21 29 -21h13v-160h-204zM295 -197q-28 4 -45 24t-17 49q0 35 31.5 57t72.5 22
q45 0 69 -30.5t24 -75.5q0 -44 -38 -93.5t-90 -81.5l-66 68q48 39 59 61z" />
    <glyph glyph-name="kcommaaccent" unicode="&#x137;" horiz-adv-x="599" 
d="M291 236v-52q0 -14 2.5 -19t9.5 -5h8v-160h-296v160h32q24 0 24 40v325q0 40 -24 40h-32v160h117l159 8v-400l77 185h208v-160h-45q-4 0 -10 -12l-31 -66l47 -108q5 -12 10 -12h43v-160h-213zM286 -197q-28 4 -45 24t-17 49q0 35 31.5 57t72.5 22q45 0 69 -30.5t24 -75.5
q0 -44 -38 -93.5t-90 -81.5l-66 68q48 39 59 61z" />
    <glyph glyph-name="Lacute" unicode="&#x139;" horiz-adv-x="540" 
d="M360 681v-160h-40q-28 0 -28 -40v-321h33q13 0 17 6t4 19v68h179v-253h-510v160h30q27 0 27 40v281q0 40 -27 40h-30v160h345zM96 842l181 152l81 -132l-201 -125z" />
    <glyph glyph-name="lacute" unicode="&#x13a;" horiz-adv-x="355" 
d="M343 0h-328v160h32q24 0 24 40v325q0 40 -24 40h-32v160h117l159 8v-533q0 -40 24 -40h28v-160zM74 852l181 152l81 -132l-201 -125z" />
    <glyph glyph-name="Lcommaaccent" unicode="&#x13b;" horiz-adv-x="540" 
d="M360 681v-160h-40q-28 0 -28 -40v-321h33q13 0 17 6t4 19v68h179v-253h-510v160h30q27 0 27 40v281q0 40 -27 40h-30v160h345zM237 -197q-28 4 -45 24t-17 49q0 35 31.5 57t72.5 22q45 0 69 -30.5t24 -75.5q0 -44 -38 -93.5t-90 -81.5l-66 68q48 39 59 61z" />
    <glyph glyph-name="lcommaaccent" unicode="&#x13c;" horiz-adv-x="355" 
d="M343 0h-328v160h32q24 0 24 40v325q0 40 -24 40h-32v160h117l159 8v-533q0 -40 24 -40h28v-160zM149 -197q-28 4 -45 24t-17 49q0 35 31.5 57t72.5 22q45 0 69 -30.5t24 -75.5q0 -44 -38 -93.5t-90 -81.5l-66 68q48 39 59 61z" />
    <glyph glyph-name="Lcaron" unicode="&#x13d;" horiz-adv-x="540" 
d="M360 681v-160h-40q-28 0 -28 -40v-321h33q13 0 17 6t4 19v68h179v-253h-510v160h30q27 0 27 40v281q0 40 -27 40h-30v160h345zM449 581q-28 4 -45 24t-17 49q0 35 31.5 57t72.5 22q45 0 69 -30.5t24 -75.5q0 -44 -38 -93.5t-90 -81.5l-66 68q48 39 59 61z" />
    <glyph glyph-name="lcaron" unicode="&#x13e;" horiz-adv-x="355" 
d="M343 0h-328v160h32q24 0 24 40v325q0 40 -24 40h-32v160h117l159 8v-533q0 -40 24 -40h28v-160zM385 581q-28 4 -45 24t-17 49q0 35 31.5 57t72.5 22q45 0 69 -30.5t24 -75.5q0 -44 -38 -93.5t-90 -81.5l-66 68q48 39 59 61z" />
    <glyph glyph-name="Lslash" unicode="&#x141;" horiz-adv-x="540" 
d="M360 681v-160h-40q-28 0 -28 -40v-24l97 52l41 -76l-138 -74v-199h33q13 0 17 6t4 19v68h179v-253h-510v160h30q27 0 27 40v40l-62 -33l-41 77l103 55v142q0 40 -27 40h-30v160h345z" />
    <glyph glyph-name="lslash" unicode="&#x142;" horiz-adv-x="355" 
d="M343 0h-328v160h32q24 0 24 40v65l-46 -41l-49 59l95 85v157q0 40 -24 40h-32v160h117l159 8v-169l49 44l48 -58l-97 -87v-263q0 -40 24 -40h28v-160z" />
    <glyph glyph-name="Nacute" unicode="&#x143;" horiz-adv-x="712" 
d="M640 0h-241l-97 274q-3 8 -8.5 24.5t-8.5 24.5h-1q1 -7 1 -91v-32q0 -40 18 -40h11v-160h-299v160h30q27 0 27 40v281q0 40 -17 40h-40v160h298l93 -274l21 -63h1q-1 6 -1 97v40q0 40 -18 40h-14v160h302v-160h-30q-27 0 -27 -40v-481zM251 842l181 152l81 -132
l-201 -125z" />
    <glyph glyph-name="nacute" unicode="&#x144;" horiz-adv-x="610" 
d="M598 0h-274v160h1q2 0 2 24v144q0 28 -10 28q-19 0 -26 -42v-130q0 -24 2 -24h1v-160h-279v160h32q24 0 24 40v118q0 40 -24 40h-32v160h106l157 8v-53h1q63 55 116 55q62 0 107 -41t45 -122v-165q0 -40 24 -40h27v-160zM202 676l181 152l81 -132l-201 -125z" />
    <glyph glyph-name="Ncommaaccent" unicode="&#x145;" horiz-adv-x="712" 
d="M640 0h-241l-97 274q-3 8 -8.5 24.5t-8.5 24.5h-1q1 -7 1 -91v-32q0 -40 18 -40h11v-160h-299v160h30q27 0 27 40v281q0 40 -17 40h-40v160h298l93 -274l21 -63h1q-1 6 -1 97v40q0 40 -18 40h-14v160h302v-160h-30q-27 0 -27 -40v-481zM324 -197q-28 4 -45 24t-17 49
q0 35 31.5 57t72.5 22q45 0 69 -30.5t24 -75.5q0 -44 -38 -93.5t-90 -81.5l-66 68q48 39 59 61z" />
    <glyph glyph-name="ncommaaccent" unicode="&#x146;" horiz-adv-x="610" 
d="M598 0h-274v160h1q2 0 2 24v144q0 28 -10 28q-19 0 -26 -42v-130q0 -24 2 -24h1v-160h-279v160h32q24 0 24 40v118q0 40 -24 40h-32v160h106l157 8v-53h1q63 55 116 55q62 0 107 -41t45 -122v-165q0 -40 24 -40h27v-160zM275 -197q-28 4 -45 24t-17 49q0 35 31.5 57
t72.5 22q45 0 69 -30.5t24 -75.5q0 -44 -38 -93.5t-90 -81.5l-66 68q48 39 59 61z" />
    <glyph glyph-name="Ncaron" unicode="&#x147;" horiz-adv-x="712" 
d="M640 0h-241l-97 274q-3 8 -8.5 24.5t-8.5 24.5h-1q1 -7 1 -91v-32q0 -40 18 -40h11v-160h-299v160h30q27 0 27 40v281q0 40 -17 40h-40v160h298l93 -274l21 -63h1q-1 6 -1 97v40q0 40 -18 40h-14v160h302v-160h-30q-27 0 -27 -40v-481zM355 918l125 76l61 -105l-186 -152
l-186 152l61 105z" />
    <glyph glyph-name="ncaron" unicode="&#x148;" horiz-adv-x="610" 
d="M598 0h-274v160h1q2 0 2 24v144q0 28 -10 28q-19 0 -26 -42v-130q0 -24 2 -24h1v-160h-279v160h32q24 0 24 40v118q0 40 -24 40h-32v160h106l157 8v-53h1q63 55 116 55q62 0 107 -41t45 -122v-165q0 -40 24 -40h27v-160zM308 752l125 76l61 -105l-186 -152l-186 152
l61 105z" />
    <glyph glyph-name="Omacron" unicode="&#x14c;" horiz-adv-x="694" 
d="M347 -11q-145 0 -236 93.5t-91 257.5t91 258t236 94t236 -94t91 -258t-91 -257.5t-236 -93.5zM347 161q50 0 78.5 44t28.5 135t-28.5 135.5t-78.5 44.5t-78.5 -44.5t-28.5 -135.5t28.5 -135t78.5 -44zM162 951h372v-179h-372v179z" />
    <glyph glyph-name="omacron" unicode="&#x14d;" horiz-adv-x="548" 
d="M310 259q0 97 -36 97t-36 -97t36 -97t36 97zM530 259q0 -129 -69 -199t-187 -70q-117 0 -186.5 70t-69.5 199t69.5 199t186.5 70q118 0 187 -70t69 -199zM88 785h372v-179h-372v179z" />
    <glyph glyph-name="Ohungarumlaut" unicode="&#x150;" horiz-adv-x="694" 
d="M347 -11q-145 0 -236 93.5t-91 257.5t91 258t236 94t236 -94t91 -258t-91 -257.5t-236 -93.5zM347 161q50 0 78.5 44t28.5 135t-28.5 135.5t-78.5 44.5t-78.5 -44.5t-28.5 -135.5t28.5 -135t78.5 -44zM357 818l137 177l95 -100l-161 -158zM145 818l138 177l94 -100
l-160 -158z" />
    <glyph glyph-name="ohungarumlaut" unicode="&#x151;" horiz-adv-x="548" 
d="M310 259q0 97 -36 97t-36 -97t36 -97t36 97zM530 259q0 -129 -69 -199t-187 -70q-117 0 -186.5 70t-69.5 199t69.5 199t186.5 70q118 0 187 -70t69 -199zM285 652l137 177l95 -100l-161 -158zM73 652l138 177l94 -100l-160 -158z" />
    <glyph glyph-name="OE" unicode="&#x152;" horiz-adv-x="884" 
d="M406 258v166q0 54 -13.5 75t-46.5 21q-49 0 -77.5 -44.5t-28.5 -135.5q0 -178 106 -178q33 0 46.5 21t13.5 75zM421 0q-24 -6 -74 -6q-146 0 -236.5 91t-90.5 255t90.5 255t236.5 91q44 0 73 -5h441v-223h-179v35q0 18 -4 23t-19 5h-33v-93h1h6h1h127v-160h-127h-1h-6h-1
v-108h43q20 0 20 25v51h179v-236h-447z" />
    <glyph glyph-name="oe" unicode="&#x153;" horiz-adv-x="819" 
d="M310 259q0 97 -36 97t-36 -97t36 -97t36 97zM603 325q-1 54 -36 54q-16 0 -27 -14t-12 -40h75zM418 36h-1q-50 -46 -144 -46q-117 0 -186 70t-69 199t69 199t186 70q96 0 146 -49h1q53 49 140 49q107 0 173 -68.5t66 -206.5v-31h-271v-1q6 -39 29 -60t59 -21q74 0 129 46
l56 -141q-90 -55 -219 -55q-113 0 -164 46z" />
    <glyph glyph-name="Racute" unicode="&#x154;" horiz-adv-x="618" 
d="M292 436h25q12 0 20 11.5t8 30.5t-8 31t-20 12h-25v-85zM475 319q18 -11 35 -43l52 -98q10 -18 22 -18h19v-160h-188l-109 245q-4 11 -14 11v-56q0 -40 23 -40h11v-160h-311v160h30q27 0 27 40v281q0 40 -27 40h-30v160h343q85 0 146 -56.5t61 -146.5q0 -49 -24.5 -91
t-65.5 -68zM168 842l181 152l81 -132l-201 -125z" />
    <glyph glyph-name="racute" unicode="&#x155;" horiz-adv-x="464" 
d="M343 0h-328v160h32q24 0 24 40v118q0 40 -24 40h-32v160h106l156 8v-54h1q52 56 109 56q45 0 81 -14l-41 -209q-48 34 -74 34q-22 0 -43 -31q-19 -25 -19 -78v-30q0 -40 24 -40h28v-160zM128 676l181 152l81 -132l-201 -125z" />
    <glyph glyph-name="Rcommaaccent" unicode="&#x156;" horiz-adv-x="618" 
d="M292 436h25q12 0 20 11.5t8 30.5t-8 31t-20 12h-25v-85zM475 319q18 -11 35 -43l52 -98q10 -18 22 -18h19v-160h-188l-109 245q-4 11 -14 11v-56q0 -40 23 -40h11v-160h-311v160h30q27 0 27 40v281q0 40 -27 40h-30v160h343q85 0 146 -56.5t61 -146.5q0 -49 -24.5 -91
t-65.5 -68zM299 -197q-28 4 -45 24t-17 49q0 35 31.5 57t72.5 22q45 0 69 -30.5t24 -75.5q0 -44 -38 -93.5t-90 -81.5l-66 68q48 39 59 61z" />
    <glyph glyph-name="rcommaaccent" unicode="&#x157;" horiz-adv-x="464" 
d="M343 0h-328v160h32q24 0 24 40v118q0 40 -24 40h-32v160h106l156 8v-54h1q52 56 109 56q45 0 81 -14l-41 -209q-48 34 -74 34q-22 0 -43 -31q-19 -25 -19 -78v-30q0 -40 24 -40h28v-160zM149 -197q-28 4 -45 24t-17 49q0 35 31.5 57t72.5 22q45 0 69 -30.5t24 -75.5
q0 -44 -38 -93.5t-90 -81.5l-66 68q48 39 59 61z" />
    <glyph glyph-name="Rcaron" unicode="&#x158;" horiz-adv-x="618" 
d="M292 436h25q12 0 20 11.5t8 30.5t-8 31t-20 12h-25v-85zM475 319q18 -11 35 -43l52 -98q10 -18 22 -18h19v-160h-188l-109 245q-4 11 -14 11v-56q0 -40 23 -40h11v-160h-311v160h30q27 0 27 40v281q0 40 -27 40h-30v160h343q85 0 146 -56.5t61 -146.5q0 -49 -24.5 -91
t-65.5 -68zM295 918l125 76l61 -105l-186 -152l-186 152l61 105z" />
    <glyph glyph-name="rcaron" unicode="&#x159;" horiz-adv-x="464" 
d="M343 0h-328v160h32q24 0 24 40v118q0 40 -24 40h-32v160h106l156 8v-54h1q52 56 109 56q45 0 81 -14l-41 -209q-48 34 -74 34q-22 0 -43 -31q-19 -25 -19 -78v-30q0 -40 24 -40h28v-160zM235 752l125 76l61 -105l-186 -152l-186 152l61 105z" />
    <glyph glyph-name="Sacute" unicode="&#x15a;" horiz-adv-x="536" 
d="M298 185q0 18 -15.5 33.5t-40 28.5t-54.5 26.5t-60 32t-54.5 41.5t-40 57.5t-15.5 77.5q0 101 66.5 155.5t189.5 54.5q134 0 213 -46v-178h-192v16q0 56 -31 56q-26 0 -26 -36q0 -22 29 -42t70 -39.5t82 -45t70 -71.5t29 -106q0 -55 -17 -95t-42.5 -62t-64 -35t-71 -16.5
t-72.5 -3.5q-120 0 -213 42v185h193v-26q0 -49 38 -49q29 0 29 45zM149 842l181 152l81 -132l-201 -125z" />
    <glyph glyph-name="sacute" unicode="&#x15b;" horiz-adv-x="464" 
d="M10 355q0 79 62.5 126t169.5 47q108 0 189 -34v-135h-162v5q0 22 -24 22t-24 -19q0 -12 24 -23.5t57.5 -24t67.5 -30t58 -51t24 -78.5q0 -77 -61 -124t-159 -47q-132 0 -205 34v145h161v-15q0 -22 25 -22q28 0 28 21q0 12 -24 22.5t-57.5 23t-67.5 30t-58 50.5t-24 77z
M138 676l181 152l81 -132l-201 -125z" />
    <glyph glyph-name="Scircumflex" unicode="&#x15c;" horiz-adv-x="536" 
d="M298 185q0 18 -15.5 33.5t-40 28.5t-54.5 26.5t-60 32t-54.5 41.5t-40 57.5t-15.5 77.5q0 101 66.5 155.5t189.5 54.5q134 0 213 -46v-178h-192v16q0 56 -31 56q-26 0 -26 -36q0 -22 29 -42t70 -39.5t82 -45t70 -71.5t29 -106q0 -55 -17 -95t-42.5 -62t-64 -35t-71 -16.5
t-72.5 -3.5q-120 0 -213 42v185h193v-26q0 -49 38 -49q29 0 29 45zM271 813l-125 -76l-61 105l186 152l186 -152l-61 -105z" />
    <glyph glyph-name="scircumflex" unicode="&#x15d;" horiz-adv-x="464" 
d="M10 355q0 79 62.5 126t169.5 47q108 0 189 -34v-135h-162v5q0 22 -24 22t-24 -19q0 -12 24 -23.5t57.5 -24t67.5 -30t58 -51t24 -78.5q0 -77 -61 -124t-159 -47q-132 0 -205 34v145h161v-15q0 -22 25 -22q28 0 28 21q0 12 -24 22.5t-57.5 23t-67.5 30t-58 50.5t-24 77z
M233 647l-125 -76l-61 105l186 152l186 -152l-61 -105z" />
    <glyph glyph-name="Scedilla" unicode="&#x15e;" horiz-adv-x="536" 
d="M283 -41q5 1 21 1q57 0 95.5 -32t38.5 -87q0 -71 -59.5 -117t-141.5 -46q-47 0 -109 23l26 88q8 -1 19.5 -4t21.5 -4t25 -1q65 0 65 41q0 46 -59 46q-20 0 -62 -15l21 140q-88 10 -147 38v185h193v-26q0 -49 38 -49q29 0 29 45q0 18 -15.5 33.5t-40 28.5t-54.5 26.5
t-60 32t-54.5 41.5t-40 57.5t-15.5 77.5q0 101 66.5 155.5t189.5 54.5q134 0 213 -46v-178h-192v16q0 56 -31 56q-26 0 -26 -36q0 -22 29 -42t70 -39.5t82 -45t70 -71.5t29 -106q0 -200 -232 -211z" />
    <glyph glyph-name="scedilla" unicode="&#x15f;" horiz-adv-x="464" 
d="M241 -41q5 1 21 1q57 0 95.5 -32t38.5 -87q0 -71 -59.5 -117t-141.5 -46q-47 0 -109 23l26 88q8 -1 19.5 -4t21.5 -4t25 -1q65 0 65 41q0 46 -59 46q-20 0 -62 -15l21 142q-75 9 -116 29v145h161v-15q0 -22 25 -22q28 0 28 21q0 12 -24 22.5t-57.5 23t-67.5 30t-58 50.5
t-24 77q0 79 62.5 126t169.5 47q108 0 189 -34v-135h-162v5q0 22 -24 22t-24 -19q0 -12 24 -23.5t57.5 -24t67.5 -30t58 -51t24 -78.5q0 -74 -57.5 -120.5t-150.5 -50.5z" />
    <glyph glyph-name="Scaron" unicode="&#x160;" horiz-adv-x="536" 
d="M298 185q0 18 -15.5 33.5t-40 28.5t-54.5 26.5t-60 32t-54.5 41.5t-40 57.5t-15.5 77.5q0 101 66.5 155.5t189.5 54.5q134 0 213 -46v-178h-192v16q0 56 -31 56q-26 0 -26 -36q0 -22 29 -42t70 -39.5t82 -45t70 -71.5t29 -106q0 -55 -17 -95t-42.5 -62t-64 -35t-71 -16.5
t-72.5 -3.5q-120 0 -213 42v185h193v-26q0 -49 38 -49q29 0 29 45zM271 918l125 76l61 -105l-186 -152l-186 152l61 105z" />
    <glyph glyph-name="scaron" unicode="&#x161;" horiz-adv-x="464" 
d="M10 355q0 79 62.5 126t169.5 47q108 0 189 -34v-135h-162v5q0 22 -24 22t-24 -19q0 -12 24 -23.5t57.5 -24t67.5 -30t58 -51t24 -78.5q0 -77 -61 -124t-159 -47q-132 0 -205 34v145h161v-15q0 -22 25 -22q28 0 28 21q0 12 -24 22.5t-57.5 23t-67.5 30t-58 50.5t-24 77z
M233 752l125 76l61 -105l-186 -152l-186 152l61 105z" />
    <glyph glyph-name="Tcommaaccent" unicode="&#x162;" horiz-adv-x="658" 
d="M149 0v160h43q27 0 27 40v321h-10q-15 0 -15 -25v-115h-179v300h628v-300h-179v115q0 25 -14 25h-11v-321q0 -40 27 -40h44v-160h-361zM297 -197q-28 4 -45 24t-17 49q0 35 31.5 57t72.5 22q45 0 69 -30.5t24 -75.5q0 -44 -38 -93.5t-90 -81.5l-66 68q48 39 59 61z" />
    <glyph glyph-name="tcommaaccent" unicode="&#x163;" horiz-adv-x="400" 
d="M71 630l220 56v-188h87l-22 -160h-65v-128q0 -38 21 -38q32 0 65 27l22 -179q-68 -30 -164 -30q-92 0 -128 57t-36 160v131h-56v160h56v132zM211 -197q-28 4 -45 24t-17 49q0 35 31.5 57t72.5 22q45 0 69 -30.5t24 -75.5q0 -44 -38 -93.5t-90 -81.5l-66 68q48 39 59 61z
" />
    <glyph glyph-name="Tcaron" unicode="&#x164;" horiz-adv-x="658" 
d="M149 0v160h43q27 0 27 40v321h-10q-15 0 -15 -25v-115h-179v300h628v-300h-179v115q0 25 -14 25h-11v-321q0 -40 27 -40h44v-160h-361zM330 918l125 76l61 -105l-186 -152l-186 152l61 105z" />
    <glyph glyph-name="tcaron" unicode="&#x165;" horiz-adv-x="400" 
d="M71 630l220 56v-188h87l-22 -160h-65v-128q0 -38 21 -38q32 0 65 27l22 -179q-68 -30 -164 -30q-92 0 -128 57t-36 160v131h-56v160h56v132zM371 642q-28 4 -45 24t-17 49q0 35 31.5 57t72.5 22q45 0 69 -30.5t24 -75.5q0 -44 -38 -93.5t-90 -81.5l-66 68q48 39 59 61z
" />
    <glyph glyph-name="Umacron" unicode="&#x16a;" horiz-adv-x="712" 
d="M420 257v224q0 40 -28 40h-24v160h329v-160h-30q-27 0 -27 -40v-205q0 -143 -70.5 -215t-220.5 -72q-131 0 -204 60.5t-73 205.5v226q0 40 -27 40h-30v160h329v-160h-24q-28 0 -28 -40v-224q0 -95 63 -95q65 0 65 95zM169 951h372v-179h-372v179z" />
    <glyph glyph-name="umacron" unicode="&#x16b;" horiz-adv-x="580" 
d="M338 48h-1q-53 -58 -119 -58q-62 0 -106.5 41t-44.5 122v165q0 40 -24 40h-28v160h111l160 8v-326q0 -38 10 -38q20 0 26 32v136q0 28 -15 28h-5v160h84l156 8v-326q0 -40 24 -40h32v-160h-256q-4 22 -4 48zM105 785h372v-179h-372v179z" />
    <glyph glyph-name="Ubreve" unicode="&#x16c;" horiz-adv-x="712" 
d="M420 257v224q0 40 -28 40h-24v160h329v-160h-30q-27 0 -27 -40v-205q0 -143 -70.5 -215t-220.5 -72q-131 0 -204 60.5t-73 205.5v226q0 40 -27 40h-30v160h329v-160h-24q-28 0 -28 -40v-224q0 -95 63 -95q65 0 65 95zM354 737q-76 0 -137 50.5t-82 118.5l85 88
q21 -42 51.5 -68.5t82.5 -26.5q86 0 134 95l85 -88q-21 -68 -82 -118.5t-137 -50.5z" />
    <glyph glyph-name="ubreve" unicode="&#x16d;" horiz-adv-x="580" 
d="M338 48h-1q-53 -58 -119 -58q-62 0 -106.5 41t-44.5 122v165q0 40 -24 40h-28v160h111l160 8v-326q0 -38 10 -38q20 0 26 32v136q0 28 -15 28h-5v160h84l156 8v-326q0 -40 24 -40h32v-160h-256q-4 22 -4 48zM290 571q-76 0 -137 50.5t-82 118.5l85 88q21 -42 51.5 -68.5
t82.5 -26.5q86 0 134 95l85 -88q-21 -68 -82 -118.5t-137 -50.5z" />
    <glyph glyph-name="Uring" unicode="&#x16e;" horiz-adv-x="712" 
d="M420 257v224q0 40 -28 40h-24v160h329v-160h-30q-27 0 -27 -40v-205q0 -143 -70.5 -215t-220.5 -72q-131 0 -204 60.5t-73 205.5v226q0 40 -27 40h-30v160h329v-160h-24q-28 0 -28 -40v-224q0 -95 63 -95q65 0 65 95zM355 1053q62 0 106.5 -46.5t44.5 -111.5
t-44.5 -111.5t-106.5 -46.5t-106 46.5t-44 111.5t44 111.5t106 46.5zM355 940q-18 0 -30.5 -13t-12.5 -32t12.5 -32t30.5 -13t30.5 13t12.5 32t-12.5 32t-30.5 13z" />
    <glyph glyph-name="uring" unicode="&#x16f;" horiz-adv-x="580" 
d="M338 48h-1q-53 -58 -119 -58q-62 0 -106.5 41t-44.5 122v165q0 40 -24 40h-28v160h111l160 8v-326q0 -38 10 -38q20 0 26 32v136q0 28 -15 28h-5v160h84l156 8v-326q0 -40 24 -40h32v-160h-256q-4 22 -4 48zM291 887q62 0 106.5 -46.5t44.5 -111.5t-44.5 -111.5
t-106.5 -46.5t-106 46.5t-44 111.5t44 111.5t106 46.5zM291 774q-18 0 -30.5 -13t-12.5 -32t12.5 -32t30.5 -13t30.5 13t12.5 32t-12.5 32t-30.5 13z" />
    <glyph glyph-name="Uhungarumlaut" unicode="&#x170;" horiz-adv-x="712" 
d="M420 257v224q0 40 -28 40h-24v160h329v-160h-30q-27 0 -27 -40v-205q0 -143 -70.5 -215t-220.5 -72q-131 0 -204 60.5t-73 205.5v226q0 40 -27 40h-30v160h329v-160h-24q-28 0 -28 -40v-224q0 -95 63 -95q65 0 65 95zM367 818l137 177l95 -100l-161 -158zM155 818
l138 177l94 -100l-160 -158z" />
    <glyph glyph-name="uhungarumlaut" unicode="&#x171;" horiz-adv-x="580" 
d="M338 48h-1q-53 -58 -119 -58q-62 0 -106.5 41t-44.5 122v165q0 40 -24 40h-28v160h111l160 8v-326q0 -38 10 -38q20 0 26 32v136q0 28 -15 28h-5v160h84l156 8v-326q0 -40 24 -40h32v-160h-256q-4 22 -4 48zM303 652l137 177l95 -100l-161 -158zM91 652l138 177l94 -100
l-160 -158z" />
    <glyph glyph-name="Uogonek" unicode="&#x172;" horiz-adv-x="712" 
d="M473 -199v-98q-57 -25 -124 -25q-71 0 -113.5 37.5t-42.5 99.5q0 15 3.5 30.5t7.5 27t13.5 26t15.5 22.5t18.5 21t17 17.5t18.5 17.5t16 14q-110 9 -170.5 70.5t-60.5 193.5v226q0 40 -27 40h-30v160h329v-160h-24q-28 0 -28 -40v-224q0 -95 63 -95q65 0 65 95v224
q0 40 -28 40h-24v160h329v-160h-30q-27 0 -27 -40v-205q0 -246 -212 -281q-27 -31 -54.5 -80.5t-27.5 -81.5q0 -53 44 -53q38 0 83 21z" />
    <glyph glyph-name="uogonek" unicode="&#x173;" horiz-adv-x="610" 
d="M502 -199v-98q-57 -25 -124 -25q-71 0 -113.5 37.5t-42.5 99.5q0 26 8 50t24.5 45.5t28.5 34.5t33.5 32t25.5 23q-4 22 -4 48h-1q-53 -58 -119 -58q-62 0 -106.5 41t-44.5 122v165q0 40 -24 40h-28v160h111l160 8v-326q0 -38 10 -38q20 0 26 32v136q0 28 -15 28h-5v160
h84l156 8v-326q0 -40 24 -40h32v-160h-136q-26 -28 -56.5 -80.5t-30.5 -86.5q0 -53 44 -53q37 0 83 21z" />
    <glyph glyph-name="Wcircumflex" unicode="&#x174;" horiz-adv-x="927" 
d="M656 395l15 85q8 41 -8 41h-28v160h295v-160h-18q-21 0 -31 -43l-103 -478h-249l-52 296q-10 58 -12 74h-2q-6 -38 -13 -74l-52 -296h-249l-105 484q-8 37 -28 37h-19v160h295v-160h-28q-15 0 -8 -41l15 -85q2 -9 6 -30t6 -32h1q1 9 14 62l63 286h206l63 -286
q3 -11 13 -63h1q4 25 12 63zM465 813l-125 -76l-61 105l186 152l186 -152l-61 -105z" />
    <glyph glyph-name="wcircumflex" unicode="&#x175;" horiz-adv-x="825" 
d="M597 303l10 41q3 14 -8 14h-16v160h245v-160h-16q-6 0 -14 -5.5t-11 -15.5l-108 -337h-204l-54 203q-5 16 -10 40h-1q-5 -24 -10 -40l-54 -203h-206l-101 337q-3 10 -11 15.5t-14 5.5h-17v160h262v-160h-21q-12 0 -7 -14l13 -43q6 -17 9 -34h1q1 10 7 34l52 217h214
l52 -217q1 -7 4 -18.5t4 -16.5h1q4 15 9 37zM411 647l-125 -76l-61 105l186 152l186 -152l-61 -105z" />
    <glyph glyph-name="Ycircumflex" unicode="&#x176;" horiz-adv-x="585" 
d="M319 471l10 24q6 8 4.5 17t-9.5 9h-12v160h276v-160h-22q-13 0 -24 -20l-140 -276v-25q0 -40 29 -40h43v-160h-362v160h43q27 0 27 40v25l-138 276q-10 20 -24 20h-23v160h275v-160h-11q-7 0 -8.5 -9t2.5 -17l10 -24q22 -58 26 -70h1q14 40 27 70zM293 813l-125 -76
l-61 105l186 152l186 -152l-61 -105z" />
    <glyph glyph-name="ycircumflex" unicode="&#x177;" horiz-adv-x="543" 
d="M156 41l-102 286q-10 31 -33 31h-24v160h274v-160h-14q-11 0 -7 -16l13 -43q9 -30 16 -65h1q9 44 15 65l13 43q4 16 -8 16h-13v160h259v-160h-28q-19 0 -29 -31l-127 -342q-37 -100 -100.5 -149.5t-172.5 -56.5l-36 203q72 3 93 41zM273 647l-125 -76l-61 105l186 152
l186 -152l-61 -105z" />
    <glyph glyph-name="Ydieresis" unicode="&#x178;" horiz-adv-x="585" 
d="M319 471l10 24q6 8 4.5 17t-9.5 9h-12v160h276v-160h-22q-13 0 -24 -20l-140 -276v-25q0 -40 29 -40h43v-160h-362v160h43q27 0 27 40v25l-138 276q-10 20 -24 20h-23v160h275v-160h-11q-7 0 -8.5 -9t2.5 -17l10 -24q22 -58 26 -70h1q14 40 27 70zM431 921q44 0 74 -25
t30 -67t-30 -67t-74 -25t-73.5 25t-29.5 67t29.5 67t73.5 25zM157 921q44 0 73.5 -25t29.5 -67t-29.5 -67t-73.5 -25t-73.5 25t-29.5 67t29.5 67t73.5 25z" />
    <glyph glyph-name="Zacute" unicode="&#x179;" horiz-adv-x="549" 
d="M314 160h30q10 0 10 25v46h179v-231h-518v137l210 322q26 40 50 63q-14 -1 -39 -1h-31q-10 0 -10 -25v-46h-179v231h518v-137l-209 -322q-23 -37 -49 -63q14 1 38 1zM161 842l181 152l81 -132l-201 -125z" />
    <glyph glyph-name="zacute" unicode="&#x17a;" horiz-adv-x="452" 
d="M275 160q10 0 10 14v15h155v-189h-428v119l193 241q-12 -2 -21 -2h-9q-8 0 -8 -10v-14h-155v184h420v-119l-190 -242q12 3 16 3h17zM124 676l181 152l81 -132l-201 -125z" />
    <glyph glyph-name="Zdotaccent" unicode="&#x17b;" horiz-adv-x="549" 
d="M314 160h30q10 0 10 25v46h179v-231h-518v137l210 322q26 40 50 63q-14 -1 -39 -1h-31q-10 0 -10 -25v-46h-179v231h518v-137l-209 -322q-23 -37 -49 -63q14 1 38 1zM267 933q46 0 77.5 -26.5t31.5 -71.5t-31.5 -71.5t-77.5 -26.5t-77.5 26.5t-31.5 71.5t31.5 71.5
t77.5 26.5z" />
    <glyph glyph-name="zdotaccent" unicode="&#x17c;" horiz-adv-x="452" 
d="M275 160q10 0 10 14v15h155v-189h-428v119l193 241q-12 -2 -21 -2h-9q-8 0 -8 -10v-14h-155v184h420v-119l-190 -242q12 3 16 3h17zM229 767q46 0 77.5 -26.5t31.5 -71.5t-31.5 -71.5t-77.5 -26.5t-77.5 26.5t-31.5 71.5t31.5 71.5t77.5 26.5z" />
    <glyph glyph-name="Zcaron" unicode="&#x17d;" horiz-adv-x="549" 
d="M314 160h30q10 0 10 25v46h179v-231h-518v137l210 322q26 40 50 63q-14 -1 -39 -1h-31q-10 0 -10 -25v-46h-179v231h518v-137l-209 -322q-23 -37 -49 -63q14 1 38 1zM267 918l125 76l61 -105l-186 -152l-186 152l61 105z" />
    <glyph glyph-name="zcaron" unicode="&#x17e;" horiz-adv-x="452" 
d="M275 160q10 0 10 14v15h155v-189h-428v119l193 241q-12 -2 -21 -2h-9q-8 0 -8 -10v-14h-155v184h420v-119l-190 -242q12 3 16 3h17zM229 752l125 76l61 -105l-186 -152l-186 152l61 105z" />
    <glyph glyph-name="florin" unicode="&#x192;" horiz-adv-x="430" 
d="M121 338h-56l29 160h57l5 30q17 93 78 149t154 56q78 0 138 -28l-59 -170q-25 24 -60 24q-15 0 -26 -13t-15 -33l-2 -15h86l-51 -160h-65l-43 -239q-16 -85 -40.5 -136.5t-77.5 -97.5q-88 -78 -221 -86v202q68 6 93 34q23 24 34 91z" />
    <glyph glyph-name="Scommaaccent" unicode="&#x218;" horiz-adv-x="536" 
d="M298 185q0 18 -15.5 33.5t-40 28.5t-54.5 26.5t-60 32t-54.5 41.5t-40 57.5t-15.5 77.5q0 101 66.5 155.5t189.5 54.5q134 0 213 -46v-178h-192v16q0 56 -31 56q-26 0 -26 -36q0 -22 29 -42t70 -39.5t82 -45t70 -71.5t29 -106q0 -55 -17 -95t-42.5 -62t-64 -35t-71 -16.5
t-72.5 -3.5q-120 0 -213 42v185h193v-26q0 -49 38 -49q29 0 29 45zM236 -197q-28 4 -45 24t-17 49q0 35 31.5 57t72.5 22q45 0 69 -30.5t24 -75.5q0 -44 -38 -93.5t-90 -81.5l-66 68q48 39 59 61z" />
    <glyph glyph-name="scommaaccent" unicode="&#x219;" horiz-adv-x="464" 
d="M10 355q0 79 62.5 126t169.5 47q108 0 189 -34v-135h-162v5q0 22 -24 22t-24 -19q0 -12 24 -23.5t57.5 -24t67.5 -30t58 -51t24 -78.5q0 -77 -61 -124t-159 -47q-132 0 -205 34v145h161v-15q0 -22 25 -22q28 0 28 21q0 12 -24 22.5t-57.5 23t-67.5 30t-58 50.5t-24 77z
M192 -197q-28 4 -45 24t-17 49q0 35 31.5 57t72.5 22q45 0 69 -30.5t24 -75.5q0 -44 -38 -93.5t-90 -81.5l-66 68q48 39 59 61z" />
    <glyph glyph-name="uni021a" unicode="&#x21a;" horiz-adv-x="658" 
d="M149 0v160h43q27 0 27 40v321h-10q-15 0 -15 -25v-115h-179v300h628v-300h-179v115q0 25 -14 25h-11v-321q0 -40 27 -40h44v-160h-361zM297 -197q-28 4 -45 24t-17 49q0 35 31.5 57t72.5 22q45 0 69 -30.5t24 -75.5q0 -44 -38 -93.5t-90 -81.5l-66 68q48 39 59 61z" />
    <glyph glyph-name="uni021b" unicode="&#x21b;" horiz-adv-x="400" 
d="M71 630l220 56v-188h87l-22 -160h-65v-128q0 -38 21 -38q32 0 65 27l22 -179q-68 -30 -164 -30q-92 0 -128 57t-36 160v131h-56v160h56v132zM211 -197q-28 4 -45 24t-17 49q0 35 31.5 57t72.5 22q45 0 69 -30.5t24 -75.5q0 -44 -38 -93.5t-90 -81.5l-66 68q48 39 59 61z
" />
    <glyph glyph-name="circumflex" unicode="&#x2c6;" 
d="M142 647l-125 -76l-61 105l186 152l186 -152l-61 -105z" />
    <glyph glyph-name="caron" unicode="&#x2c7;" 
d="M142 752l125 76l61 -105l-186 -152l-186 152l61 105z" />
    <glyph glyph-name="breve" unicode="&#x2d8;" 
d="M142 571q-76 0 -137 50.5t-82 118.5l85 88q21 -42 51.5 -68.5t82.5 -26.5q86 0 134 95l85 -88q-21 -68 -82 -118.5t-137 -50.5z" />
    <glyph glyph-name="dotaccent" unicode="&#x2d9;" 
d="M142 767q46 0 77.5 -26.5t31.5 -71.5t-31.5 -71.5t-77.5 -26.5t-77.5 26.5t-31.5 71.5t31.5 71.5t77.5 26.5z" />
    <glyph glyph-name="ring" unicode="&#x2da;" 
d="M141 887q62 0 106.5 -46.5t44.5 -111.5t-44.5 -111.5t-106.5 -46.5t-106 46.5t-44 111.5t44 111.5t106 46.5zM141 774q-18 0 -30.5 -13t-12.5 -32t12.5 -32t30.5 -13t30.5 13t12.5 32t-12.5 32t-30.5 13z" />
    <glyph glyph-name="ogonek" unicode="&#x2db;" 
d="M268 -199v-98q-57 -25 -124 -25q-71 0 -113.5 37.5t-42.5 99.5q0 26 8 50t24.5 45.5t28.5 34.5t33.5 32t25.5 23h120q-26 -28 -56.5 -80.5t-30.5 -86.5q0 -53 44 -53q37 0 83 21z" />
    <glyph glyph-name="tilde" unicode="&#x2dc;" 
d="M220 764q7 0 14 2t12 3.5t11.5 7t9.5 7.5t10.5 9t9.5 9l81 -159q-40 -37 -73.5 -54.5t-76.5 -17.5q-44 0 -88 28.5t-76 28.5q-7 0 -14 -2t-12 -3.5t-11.5 -7t-9.5 -7.5t-10.5 -9t-9.5 -9l-81 159q41 37 74 54.5t76 17.5q42 0 85.5 -28.5t78.5 -28.5z" />
    <glyph glyph-name="hungarumlaut" unicode="&#x2dd;" 
d="M173 652l137 177l95 -100l-161 -158zM-39 652l138 177l94 -100l-160 -158z" />
    <glyph glyph-name="uni037e" unicode="&#x37e;" 
d="M98 -4q-39 6 -61.5 38.5t-22.5 78.5q0 57 36.5 90.5t92.5 33.5q63 0 96 -48t33 -119q0 -70 -49.5 -143.5t-122.5 -124.5l-80 94q58 52 78 100zM143 528q55 0 92 -33.5t37 -90.5t-37 -90.5t-92 -33.5q-56 0 -92.5 33.5t-36.5 90.5t36.5 90.5t92.5 33.5z" />
    <glyph glyph-name="anoteleia" unicode="&#x387;" 
d="M143 414q55 0 92 -33.5t37 -90.5t-37 -90.5t-92 -33.5q-56 0 -92.5 33.5t-36.5 90.5t36.5 90.5t92.5 33.5z" />
    <glyph glyph-name="Delta" unicode="&#x394;" horiz-adv-x="673" 
d="M676 0h-680l220 681h240zM408 160l-66 227q-7 25 -9 33h-1q-5 -20 -9 -33l-66 -227h151z" />
    <glyph glyph-name="Omega" unicode="&#x3a9;" horiz-adv-x="782" 
d="M764 0h-355v169q56 22 74 65.5t18 116.5q0 81 -31 125t-79 44q-49 0 -80 -44t-31 -125q0 -73 18.5 -116.5t74.5 -65.5v-169h-355v185h116v-10q0 -18 11 -18h58v3q-49 13 -95.5 81.5t-46.5 145.5q0 134 93 219.5t237 85.5t237 -85.5t93 -219.5q0 -77 -46.5 -145.5
t-96.5 -81.5l-1 -3h60q11 0 11 18v10h116v-185z" />
    <glyph glyph-name="mu" unicode="&#x3bc;" horiz-adv-x="610" 
d="M598 0h-256q-4 22 -4 28h-1q-6 -28 -25 -28t-25 28h-1v-58q0 -15 6 -22.5t22 -7.5h27v-160h-326v160h23q29 0 29 40v338q0 40 -24 40h-28v160h111l160 8v-326q0 -38 10 -38q20 0 26 32v136q0 28 -15 28h-5v160h84l156 8v-326q0 -40 24 -40h32v-160z" />
    <glyph glyph-name="pi" unicode="&#x3c0;" horiz-adv-x="618" 
d="M598 0h-274v160h1q2 0 2 24v174h-36v-174q0 -24 2 -24h1v-160h-279v160h32q24 0 24 40v118q0 40 -24 40h-32v160h588v-160h-32q-24 0 -24 -40v-118q0 -40 24 -40h27v-160z" />
    <glyph glyph-name="figuredash" unicode="&#x2012;" horiz-adv-x="559" 
d="M486 186h-413v146h413v-146z" />
    <glyph glyph-name="endash" unicode="&#x2013;" horiz-adv-x="430" 
d="M430 186h-430v146h430v-146z" />
    <glyph glyph-name="emdash" unicode="&#x2014;" horiz-adv-x="860" 
d="M860 186h-860v146h860v-146z" />
    <glyph glyph-name="quoteleft" unicode="&#x2018;" 
d="M187 547q39 -6 62 -37t23 -75q0 -55 -37 -87t-92 -32q-63 0 -96 46t-33 114t49.5 138.5t122.5 118.5l80 -90q-57 -47 -79 -96z" />
    <glyph glyph-name="quoteright" unicode="&#x2019;" 
d="M98 498q-39 6 -61.5 37t-22.5 75q0 55 36.5 87t92.5 32q63 0 96 -46t33 -114t-49.5 -138.5t-122.5 -118.5l-80 90q58 50 78 96z" />
    <glyph glyph-name="quotesinglbase" unicode="&#x201a;" 
d="M98 -4q-39 6 -61.5 37t-22.5 75q0 55 36.5 87t92.5 32q63 0 96 -46t33 -114t-49.5 -138.5t-122.5 -118.5l-80 90q58 50 78 96z" />
    <glyph glyph-name="quotedblleft" unicode="&#x201c;" horiz-adv-x="582" 
d="M187 547q39 -6 62 -37t23 -75q0 -55 -37 -87t-92 -32q-63 0 -96 46t-33 114t49.5 138.5t122.5 118.5l80 -90q-58 -50 -79 -96zM484 547q38 -6 61 -37t23 -75q0 -55 -37 -87t-92 -32q-63 0 -96 46t-33 114t49.5 138.5t122.5 118.5l80 -90q-58 -50 -78 -96z" />
    <glyph glyph-name="quotedblright" unicode="&#x201d;" horiz-adv-x="582" 
d="M394 498q-39 6 -61.5 37t-22.5 75q0 55 36.5 87t92.5 32q63 0 96 -46t33 -114t-49.5 -138.5t-122.5 -118.5l-80 90q58 50 78 96zM98 498q-39 6 -61.5 37t-22.5 75q0 55 36.5 87t92.5 32q63 0 96 -46t33 -114t-49.5 -138.5t-122.5 -118.5l-80 90q58 50 78 96z" />
    <glyph glyph-name="quotedblbase" unicode="&#x201e;" horiz-adv-x="582" 
d="M394 -4q-39 6 -61.5 37t-22.5 75q0 55 36.5 87t92.5 32q63 0 96 -46t33 -114t-49.5 -138.5t-122.5 -118.5l-80 90q58 50 78 96zM98 -4q-39 6 -61.5 37t-22.5 75q0 55 36.5 87t92.5 32q63 0 96 -46t33 -114t-49.5 -138.5t-122.5 -118.5l-80 90q58 50 78 96z" />
    <glyph glyph-name="dagger" unicode="&#x2020;" horiz-adv-x="495" 
d="M331 518h149v-160h-152l28 -93l-37 -297h-143l-36 297l28 93h-153v160h149l-24 163h216z" />
    <glyph glyph-name="daggerdbl" unicode="&#x2021;" horiz-adv-x="495" 
d="M356 265l-28 -93h152v-160h-149l25 -163h-216l24 163h-149v160h153l-28 93l28 93h-153v160h149l-24 163h216l-25 -163h149v-160h-152z" />
    <glyph glyph-name="bullet" unicode="&#x2022;" horiz-adv-x="400" 
d="M200 481q69 0 118.5 -49t49.5 -118t-49.5 -118t-118.5 -49t-118 49t-49 118t49 118t118 49z" />
    <glyph glyph-name="twodotenleader" unicode="&#x2025;" horiz-adv-x="573" 
d="M430 237q55 0 92 -33.5t37 -90.5t-37 -90.5t-92 -33.5q-56 0 -92.5 33.5t-36.5 90.5t36.5 90.5t92.5 33.5zM144 237q55 0 92 -33.5t37 -90.5t-37 -90.5t-92 -33.5q-56 0 -92.5 33.5t-36.5 90.5t36.5 90.5t92.5 33.5z" />
    <glyph glyph-name="ellipsis" unicode="&#x2026;" horiz-adv-x="860" 
d="M716 237q56 0 92.5 -33.5t36.5 -90.5t-36.5 -90.5t-92.5 -33.5q-55 0 -92 33.5t-37 90.5t37 90.5t92 33.5zM144 237q55 0 92 -33.5t37 -90.5t-37 -90.5t-92 -33.5q-56 0 -92.5 33.5t-36.5 90.5t36.5 90.5t92.5 33.5zM430 237q55 0 92 -33.5t37 -90.5t-37 -90.5t-92 -33.5
t-92 33.5t-37 90.5t37 90.5t92 33.5z" />
    <glyph glyph-name="perthousand" unicode="&#x2030;" horiz-adv-x="1393" 
d="M216 434q16 0 25.5 16.5t9.5 45.5t-9.5 45.5t-25.5 16.5t-25.5 -16.5t-9.5 -45.5t9.5 -45.5t25.5 -16.5zM216 280q-87 0 -142.5 58.5t-55.5 157.5t55.5 157.5t142.5 58.5t142 -58.5t55 -157.5t-55 -157.5t-142 -58.5zM721 656l-348 -676l-125 77l349 676zM1178 267
q-16 0 -25.5 -16.5t-9.5 -45.5t9.5 -45.5t25.5 -16.5t25.5 16.5t9.5 45.5t-9.5 45.5t-25.5 16.5zM1178 421q87 0 142 -58.5t55 -157.5t-55 -157.5t-142 -58.5t-142.5 58.5t-55.5 157.5t55.5 157.5t142.5 58.5zM747 267q-16 0 -25.5 -16.5t-9.5 -45.5t9.5 -45.5t25.5 -16.5
t25.5 16.5t9.5 45.5t-9.5 45.5t-25.5 16.5zM747 421q87 0 142 -58.5t55 -157.5t-55 -157.5t-142 -58.5t-142.5 58.5t-55.5 157.5t55.5 157.5t142.5 58.5z" />
    <glyph glyph-name="guilsinglleft" unicode="&#x2039;" horiz-adv-x="316" 
d="M295 138l-151 -104l-123 216l125 218l150 -103l-66 -114z" />
    <glyph glyph-name="guilsinglright" unicode="&#x203a;" horiz-adv-x="316" 
d="M21 138l66 113l-66 114l149 103l126 -218l-124 -216z" />
    <glyph glyph-name="fraction" unicode="&#x2044;" horiz-adv-x="129" 
d="M297 672l-360 -722l-104 60l360 723z" />
    <glyph glyph-name="zero.superior" unicode="&#x2070;" horiz-adv-x="378" 
d="M362 473q0 -97 -49 -156t-124 -59q-80 0 -127 56.5t-47 158.5q0 98 49.5 156.5t124.5 58.5q83 0 128 -58.5t45 -156.5zM165 473q0 -105 24 -105t24 105t-24 105t-24 -105z" />
    <glyph glyph-name="four.superior" unicode="&#x2074;" horiz-adv-x="378" 
d="M313 488h41v-94h-41v-2q0 -25 14 -25h27v-103h-238v103h37q14 0 14 25v2h-147l-6 83l154 204h145v-193zM167 478v58l-41 -58h41z" />
    <glyph glyph-name="five.superior" unicode="&#x2075;" horiz-adv-x="378" 
d="M182 368q11 0 17.5 11t6.5 28q0 23 -17 39t-44 16q-42 0 -100 -17l12 236h279l-7 -119h-113v7q0 9 -1 9h-53l-3 -33q12 3 37 3q61 0 108.5 -33.5t47.5 -102.5q0 -74 -46.5 -114t-119.5 -40q-49 0 -81 11t-67 36v95h118v-8q0 -24 26 -24z" />
    <glyph glyph-name="six.superior" unicode="&#x2076;" horiz-adv-x="378" 
d="M214 405q0 17 -7 27t-18 10q-12 0 -26 -17v-15q0 -19 8 -30.5t17 -11.5q11 0 18.5 10.5t7.5 26.5zM12 433q0 46 15 88.5t48 81.5t93.5 66t142.5 34l18 -110q-104 -6 -149 -67q9 2 32 2q63 0 107.5 -35t44.5 -92q0 -62 -49.5 -102.5t-125.5 -40.5q-84 0 -130.5 46.5
t-46.5 128.5z" />
    <glyph glyph-name="seven.superior" unicode="&#x2077;" horiz-adv-x="378" 
d="M148 578q-10 0 -10 -15v-23h-112v141h320v-85q-91 -144 -119 -332h-162q34 163 142 314h-59z" />
    <glyph glyph-name="eight.superior" unicode="&#x2078;" horiz-adv-x="378" 
d="M341 577q0 -45 -51 -90q65 -45 65 -110q0 -53 -45.5 -86t-123.5 -33q-82 0 -126 32.5t-44 86.5q0 69 66 106q-54 39 -54 99q0 47 43 76.5t114 29.5q74 0 115 -29t41 -82zM186 539q27 13 27 31q0 22 -28 22q-27 0 -27 -23q0 -18 28 -30zM221 376q0 15 -10 24.5t-36 21.5
q-34 -18 -34 -43q0 -17 11 -27t30 -10q17 0 28 9.5t11 24.5z" />
    <glyph glyph-name="nine.superior" unicode="&#x2079;" horiz-adv-x="378" 
d="M186 504q15 0 27 16v23q0 35 -26 35q-25 0 -25 -38q0 -36 24 -36zM366 508q0 -44 -14.5 -85t-46 -81t-91 -67.5t-140.5 -34.5l-22 107q99 18 142 68l-1 1q-9 -2 -29 -2q-64 0 -108 35t-44 92q0 68 44 107.5t133 39.5t133 -47t44 -133z" />
    <glyph glyph-name="zero.inferior" unicode="&#x2080;" horiz-adv-x="378" 
d="M362 209q0 -97 -49 -156t-124 -59q-80 0 -127 56.5t-47 158.5q0 98 49.5 156.5t124.5 58.5q83 0 128 -58.5t45 -156.5zM165 209q0 -105 24 -105t24 105t-24 105t-24 -105z" />
    <glyph glyph-name="one.inferior" unicode="&#x2081;" horiz-adv-x="378" 
d="M124 266q0 25 -15 25h-33l-18 103h52q33 0 59 23h100v-289q0 -25 14 -25h30v-103h-241v103h37q15 0 15 25v138z" />
    <glyph glyph-name="two.inferior" unicode="&#x2082;" horiz-adv-x="378" 
d="M350 0h-319v76l76 77q86 86 86 128q0 33 -19 33q-22 0 -22 -27v-14h-117v99q35 26 67 38.5t81 12.5q69 0 111.5 -38t42.5 -94q0 -63 -73 -132l-59 -56l1 -1q3 1 11 1h16q7 0 7 13v14h110v-130z" />
    <glyph glyph-name="three.inferior" unicode="&#x2083;" horiz-adv-x="378" 
d="M179 104q22 0 22 28q0 29 -28 29q-23 0 -47 -1v103h35q28 0 28 25q0 26 -19 26q-16 0 -16 -23v-8h-117v93q35 25 67 36t81 11q71 0 110 -29t39 -83q0 -37 -27 -62.5t-61 -29.5v-1q38 -4 69 -29.5t31 -70.5q0 -53 -45.5 -88.5t-115.5 -35.5q-49 0 -81 11t-67 36v95h117v-8
q0 -24 25 -24z" />
    <glyph glyph-name="four.inferior" unicode="&#x2084;" horiz-adv-x="378" 
d="M313 224h41v-94h-41v-2q0 -25 14 -25h27v-103h-238v103h37q14 0 14 25v2h-147l-6 83l154 204h145v-193zM167 214v58l-41 -58h41z" />
    <glyph glyph-name="five.inferior" unicode="&#x2085;" horiz-adv-x="378" 
d="M182 104q11 0 17.5 11t6.5 28q0 23 -17 39t-44 16q-42 0 -100 -17l12 236h279l-7 -119h-113v7q0 9 -1 9h-53l-3 -33q12 3 37 3q61 0 108.5 -33.5t47.5 -102.5q0 -74 -46.5 -114t-119.5 -40q-49 0 -81 11t-67 36v95h118v-8q0 -24 26 -24z" />
    <glyph glyph-name="six.inferior" unicode="&#x2086;" horiz-adv-x="378" 
d="M214 141q0 17 -7 27t-18 10q-12 0 -26 -17v-15q0 -19 8 -30.5t17 -11.5q11 0 18.5 10.5t7.5 26.5zM12 169q0 46 15 88.5t48 81.5t93.5 66t142.5 34l18 -110q-104 -6 -149 -67q9 2 32 2q63 0 107.5 -35t44.5 -92q0 -62 -49.5 -102.5t-125.5 -40.5q-84 0 -130.5 46.5
t-46.5 128.5z" />
    <glyph glyph-name="seven.inferior" unicode="&#x2087;" horiz-adv-x="378" 
d="M148 314q-10 0 -10 -15v-23h-112v141h320v-85q-91 -144 -119 -332h-162q34 163 142 314h-59z" />
    <glyph glyph-name="eight.inferior" unicode="&#x2088;" horiz-adv-x="378" 
d="M341 313q0 -45 -51 -90q65 -45 65 -110q0 -53 -45.5 -86t-123.5 -33q-82 0 -126 32.5t-44 86.5q0 69 66 106q-54 39 -54 99q0 47 43 76.5t114 29.5q74 0 115 -29t41 -82zM186 275q27 13 27 31q0 22 -28 22q-27 0 -27 -23q0 -18 28 -30zM221 112q0 15 -10 24.5t-36 21.5
q-34 -18 -34 -43q0 -17 11 -27t30 -10q17 0 28 9.5t11 24.5z" />
    <glyph glyph-name="nine.inferior" unicode="&#x2089;" horiz-adv-x="378" 
d="M186 240q15 0 27 16v23q0 35 -26 35q-25 0 -25 -38q0 -36 24 -36zM366 244q0 -44 -14.5 -85t-46 -81t-91 -67.5t-140.5 -34.5l-22 107q99 18 142 68l-1 1q-9 -2 -29 -2q-64 0 -108 35t-44 92q0 68 44 107.5t133 39.5t133 -47t44 -133z" />
    <glyph glyph-name="Euro" unicode="&#x20ac;" horiz-adv-x="544" 
d="M53 470q31 109 104.5 165.5t177.5 56.5q97 0 188 -42v-165h-170v1q0 34 -28 34q-32 0 -48 -50h128l-17 -120h-133q-1 -5 -1 -14q0 -11 1 -15h130l-17 -120h-79q30 -39 66 -39q39 0 64.5 7.5t65.5 31.5l53 -165q-9 -4 -28 -13.5t-26 -12.5t-24.5 -8.5t-33.5 -7.5
t-41.5 -3.5t-59.5 -1.5q-88 0 -165 57t-106 155h-70l17 120h34q-1 6 -1 14t1 15h-51l17 120h52z" />
    <glyph glyph-name="trademark" unicode="&#x2122;" horiz-adv-x="900" 
d="M124 251v300h-109v130h369v-130h-108v-300h-152zM881 251h-152v215l-66 -162h-26l-68 154h-1v-207h-152v430h170l63 -119l64 119h168v-430z" />
    <glyph glyph-name="uni2126" unicode="&#x2126;" horiz-adv-x="782" 
d="M764 0h-355v169q56 22 74 65.5t18 116.5q0 81 -31 125t-79 44q-49 0 -80 -44t-31 -125q0 -73 18.5 -116.5t74.5 -65.5v-169h-355v185h116v-10q0 -18 11 -18h58v3q-49 13 -95.5 81.5t-46.5 145.5q0 134 93 219.5t237 85.5t237 -85.5t93 -219.5q0 -77 -46.5 -145.5
t-96.5 -81.5l-1 -3h60q11 0 11 18v10h116v-185z" />
    <glyph glyph-name="onethird" unicode="&#x2153;" horiz-adv-x="885" 
d="M124 530q0 25 -15 25h-33l-18 103h52q33 0 59 23h100v-289q0 -25 14 -25h30v-103h-241v103h37q15 0 15 25v138zM675 672l-360 -722l-104 60l360 723zM686 104q22 0 22 28q0 29 -28 29q-23 0 -47 -1v103h35q28 0 28 25q0 26 -19 26q-16 0 -16 -23v-8h-117v93q35 25 67 36
t81 11q71 0 110 -29t39 -83q0 -37 -27 -62.5t-61 -29.5v-1q38 -4 69 -29.5t31 -70.5q0 -53 -45.5 -88.5t-115.5 -35.5q-49 0 -81 11t-67 36v95h117v-8q0 -24 25 -24z" />
    <glyph glyph-name="twothirds" unicode="&#x2154;" horiz-adv-x="885" 
d="M340 264h-319v76l76 77q86 86 86 128q0 33 -19 33q-22 0 -22 -27v-14h-117v99q35 26 67 38.5t81 12.5q69 0 111.5 -38t42.5 -94q0 -63 -73 -132l-59 -56l1 -1q3 1 11 1h16q7 0 7 13v14h110v-130zM690 672l-360 -722l-104 60l360 723zM696 104q22 0 22 28q0 29 -28 29
q-23 0 -47 -1v103h35q28 0 28 25q0 26 -19 26q-16 0 -16 -23v-8h-117v93q35 25 67 36t81 11q71 0 110 -29t39 -83q0 -37 -27 -62.5t-61 -29.5v-1q38 -4 69 -29.5t31 -70.5q0 -53 -45.5 -88.5t-115.5 -35.5q-49 0 -81 11t-67 36v95h117v-8q0 -24 25 -24z" />
    <glyph glyph-name="oneeighth" unicode="&#x215b;" horiz-adv-x="885" 
d="M124 530q0 25 -15 25h-33l-18 103h52q33 0 59 23h100v-289q0 -25 14 -25h30v-103h-241v103h37q15 0 15 25v138zM675 672l-360 -722l-104 60l360 723zM848 313q0 -45 -51 -90q65 -45 65 -110q0 -53 -45.5 -86t-123.5 -33q-82 0 -126 32.5t-44 86.5q0 69 66 106
q-54 39 -54 99q0 47 43 76.5t114 29.5q74 0 115 -29t41 -82zM693 275q27 13 27 31q0 22 -28 22q-27 0 -27 -23q0 -18 28 -30zM728 112q0 15 -10 24.5t-36 21.5q-34 -18 -34 -43q0 -17 11 -27t30 -10q17 0 28 9.5t11 24.5z" />
    <glyph glyph-name="threeeighths" unicode="&#x215c;" horiz-adv-x="885" 
d="M179 368q22 0 22 28q0 29 -28 29q-23 0 -47 -1v103h35q28 0 28 25q0 26 -19 26q-16 0 -16 -23v-8h-117v93q35 25 67 36t81 11q71 0 110 -29t39 -83q0 -37 -27 -62.5t-61 -29.5v-1q38 -4 69 -29.5t31 -70.5q0 -53 -45.5 -88.5t-115.5 -35.5q-49 0 -81 11t-67 36v95h117v-8
q0 -24 25 -24zM675 672l-360 -722l-104 60l360 723zM848 313q0 -45 -51 -90q65 -45 65 -110q0 -53 -45.5 -86t-123.5 -33q-82 0 -126 32.5t-44 86.5q0 69 66 106q-54 39 -54 99q0 47 43 76.5t114 29.5q74 0 115 -29t41 -82zM693 275q27 13 27 31q0 22 -28 22q-27 0 -27 -23
q0 -18 28 -30zM728 112q0 15 -10 24.5t-36 21.5q-34 -18 -34 -43q0 -17 11 -27t30 -10q17 0 28 9.5t11 24.5z" />
    <glyph glyph-name="fiveeighths" unicode="&#x215d;" horiz-adv-x="885" 
d="M182 368q11 0 17.5 11t6.5 28q0 23 -17 39t-44 16q-42 0 -100 -17l12 236h279l-7 -119h-113v7q0 9 -1 9h-53l-3 -33q12 3 37 3q61 0 108.5 -33.5t47.5 -102.5q0 -74 -46.5 -114t-119.5 -40q-49 0 -81 11t-67 36v95h118v-8q0 -24 26 -24zM675 672l-360 -722l-104 60
l360 723zM848 313q0 -45 -51 -90q65 -45 65 -110q0 -53 -45.5 -86t-123.5 -33q-82 0 -126 32.5t-44 86.5q0 69 66 106q-54 39 -54 99q0 47 43 76.5t114 29.5q74 0 115 -29t41 -82zM693 275q27 13 27 31q0 22 -28 22q-27 0 -27 -23q0 -18 28 -30zM728 112q0 15 -10 24.5
t-36 21.5q-34 -18 -34 -43q0 -17 11 -27t30 -10q17 0 28 9.5t11 24.5z" />
    <glyph glyph-name="seveneighths" unicode="&#x215e;" horiz-adv-x="885" 
d="M148 578q-10 0 -10 -15v-23h-112v141h320v-85q-91 -144 -119 -332h-162q34 163 142 314h-59zM655 672l-360 -722l-104 60l360 723zM848 313q0 -45 -51 -90q65 -45 65 -110q0 -53 -45.5 -86t-123.5 -33q-82 0 -126 32.5t-44 86.5q0 69 66 106q-54 39 -54 99q0 47 43 76.5
t114 29.5q74 0 115 -29t41 -82zM693 275q27 13 27 31q0 22 -28 22q-27 0 -27 -23q0 -18 28 -30zM728 112q0 15 -10 24.5t-36 21.5q-34 -18 -34 -43q0 -17 11 -27t30 -10q17 0 28 9.5t11 24.5z" />
    <glyph glyph-name="partialdiff" unicode="&#x2202;" horiz-adv-x="525" 
d="M507 406q0 -81 -12.5 -150t-40 -131t-80.5 -98t-126 -36q-104 0 -167 65.5t-63 186.5t62 187t163 66q26 0 57 -12v10q0 35 -28.5 63t-65.5 28q-42 0 -118 -36l-36 156q86 28 162 28q129 0 211 -87.5t82 -239.5zM286 320q-18 15 -30 15q-36 0 -36 -92q0 -91 36 -91
q16 0 22 41t8 127z" />
    <glyph glyph-name="uni2206" unicode="&#x2206;" horiz-adv-x="673" 
d="M676 0h-680l220 681h240zM408 160l-66 227q-7 25 -9 33h-1q-5 -20 -9 -33l-66 -227h151z" />
    <glyph glyph-name="product" unicode="&#x220f;" horiz-adv-x="738" 
d="M722 -123h-334v160h27q30 0 30 40v488h-152v-488q0 -40 30 -40h27v-160h-334v160h28q29 0 29 40v448q0 40 -29 40h-28v160h706v-160h-28q-29 0 -29 -40v-448q0 -40 29 -40h28v-160z" />
    <glyph glyph-name="summation" unicode="&#x2211;" horiz-adv-x="568" 
d="M549 -123h-533v140l203 273l-195 296v140h514v-236h-165v51q0 25 -22 25h-26q-28 0 -47 2q16 -16 48 -64l141 -214l-148 -199q-30 -40 -46 -56q19 2 47 2h42q22 0 22 25v51h165v-236z" />
    <glyph glyph-name="minus" unicode="&#x2212;" horiz-adv-x="482" 
d="M28 336h426v-164h-426v164z" />
    <glyph glyph-name="uni2215" unicode="&#x2215;" horiz-adv-x="129" 
d="M297 672l-360 -722l-104 60l360 723z" />
    <glyph glyph-name="bulletoperator" unicode="&#x2219;" 
d="M143 414q55 0 92 -33.5t37 -90.5t-37 -90.5t-92 -33.5q-56 0 -92.5 33.5t-36.5 90.5t36.5 90.5t92.5 33.5z" />
    <glyph glyph-name="radical" unicode="&#x221a;" horiz-adv-x="550" 
d="M378 0h-203l-117 327q-10 31 -42 31h-19v160h186l66 -215q21 -72 24 -89h2l168 700h154z" />
    <glyph glyph-name="infinity" unicode="&#x221e;" horiz-adv-x="482" 
d="M186 257q-17 51 -35 51q-11 0 -18 -14.5t-7 -40.5q0 -24 7 -38.5t18 -14.5q19 0 35 57zM243 128q-42 -67 -110 -67q-54 0 -86 50.5t-32 141.5q0 194 122 194q53 0 102 -71q43 71 110 71q53 0 85.5 -51t32.5 -142q0 -193 -122 -193q-54 0 -102 67zM296 251q17 -51 35 -51
q25 0 25 54t-26 54q-18 0 -34 -57z" />
    <glyph glyph-name="integral" unicode="&#x222b;" horiz-adv-x="378" 
d="M299 -20q0 -94 -50.5 -149.5t-145.5 -55.5q-66 0 -118 29l22 172q27 -27 55 -27q17 0 17 46v533q0 93 51 149t145 56q67 0 119 -29l-22 -171q-14 16 -25 21t-30 5q-18 0 -18 -46v-533z" />
    <glyph glyph-name="approxequal" unicode="&#x2248;" horiz-adv-x="482" 
d="M131 271l-103 54q28 86 59.5 117.5t74.5 31.5q41 0 88 -40q30 -25 48 -25q26 0 53 50l102 -54q-27 -86 -58 -117.5t-73 -31.5t-73 27q-3 3 -13 11t-14 11t-12 8t-14 6.5t-12 1.5q-26 0 -53 -50zM131 41l-103 54q28 86 59.5 117.5t74.5 31.5q41 0 88 -40q30 -25 48 -25
q26 0 53 50l102 -54q-27 -86 -58 -117.5t-73 -31.5t-73 27q-3 3 -13 11t-14 11t-12 8t-14 6.5t-12 1.5q-26 0 -53 -50z" />
    <glyph glyph-name="notequal" unicode="&#x2260;" horiz-adv-x="482" 
d="M454 297h-116l-40 -86h156v-164h-234l-57 -121l-124 72l23 49h-34v164h110l41 86h-151v164h228l57 121l125 -72l-23 -49h39v-164z" />
    <glyph glyph-name="lessequal" unicode="&#x2264;" horiz-adv-x="482" 
d="M454 367v-176l-426 208v110l426 207v-176l-196 -86zM454 164v-164h-426v164h426z" />
    <glyph glyph-name="greaterequal" unicode="&#x2265;" horiz-adv-x="482" 
d="M454 399l-426 -208v176l196 87l-196 86v176l426 -207v-110zM454 164v-164h-426v164h426z" />
    <glyph glyph-name="dotmath" unicode="&#x22c5;" 
d="M143 414q55 0 92 -33.5t37 -90.5t-37 -90.5t-92 -33.5q-56 0 -92.5 33.5t-36.5 90.5t36.5 90.5t92.5 33.5z" />
    <glyph glyph-name="lozenge" unicode="&#x25ca;" horiz-adv-x="564" 
d="M551 363l-210 -363h-122l-206 363l206 363h122zM382 363l-101 174l-99 -174l99 -174z" />
    <glyph glyph-name="Ccommaaccent" unicode="&#xee00;" horiz-adv-x="569" 
d="M327 520q-42 0 -64.5 -48.5t-22.5 -139.5q0 -78 29.5 -124.5t84.5 -46.5q39 0 70.5 11t73.5 39l55 -169q-50 -29 -91.5 -41t-123.5 -12q-139 0 -228.5 94.5t-89.5 256.5q0 176 94.5 264t237.5 88q101 0 196 -42v-234h-179v50q0 30 -9 42t-33 12zM308 -197q-28 4 -45 24
t-17 49q0 35 31.5 57t72.5 22q45 0 69 -30.5t24 -75.5q0 -44 -38 -93.5t-90 -81.5l-66 68q48 39 59 61z" />
    <glyph glyph-name="ccommaaccent" unicode="&#xee01;" horiz-adv-x="468" 
d="M274 317v25q0 14 -8 14q-28 0 -28 -89q0 -38 16.5 -66.5t47.5 -28.5q48 0 94 39l58 -168q-80 -53 -196 -53q-108 0 -174 70t-66 188q0 71 23.5 127.5t61 88.5t79 48t82.5 16q102 0 180 -37v-174h-170zM237 -197q-28 4 -45 24t-17 49q0 35 31.5 57t72.5 22q45 0 69 -30.5
t24 -75.5q0 -44 -38 -93.5t-90 -81.5l-66 68q48 39 59 61z" />
    <glyph glyph-name="zero.fitted" unicode="&#xf639;" horiz-adv-x="544" 
d="M526 335q0 -156 -72 -250.5t-181 -94.5q-117 0 -186 90.5t-69 254.5q0 157 72 250t183 93q121 0 187 -93.5t66 -249.5zM238 335q0 -173 34 -173t34 173q0 171 -34 171t-34 -171z" />
    <glyph glyph-name="two.fitted" unicode="&#xf63a;" horiz-adv-x="510" 
d="M271 159q4 1 13 1h22q13 0 17 5t4 18v13h163v-196h-472v118l112 126q66 73 97 122.5t31 88.5q0 51 -28 51q-29 0 -29 -39v-22h-179v149q52 43 100 63t120 20q102 0 169 -61.5t67 -149.5q0 -53 -31.5 -104.5t-84.5 -110.5l-91 -91v-1z" />
    <glyph glyph-name="three.fitted" unicode="&#xf63b;" horiz-adv-x="501" 
d="M477 189q0 -86 -68 -142.5t-172 -56.5q-73 0 -121 18t-99 58v149h179v-14q0 -39 33 -39q11 0 19.5 12.5t8.5 35.5q0 51 -40 51q-21 0 -71 -3v161h56q20 0 29 10t9 33q0 44 -25 44q-19 0 -19 -31v-14h-179v140q51 40 99 58t121 18q106 0 164.5 -46.5t58.5 -132.5
q0 -58 -42 -98.5t-94 -48.5v-1q58 -5 105.5 -46.5t47.5 -114.5z" />
    <glyph glyph-name="four.fitted" unicode="&#xf63c;" horiz-adv-x="544" 
d="M455 355h61v-147h-61v-8q0 -40 27 -40h34v-160h-355v160h47q27 0 27 40v8h-214l-9 129l224 330h219v-312zM174 355h61v100z" />
    <glyph glyph-name="five.fitted" unicode="&#xf63d;" horiz-adv-x="501" 
d="M257 229q0 38 -24 63.5t-63 25.5q-59 0 -150 -30l16 379h419l-10 -188h-168v12q0 16 -11 16h-67l-3 -57q21 3 47 3q41 0 80.5 -12t75 -36t57 -68t21.5 -102q0 -117 -70 -181t-179 -64q-73 0 -121 18t-99 58v149h179v-14q0 -39 34 -39q16 0 26 18.5t10 48.5z" />
    <glyph glyph-name="six.fitted" unicode="&#xf63e;" horiz-adv-x="544" 
d="M309 225q0 28 -9 45t-24 17q-19 0 -38 -30q-2 -9 -2 -23q0 -34 11.5 -53t25.5 -19q16 0 26 17t10 46zM260 419q19 4 47 4q93 0 157.5 -56t64.5 -148q0 -99 -72.5 -164t-182.5 -65q-123 0 -190.5 75t-67.5 205q0 74 22 141t70 130t136.5 106t208.5 55l26 -169
q-77 -6 -130 -32.5t-89 -81.5z" />
    <glyph glyph-name="seven.fitted" unicode="&#xf63f;" horiz-adv-x="501" 
d="M497 667v-131q-137 -243 -173 -536h-236q44 255 205 507h-76q-10 0 -10 -20v-38h-179v218h469z" />
    <glyph glyph-name="eight.fitted" unicode="&#xf640;" horiz-adv-x="544" 
d="M274 439q35 20 35 51q0 17 -10 27.5t-27 10.5q-16 0 -26 -11t-10 -28q0 -31 38 -50zM315 183q0 20 -11 32t-39 25q-34 -18 -34 -53q0 -22 12 -34.5t32 -12.5q17 0 28.5 12t11.5 31zM426 356h-1q99 -73 99 -176q0 -85 -67.5 -137.5t-181.5 -52.5q-122 0 -187.5 51.5
t-65.5 137.5q0 107 100 171q-82 64 -82 158q0 76 63.5 123t168.5 47q111 0 172 -46t61 -130q0 -75 -79 -146z" />
    <glyph glyph-name="nine.fitted" unicode="&#xf641;" horiz-adv-x="544" 
d="M235 443q0 -29 9 -48.5t24 -19.5q18 0 39 32q1 9 1 28q0 34 -11.5 52.5t-25.5 18.5q-16 0 -26 -17t-10 -46zM284 243q-19 -4 -47 -4q-92 0 -157 58.5t-65 151.5q0 99 72.5 164t182.5 65q123 0 190.5 -75t67.5 -205q0 -74 -22 -142t-70 -132t-136.5 -108t-208.5 -56
l-26 169q77 6 130 32.5t89 81.5z" />
    <glyph glyph-name="unif6c1" unicode="&#xf6c1;" horiz-adv-x="536" 
d="M283 -41q5 1 21 1q57 0 95.5 -32t38.5 -87q0 -71 -59.5 -117t-141.5 -46q-47 0 -109 23l26 88q8 -1 19.5 -4t21.5 -4t25 -1q65 0 65 41q0 46 -59 46q-20 0 -62 -15l21 140q-88 10 -147 38v185h193v-26q0 -49 38 -49q29 0 29 45q0 18 -15.5 33.5t-40 28.5t-54.5 26.5
t-60 32t-54.5 41.5t-40 57.5t-15.5 77.5q0 101 66.5 155.5t189.5 54.5q134 0 213 -46v-178h-192v16q0 56 -31 56q-26 0 -26 -36q0 -22 29 -42t70 -39.5t82 -45t70 -71.5t29 -106q0 -200 -232 -211z" />
    <glyph glyph-name="unif6c2" unicode="&#xf6c2;" horiz-adv-x="464" 
d="M241 -41q5 1 21 1q57 0 95.5 -32t38.5 -87q0 -71 -59.5 -117t-141.5 -46q-47 0 -109 23l26 88q8 -1 19.5 -4t21.5 -4t25 -1q65 0 65 41q0 46 -59 46q-20 0 -62 -15l21 142q-75 9 -116 29v145h161v-15q0 -22 25 -22q28 0 28 21q0 12 -24 22.5t-57.5 23t-67.5 30t-58 50.5
t-24 77q0 79 62.5 126t169.5 47q108 0 189 -34v-135h-162v5q0 22 -24 22t-24 -19q0 -12 24 -23.5t57.5 -24t67.5 -30t58 -51t24 -78.5q0 -74 -57.5 -120.5t-150.5 -50.5z" />
    <glyph glyph-name="commaaccent" unicode="&#xf6c3;" 
d="M112 -197q-28 4 -45 24t-17 49q0 35 31.5 57t72.5 22q45 0 69 -30.5t24 -75.5q0 -44 -38 -93.5t-90 -81.5l-66 68q48 39 59 61z" />
    <glyph glyph-name="one.fitted" unicode="&#xf6dc;" horiz-adv-x="458" 
d="M421 0h-357v160h46q28 0 28 40v230q0 40 -18 40h-52l-25 160h77q45 0 81 37h157v-467q0 -40 27 -40h36v-160z" />
    <glyph glyph-name="threequartersemdash" unicode="&#xf6de;" horiz-adv-x="645" 
d="M537 186h-430v146h430v-146z" />
    <glyph glyph-name="unifb01" unicode="&#xfb01;" horiz-adv-x="738" 
d="M377 544q-26 15 -58 15q-13 0 -20.5 -13t-7.5 -33v-15h127l256 28v-326q0 -40 24 -40h28v-160h-328v160h32q24 0 24 40v98q0 40 -24 40h-139v-138q0 -40 24 -40h37v-160h-337v160h32q24 0 24 40v138h-56v160h56v30q0 93 51.5 149t146.5 56q47 0 73.5 -4.5t62.5 -20.5z
M541 754q52 0 86 -29t34 -78t-34 -78t-86 -29q-51 0 -85 29t-34 78t34 78t85 29z" />
    <glyph glyph-name="unifb02" unicode="&#xfb02;" horiz-adv-x="738" 
d="M332 562q-16 0 -28.5 -13.5t-12.5 -32.5v-18h86l-21 -160h-65v-138q0 -40 24 -40h37v-160h-337v160h32q24 0 24 40v138h-56v160h56v30q0 92 56 148.5t152 56.5q43 0 83 -8h153l159 8v-533q0 -40 24 -40h28v-160h-328v160h32q24 0 24 40v322q0 40 -24 40h-98z" />
    </font>
</defs>
</svg>
